%TF.GenerationSoftware,KiCad,Pcbnew,(5.1.6)-1*%
%TF.CreationDate,2021-09-03T02:09:39-07:00*%
%TF.ProjectId,Rocketboard-9E,526f636b-6574-4626-9f61-72642d39452e,1.0*%
%TF.SameCoordinates,Original*%
%TF.FileFunction,Copper,L2,Bot*%
%TF.FilePolarity,Positive*%
%FSLAX46Y46*%
G04 Gerber Fmt 4.6, Leading zero omitted, Abs format (unit mm)*
G04 Created by KiCad (PCBNEW (5.1.6)-1) date 2021-09-03 02:09:39*
%MOMM*%
%LPD*%
G01*
G04 APERTURE LIST*
%TA.AperFunction,ComponentPad*%
%ADD10C,2.250000*%
%TD*%
%TA.AperFunction,ComponentPad*%
%ADD11O,1.700000X1.700000*%
%TD*%
%TA.AperFunction,ComponentPad*%
%ADD12R,1.700000X1.700000*%
%TD*%
%TA.AperFunction,SMDPad,CuDef*%
%ADD13R,1.200000X0.900000*%
%TD*%
%TA.AperFunction,ViaPad*%
%ADD14C,0.800000*%
%TD*%
%TA.AperFunction,Conductor*%
%ADD15C,0.250000*%
%TD*%
%TA.AperFunction,Conductor*%
%ADD16C,0.254000*%
%TD*%
G04 APERTURE END LIST*
D10*
%TO.P,MX9,2*%
%TO.N,Net-(D9-Pad2)*%
X153990000Y-109770000D03*
%TO.P,MX9,1*%
%TO.N,/col2*%
X147640000Y-112310000D03*
%TD*%
%TO.P,MX8,2*%
%TO.N,Net-(D8-Pad2)*%
X134940000Y-109770000D03*
%TO.P,MX8,1*%
%TO.N,/col1*%
X128590000Y-112310000D03*
%TD*%
%TO.P,MX7,2*%
%TO.N,Net-(D7-Pad2)*%
X115890000Y-109770000D03*
%TO.P,MX7,1*%
%TO.N,/col0*%
X109540000Y-112310000D03*
%TD*%
%TO.P,MX6,2*%
%TO.N,Net-(D6-Pad2)*%
X153990000Y-90720000D03*
%TO.P,MX6,1*%
%TO.N,/col2*%
X147640000Y-93260000D03*
%TD*%
%TO.P,MX5,2*%
%TO.N,Net-(D5-Pad2)*%
X134940000Y-90720000D03*
%TO.P,MX5,1*%
%TO.N,/col1*%
X128590000Y-93260000D03*
%TD*%
%TO.P,MX4,2*%
%TO.N,Net-(D4-Pad2)*%
X115890000Y-90720000D03*
%TO.P,MX4,1*%
%TO.N,/col0*%
X109540000Y-93260000D03*
%TD*%
%TO.P,MX3,2*%
%TO.N,Net-(D3-Pad2)*%
X153990000Y-71670000D03*
%TO.P,MX3,1*%
%TO.N,/col2*%
X147640000Y-74210000D03*
%TD*%
%TO.P,MX2,2*%
%TO.N,Net-(D2-Pad2)*%
X134940000Y-71670000D03*
%TO.P,MX2,1*%
%TO.N,/col1*%
X128590000Y-74210000D03*
%TD*%
%TO.P,MX1,1*%
%TO.N,/col0*%
X109540000Y-74210000D03*
%TO.P,MX1,2*%
%TO.N,Net-(D1-Pad2)*%
X115890000Y-71670000D03*
%TD*%
D11*
%TO.P,J2,20*%
%TO.N,GND*%
X120970000Y-107930000D03*
%TO.P,J2,19*%
%TO.N,Net-(J2-Pad19)*%
X120970000Y-105390000D03*
%TO.P,J2,18*%
%TO.N,GND*%
X120970000Y-102850000D03*
%TO.P,J2,17*%
%TO.N,Net-(J2-Pad17)*%
X120970000Y-100310000D03*
%TO.P,J2,16*%
%TO.N,Net-(J2-Pad16)*%
X120970000Y-97770000D03*
%TO.P,J2,15*%
%TO.N,Net-(J2-Pad15)*%
X120970000Y-95230000D03*
%TO.P,J2,14*%
%TO.N,Net-(J2-Pad14)*%
X120970000Y-92690000D03*
%TO.P,J2,13*%
%TO.N,Net-(J2-Pad13)*%
X120970000Y-90150000D03*
%TO.P,J2,12*%
%TO.N,Net-(J2-Pad12)*%
X120970000Y-87610000D03*
%TO.P,J2,11*%
%TO.N,Net-(J2-Pad11)*%
X120970000Y-85070000D03*
%TO.P,J2,10*%
%TO.N,Net-(J2-Pad10)*%
X120970000Y-82530000D03*
%TO.P,J2,9*%
%TO.N,Net-(J2-Pad9)*%
X120970000Y-79990000D03*
%TO.P,J2,8*%
%TO.N,Net-(J2-Pad8)*%
X120970000Y-77450000D03*
%TO.P,J2,7*%
%TO.N,Net-(J2-Pad7)*%
X120970000Y-74910000D03*
%TO.P,J2,6*%
%TO.N,Net-(J2-Pad6)*%
X120970000Y-72370000D03*
%TO.P,J2,5*%
%TO.N,Net-(J2-Pad5)*%
X120970000Y-69830000D03*
%TO.P,J2,4*%
%TO.N,/col2*%
X120970000Y-67290000D03*
%TO.P,J2,3*%
%TO.N,/col1*%
X120970000Y-64750000D03*
%TO.P,J2,2*%
%TO.N,/col0*%
X120970000Y-62210000D03*
D12*
%TO.P,J2,1*%
%TO.N,Net-(J2-Pad1)*%
X120970000Y-59670000D03*
%TD*%
D11*
%TO.P,J1,20*%
%TO.N,Net-(J1-Pad20)*%
X143830000Y-107930000D03*
%TO.P,J1,19*%
%TO.N,GND*%
X143830000Y-105390000D03*
%TO.P,J1,18*%
%TO.N,Net-(J1-Pad18)*%
X143830000Y-102850000D03*
%TO.P,J1,17*%
%TO.N,/row2*%
X143830000Y-100310000D03*
%TO.P,J1,16*%
%TO.N,/row1*%
X143830000Y-97770000D03*
%TO.P,J1,15*%
%TO.N,/row0*%
X143830000Y-95230000D03*
%TO.P,J1,14*%
%TO.N,Net-(J1-Pad14)*%
X143830000Y-92690000D03*
%TO.P,J1,13*%
%TO.N,Net-(J1-Pad13)*%
X143830000Y-90150000D03*
%TO.P,J1,12*%
%TO.N,Net-(J1-Pad12)*%
X143830000Y-87610000D03*
%TO.P,J1,11*%
%TO.N,Net-(J1-Pad11)*%
X143830000Y-85070000D03*
%TO.P,J1,10*%
%TO.N,Net-(J1-Pad10)*%
X143830000Y-82530000D03*
%TO.P,J1,9*%
%TO.N,Net-(J1-Pad9)*%
X143830000Y-79990000D03*
%TO.P,J1,8*%
%TO.N,Net-(J1-Pad8)*%
X143830000Y-77450000D03*
%TO.P,J1,7*%
%TO.N,Net-(J1-Pad7)*%
X143830000Y-74910000D03*
%TO.P,J1,6*%
%TO.N,Net-(J1-Pad6)*%
X143830000Y-72370000D03*
%TO.P,J1,5*%
%TO.N,Net-(J1-Pad5)*%
X143830000Y-69830000D03*
%TO.P,J1,4*%
%TO.N,Net-(J1-Pad4)*%
X143830000Y-67290000D03*
%TO.P,J1,3*%
%TO.N,Net-(J1-Pad3)*%
X143830000Y-64750000D03*
%TO.P,J1,2*%
%TO.N,Net-(J1-Pad2)*%
X143830000Y-62210000D03*
D12*
%TO.P,J1,1*%
%TO.N,GND*%
X143830000Y-59670000D03*
%TD*%
D13*
%TO.P,D9,2*%
%TO.N,Net-(D9-Pad2)*%
X154600000Y-120250000D03*
%TO.P,D9,1*%
%TO.N,/row2*%
X154600000Y-123550000D03*
%TD*%
%TO.P,D8,2*%
%TO.N,Net-(D8-Pad2)*%
X135550000Y-120250000D03*
%TO.P,D8,1*%
%TO.N,/row2*%
X135550000Y-123550000D03*
%TD*%
%TO.P,D7,2*%
%TO.N,Net-(D7-Pad2)*%
X116500000Y-120250000D03*
%TO.P,D7,1*%
%TO.N,/row2*%
X116500000Y-123550000D03*
%TD*%
%TO.P,D6,2*%
%TO.N,Net-(D6-Pad2)*%
X154600000Y-101200000D03*
%TO.P,D6,1*%
%TO.N,/row1*%
X154600000Y-104500000D03*
%TD*%
%TO.P,D5,2*%
%TO.N,Net-(D5-Pad2)*%
X135550000Y-101200000D03*
%TO.P,D5,1*%
%TO.N,/row1*%
X135550000Y-104500000D03*
%TD*%
%TO.P,D4,2*%
%TO.N,Net-(D4-Pad2)*%
X116500000Y-101200000D03*
%TO.P,D4,1*%
%TO.N,/row1*%
X116500000Y-104500000D03*
%TD*%
%TO.P,D3,2*%
%TO.N,Net-(D3-Pad2)*%
X154600000Y-82150000D03*
%TO.P,D3,1*%
%TO.N,/row0*%
X154600000Y-85450000D03*
%TD*%
%TO.P,D2,2*%
%TO.N,Net-(D2-Pad2)*%
X135550000Y-82150000D03*
%TO.P,D2,1*%
%TO.N,/row0*%
X135550000Y-85450000D03*
%TD*%
%TO.P,D1,2*%
%TO.N,Net-(D1-Pad2)*%
X116500000Y-82150000D03*
%TO.P,D1,1*%
%TO.N,/row0*%
X116500000Y-85450000D03*
%TD*%
D14*
%TO.N,/row2*%
X141000000Y-103300000D03*
X141000000Y-105100000D03*
%TO.N,GND*%
X130500000Y-70700000D03*
X125000000Y-80000000D03*
X138300000Y-92900000D03*
X146500000Y-80800000D03*
X146400000Y-89800000D03*
X146500000Y-99700000D03*
X140200000Y-88300000D03*
%TO.N,/col2*%
X147600000Y-84800000D03*
X147600000Y-87800000D03*
X147700000Y-102900000D03*
X147700000Y-105400000D03*
%TO.N,/col1*%
X128600000Y-85200000D03*
X128600000Y-87400000D03*
X128600000Y-103300000D03*
X128600000Y-105200000D03*
%TD*%
D15*
%TO.N,/row0*%
X134754999Y-86245001D02*
X135550000Y-85450000D01*
X117295001Y-86245001D02*
X134754999Y-86245001D01*
X116500000Y-85450000D02*
X117295001Y-86245001D01*
X153804999Y-86245001D02*
X154600000Y-85450000D01*
X136345001Y-86245001D02*
X153804999Y-86245001D01*
X135550000Y-85450000D02*
X136345001Y-86245001D01*
X136345001Y-87745001D02*
X136345001Y-86245001D01*
X143830000Y-95230000D02*
X136345001Y-87745001D01*
%TO.N,Net-(D1-Pad2)*%
X115890000Y-81540000D02*
X116500000Y-82150000D01*
X115890000Y-71670000D02*
X115890000Y-81540000D01*
%TO.N,Net-(D2-Pad2)*%
X134940000Y-81540000D02*
X135550000Y-82150000D01*
X134940000Y-71670000D02*
X134940000Y-81540000D01*
%TO.N,Net-(D3-Pad2)*%
X153990000Y-81540000D02*
X154600000Y-82150000D01*
X153990000Y-71670000D02*
X153990000Y-81540000D01*
%TO.N,/row1*%
X135264999Y-104214999D02*
X135550000Y-104500000D01*
X116785001Y-104214999D02*
X135264999Y-104214999D01*
X116500000Y-104500000D02*
X116785001Y-104214999D01*
X154314999Y-104214999D02*
X154600000Y-104500000D01*
X135550000Y-104500000D02*
X135835001Y-104214999D01*
X135835001Y-104214999D02*
X139385001Y-104214999D01*
X139385001Y-102214999D02*
X139385001Y-104214999D01*
X143830000Y-97770000D02*
X139385001Y-102214999D01*
X139385001Y-104214999D02*
X154314999Y-104214999D01*
%TO.N,Net-(D4-Pad2)*%
X115890000Y-100590000D02*
X116500000Y-101200000D01*
X115890000Y-90720000D02*
X115890000Y-100590000D01*
%TO.N,Net-(D5-Pad2)*%
X134940000Y-100590000D02*
X135550000Y-101200000D01*
X134940000Y-90720000D02*
X134940000Y-100590000D01*
%TO.N,Net-(D6-Pad2)*%
X153990000Y-100590000D02*
X154600000Y-101200000D01*
X153990000Y-90720000D02*
X153990000Y-100590000D01*
%TO.N,/row2*%
X116500000Y-123550000D02*
X135550000Y-123550000D01*
X135550000Y-123550000D02*
X154600000Y-123550000D01*
X143830000Y-100310000D02*
X141000000Y-103140000D01*
X141000000Y-103140000D02*
X141000000Y-103300000D01*
X141000000Y-118100000D02*
X135550000Y-123550000D01*
X141000000Y-105100000D02*
X141000000Y-118100000D01*
%TO.N,Net-(D7-Pad2)*%
X115890000Y-119640000D02*
X116500000Y-120250000D01*
X115890000Y-109770000D02*
X115890000Y-119640000D01*
%TO.N,Net-(D8-Pad2)*%
X134940000Y-119640000D02*
X135550000Y-120250000D01*
X134940000Y-109770000D02*
X134940000Y-119640000D01*
%TO.N,/col2*%
X147640000Y-74210000D02*
X147640000Y-84760000D01*
X147640000Y-84760000D02*
X147600000Y-84800000D01*
X147600000Y-93220000D02*
X147640000Y-93260000D01*
X147600000Y-87800000D02*
X147600000Y-93220000D01*
X147640000Y-93260000D02*
X147640000Y-102840000D01*
X147640000Y-102840000D02*
X147700000Y-102900000D01*
X147700000Y-112250000D02*
X147640000Y-112310000D01*
X147700000Y-105400000D02*
X147700000Y-112250000D01*
X132706002Y-67290000D02*
X120970000Y-67290000D01*
X139151001Y-73734999D02*
X132706002Y-67290000D01*
X147164999Y-73734999D02*
X139151001Y-73734999D01*
X147640000Y-74210000D02*
X147164999Y-73734999D01*
%TO.N,/col1*%
X128590000Y-74210000D02*
X128590000Y-85190000D01*
X128590000Y-85190000D02*
X128600000Y-85200000D01*
X128600000Y-93250000D02*
X128590000Y-93260000D01*
X128600000Y-87400000D02*
X128600000Y-93250000D01*
X128590000Y-93260000D02*
X128590000Y-103290000D01*
X128590000Y-103290000D02*
X128600000Y-103300000D01*
X128600000Y-112300000D02*
X128590000Y-112310000D01*
X128600000Y-105200000D02*
X128600000Y-112300000D01*
X119794999Y-67854001D02*
X119794999Y-65925001D01*
X119794999Y-65925001D02*
X120970000Y-64750000D01*
X120595997Y-68654999D02*
X119794999Y-67854001D01*
X123034999Y-68654999D02*
X120595997Y-68654999D01*
X128590000Y-74210000D02*
X123034999Y-68654999D01*
%TO.N,/col0*%
X109540000Y-112310000D02*
X109540000Y-93260000D01*
X109540000Y-93260000D02*
X109540000Y-74210000D01*
X109540000Y-74210000D02*
X109540000Y-71760000D01*
X119090000Y-62210000D02*
X120970000Y-62210000D01*
X109540000Y-71760000D02*
X119090000Y-62210000D01*
%TO.N,Net-(D9-Pad2)*%
X153990000Y-119640000D02*
X154600000Y-120250000D01*
X153990000Y-109770000D02*
X153990000Y-119640000D01*
%TD*%
D16*
%TO.N,GND*%
G36*
X170315001Y-133715000D02*
G01*
X94485000Y-133715000D01*
X94485000Y-127551521D01*
X98155979Y-127551521D01*
X98155979Y-127998479D01*
X98243176Y-128436849D01*
X98414220Y-128849785D01*
X98662536Y-129221417D01*
X98978583Y-129537464D01*
X99350215Y-129785780D01*
X99763151Y-129956824D01*
X100201521Y-130044021D01*
X100648479Y-130044021D01*
X101086849Y-129956824D01*
X101499785Y-129785780D01*
X101871417Y-129537464D01*
X102187464Y-129221417D01*
X102435780Y-128849785D01*
X102606824Y-128436849D01*
X102694021Y-127998479D01*
X102694021Y-127551521D01*
X162105979Y-127551521D01*
X162105979Y-127998479D01*
X162193176Y-128436849D01*
X162364220Y-128849785D01*
X162612536Y-129221417D01*
X162928583Y-129537464D01*
X163300215Y-129785780D01*
X163713151Y-129956824D01*
X164151521Y-130044021D01*
X164598479Y-130044021D01*
X165036849Y-129956824D01*
X165449785Y-129785780D01*
X165821417Y-129537464D01*
X166137464Y-129221417D01*
X166385780Y-128849785D01*
X166556824Y-128436849D01*
X166644021Y-127998479D01*
X166644021Y-127551521D01*
X166556824Y-127113151D01*
X166385780Y-126700215D01*
X166137464Y-126328583D01*
X165821417Y-126012536D01*
X165449785Y-125764220D01*
X165036849Y-125593176D01*
X164598479Y-125505979D01*
X164151521Y-125505979D01*
X163713151Y-125593176D01*
X163300215Y-125764220D01*
X162928583Y-126012536D01*
X162612536Y-126328583D01*
X162364220Y-126700215D01*
X162193176Y-127113151D01*
X162105979Y-127551521D01*
X102694021Y-127551521D01*
X102606824Y-127113151D01*
X102435780Y-126700215D01*
X102187464Y-126328583D01*
X101871417Y-126012536D01*
X101499785Y-125764220D01*
X101086849Y-125593176D01*
X100648479Y-125505979D01*
X100201521Y-125505979D01*
X99763151Y-125593176D01*
X99350215Y-125764220D01*
X98978583Y-126012536D01*
X98662536Y-126328583D01*
X98414220Y-126700215D01*
X98243176Y-127113151D01*
X98155979Y-127551521D01*
X94485000Y-127551521D01*
X94485000Y-76601278D01*
X106760000Y-76601278D01*
X106760000Y-76898722D01*
X106818029Y-77190451D01*
X106931856Y-77465253D01*
X107097107Y-77712569D01*
X107307431Y-77922893D01*
X107554747Y-78088144D01*
X107829549Y-78201971D01*
X108121278Y-78260000D01*
X108418722Y-78260000D01*
X108710451Y-78201971D01*
X108780001Y-78173162D01*
X108780000Y-91669792D01*
X108706327Y-91700308D01*
X108418065Y-91892919D01*
X108172919Y-92138065D01*
X107980308Y-92426327D01*
X107847636Y-92746627D01*
X107780000Y-93086655D01*
X107780000Y-93433345D01*
X107847636Y-93773373D01*
X107980308Y-94093673D01*
X108112638Y-94291719D01*
X107829549Y-94348029D01*
X107554747Y-94461856D01*
X107307431Y-94627107D01*
X107097107Y-94837431D01*
X106931856Y-95084747D01*
X106818029Y-95359549D01*
X106760000Y-95651278D01*
X106760000Y-95948722D01*
X106818029Y-96240451D01*
X106931856Y-96515253D01*
X107097107Y-96762569D01*
X107307431Y-96972893D01*
X107554747Y-97138144D01*
X107829549Y-97251971D01*
X108121278Y-97310000D01*
X108418722Y-97310000D01*
X108710451Y-97251971D01*
X108780001Y-97223162D01*
X108780000Y-110719792D01*
X108706327Y-110750308D01*
X108418065Y-110942919D01*
X108172919Y-111188065D01*
X107980308Y-111476327D01*
X107847636Y-111796627D01*
X107780000Y-112136655D01*
X107780000Y-112483345D01*
X107847636Y-112823373D01*
X107980308Y-113143673D01*
X108112638Y-113341719D01*
X107829549Y-113398029D01*
X107554747Y-113511856D01*
X107307431Y-113677107D01*
X107097107Y-113887431D01*
X106931856Y-114134747D01*
X106818029Y-114409549D01*
X106760000Y-114701278D01*
X106760000Y-114998722D01*
X106818029Y-115290451D01*
X106931856Y-115565253D01*
X107097107Y-115812569D01*
X107307431Y-116022893D01*
X107554747Y-116188144D01*
X107829549Y-116301971D01*
X108121278Y-116360000D01*
X108418722Y-116360000D01*
X108710451Y-116301971D01*
X108985253Y-116188144D01*
X109232569Y-116022893D01*
X109442893Y-115812569D01*
X109608144Y-115565253D01*
X109721971Y-115290451D01*
X109780000Y-114998722D01*
X109780000Y-114701278D01*
X109758080Y-114591076D01*
X110721100Y-114591076D01*
X110721100Y-115108924D01*
X110822127Y-115616822D01*
X111020299Y-116095251D01*
X111308000Y-116525826D01*
X111674174Y-116892000D01*
X112104749Y-117179701D01*
X112583178Y-117377873D01*
X113091076Y-117478900D01*
X113608924Y-117478900D01*
X114116822Y-117377873D01*
X114595251Y-117179701D01*
X115025826Y-116892000D01*
X115130001Y-116787825D01*
X115130001Y-119602668D01*
X115126324Y-119640000D01*
X115130001Y-119677333D01*
X115136075Y-119738997D01*
X115140998Y-119788985D01*
X115184454Y-119932246D01*
X115255026Y-120064276D01*
X115261928Y-120072686D01*
X115261928Y-120700000D01*
X115274188Y-120824482D01*
X115310498Y-120944180D01*
X115369463Y-121054494D01*
X115448815Y-121151185D01*
X115545506Y-121230537D01*
X115655820Y-121289502D01*
X115775518Y-121325812D01*
X115900000Y-121338072D01*
X117100000Y-121338072D01*
X117224482Y-121325812D01*
X117344180Y-121289502D01*
X117454494Y-121230537D01*
X117551185Y-121151185D01*
X117630537Y-121054494D01*
X117689502Y-120944180D01*
X117725812Y-120824482D01*
X117738072Y-120700000D01*
X117738072Y-119800000D01*
X117725812Y-119675518D01*
X117689502Y-119555820D01*
X117630537Y-119445506D01*
X117551185Y-119348815D01*
X117454494Y-119269463D01*
X117344180Y-119210498D01*
X117224482Y-119174188D01*
X117100000Y-119161928D01*
X116650000Y-119161928D01*
X116650000Y-114701278D01*
X116920000Y-114701278D01*
X116920000Y-114998722D01*
X116978029Y-115290451D01*
X117091856Y-115565253D01*
X117257107Y-115812569D01*
X117467431Y-116022893D01*
X117714747Y-116188144D01*
X117989549Y-116301971D01*
X118281278Y-116360000D01*
X118578722Y-116360000D01*
X118870451Y-116301971D01*
X119145253Y-116188144D01*
X119392569Y-116022893D01*
X119602893Y-115812569D01*
X119768144Y-115565253D01*
X119881971Y-115290451D01*
X119940000Y-114998722D01*
X119940000Y-114701278D01*
X119881971Y-114409549D01*
X119768144Y-114134747D01*
X119602893Y-113887431D01*
X119392569Y-113677107D01*
X119145253Y-113511856D01*
X118870451Y-113398029D01*
X118578722Y-113340000D01*
X118281278Y-113340000D01*
X117989549Y-113398029D01*
X117714747Y-113511856D01*
X117467431Y-113677107D01*
X117257107Y-113887431D01*
X117091856Y-114134747D01*
X116978029Y-114409549D01*
X116920000Y-114701278D01*
X116650000Y-114701278D01*
X116650000Y-111360208D01*
X116723673Y-111329692D01*
X117011935Y-111137081D01*
X117257081Y-110891935D01*
X117449692Y-110603673D01*
X117582364Y-110283373D01*
X117650000Y-109943345D01*
X117650000Y-109596655D01*
X117582364Y-109256627D01*
X117449692Y-108936327D01*
X117257081Y-108648065D01*
X117011935Y-108402919D01*
X116838286Y-108286890D01*
X119528524Y-108286890D01*
X119573175Y-108434099D01*
X119698359Y-108696920D01*
X119872412Y-108930269D01*
X120088645Y-109125178D01*
X120338748Y-109274157D01*
X120613109Y-109371481D01*
X120843000Y-109250814D01*
X120843000Y-108057000D01*
X121097000Y-108057000D01*
X121097000Y-109250814D01*
X121326891Y-109371481D01*
X121601252Y-109274157D01*
X121851355Y-109125178D01*
X122067588Y-108930269D01*
X122241641Y-108696920D01*
X122366825Y-108434099D01*
X122411476Y-108286890D01*
X122290155Y-108057000D01*
X121097000Y-108057000D01*
X120843000Y-108057000D01*
X119649845Y-108057000D01*
X119528524Y-108286890D01*
X116838286Y-108286890D01*
X116723673Y-108210308D01*
X116403373Y-108077636D01*
X116063345Y-108010000D01*
X115716655Y-108010000D01*
X115376627Y-108077636D01*
X115056327Y-108210308D01*
X114768065Y-108402919D01*
X114522919Y-108648065D01*
X114330308Y-108936327D01*
X114197636Y-109256627D01*
X114130000Y-109596655D01*
X114130000Y-109943345D01*
X114197636Y-110283373D01*
X114330308Y-110603673D01*
X114522919Y-110891935D01*
X114768065Y-111137081D01*
X115056327Y-111329692D01*
X115130000Y-111360208D01*
X115130000Y-112912174D01*
X115025826Y-112808000D01*
X114595251Y-112520299D01*
X114116822Y-112322127D01*
X113608924Y-112221100D01*
X113091076Y-112221100D01*
X112583178Y-112322127D01*
X112104749Y-112520299D01*
X111674174Y-112808000D01*
X111308000Y-113174174D01*
X111020299Y-113604749D01*
X110822127Y-114083178D01*
X110721100Y-114591076D01*
X109758080Y-114591076D01*
X109721971Y-114409549D01*
X109608144Y-114134747D01*
X109564882Y-114070000D01*
X109713345Y-114070000D01*
X110053373Y-114002364D01*
X110373673Y-113869692D01*
X110661935Y-113677081D01*
X110907081Y-113431935D01*
X111099692Y-113143673D01*
X111232364Y-112823373D01*
X111300000Y-112483345D01*
X111300000Y-112136655D01*
X111232364Y-111796627D01*
X111099692Y-111476327D01*
X110907081Y-111188065D01*
X110661935Y-110942919D01*
X110373673Y-110750308D01*
X110300000Y-110719792D01*
X110300000Y-95541076D01*
X110721100Y-95541076D01*
X110721100Y-96058924D01*
X110822127Y-96566822D01*
X111020299Y-97045251D01*
X111308000Y-97475826D01*
X111674174Y-97842000D01*
X112104749Y-98129701D01*
X112583178Y-98327873D01*
X113091076Y-98428900D01*
X113608924Y-98428900D01*
X114116822Y-98327873D01*
X114595251Y-98129701D01*
X115025826Y-97842000D01*
X115130001Y-97737825D01*
X115130001Y-100552668D01*
X115126324Y-100590000D01*
X115130001Y-100627333D01*
X115136075Y-100688997D01*
X115140998Y-100738985D01*
X115184454Y-100882246D01*
X115255026Y-101014276D01*
X115261928Y-101022686D01*
X115261928Y-101650000D01*
X115274188Y-101774482D01*
X115310498Y-101894180D01*
X115369463Y-102004494D01*
X115448815Y-102101185D01*
X115545506Y-102180537D01*
X115655820Y-102239502D01*
X115775518Y-102275812D01*
X115900000Y-102288072D01*
X117100000Y-102288072D01*
X117224482Y-102275812D01*
X117344180Y-102239502D01*
X117454494Y-102180537D01*
X117551185Y-102101185D01*
X117630537Y-102004494D01*
X117689502Y-101894180D01*
X117725812Y-101774482D01*
X117738072Y-101650000D01*
X117738072Y-100750000D01*
X117725812Y-100625518D01*
X117689502Y-100505820D01*
X117630537Y-100395506D01*
X117551185Y-100298815D01*
X117454494Y-100219463D01*
X117344180Y-100160498D01*
X117224482Y-100124188D01*
X117100000Y-100111928D01*
X116650000Y-100111928D01*
X116650000Y-92310208D01*
X116723673Y-92279692D01*
X117011935Y-92087081D01*
X117257081Y-91841935D01*
X117449692Y-91553673D01*
X117582364Y-91233373D01*
X117650000Y-90893345D01*
X117650000Y-90546655D01*
X117582364Y-90206627D01*
X117449692Y-89886327D01*
X117257081Y-89598065D01*
X117011935Y-89352919D01*
X116723673Y-89160308D01*
X116403373Y-89027636D01*
X116063345Y-88960000D01*
X115716655Y-88960000D01*
X115376627Y-89027636D01*
X115056327Y-89160308D01*
X114768065Y-89352919D01*
X114522919Y-89598065D01*
X114330308Y-89886327D01*
X114197636Y-90206627D01*
X114130000Y-90546655D01*
X114130000Y-90893345D01*
X114197636Y-91233373D01*
X114330308Y-91553673D01*
X114522919Y-91841935D01*
X114768065Y-92087081D01*
X115056327Y-92279692D01*
X115130000Y-92310208D01*
X115130000Y-93862174D01*
X115025826Y-93758000D01*
X114595251Y-93470299D01*
X114116822Y-93272127D01*
X113608924Y-93171100D01*
X113091076Y-93171100D01*
X112583178Y-93272127D01*
X112104749Y-93470299D01*
X111674174Y-93758000D01*
X111308000Y-94124174D01*
X111020299Y-94554749D01*
X110822127Y-95033178D01*
X110721100Y-95541076D01*
X110300000Y-95541076D01*
X110300000Y-94850208D01*
X110373673Y-94819692D01*
X110661935Y-94627081D01*
X110907081Y-94381935D01*
X111099692Y-94093673D01*
X111232364Y-93773373D01*
X111300000Y-93433345D01*
X111300000Y-93086655D01*
X111232364Y-92746627D01*
X111099692Y-92426327D01*
X110907081Y-92138065D01*
X110661935Y-91892919D01*
X110373673Y-91700308D01*
X110300000Y-91669792D01*
X110300000Y-76491076D01*
X110721100Y-76491076D01*
X110721100Y-77008924D01*
X110822127Y-77516822D01*
X111020299Y-77995251D01*
X111308000Y-78425826D01*
X111674174Y-78792000D01*
X112104749Y-79079701D01*
X112583178Y-79277873D01*
X113091076Y-79378900D01*
X113608924Y-79378900D01*
X114116822Y-79277873D01*
X114595251Y-79079701D01*
X115025826Y-78792000D01*
X115130001Y-78687825D01*
X115130001Y-81502668D01*
X115126324Y-81540000D01*
X115130001Y-81577333D01*
X115136075Y-81638997D01*
X115140998Y-81688985D01*
X115184454Y-81832246D01*
X115255026Y-81964276D01*
X115261928Y-81972686D01*
X115261928Y-82600000D01*
X115274188Y-82724482D01*
X115310498Y-82844180D01*
X115369463Y-82954494D01*
X115448815Y-83051185D01*
X115545506Y-83130537D01*
X115655820Y-83189502D01*
X115775518Y-83225812D01*
X115900000Y-83238072D01*
X117100000Y-83238072D01*
X117224482Y-83225812D01*
X117344180Y-83189502D01*
X117454494Y-83130537D01*
X117551185Y-83051185D01*
X117630537Y-82954494D01*
X117689502Y-82844180D01*
X117725812Y-82724482D01*
X117738072Y-82600000D01*
X117738072Y-81700000D01*
X117725812Y-81575518D01*
X117689502Y-81455820D01*
X117630537Y-81345506D01*
X117551185Y-81248815D01*
X117454494Y-81169463D01*
X117344180Y-81110498D01*
X117224482Y-81074188D01*
X117100000Y-81061928D01*
X116650000Y-81061928D01*
X116650000Y-73260208D01*
X116723673Y-73229692D01*
X117011935Y-73037081D01*
X117257081Y-72791935D01*
X117449692Y-72503673D01*
X117582364Y-72183373D01*
X117650000Y-71843345D01*
X117650000Y-71496655D01*
X117582364Y-71156627D01*
X117449692Y-70836327D01*
X117257081Y-70548065D01*
X117011935Y-70302919D01*
X116723673Y-70110308D01*
X116403373Y-69977636D01*
X116063345Y-69910000D01*
X115716655Y-69910000D01*
X115376627Y-69977636D01*
X115056327Y-70110308D01*
X114768065Y-70302919D01*
X114522919Y-70548065D01*
X114330308Y-70836327D01*
X114197636Y-71156627D01*
X114130000Y-71496655D01*
X114130000Y-71843345D01*
X114197636Y-72183373D01*
X114330308Y-72503673D01*
X114522919Y-72791935D01*
X114768065Y-73037081D01*
X115056327Y-73229692D01*
X115130000Y-73260208D01*
X115130000Y-74812174D01*
X115025826Y-74708000D01*
X114595251Y-74420299D01*
X114116822Y-74222127D01*
X113608924Y-74121100D01*
X113091076Y-74121100D01*
X112583178Y-74222127D01*
X112104749Y-74420299D01*
X111674174Y-74708000D01*
X111308000Y-75074174D01*
X111020299Y-75504749D01*
X110822127Y-75983178D01*
X110721100Y-76491076D01*
X110300000Y-76491076D01*
X110300000Y-75800208D01*
X110373673Y-75769692D01*
X110661935Y-75577081D01*
X110907081Y-75331935D01*
X111099692Y-75043673D01*
X111232364Y-74723373D01*
X111300000Y-74383345D01*
X111300000Y-74036655D01*
X111232364Y-73696627D01*
X111099692Y-73376327D01*
X110907081Y-73088065D01*
X110661935Y-72842919D01*
X110373673Y-72650308D01*
X110300000Y-72619792D01*
X110300000Y-72074801D01*
X119404802Y-62970000D01*
X119691822Y-62970000D01*
X119816525Y-63156632D01*
X120023368Y-63363475D01*
X120197760Y-63480000D01*
X120023368Y-63596525D01*
X119816525Y-63803368D01*
X119654010Y-64046589D01*
X119542068Y-64316842D01*
X119485000Y-64603740D01*
X119485000Y-64896260D01*
X119528791Y-65116408D01*
X119283997Y-65361202D01*
X119254999Y-65385000D01*
X119231201Y-65413998D01*
X119231200Y-65413999D01*
X119160025Y-65500725D01*
X119089453Y-65632755D01*
X119045997Y-65776016D01*
X119031323Y-65925001D01*
X119035000Y-65962333D01*
X119034999Y-67816678D01*
X119031323Y-67854001D01*
X119034999Y-67891323D01*
X119034999Y-67891333D01*
X119045996Y-68002986D01*
X119072755Y-68091200D01*
X119089453Y-68146247D01*
X119160025Y-68278277D01*
X119199870Y-68326827D01*
X119254998Y-68394002D01*
X119284001Y-68417804D01*
X119789704Y-68923508D01*
X119654010Y-69126589D01*
X119542068Y-69396842D01*
X119485000Y-69683740D01*
X119485000Y-69976260D01*
X119542068Y-70263158D01*
X119654010Y-70533411D01*
X119816525Y-70776632D01*
X120023368Y-70983475D01*
X120197760Y-71100000D01*
X120023368Y-71216525D01*
X119816525Y-71423368D01*
X119654010Y-71666589D01*
X119542068Y-71936842D01*
X119485000Y-72223740D01*
X119485000Y-72516260D01*
X119542068Y-72803158D01*
X119654010Y-73073411D01*
X119816525Y-73316632D01*
X120023368Y-73523475D01*
X120197760Y-73640000D01*
X120023368Y-73756525D01*
X119816525Y-73963368D01*
X119654010Y-74206589D01*
X119542068Y-74476842D01*
X119485000Y-74763740D01*
X119485000Y-75056260D01*
X119542068Y-75343158D01*
X119654010Y-75613411D01*
X119816525Y-75856632D01*
X120023368Y-76063475D01*
X120197760Y-76180000D01*
X120023368Y-76296525D01*
X119903270Y-76416623D01*
X119881971Y-76309549D01*
X119768144Y-76034747D01*
X119602893Y-75787431D01*
X119392569Y-75577107D01*
X119145253Y-75411856D01*
X118870451Y-75298029D01*
X118578722Y-75240000D01*
X118281278Y-75240000D01*
X117989549Y-75298029D01*
X117714747Y-75411856D01*
X117467431Y-75577107D01*
X117257107Y-75787431D01*
X117091856Y-76034747D01*
X116978029Y-76309549D01*
X116920000Y-76601278D01*
X116920000Y-76898722D01*
X116978029Y-77190451D01*
X117091856Y-77465253D01*
X117257107Y-77712569D01*
X117467431Y-77922893D01*
X117714747Y-78088144D01*
X117989549Y-78201971D01*
X118281278Y-78260000D01*
X118578722Y-78260000D01*
X118870451Y-78201971D01*
X119145253Y-78088144D01*
X119392569Y-77922893D01*
X119523857Y-77791605D01*
X119542068Y-77883158D01*
X119654010Y-78153411D01*
X119816525Y-78396632D01*
X120023368Y-78603475D01*
X120197760Y-78720000D01*
X120023368Y-78836525D01*
X119816525Y-79043368D01*
X119654010Y-79286589D01*
X119542068Y-79556842D01*
X119485000Y-79843740D01*
X119485000Y-80136260D01*
X119542068Y-80423158D01*
X119654010Y-80693411D01*
X119816525Y-80936632D01*
X120023368Y-81143475D01*
X120197760Y-81260000D01*
X120023368Y-81376525D01*
X119816525Y-81583368D01*
X119654010Y-81826589D01*
X119542068Y-82096842D01*
X119485000Y-82383740D01*
X119485000Y-82676260D01*
X119542068Y-82963158D01*
X119654010Y-83233411D01*
X119816525Y-83476632D01*
X120023368Y-83683475D01*
X120197760Y-83800000D01*
X120023368Y-83916525D01*
X119816525Y-84123368D01*
X119654010Y-84366589D01*
X119542068Y-84636842D01*
X119485000Y-84923740D01*
X119485000Y-85216260D01*
X119538456Y-85485001D01*
X117738072Y-85485001D01*
X117738072Y-85000000D01*
X117725812Y-84875518D01*
X117689502Y-84755820D01*
X117630537Y-84645506D01*
X117551185Y-84548815D01*
X117454494Y-84469463D01*
X117344180Y-84410498D01*
X117224482Y-84374188D01*
X117100000Y-84361928D01*
X115900000Y-84361928D01*
X115775518Y-84374188D01*
X115655820Y-84410498D01*
X115545506Y-84469463D01*
X115448815Y-84548815D01*
X115369463Y-84645506D01*
X115310498Y-84755820D01*
X115274188Y-84875518D01*
X115261928Y-85000000D01*
X115261928Y-85900000D01*
X115274188Y-86024482D01*
X115310498Y-86144180D01*
X115369463Y-86254494D01*
X115448815Y-86351185D01*
X115545506Y-86430537D01*
X115655820Y-86489502D01*
X115775518Y-86525812D01*
X115900000Y-86538072D01*
X116513270Y-86538072D01*
X116731202Y-86756003D01*
X116755000Y-86785002D01*
X116870725Y-86879975D01*
X117002754Y-86950547D01*
X117146015Y-86994004D01*
X117257668Y-87005001D01*
X117257677Y-87005001D01*
X117295000Y-87008677D01*
X117332323Y-87005001D01*
X119613247Y-87005001D01*
X119542068Y-87176842D01*
X119485000Y-87463740D01*
X119485000Y-87756260D01*
X119542068Y-88043158D01*
X119654010Y-88313411D01*
X119816525Y-88556632D01*
X120023368Y-88763475D01*
X120197760Y-88880000D01*
X120023368Y-88996525D01*
X119816525Y-89203368D01*
X119654010Y-89446589D01*
X119542068Y-89716842D01*
X119485000Y-90003740D01*
X119485000Y-90296260D01*
X119542068Y-90583158D01*
X119654010Y-90853411D01*
X119816525Y-91096632D01*
X120023368Y-91303475D01*
X120197760Y-91420000D01*
X120023368Y-91536525D01*
X119816525Y-91743368D01*
X119654010Y-91986589D01*
X119542068Y-92256842D01*
X119485000Y-92543740D01*
X119485000Y-92836260D01*
X119542068Y-93123158D01*
X119654010Y-93393411D01*
X119816525Y-93636632D01*
X120023368Y-93843475D01*
X120197760Y-93960000D01*
X120023368Y-94076525D01*
X119816525Y-94283368D01*
X119654010Y-94526589D01*
X119547995Y-94782533D01*
X119392569Y-94627107D01*
X119145253Y-94461856D01*
X118870451Y-94348029D01*
X118578722Y-94290000D01*
X118281278Y-94290000D01*
X117989549Y-94348029D01*
X117714747Y-94461856D01*
X117467431Y-94627107D01*
X117257107Y-94837431D01*
X117091856Y-95084747D01*
X116978029Y-95359549D01*
X116920000Y-95651278D01*
X116920000Y-95948722D01*
X116978029Y-96240451D01*
X117091856Y-96515253D01*
X117257107Y-96762569D01*
X117467431Y-96972893D01*
X117714747Y-97138144D01*
X117989549Y-97251971D01*
X118281278Y-97310000D01*
X118578722Y-97310000D01*
X118870451Y-97251971D01*
X119145253Y-97138144D01*
X119392569Y-96972893D01*
X119602893Y-96762569D01*
X119768144Y-96515253D01*
X119881494Y-96241601D01*
X120023368Y-96383475D01*
X120197760Y-96500000D01*
X120023368Y-96616525D01*
X119816525Y-96823368D01*
X119654010Y-97066589D01*
X119542068Y-97336842D01*
X119485000Y-97623740D01*
X119485000Y-97916260D01*
X119542068Y-98203158D01*
X119654010Y-98473411D01*
X119816525Y-98716632D01*
X120023368Y-98923475D01*
X120197760Y-99040000D01*
X120023368Y-99156525D01*
X119816525Y-99363368D01*
X119654010Y-99606589D01*
X119542068Y-99876842D01*
X119485000Y-100163740D01*
X119485000Y-100456260D01*
X119542068Y-100743158D01*
X119654010Y-101013411D01*
X119816525Y-101256632D01*
X120023368Y-101463475D01*
X120205534Y-101585195D01*
X120088645Y-101654822D01*
X119872412Y-101849731D01*
X119698359Y-102083080D01*
X119573175Y-102345901D01*
X119528524Y-102493110D01*
X119649845Y-102723000D01*
X120843000Y-102723000D01*
X120843000Y-102703000D01*
X121097000Y-102703000D01*
X121097000Y-102723000D01*
X122290155Y-102723000D01*
X122411476Y-102493110D01*
X122366825Y-102345901D01*
X122241641Y-102083080D01*
X122067588Y-101849731D01*
X121851355Y-101654822D01*
X121734466Y-101585195D01*
X121916632Y-101463475D01*
X122123475Y-101256632D01*
X122285990Y-101013411D01*
X122397932Y-100743158D01*
X122455000Y-100456260D01*
X122455000Y-100163740D01*
X122397932Y-99876842D01*
X122285990Y-99606589D01*
X122123475Y-99363368D01*
X121916632Y-99156525D01*
X121742240Y-99040000D01*
X121916632Y-98923475D01*
X122123475Y-98716632D01*
X122285990Y-98473411D01*
X122397932Y-98203158D01*
X122455000Y-97916260D01*
X122455000Y-97623740D01*
X122397932Y-97336842D01*
X122285990Y-97066589D01*
X122123475Y-96823368D01*
X121916632Y-96616525D01*
X121742240Y-96500000D01*
X121916632Y-96383475D01*
X122123475Y-96176632D01*
X122285990Y-95933411D01*
X122397932Y-95663158D01*
X122455000Y-95376260D01*
X122455000Y-95083740D01*
X122397932Y-94796842D01*
X122285990Y-94526589D01*
X122123475Y-94283368D01*
X121916632Y-94076525D01*
X121742240Y-93960000D01*
X121916632Y-93843475D01*
X122123475Y-93636632D01*
X122285990Y-93393411D01*
X122397932Y-93123158D01*
X122455000Y-92836260D01*
X122455000Y-92543740D01*
X122397932Y-92256842D01*
X122285990Y-91986589D01*
X122123475Y-91743368D01*
X121916632Y-91536525D01*
X121742240Y-91420000D01*
X121916632Y-91303475D01*
X122123475Y-91096632D01*
X122285990Y-90853411D01*
X122397932Y-90583158D01*
X122455000Y-90296260D01*
X122455000Y-90003740D01*
X122397932Y-89716842D01*
X122285990Y-89446589D01*
X122123475Y-89203368D01*
X121916632Y-88996525D01*
X121742240Y-88880000D01*
X121916632Y-88763475D01*
X122123475Y-88556632D01*
X122285990Y-88313411D01*
X122397932Y-88043158D01*
X122455000Y-87756260D01*
X122455000Y-87463740D01*
X122397932Y-87176842D01*
X122326753Y-87005001D01*
X127643338Y-87005001D01*
X127604774Y-87098102D01*
X127565000Y-87298061D01*
X127565000Y-87501939D01*
X127604774Y-87701898D01*
X127682795Y-87890256D01*
X127796063Y-88059774D01*
X127840000Y-88103711D01*
X127840001Y-91665649D01*
X127756327Y-91700308D01*
X127468065Y-91892919D01*
X127222919Y-92138065D01*
X127030308Y-92426327D01*
X126897636Y-92746627D01*
X126830000Y-93086655D01*
X126830000Y-93433345D01*
X126897636Y-93773373D01*
X127030308Y-94093673D01*
X127162638Y-94291719D01*
X126879549Y-94348029D01*
X126604747Y-94461856D01*
X126357431Y-94627107D01*
X126147107Y-94837431D01*
X125981856Y-95084747D01*
X125868029Y-95359549D01*
X125810000Y-95651278D01*
X125810000Y-95948722D01*
X125868029Y-96240451D01*
X125981856Y-96515253D01*
X126147107Y-96762569D01*
X126357431Y-96972893D01*
X126604747Y-97138144D01*
X126879549Y-97251971D01*
X127171278Y-97310000D01*
X127468722Y-97310000D01*
X127760451Y-97251971D01*
X127830000Y-97223163D01*
X127830001Y-102606288D01*
X127796063Y-102640226D01*
X127682795Y-102809744D01*
X127604774Y-102998102D01*
X127565000Y-103198061D01*
X127565000Y-103401939D01*
X127575554Y-103454999D01*
X122318765Y-103454999D01*
X122366825Y-103354099D01*
X122411476Y-103206890D01*
X122290155Y-102977000D01*
X121097000Y-102977000D01*
X121097000Y-102997000D01*
X120843000Y-102997000D01*
X120843000Y-102977000D01*
X119649845Y-102977000D01*
X119528524Y-103206890D01*
X119573175Y-103354099D01*
X119621235Y-103454999D01*
X117326052Y-103454999D01*
X117224482Y-103424188D01*
X117100000Y-103411928D01*
X115900000Y-103411928D01*
X115775518Y-103424188D01*
X115655820Y-103460498D01*
X115545506Y-103519463D01*
X115448815Y-103598815D01*
X115369463Y-103695506D01*
X115310498Y-103805820D01*
X115274188Y-103925518D01*
X115261928Y-104050000D01*
X115261928Y-104950000D01*
X115274188Y-105074482D01*
X115310498Y-105194180D01*
X115369463Y-105304494D01*
X115448815Y-105401185D01*
X115545506Y-105480537D01*
X115655820Y-105539502D01*
X115775518Y-105575812D01*
X115900000Y-105588072D01*
X117100000Y-105588072D01*
X117224482Y-105575812D01*
X117344180Y-105539502D01*
X117454494Y-105480537D01*
X117551185Y-105401185D01*
X117630537Y-105304494D01*
X117689502Y-105194180D01*
X117725812Y-105074482D01*
X117735610Y-104974999D01*
X119538456Y-104974999D01*
X119485000Y-105243740D01*
X119485000Y-105536260D01*
X119542068Y-105823158D01*
X119654010Y-106093411D01*
X119816525Y-106336632D01*
X120023368Y-106543475D01*
X120205534Y-106665195D01*
X120088645Y-106734822D01*
X119872412Y-106929731D01*
X119698359Y-107163080D01*
X119573175Y-107425901D01*
X119528524Y-107573110D01*
X119649845Y-107803000D01*
X120843000Y-107803000D01*
X120843000Y-107783000D01*
X121097000Y-107783000D01*
X121097000Y-107803000D01*
X122290155Y-107803000D01*
X122411476Y-107573110D01*
X122366825Y-107425901D01*
X122241641Y-107163080D01*
X122067588Y-106929731D01*
X121851355Y-106734822D01*
X121734466Y-106665195D01*
X121916632Y-106543475D01*
X122123475Y-106336632D01*
X122285990Y-106093411D01*
X122397932Y-105823158D01*
X122455000Y-105536260D01*
X122455000Y-105243740D01*
X122401544Y-104974999D01*
X127589478Y-104974999D01*
X127565000Y-105098061D01*
X127565000Y-105301939D01*
X127604774Y-105501898D01*
X127682795Y-105690256D01*
X127796063Y-105859774D01*
X127840000Y-105903711D01*
X127840001Y-110715649D01*
X127756327Y-110750308D01*
X127468065Y-110942919D01*
X127222919Y-111188065D01*
X127030308Y-111476327D01*
X126897636Y-111796627D01*
X126830000Y-112136655D01*
X126830000Y-112483345D01*
X126897636Y-112823373D01*
X127030308Y-113143673D01*
X127162638Y-113341719D01*
X126879549Y-113398029D01*
X126604747Y-113511856D01*
X126357431Y-113677107D01*
X126147107Y-113887431D01*
X125981856Y-114134747D01*
X125868029Y-114409549D01*
X125810000Y-114701278D01*
X125810000Y-114998722D01*
X125868029Y-115290451D01*
X125981856Y-115565253D01*
X126147107Y-115812569D01*
X126357431Y-116022893D01*
X126604747Y-116188144D01*
X126879549Y-116301971D01*
X127171278Y-116360000D01*
X127468722Y-116360000D01*
X127760451Y-116301971D01*
X128035253Y-116188144D01*
X128282569Y-116022893D01*
X128492893Y-115812569D01*
X128658144Y-115565253D01*
X128771971Y-115290451D01*
X128830000Y-114998722D01*
X128830000Y-114701278D01*
X128808080Y-114591076D01*
X129771100Y-114591076D01*
X129771100Y-115108924D01*
X129872127Y-115616822D01*
X130070299Y-116095251D01*
X130358000Y-116525826D01*
X130724174Y-116892000D01*
X131154749Y-117179701D01*
X131633178Y-117377873D01*
X132141076Y-117478900D01*
X132658924Y-117478900D01*
X133166822Y-117377873D01*
X133645251Y-117179701D01*
X134075826Y-116892000D01*
X134180001Y-116787825D01*
X134180001Y-119602668D01*
X134176324Y-119640000D01*
X134180001Y-119677333D01*
X134186075Y-119738997D01*
X134190998Y-119788985D01*
X134234454Y-119932246D01*
X134305026Y-120064276D01*
X134311928Y-120072686D01*
X134311928Y-120700000D01*
X134324188Y-120824482D01*
X134360498Y-120944180D01*
X134419463Y-121054494D01*
X134498815Y-121151185D01*
X134595506Y-121230537D01*
X134705820Y-121289502D01*
X134825518Y-121325812D01*
X134950000Y-121338072D01*
X136150000Y-121338072D01*
X136274482Y-121325812D01*
X136394180Y-121289502D01*
X136504494Y-121230537D01*
X136601185Y-121151185D01*
X136680537Y-121054494D01*
X136739502Y-120944180D01*
X136775812Y-120824482D01*
X136788072Y-120700000D01*
X136788072Y-119800000D01*
X136775812Y-119675518D01*
X136739502Y-119555820D01*
X136680537Y-119445506D01*
X136601185Y-119348815D01*
X136504494Y-119269463D01*
X136394180Y-119210498D01*
X136274482Y-119174188D01*
X136150000Y-119161928D01*
X135700000Y-119161928D01*
X135700000Y-114701278D01*
X135970000Y-114701278D01*
X135970000Y-114998722D01*
X136028029Y-115290451D01*
X136141856Y-115565253D01*
X136307107Y-115812569D01*
X136517431Y-116022893D01*
X136764747Y-116188144D01*
X137039549Y-116301971D01*
X137331278Y-116360000D01*
X137628722Y-116360000D01*
X137920451Y-116301971D01*
X138195253Y-116188144D01*
X138442569Y-116022893D01*
X138652893Y-115812569D01*
X138818144Y-115565253D01*
X138931971Y-115290451D01*
X138990000Y-114998722D01*
X138990000Y-114701278D01*
X138931971Y-114409549D01*
X138818144Y-114134747D01*
X138652893Y-113887431D01*
X138442569Y-113677107D01*
X138195253Y-113511856D01*
X137920451Y-113398029D01*
X137628722Y-113340000D01*
X137331278Y-113340000D01*
X137039549Y-113398029D01*
X136764747Y-113511856D01*
X136517431Y-113677107D01*
X136307107Y-113887431D01*
X136141856Y-114134747D01*
X136028029Y-114409549D01*
X135970000Y-114701278D01*
X135700000Y-114701278D01*
X135700000Y-111360208D01*
X135773673Y-111329692D01*
X136061935Y-111137081D01*
X136307081Y-110891935D01*
X136499692Y-110603673D01*
X136632364Y-110283373D01*
X136700000Y-109943345D01*
X136700000Y-109596655D01*
X136632364Y-109256627D01*
X136499692Y-108936327D01*
X136307081Y-108648065D01*
X136061935Y-108402919D01*
X135773673Y-108210308D01*
X135453373Y-108077636D01*
X135113345Y-108010000D01*
X134766655Y-108010000D01*
X134426627Y-108077636D01*
X134106327Y-108210308D01*
X133818065Y-108402919D01*
X133572919Y-108648065D01*
X133380308Y-108936327D01*
X133247636Y-109256627D01*
X133180000Y-109596655D01*
X133180000Y-109943345D01*
X133247636Y-110283373D01*
X133380308Y-110603673D01*
X133572919Y-110891935D01*
X133818065Y-111137081D01*
X134106327Y-111329692D01*
X134180000Y-111360208D01*
X134180000Y-112912174D01*
X134075826Y-112808000D01*
X133645251Y-112520299D01*
X133166822Y-112322127D01*
X132658924Y-112221100D01*
X132141076Y-112221100D01*
X131633178Y-112322127D01*
X131154749Y-112520299D01*
X130724174Y-112808000D01*
X130358000Y-113174174D01*
X130070299Y-113604749D01*
X129872127Y-114083178D01*
X129771100Y-114591076D01*
X128808080Y-114591076D01*
X128771971Y-114409549D01*
X128658144Y-114134747D01*
X128614882Y-114070000D01*
X128763345Y-114070000D01*
X129103373Y-114002364D01*
X129423673Y-113869692D01*
X129711935Y-113677081D01*
X129957081Y-113431935D01*
X130149692Y-113143673D01*
X130282364Y-112823373D01*
X130350000Y-112483345D01*
X130350000Y-112136655D01*
X130282364Y-111796627D01*
X130149692Y-111476327D01*
X129957081Y-111188065D01*
X129711935Y-110942919D01*
X129423673Y-110750308D01*
X129360000Y-110723934D01*
X129360000Y-105903711D01*
X129403937Y-105859774D01*
X129517205Y-105690256D01*
X129595226Y-105501898D01*
X129635000Y-105301939D01*
X129635000Y-105098061D01*
X129610522Y-104974999D01*
X134314390Y-104974999D01*
X134324188Y-105074482D01*
X134360498Y-105194180D01*
X134419463Y-105304494D01*
X134498815Y-105401185D01*
X134595506Y-105480537D01*
X134705820Y-105539502D01*
X134825518Y-105575812D01*
X134950000Y-105588072D01*
X136150000Y-105588072D01*
X136274482Y-105575812D01*
X136394180Y-105539502D01*
X136504494Y-105480537D01*
X136601185Y-105401185D01*
X136680537Y-105304494D01*
X136739502Y-105194180D01*
X136775812Y-105074482D01*
X136785610Y-104974999D01*
X139347668Y-104974999D01*
X139385001Y-104978676D01*
X139422334Y-104974999D01*
X139969587Y-104974999D01*
X139965000Y-104998061D01*
X139965000Y-105201939D01*
X140004774Y-105401898D01*
X140082795Y-105590256D01*
X140196063Y-105759774D01*
X140240000Y-105803711D01*
X140240001Y-117785197D01*
X135563271Y-122461928D01*
X134950000Y-122461928D01*
X134825518Y-122474188D01*
X134705820Y-122510498D01*
X134595506Y-122569463D01*
X134498815Y-122648815D01*
X134419463Y-122745506D01*
X134395680Y-122790000D01*
X117654320Y-122790000D01*
X117630537Y-122745506D01*
X117551185Y-122648815D01*
X117454494Y-122569463D01*
X117344180Y-122510498D01*
X117224482Y-122474188D01*
X117100000Y-122461928D01*
X115900000Y-122461928D01*
X115775518Y-122474188D01*
X115655820Y-122510498D01*
X115545506Y-122569463D01*
X115448815Y-122648815D01*
X115369463Y-122745506D01*
X115310498Y-122855820D01*
X115274188Y-122975518D01*
X115261928Y-123100000D01*
X115261928Y-124000000D01*
X115274188Y-124124482D01*
X115310498Y-124244180D01*
X115369463Y-124354494D01*
X115448815Y-124451185D01*
X115545506Y-124530537D01*
X115655820Y-124589502D01*
X115775518Y-124625812D01*
X115900000Y-124638072D01*
X117100000Y-124638072D01*
X117224482Y-124625812D01*
X117344180Y-124589502D01*
X117454494Y-124530537D01*
X117551185Y-124451185D01*
X117630537Y-124354494D01*
X117654320Y-124310000D01*
X134395680Y-124310000D01*
X134419463Y-124354494D01*
X134498815Y-124451185D01*
X134595506Y-124530537D01*
X134705820Y-124589502D01*
X134825518Y-124625812D01*
X134950000Y-124638072D01*
X136150000Y-124638072D01*
X136274482Y-124625812D01*
X136394180Y-124589502D01*
X136504494Y-124530537D01*
X136601185Y-124451185D01*
X136680537Y-124354494D01*
X136704320Y-124310000D01*
X153445680Y-124310000D01*
X153469463Y-124354494D01*
X153548815Y-124451185D01*
X153645506Y-124530537D01*
X153755820Y-124589502D01*
X153875518Y-124625812D01*
X154000000Y-124638072D01*
X155200000Y-124638072D01*
X155324482Y-124625812D01*
X155444180Y-124589502D01*
X155554494Y-124530537D01*
X155651185Y-124451185D01*
X155730537Y-124354494D01*
X155789502Y-124244180D01*
X155825812Y-124124482D01*
X155838072Y-124000000D01*
X155838072Y-123100000D01*
X155825812Y-122975518D01*
X155789502Y-122855820D01*
X155730537Y-122745506D01*
X155651185Y-122648815D01*
X155554494Y-122569463D01*
X155444180Y-122510498D01*
X155324482Y-122474188D01*
X155200000Y-122461928D01*
X154000000Y-122461928D01*
X153875518Y-122474188D01*
X153755820Y-122510498D01*
X153645506Y-122569463D01*
X153548815Y-122648815D01*
X153469463Y-122745506D01*
X153445680Y-122790000D01*
X137384801Y-122790000D01*
X141511003Y-118663799D01*
X141540001Y-118640001D01*
X141566332Y-118607917D01*
X141634974Y-118524277D01*
X141705546Y-118392247D01*
X141749003Y-118248986D01*
X141760000Y-118137333D01*
X141760000Y-118137323D01*
X141763676Y-118100000D01*
X141760000Y-118062677D01*
X141760000Y-107783740D01*
X142345000Y-107783740D01*
X142345000Y-108076260D01*
X142402068Y-108363158D01*
X142514010Y-108633411D01*
X142676525Y-108876632D01*
X142883368Y-109083475D01*
X143126589Y-109245990D01*
X143396842Y-109357932D01*
X143683740Y-109415000D01*
X143976260Y-109415000D01*
X144263158Y-109357932D01*
X144533411Y-109245990D01*
X144776632Y-109083475D01*
X144983475Y-108876632D01*
X145145990Y-108633411D01*
X145257932Y-108363158D01*
X145315000Y-108076260D01*
X145315000Y-107783740D01*
X145257932Y-107496842D01*
X145145990Y-107226589D01*
X144983475Y-106983368D01*
X144776632Y-106776525D01*
X144594466Y-106654805D01*
X144711355Y-106585178D01*
X144927588Y-106390269D01*
X145101641Y-106156920D01*
X145226825Y-105894099D01*
X145271476Y-105746890D01*
X145150155Y-105517000D01*
X143957000Y-105517000D01*
X143957000Y-105537000D01*
X143703000Y-105537000D01*
X143703000Y-105517000D01*
X142509845Y-105517000D01*
X142388524Y-105746890D01*
X142433175Y-105894099D01*
X142558359Y-106156920D01*
X142732412Y-106390269D01*
X142948645Y-106585178D01*
X143065534Y-106654805D01*
X142883368Y-106776525D01*
X142676525Y-106983368D01*
X142514010Y-107226589D01*
X142402068Y-107496842D01*
X142345000Y-107783740D01*
X141760000Y-107783740D01*
X141760000Y-105803711D01*
X141803937Y-105759774D01*
X141917205Y-105590256D01*
X141995226Y-105401898D01*
X142035000Y-105201939D01*
X142035000Y-104998061D01*
X142030413Y-104974999D01*
X142406150Y-104974999D01*
X142388524Y-105033110D01*
X142509845Y-105263000D01*
X143703000Y-105263000D01*
X143703000Y-105243000D01*
X143957000Y-105243000D01*
X143957000Y-105263000D01*
X145150155Y-105263000D01*
X145271476Y-105033110D01*
X145253850Y-104974999D01*
X146755765Y-104974999D01*
X146704774Y-105098102D01*
X146665000Y-105298061D01*
X146665000Y-105501939D01*
X146704774Y-105701898D01*
X146782795Y-105890256D01*
X146896063Y-106059774D01*
X146940000Y-106103711D01*
X146940001Y-110694939D01*
X146806327Y-110750308D01*
X146518065Y-110942919D01*
X146272919Y-111188065D01*
X146080308Y-111476327D01*
X145947636Y-111796627D01*
X145880000Y-112136655D01*
X145880000Y-112483345D01*
X145947636Y-112823373D01*
X146080308Y-113143673D01*
X146212638Y-113341719D01*
X145929549Y-113398029D01*
X145654747Y-113511856D01*
X145407431Y-113677107D01*
X145197107Y-113887431D01*
X145031856Y-114134747D01*
X144918029Y-114409549D01*
X144860000Y-114701278D01*
X144860000Y-114998722D01*
X144918029Y-115290451D01*
X145031856Y-115565253D01*
X145197107Y-115812569D01*
X145407431Y-116022893D01*
X145654747Y-116188144D01*
X145929549Y-116301971D01*
X146221278Y-116360000D01*
X146518722Y-116360000D01*
X146810451Y-116301971D01*
X147085253Y-116188144D01*
X147332569Y-116022893D01*
X147542893Y-115812569D01*
X147708144Y-115565253D01*
X147821971Y-115290451D01*
X147880000Y-114998722D01*
X147880000Y-114701278D01*
X147858080Y-114591076D01*
X148821100Y-114591076D01*
X148821100Y-115108924D01*
X148922127Y-115616822D01*
X149120299Y-116095251D01*
X149408000Y-116525826D01*
X149774174Y-116892000D01*
X150204749Y-117179701D01*
X150683178Y-117377873D01*
X151191076Y-117478900D01*
X151708924Y-117478900D01*
X152216822Y-117377873D01*
X152695251Y-117179701D01*
X153125826Y-116892000D01*
X153230001Y-116787825D01*
X153230001Y-119602668D01*
X153226324Y-119640000D01*
X153230001Y-119677333D01*
X153236075Y-119738997D01*
X153240998Y-119788985D01*
X153284454Y-119932246D01*
X153355026Y-120064276D01*
X153361928Y-120072686D01*
X153361928Y-120700000D01*
X153374188Y-120824482D01*
X153410498Y-120944180D01*
X153469463Y-121054494D01*
X153548815Y-121151185D01*
X153645506Y-121230537D01*
X153755820Y-121289502D01*
X153875518Y-121325812D01*
X154000000Y-121338072D01*
X155200000Y-121338072D01*
X155324482Y-121325812D01*
X155444180Y-121289502D01*
X155554494Y-121230537D01*
X155651185Y-121151185D01*
X155730537Y-121054494D01*
X155789502Y-120944180D01*
X155825812Y-120824482D01*
X155838072Y-120700000D01*
X155838072Y-119800000D01*
X155825812Y-119675518D01*
X155789502Y-119555820D01*
X155730537Y-119445506D01*
X155651185Y-119348815D01*
X155554494Y-119269463D01*
X155444180Y-119210498D01*
X155324482Y-119174188D01*
X155200000Y-119161928D01*
X154750000Y-119161928D01*
X154750000Y-114701278D01*
X155020000Y-114701278D01*
X155020000Y-114998722D01*
X155078029Y-115290451D01*
X155191856Y-115565253D01*
X155357107Y-115812569D01*
X155567431Y-116022893D01*
X155814747Y-116188144D01*
X156089549Y-116301971D01*
X156381278Y-116360000D01*
X156678722Y-116360000D01*
X156970451Y-116301971D01*
X157245253Y-116188144D01*
X157492569Y-116022893D01*
X157702893Y-115812569D01*
X157868144Y-115565253D01*
X157981971Y-115290451D01*
X158040000Y-114998722D01*
X158040000Y-114701278D01*
X157981971Y-114409549D01*
X157868144Y-114134747D01*
X157702893Y-113887431D01*
X157492569Y-113677107D01*
X157245253Y-113511856D01*
X156970451Y-113398029D01*
X156678722Y-113340000D01*
X156381278Y-113340000D01*
X156089549Y-113398029D01*
X155814747Y-113511856D01*
X155567431Y-113677107D01*
X155357107Y-113887431D01*
X155191856Y-114134747D01*
X155078029Y-114409549D01*
X155020000Y-114701278D01*
X154750000Y-114701278D01*
X154750000Y-111360208D01*
X154823673Y-111329692D01*
X155111935Y-111137081D01*
X155357081Y-110891935D01*
X155549692Y-110603673D01*
X155682364Y-110283373D01*
X155750000Y-109943345D01*
X155750000Y-109596655D01*
X155682364Y-109256627D01*
X155549692Y-108936327D01*
X155357081Y-108648065D01*
X155111935Y-108402919D01*
X154823673Y-108210308D01*
X154503373Y-108077636D01*
X154163345Y-108010000D01*
X153816655Y-108010000D01*
X153476627Y-108077636D01*
X153156327Y-108210308D01*
X152868065Y-108402919D01*
X152622919Y-108648065D01*
X152430308Y-108936327D01*
X152297636Y-109256627D01*
X152230000Y-109596655D01*
X152230000Y-109943345D01*
X152297636Y-110283373D01*
X152430308Y-110603673D01*
X152622919Y-110891935D01*
X152868065Y-111137081D01*
X153156327Y-111329692D01*
X153230000Y-111360208D01*
X153230000Y-112912174D01*
X153125826Y-112808000D01*
X152695251Y-112520299D01*
X152216822Y-112322127D01*
X151708924Y-112221100D01*
X151191076Y-112221100D01*
X150683178Y-112322127D01*
X150204749Y-112520299D01*
X149774174Y-112808000D01*
X149408000Y-113174174D01*
X149120299Y-113604749D01*
X148922127Y-114083178D01*
X148821100Y-114591076D01*
X147858080Y-114591076D01*
X147821971Y-114409549D01*
X147708144Y-114134747D01*
X147664882Y-114070000D01*
X147813345Y-114070000D01*
X148153373Y-114002364D01*
X148473673Y-113869692D01*
X148761935Y-113677081D01*
X149007081Y-113431935D01*
X149199692Y-113143673D01*
X149332364Y-112823373D01*
X149400000Y-112483345D01*
X149400000Y-112136655D01*
X149332364Y-111796627D01*
X149199692Y-111476327D01*
X149007081Y-111188065D01*
X148761935Y-110942919D01*
X148473673Y-110750308D01*
X148460000Y-110744644D01*
X148460000Y-106103711D01*
X148503937Y-106059774D01*
X148617205Y-105890256D01*
X148695226Y-105701898D01*
X148735000Y-105501939D01*
X148735000Y-105298061D01*
X148695226Y-105098102D01*
X148644235Y-104974999D01*
X153364390Y-104974999D01*
X153374188Y-105074482D01*
X153410498Y-105194180D01*
X153469463Y-105304494D01*
X153548815Y-105401185D01*
X153645506Y-105480537D01*
X153755820Y-105539502D01*
X153875518Y-105575812D01*
X154000000Y-105588072D01*
X155200000Y-105588072D01*
X155324482Y-105575812D01*
X155444180Y-105539502D01*
X155554494Y-105480537D01*
X155651185Y-105401185D01*
X155730537Y-105304494D01*
X155789502Y-105194180D01*
X155825812Y-105074482D01*
X155838072Y-104950000D01*
X155838072Y-104050000D01*
X155825812Y-103925518D01*
X155789502Y-103805820D01*
X155730537Y-103695506D01*
X155651185Y-103598815D01*
X155554494Y-103519463D01*
X155444180Y-103460498D01*
X155324482Y-103424188D01*
X155200000Y-103411928D01*
X154000000Y-103411928D01*
X153875518Y-103424188D01*
X153773948Y-103454999D01*
X148573945Y-103454999D01*
X148617205Y-103390256D01*
X148695226Y-103201898D01*
X148735000Y-103001939D01*
X148735000Y-102798061D01*
X148695226Y-102598102D01*
X148617205Y-102409744D01*
X148503937Y-102240226D01*
X148400000Y-102136289D01*
X148400000Y-95541076D01*
X148821100Y-95541076D01*
X148821100Y-96058924D01*
X148922127Y-96566822D01*
X149120299Y-97045251D01*
X149408000Y-97475826D01*
X149774174Y-97842000D01*
X150204749Y-98129701D01*
X150683178Y-98327873D01*
X151191076Y-98428900D01*
X151708924Y-98428900D01*
X152216822Y-98327873D01*
X152695251Y-98129701D01*
X153125826Y-97842000D01*
X153230001Y-97737825D01*
X153230001Y-100552668D01*
X153226324Y-100590000D01*
X153230001Y-100627333D01*
X153236075Y-100688997D01*
X153240998Y-100738985D01*
X153284454Y-100882246D01*
X153355026Y-101014276D01*
X153361928Y-101022686D01*
X153361928Y-101650000D01*
X153374188Y-101774482D01*
X153410498Y-101894180D01*
X153469463Y-102004494D01*
X153548815Y-102101185D01*
X153645506Y-102180537D01*
X153755820Y-102239502D01*
X153875518Y-102275812D01*
X154000000Y-102288072D01*
X155200000Y-102288072D01*
X155324482Y-102275812D01*
X155444180Y-102239502D01*
X155554494Y-102180537D01*
X155651185Y-102101185D01*
X155730537Y-102004494D01*
X155789502Y-101894180D01*
X155825812Y-101774482D01*
X155838072Y-101650000D01*
X155838072Y-100750000D01*
X155825812Y-100625518D01*
X155789502Y-100505820D01*
X155730537Y-100395506D01*
X155651185Y-100298815D01*
X155554494Y-100219463D01*
X155444180Y-100160498D01*
X155324482Y-100124188D01*
X155200000Y-100111928D01*
X154750000Y-100111928D01*
X154750000Y-95651278D01*
X155020000Y-95651278D01*
X155020000Y-95948722D01*
X155078029Y-96240451D01*
X155191856Y-96515253D01*
X155357107Y-96762569D01*
X155567431Y-96972893D01*
X155814747Y-97138144D01*
X156089549Y-97251971D01*
X156381278Y-97310000D01*
X156678722Y-97310000D01*
X156970451Y-97251971D01*
X157245253Y-97138144D01*
X157492569Y-96972893D01*
X157702893Y-96762569D01*
X157868144Y-96515253D01*
X157981971Y-96240451D01*
X158040000Y-95948722D01*
X158040000Y-95651278D01*
X157981971Y-95359549D01*
X157868144Y-95084747D01*
X157702893Y-94837431D01*
X157492569Y-94627107D01*
X157245253Y-94461856D01*
X156970451Y-94348029D01*
X156678722Y-94290000D01*
X156381278Y-94290000D01*
X156089549Y-94348029D01*
X155814747Y-94461856D01*
X155567431Y-94627107D01*
X155357107Y-94837431D01*
X155191856Y-95084747D01*
X155078029Y-95359549D01*
X155020000Y-95651278D01*
X154750000Y-95651278D01*
X154750000Y-92310208D01*
X154823673Y-92279692D01*
X155111935Y-92087081D01*
X155357081Y-91841935D01*
X155549692Y-91553673D01*
X155682364Y-91233373D01*
X155750000Y-90893345D01*
X155750000Y-90546655D01*
X155682364Y-90206627D01*
X155549692Y-89886327D01*
X155357081Y-89598065D01*
X155111935Y-89352919D01*
X154823673Y-89160308D01*
X154503373Y-89027636D01*
X154163345Y-88960000D01*
X153816655Y-88960000D01*
X153476627Y-89027636D01*
X153156327Y-89160308D01*
X152868065Y-89352919D01*
X152622919Y-89598065D01*
X152430308Y-89886327D01*
X152297636Y-90206627D01*
X152230000Y-90546655D01*
X152230000Y-90893345D01*
X152297636Y-91233373D01*
X152430308Y-91553673D01*
X152622919Y-91841935D01*
X152868065Y-92087081D01*
X153156327Y-92279692D01*
X153230000Y-92310208D01*
X153230000Y-93862174D01*
X153125826Y-93758000D01*
X152695251Y-93470299D01*
X152216822Y-93272127D01*
X151708924Y-93171100D01*
X151191076Y-93171100D01*
X150683178Y-93272127D01*
X150204749Y-93470299D01*
X149774174Y-93758000D01*
X149408000Y-94124174D01*
X149120299Y-94554749D01*
X148922127Y-95033178D01*
X148821100Y-95541076D01*
X148400000Y-95541076D01*
X148400000Y-94850208D01*
X148473673Y-94819692D01*
X148761935Y-94627081D01*
X149007081Y-94381935D01*
X149199692Y-94093673D01*
X149332364Y-93773373D01*
X149400000Y-93433345D01*
X149400000Y-93086655D01*
X149332364Y-92746627D01*
X149199692Y-92426327D01*
X149007081Y-92138065D01*
X148761935Y-91892919D01*
X148473673Y-91700308D01*
X148360000Y-91653223D01*
X148360000Y-88503711D01*
X148403937Y-88459774D01*
X148517205Y-88290256D01*
X148595226Y-88101898D01*
X148635000Y-87901939D01*
X148635000Y-87698061D01*
X148595226Y-87498102D01*
X148517205Y-87309744D01*
X148403937Y-87140226D01*
X148268712Y-87005001D01*
X153767677Y-87005001D01*
X153804999Y-87008677D01*
X153842321Y-87005001D01*
X153842332Y-87005001D01*
X153953985Y-86994004D01*
X154097246Y-86950547D01*
X154229275Y-86879975D01*
X154345000Y-86785002D01*
X154368802Y-86755999D01*
X154586729Y-86538072D01*
X155200000Y-86538072D01*
X155324482Y-86525812D01*
X155444180Y-86489502D01*
X155554494Y-86430537D01*
X155651185Y-86351185D01*
X155730537Y-86254494D01*
X155789502Y-86144180D01*
X155825812Y-86024482D01*
X155838072Y-85900000D01*
X155838072Y-85000000D01*
X155825812Y-84875518D01*
X155789502Y-84755820D01*
X155730537Y-84645506D01*
X155651185Y-84548815D01*
X155554494Y-84469463D01*
X155444180Y-84410498D01*
X155324482Y-84374188D01*
X155200000Y-84361928D01*
X154000000Y-84361928D01*
X153875518Y-84374188D01*
X153755820Y-84410498D01*
X153645506Y-84469463D01*
X153548815Y-84548815D01*
X153469463Y-84645506D01*
X153410498Y-84755820D01*
X153374188Y-84875518D01*
X153361928Y-85000000D01*
X153361928Y-85485001D01*
X148378710Y-85485001D01*
X148403937Y-85459774D01*
X148517205Y-85290256D01*
X148595226Y-85101898D01*
X148635000Y-84901939D01*
X148635000Y-84698061D01*
X148595226Y-84498102D01*
X148517205Y-84309744D01*
X148403937Y-84140226D01*
X148400000Y-84136289D01*
X148400000Y-76491076D01*
X148821100Y-76491076D01*
X148821100Y-77008924D01*
X148922127Y-77516822D01*
X149120299Y-77995251D01*
X149408000Y-78425826D01*
X149774174Y-78792000D01*
X150204749Y-79079701D01*
X150683178Y-79277873D01*
X151191076Y-79378900D01*
X151708924Y-79378900D01*
X152216822Y-79277873D01*
X152695251Y-79079701D01*
X153125826Y-78792000D01*
X153230001Y-78687825D01*
X153230001Y-81502668D01*
X153226324Y-81540000D01*
X153230001Y-81577333D01*
X153236075Y-81638997D01*
X153240998Y-81688985D01*
X153284454Y-81832246D01*
X153355026Y-81964276D01*
X153361928Y-81972686D01*
X153361928Y-82600000D01*
X153374188Y-82724482D01*
X153410498Y-82844180D01*
X153469463Y-82954494D01*
X153548815Y-83051185D01*
X153645506Y-83130537D01*
X153755820Y-83189502D01*
X153875518Y-83225812D01*
X154000000Y-83238072D01*
X155200000Y-83238072D01*
X155324482Y-83225812D01*
X155444180Y-83189502D01*
X155554494Y-83130537D01*
X155651185Y-83051185D01*
X155730537Y-82954494D01*
X155789502Y-82844180D01*
X155825812Y-82724482D01*
X155838072Y-82600000D01*
X155838072Y-81700000D01*
X155825812Y-81575518D01*
X155789502Y-81455820D01*
X155730537Y-81345506D01*
X155651185Y-81248815D01*
X155554494Y-81169463D01*
X155444180Y-81110498D01*
X155324482Y-81074188D01*
X155200000Y-81061928D01*
X154750000Y-81061928D01*
X154750000Y-76601278D01*
X155020000Y-76601278D01*
X155020000Y-76898722D01*
X155078029Y-77190451D01*
X155191856Y-77465253D01*
X155357107Y-77712569D01*
X155567431Y-77922893D01*
X155814747Y-78088144D01*
X156089549Y-78201971D01*
X156381278Y-78260000D01*
X156678722Y-78260000D01*
X156970451Y-78201971D01*
X157245253Y-78088144D01*
X157492569Y-77922893D01*
X157702893Y-77712569D01*
X157868144Y-77465253D01*
X157981971Y-77190451D01*
X158040000Y-76898722D01*
X158040000Y-76601278D01*
X157981971Y-76309549D01*
X157868144Y-76034747D01*
X157702893Y-75787431D01*
X157492569Y-75577107D01*
X157245253Y-75411856D01*
X156970451Y-75298029D01*
X156678722Y-75240000D01*
X156381278Y-75240000D01*
X156089549Y-75298029D01*
X155814747Y-75411856D01*
X155567431Y-75577107D01*
X155357107Y-75787431D01*
X155191856Y-76034747D01*
X155078029Y-76309549D01*
X155020000Y-76601278D01*
X154750000Y-76601278D01*
X154750000Y-73260208D01*
X154823673Y-73229692D01*
X155111935Y-73037081D01*
X155357081Y-72791935D01*
X155549692Y-72503673D01*
X155682364Y-72183373D01*
X155750000Y-71843345D01*
X155750000Y-71496655D01*
X155682364Y-71156627D01*
X155549692Y-70836327D01*
X155357081Y-70548065D01*
X155111935Y-70302919D01*
X154823673Y-70110308D01*
X154503373Y-69977636D01*
X154163345Y-69910000D01*
X153816655Y-69910000D01*
X153476627Y-69977636D01*
X153156327Y-70110308D01*
X152868065Y-70302919D01*
X152622919Y-70548065D01*
X152430308Y-70836327D01*
X152297636Y-71156627D01*
X152230000Y-71496655D01*
X152230000Y-71843345D01*
X152297636Y-72183373D01*
X152430308Y-72503673D01*
X152622919Y-72791935D01*
X152868065Y-73037081D01*
X153156327Y-73229692D01*
X153230000Y-73260208D01*
X153230000Y-74812174D01*
X153125826Y-74708000D01*
X152695251Y-74420299D01*
X152216822Y-74222127D01*
X151708924Y-74121100D01*
X151191076Y-74121100D01*
X150683178Y-74222127D01*
X150204749Y-74420299D01*
X149774174Y-74708000D01*
X149408000Y-75074174D01*
X149120299Y-75504749D01*
X148922127Y-75983178D01*
X148821100Y-76491076D01*
X148400000Y-76491076D01*
X148400000Y-75800208D01*
X148473673Y-75769692D01*
X148761935Y-75577081D01*
X149007081Y-75331935D01*
X149199692Y-75043673D01*
X149332364Y-74723373D01*
X149400000Y-74383345D01*
X149400000Y-74036655D01*
X149332364Y-73696627D01*
X149199692Y-73376327D01*
X149007081Y-73088065D01*
X148761935Y-72842919D01*
X148473673Y-72650308D01*
X148153373Y-72517636D01*
X147813345Y-72450000D01*
X147466655Y-72450000D01*
X147126627Y-72517636D01*
X146806327Y-72650308D01*
X146518065Y-72842919D01*
X146385985Y-72974999D01*
X145186753Y-72974999D01*
X145257932Y-72803158D01*
X145315000Y-72516260D01*
X145315000Y-72223740D01*
X145257932Y-71936842D01*
X145145990Y-71666589D01*
X144983475Y-71423368D01*
X144776632Y-71216525D01*
X144602240Y-71100000D01*
X144776632Y-70983475D01*
X144983475Y-70776632D01*
X145145990Y-70533411D01*
X145257932Y-70263158D01*
X145315000Y-69976260D01*
X145315000Y-69683740D01*
X145257932Y-69396842D01*
X145145990Y-69126589D01*
X144983475Y-68883368D01*
X144776632Y-68676525D01*
X144602240Y-68560000D01*
X144776632Y-68443475D01*
X144983475Y-68236632D01*
X145145990Y-67993411D01*
X145257932Y-67723158D01*
X145315000Y-67436260D01*
X145315000Y-67143740D01*
X145257932Y-66856842D01*
X145145990Y-66586589D01*
X144983475Y-66343368D01*
X144776632Y-66136525D01*
X144602240Y-66020000D01*
X144776632Y-65903475D01*
X144983475Y-65696632D01*
X145145990Y-65453411D01*
X145257932Y-65183158D01*
X145315000Y-64896260D01*
X145315000Y-64603740D01*
X145257932Y-64316842D01*
X145145990Y-64046589D01*
X144983475Y-63803368D01*
X144781628Y-63601521D01*
X162105979Y-63601521D01*
X162105979Y-64048479D01*
X162193176Y-64486849D01*
X162364220Y-64899785D01*
X162612536Y-65271417D01*
X162928583Y-65587464D01*
X163300215Y-65835780D01*
X163713151Y-66006824D01*
X164151521Y-66094021D01*
X164598479Y-66094021D01*
X165036849Y-66006824D01*
X165449785Y-65835780D01*
X165821417Y-65587464D01*
X166137464Y-65271417D01*
X166385780Y-64899785D01*
X166556824Y-64486849D01*
X166644021Y-64048479D01*
X166644021Y-63601521D01*
X166556824Y-63163151D01*
X166385780Y-62750215D01*
X166137464Y-62378583D01*
X165821417Y-62062536D01*
X165449785Y-61814220D01*
X165036849Y-61643176D01*
X164598479Y-61555979D01*
X164151521Y-61555979D01*
X163713151Y-61643176D01*
X163300215Y-61814220D01*
X162928583Y-62062536D01*
X162612536Y-62378583D01*
X162364220Y-62750215D01*
X162193176Y-63163151D01*
X162105979Y-63601521D01*
X144781628Y-63601521D01*
X144776632Y-63596525D01*
X144602240Y-63480000D01*
X144776632Y-63363475D01*
X144983475Y-63156632D01*
X145145990Y-62913411D01*
X145257932Y-62643158D01*
X145315000Y-62356260D01*
X145315000Y-62063740D01*
X145257932Y-61776842D01*
X145145990Y-61506589D01*
X144983475Y-61263368D01*
X144851620Y-61131513D01*
X144924180Y-61109502D01*
X145034494Y-61050537D01*
X145131185Y-60971185D01*
X145210537Y-60874494D01*
X145269502Y-60764180D01*
X145305812Y-60644482D01*
X145318072Y-60520000D01*
X145315000Y-59955750D01*
X145156250Y-59797000D01*
X143957000Y-59797000D01*
X143957000Y-59817000D01*
X143703000Y-59817000D01*
X143703000Y-59797000D01*
X142503750Y-59797000D01*
X142345000Y-59955750D01*
X142341928Y-60520000D01*
X142354188Y-60644482D01*
X142390498Y-60764180D01*
X142449463Y-60874494D01*
X142528815Y-60971185D01*
X142625506Y-61050537D01*
X142735820Y-61109502D01*
X142808380Y-61131513D01*
X142676525Y-61263368D01*
X142514010Y-61506589D01*
X142402068Y-61776842D01*
X142345000Y-62063740D01*
X142345000Y-62356260D01*
X142402068Y-62643158D01*
X142514010Y-62913411D01*
X142676525Y-63156632D01*
X142883368Y-63363475D01*
X143057760Y-63480000D01*
X142883368Y-63596525D01*
X142676525Y-63803368D01*
X142514010Y-64046589D01*
X142402068Y-64316842D01*
X142345000Y-64603740D01*
X142345000Y-64896260D01*
X142402068Y-65183158D01*
X142514010Y-65453411D01*
X142676525Y-65696632D01*
X142883368Y-65903475D01*
X143057760Y-66020000D01*
X142883368Y-66136525D01*
X142676525Y-66343368D01*
X142514010Y-66586589D01*
X142402068Y-66856842D01*
X142345000Y-67143740D01*
X142345000Y-67436260D01*
X142402068Y-67723158D01*
X142514010Y-67993411D01*
X142676525Y-68236632D01*
X142883368Y-68443475D01*
X143057760Y-68560000D01*
X142883368Y-68676525D01*
X142676525Y-68883368D01*
X142514010Y-69126589D01*
X142402068Y-69396842D01*
X142345000Y-69683740D01*
X142345000Y-69976260D01*
X142402068Y-70263158D01*
X142514010Y-70533411D01*
X142676525Y-70776632D01*
X142883368Y-70983475D01*
X143057760Y-71100000D01*
X142883368Y-71216525D01*
X142676525Y-71423368D01*
X142514010Y-71666589D01*
X142402068Y-71936842D01*
X142345000Y-72223740D01*
X142345000Y-72516260D01*
X142402068Y-72803158D01*
X142473247Y-72974999D01*
X139465803Y-72974999D01*
X133269806Y-66779003D01*
X133246003Y-66749999D01*
X133130278Y-66655026D01*
X132998249Y-66584454D01*
X132854988Y-66540997D01*
X132743335Y-66530000D01*
X132743324Y-66530000D01*
X132706002Y-66526324D01*
X132668680Y-66530000D01*
X122248178Y-66530000D01*
X122123475Y-66343368D01*
X121916632Y-66136525D01*
X121742240Y-66020000D01*
X121916632Y-65903475D01*
X122123475Y-65696632D01*
X122285990Y-65453411D01*
X122397932Y-65183158D01*
X122455000Y-64896260D01*
X122455000Y-64603740D01*
X122397932Y-64316842D01*
X122285990Y-64046589D01*
X122123475Y-63803368D01*
X121916632Y-63596525D01*
X121742240Y-63480000D01*
X121916632Y-63363475D01*
X122123475Y-63156632D01*
X122285990Y-62913411D01*
X122397932Y-62643158D01*
X122455000Y-62356260D01*
X122455000Y-62063740D01*
X122397932Y-61776842D01*
X122285990Y-61506589D01*
X122123475Y-61263368D01*
X121991620Y-61131513D01*
X122064180Y-61109502D01*
X122174494Y-61050537D01*
X122271185Y-60971185D01*
X122350537Y-60874494D01*
X122409502Y-60764180D01*
X122445812Y-60644482D01*
X122458072Y-60520000D01*
X122458072Y-58820000D01*
X142341928Y-58820000D01*
X142345000Y-59384250D01*
X142503750Y-59543000D01*
X143703000Y-59543000D01*
X143703000Y-58343750D01*
X143957000Y-58343750D01*
X143957000Y-59543000D01*
X145156250Y-59543000D01*
X145315000Y-59384250D01*
X145318072Y-58820000D01*
X145305812Y-58695518D01*
X145269502Y-58575820D01*
X145210537Y-58465506D01*
X145131185Y-58368815D01*
X145034494Y-58289463D01*
X144924180Y-58230498D01*
X144804482Y-58194188D01*
X144680000Y-58181928D01*
X144115750Y-58185000D01*
X143957000Y-58343750D01*
X143703000Y-58343750D01*
X143544250Y-58185000D01*
X142980000Y-58181928D01*
X142855518Y-58194188D01*
X142735820Y-58230498D01*
X142625506Y-58289463D01*
X142528815Y-58368815D01*
X142449463Y-58465506D01*
X142390498Y-58575820D01*
X142354188Y-58695518D01*
X142341928Y-58820000D01*
X122458072Y-58820000D01*
X122445812Y-58695518D01*
X122409502Y-58575820D01*
X122350537Y-58465506D01*
X122271185Y-58368815D01*
X122174494Y-58289463D01*
X122064180Y-58230498D01*
X121944482Y-58194188D01*
X121820000Y-58181928D01*
X120120000Y-58181928D01*
X119995518Y-58194188D01*
X119875820Y-58230498D01*
X119765506Y-58289463D01*
X119668815Y-58368815D01*
X119589463Y-58465506D01*
X119530498Y-58575820D01*
X119494188Y-58695518D01*
X119481928Y-58820000D01*
X119481928Y-60520000D01*
X119494188Y-60644482D01*
X119530498Y-60764180D01*
X119589463Y-60874494D01*
X119668815Y-60971185D01*
X119765506Y-61050537D01*
X119875820Y-61109502D01*
X119948380Y-61131513D01*
X119816525Y-61263368D01*
X119691822Y-61450000D01*
X119127333Y-61450000D01*
X119090000Y-61446323D01*
X119052667Y-61450000D01*
X118941014Y-61460997D01*
X118797753Y-61504454D01*
X118665724Y-61575026D01*
X118549999Y-61669999D01*
X118526201Y-61698997D01*
X109028998Y-71196201D01*
X109000000Y-71219999D01*
X108976202Y-71248997D01*
X108976201Y-71248998D01*
X108905026Y-71335724D01*
X108834454Y-71467754D01*
X108790998Y-71611015D01*
X108776324Y-71760000D01*
X108780001Y-71797332D01*
X108780001Y-72619792D01*
X108706327Y-72650308D01*
X108418065Y-72842919D01*
X108172919Y-73088065D01*
X107980308Y-73376327D01*
X107847636Y-73696627D01*
X107780000Y-74036655D01*
X107780000Y-74383345D01*
X107847636Y-74723373D01*
X107980308Y-75043673D01*
X108112638Y-75241719D01*
X107829549Y-75298029D01*
X107554747Y-75411856D01*
X107307431Y-75577107D01*
X107097107Y-75787431D01*
X106931856Y-76034747D01*
X106818029Y-76309549D01*
X106760000Y-76601278D01*
X94485000Y-76601278D01*
X94485000Y-63601521D01*
X98155979Y-63601521D01*
X98155979Y-64048479D01*
X98243176Y-64486849D01*
X98414220Y-64899785D01*
X98662536Y-65271417D01*
X98978583Y-65587464D01*
X99350215Y-65835780D01*
X99763151Y-66006824D01*
X100201521Y-66094021D01*
X100648479Y-66094021D01*
X101086849Y-66006824D01*
X101499785Y-65835780D01*
X101871417Y-65587464D01*
X102187464Y-65271417D01*
X102435780Y-64899785D01*
X102606824Y-64486849D01*
X102694021Y-64048479D01*
X102694021Y-63601521D01*
X102606824Y-63163151D01*
X102435780Y-62750215D01*
X102187464Y-62378583D01*
X101871417Y-62062536D01*
X101499785Y-61814220D01*
X101086849Y-61643176D01*
X100648479Y-61555979D01*
X100201521Y-61555979D01*
X99763151Y-61643176D01*
X99350215Y-61814220D01*
X98978583Y-62062536D01*
X98662536Y-62378583D01*
X98414220Y-62750215D01*
X98243176Y-63163151D01*
X98155979Y-63601521D01*
X94485000Y-63601521D01*
X94485000Y-57885000D01*
X170315000Y-57885000D01*
X170315001Y-133715000D01*
G37*
X170315001Y-133715000D02*
X94485000Y-133715000D01*
X94485000Y-127551521D01*
X98155979Y-127551521D01*
X98155979Y-127998479D01*
X98243176Y-128436849D01*
X98414220Y-128849785D01*
X98662536Y-129221417D01*
X98978583Y-129537464D01*
X99350215Y-129785780D01*
X99763151Y-129956824D01*
X100201521Y-130044021D01*
X100648479Y-130044021D01*
X101086849Y-129956824D01*
X101499785Y-129785780D01*
X101871417Y-129537464D01*
X102187464Y-129221417D01*
X102435780Y-128849785D01*
X102606824Y-128436849D01*
X102694021Y-127998479D01*
X102694021Y-127551521D01*
X162105979Y-127551521D01*
X162105979Y-127998479D01*
X162193176Y-128436849D01*
X162364220Y-128849785D01*
X162612536Y-129221417D01*
X162928583Y-129537464D01*
X163300215Y-129785780D01*
X163713151Y-129956824D01*
X164151521Y-130044021D01*
X164598479Y-130044021D01*
X165036849Y-129956824D01*
X165449785Y-129785780D01*
X165821417Y-129537464D01*
X166137464Y-129221417D01*
X166385780Y-128849785D01*
X166556824Y-128436849D01*
X166644021Y-127998479D01*
X166644021Y-127551521D01*
X166556824Y-127113151D01*
X166385780Y-126700215D01*
X166137464Y-126328583D01*
X165821417Y-126012536D01*
X165449785Y-125764220D01*
X165036849Y-125593176D01*
X164598479Y-125505979D01*
X164151521Y-125505979D01*
X163713151Y-125593176D01*
X163300215Y-125764220D01*
X162928583Y-126012536D01*
X162612536Y-126328583D01*
X162364220Y-126700215D01*
X162193176Y-127113151D01*
X162105979Y-127551521D01*
X102694021Y-127551521D01*
X102606824Y-127113151D01*
X102435780Y-126700215D01*
X102187464Y-126328583D01*
X101871417Y-126012536D01*
X101499785Y-125764220D01*
X101086849Y-125593176D01*
X100648479Y-125505979D01*
X100201521Y-125505979D01*
X99763151Y-125593176D01*
X99350215Y-125764220D01*
X98978583Y-126012536D01*
X98662536Y-126328583D01*
X98414220Y-126700215D01*
X98243176Y-127113151D01*
X98155979Y-127551521D01*
X94485000Y-127551521D01*
X94485000Y-76601278D01*
X106760000Y-76601278D01*
X106760000Y-76898722D01*
X106818029Y-77190451D01*
X106931856Y-77465253D01*
X107097107Y-77712569D01*
X107307431Y-77922893D01*
X107554747Y-78088144D01*
X107829549Y-78201971D01*
X108121278Y-78260000D01*
X108418722Y-78260000D01*
X108710451Y-78201971D01*
X108780001Y-78173162D01*
X108780000Y-91669792D01*
X108706327Y-91700308D01*
X108418065Y-91892919D01*
X108172919Y-92138065D01*
X107980308Y-92426327D01*
X107847636Y-92746627D01*
X107780000Y-93086655D01*
X107780000Y-93433345D01*
X107847636Y-93773373D01*
X107980308Y-94093673D01*
X108112638Y-94291719D01*
X107829549Y-94348029D01*
X107554747Y-94461856D01*
X107307431Y-94627107D01*
X107097107Y-94837431D01*
X106931856Y-95084747D01*
X106818029Y-95359549D01*
X106760000Y-95651278D01*
X106760000Y-95948722D01*
X106818029Y-96240451D01*
X106931856Y-96515253D01*
X107097107Y-96762569D01*
X107307431Y-96972893D01*
X107554747Y-97138144D01*
X107829549Y-97251971D01*
X108121278Y-97310000D01*
X108418722Y-97310000D01*
X108710451Y-97251971D01*
X108780001Y-97223162D01*
X108780000Y-110719792D01*
X108706327Y-110750308D01*
X108418065Y-110942919D01*
X108172919Y-111188065D01*
X107980308Y-111476327D01*
X107847636Y-111796627D01*
X107780000Y-112136655D01*
X107780000Y-112483345D01*
X107847636Y-112823373D01*
X107980308Y-113143673D01*
X108112638Y-113341719D01*
X107829549Y-113398029D01*
X107554747Y-113511856D01*
X107307431Y-113677107D01*
X107097107Y-113887431D01*
X106931856Y-114134747D01*
X106818029Y-114409549D01*
X106760000Y-114701278D01*
X106760000Y-114998722D01*
X106818029Y-115290451D01*
X106931856Y-115565253D01*
X107097107Y-115812569D01*
X107307431Y-116022893D01*
X107554747Y-116188144D01*
X107829549Y-116301971D01*
X108121278Y-116360000D01*
X108418722Y-116360000D01*
X108710451Y-116301971D01*
X108985253Y-116188144D01*
X109232569Y-116022893D01*
X109442893Y-115812569D01*
X109608144Y-115565253D01*
X109721971Y-115290451D01*
X109780000Y-114998722D01*
X109780000Y-114701278D01*
X109758080Y-114591076D01*
X110721100Y-114591076D01*
X110721100Y-115108924D01*
X110822127Y-115616822D01*
X111020299Y-116095251D01*
X111308000Y-116525826D01*
X111674174Y-116892000D01*
X112104749Y-117179701D01*
X112583178Y-117377873D01*
X113091076Y-117478900D01*
X113608924Y-117478900D01*
X114116822Y-117377873D01*
X114595251Y-117179701D01*
X115025826Y-116892000D01*
X115130001Y-116787825D01*
X115130001Y-119602668D01*
X115126324Y-119640000D01*
X115130001Y-119677333D01*
X115136075Y-119738997D01*
X115140998Y-119788985D01*
X115184454Y-119932246D01*
X115255026Y-120064276D01*
X115261928Y-120072686D01*
X115261928Y-120700000D01*
X115274188Y-120824482D01*
X115310498Y-120944180D01*
X115369463Y-121054494D01*
X115448815Y-121151185D01*
X115545506Y-121230537D01*
X115655820Y-121289502D01*
X115775518Y-121325812D01*
X115900000Y-121338072D01*
X117100000Y-121338072D01*
X117224482Y-121325812D01*
X117344180Y-121289502D01*
X117454494Y-121230537D01*
X117551185Y-121151185D01*
X117630537Y-121054494D01*
X117689502Y-120944180D01*
X117725812Y-120824482D01*
X117738072Y-120700000D01*
X117738072Y-119800000D01*
X117725812Y-119675518D01*
X117689502Y-119555820D01*
X117630537Y-119445506D01*
X117551185Y-119348815D01*
X117454494Y-119269463D01*
X117344180Y-119210498D01*
X117224482Y-119174188D01*
X117100000Y-119161928D01*
X116650000Y-119161928D01*
X116650000Y-114701278D01*
X116920000Y-114701278D01*
X116920000Y-114998722D01*
X116978029Y-115290451D01*
X117091856Y-115565253D01*
X117257107Y-115812569D01*
X117467431Y-116022893D01*
X117714747Y-116188144D01*
X117989549Y-116301971D01*
X118281278Y-116360000D01*
X118578722Y-116360000D01*
X118870451Y-116301971D01*
X119145253Y-116188144D01*
X119392569Y-116022893D01*
X119602893Y-115812569D01*
X119768144Y-115565253D01*
X119881971Y-115290451D01*
X119940000Y-114998722D01*
X119940000Y-114701278D01*
X119881971Y-114409549D01*
X119768144Y-114134747D01*
X119602893Y-113887431D01*
X119392569Y-113677107D01*
X119145253Y-113511856D01*
X118870451Y-113398029D01*
X118578722Y-113340000D01*
X118281278Y-113340000D01*
X117989549Y-113398029D01*
X117714747Y-113511856D01*
X117467431Y-113677107D01*
X117257107Y-113887431D01*
X117091856Y-114134747D01*
X116978029Y-114409549D01*
X116920000Y-114701278D01*
X116650000Y-114701278D01*
X116650000Y-111360208D01*
X116723673Y-111329692D01*
X117011935Y-111137081D01*
X117257081Y-110891935D01*
X117449692Y-110603673D01*
X117582364Y-110283373D01*
X117650000Y-109943345D01*
X117650000Y-109596655D01*
X117582364Y-109256627D01*
X117449692Y-108936327D01*
X117257081Y-108648065D01*
X117011935Y-108402919D01*
X116838286Y-108286890D01*
X119528524Y-108286890D01*
X119573175Y-108434099D01*
X119698359Y-108696920D01*
X119872412Y-108930269D01*
X120088645Y-109125178D01*
X120338748Y-109274157D01*
X120613109Y-109371481D01*
X120843000Y-109250814D01*
X120843000Y-108057000D01*
X121097000Y-108057000D01*
X121097000Y-109250814D01*
X121326891Y-109371481D01*
X121601252Y-109274157D01*
X121851355Y-109125178D01*
X122067588Y-108930269D01*
X122241641Y-108696920D01*
X122366825Y-108434099D01*
X122411476Y-108286890D01*
X122290155Y-108057000D01*
X121097000Y-108057000D01*
X120843000Y-108057000D01*
X119649845Y-108057000D01*
X119528524Y-108286890D01*
X116838286Y-108286890D01*
X116723673Y-108210308D01*
X116403373Y-108077636D01*
X116063345Y-108010000D01*
X115716655Y-108010000D01*
X115376627Y-108077636D01*
X115056327Y-108210308D01*
X114768065Y-108402919D01*
X114522919Y-108648065D01*
X114330308Y-108936327D01*
X114197636Y-109256627D01*
X114130000Y-109596655D01*
X114130000Y-109943345D01*
X114197636Y-110283373D01*
X114330308Y-110603673D01*
X114522919Y-110891935D01*
X114768065Y-111137081D01*
X115056327Y-111329692D01*
X115130000Y-111360208D01*
X115130000Y-112912174D01*
X115025826Y-112808000D01*
X114595251Y-112520299D01*
X114116822Y-112322127D01*
X113608924Y-112221100D01*
X113091076Y-112221100D01*
X112583178Y-112322127D01*
X112104749Y-112520299D01*
X111674174Y-112808000D01*
X111308000Y-113174174D01*
X111020299Y-113604749D01*
X110822127Y-114083178D01*
X110721100Y-114591076D01*
X109758080Y-114591076D01*
X109721971Y-114409549D01*
X109608144Y-114134747D01*
X109564882Y-114070000D01*
X109713345Y-114070000D01*
X110053373Y-114002364D01*
X110373673Y-113869692D01*
X110661935Y-113677081D01*
X110907081Y-113431935D01*
X111099692Y-113143673D01*
X111232364Y-112823373D01*
X111300000Y-112483345D01*
X111300000Y-112136655D01*
X111232364Y-111796627D01*
X111099692Y-111476327D01*
X110907081Y-111188065D01*
X110661935Y-110942919D01*
X110373673Y-110750308D01*
X110300000Y-110719792D01*
X110300000Y-95541076D01*
X110721100Y-95541076D01*
X110721100Y-96058924D01*
X110822127Y-96566822D01*
X111020299Y-97045251D01*
X111308000Y-97475826D01*
X111674174Y-97842000D01*
X112104749Y-98129701D01*
X112583178Y-98327873D01*
X113091076Y-98428900D01*
X113608924Y-98428900D01*
X114116822Y-98327873D01*
X114595251Y-98129701D01*
X115025826Y-97842000D01*
X115130001Y-97737825D01*
X115130001Y-100552668D01*
X115126324Y-100590000D01*
X115130001Y-100627333D01*
X115136075Y-100688997D01*
X115140998Y-100738985D01*
X115184454Y-100882246D01*
X115255026Y-101014276D01*
X115261928Y-101022686D01*
X115261928Y-101650000D01*
X115274188Y-101774482D01*
X115310498Y-101894180D01*
X115369463Y-102004494D01*
X115448815Y-102101185D01*
X115545506Y-102180537D01*
X115655820Y-102239502D01*
X115775518Y-102275812D01*
X115900000Y-102288072D01*
X117100000Y-102288072D01*
X117224482Y-102275812D01*
X117344180Y-102239502D01*
X117454494Y-102180537D01*
X117551185Y-102101185D01*
X117630537Y-102004494D01*
X117689502Y-101894180D01*
X117725812Y-101774482D01*
X117738072Y-101650000D01*
X117738072Y-100750000D01*
X117725812Y-100625518D01*
X117689502Y-100505820D01*
X117630537Y-100395506D01*
X117551185Y-100298815D01*
X117454494Y-100219463D01*
X117344180Y-100160498D01*
X117224482Y-100124188D01*
X117100000Y-100111928D01*
X116650000Y-100111928D01*
X116650000Y-92310208D01*
X116723673Y-92279692D01*
X117011935Y-92087081D01*
X117257081Y-91841935D01*
X117449692Y-91553673D01*
X117582364Y-91233373D01*
X117650000Y-90893345D01*
X117650000Y-90546655D01*
X117582364Y-90206627D01*
X117449692Y-89886327D01*
X117257081Y-89598065D01*
X117011935Y-89352919D01*
X116723673Y-89160308D01*
X116403373Y-89027636D01*
X116063345Y-88960000D01*
X115716655Y-88960000D01*
X115376627Y-89027636D01*
X115056327Y-89160308D01*
X114768065Y-89352919D01*
X114522919Y-89598065D01*
X114330308Y-89886327D01*
X114197636Y-90206627D01*
X114130000Y-90546655D01*
X114130000Y-90893345D01*
X114197636Y-91233373D01*
X114330308Y-91553673D01*
X114522919Y-91841935D01*
X114768065Y-92087081D01*
X115056327Y-92279692D01*
X115130000Y-92310208D01*
X115130000Y-93862174D01*
X115025826Y-93758000D01*
X114595251Y-93470299D01*
X114116822Y-93272127D01*
X113608924Y-93171100D01*
X113091076Y-93171100D01*
X112583178Y-93272127D01*
X112104749Y-93470299D01*
X111674174Y-93758000D01*
X111308000Y-94124174D01*
X111020299Y-94554749D01*
X110822127Y-95033178D01*
X110721100Y-95541076D01*
X110300000Y-95541076D01*
X110300000Y-94850208D01*
X110373673Y-94819692D01*
X110661935Y-94627081D01*
X110907081Y-94381935D01*
X111099692Y-94093673D01*
X111232364Y-93773373D01*
X111300000Y-93433345D01*
X111300000Y-93086655D01*
X111232364Y-92746627D01*
X111099692Y-92426327D01*
X110907081Y-92138065D01*
X110661935Y-91892919D01*
X110373673Y-91700308D01*
X110300000Y-91669792D01*
X110300000Y-76491076D01*
X110721100Y-76491076D01*
X110721100Y-77008924D01*
X110822127Y-77516822D01*
X111020299Y-77995251D01*
X111308000Y-78425826D01*
X111674174Y-78792000D01*
X112104749Y-79079701D01*
X112583178Y-79277873D01*
X113091076Y-79378900D01*
X113608924Y-79378900D01*
X114116822Y-79277873D01*
X114595251Y-79079701D01*
X115025826Y-78792000D01*
X115130001Y-78687825D01*
X115130001Y-81502668D01*
X115126324Y-81540000D01*
X115130001Y-81577333D01*
X115136075Y-81638997D01*
X115140998Y-81688985D01*
X115184454Y-81832246D01*
X115255026Y-81964276D01*
X115261928Y-81972686D01*
X115261928Y-82600000D01*
X115274188Y-82724482D01*
X115310498Y-82844180D01*
X115369463Y-82954494D01*
X115448815Y-83051185D01*
X115545506Y-83130537D01*
X115655820Y-83189502D01*
X115775518Y-83225812D01*
X115900000Y-83238072D01*
X117100000Y-83238072D01*
X117224482Y-83225812D01*
X117344180Y-83189502D01*
X117454494Y-83130537D01*
X117551185Y-83051185D01*
X117630537Y-82954494D01*
X117689502Y-82844180D01*
X117725812Y-82724482D01*
X117738072Y-82600000D01*
X117738072Y-81700000D01*
X117725812Y-81575518D01*
X117689502Y-81455820D01*
X117630537Y-81345506D01*
X117551185Y-81248815D01*
X117454494Y-81169463D01*
X117344180Y-81110498D01*
X117224482Y-81074188D01*
X117100000Y-81061928D01*
X116650000Y-81061928D01*
X116650000Y-73260208D01*
X116723673Y-73229692D01*
X117011935Y-73037081D01*
X117257081Y-72791935D01*
X117449692Y-72503673D01*
X117582364Y-72183373D01*
X117650000Y-71843345D01*
X117650000Y-71496655D01*
X117582364Y-71156627D01*
X117449692Y-70836327D01*
X117257081Y-70548065D01*
X117011935Y-70302919D01*
X116723673Y-70110308D01*
X116403373Y-69977636D01*
X116063345Y-69910000D01*
X115716655Y-69910000D01*
X115376627Y-69977636D01*
X115056327Y-70110308D01*
X114768065Y-70302919D01*
X114522919Y-70548065D01*
X114330308Y-70836327D01*
X114197636Y-71156627D01*
X114130000Y-71496655D01*
X114130000Y-71843345D01*
X114197636Y-72183373D01*
X114330308Y-72503673D01*
X114522919Y-72791935D01*
X114768065Y-73037081D01*
X115056327Y-73229692D01*
X115130000Y-73260208D01*
X115130000Y-74812174D01*
X115025826Y-74708000D01*
X114595251Y-74420299D01*
X114116822Y-74222127D01*
X113608924Y-74121100D01*
X113091076Y-74121100D01*
X112583178Y-74222127D01*
X112104749Y-74420299D01*
X111674174Y-74708000D01*
X111308000Y-75074174D01*
X111020299Y-75504749D01*
X110822127Y-75983178D01*
X110721100Y-76491076D01*
X110300000Y-76491076D01*
X110300000Y-75800208D01*
X110373673Y-75769692D01*
X110661935Y-75577081D01*
X110907081Y-75331935D01*
X111099692Y-75043673D01*
X111232364Y-74723373D01*
X111300000Y-74383345D01*
X111300000Y-74036655D01*
X111232364Y-73696627D01*
X111099692Y-73376327D01*
X110907081Y-73088065D01*
X110661935Y-72842919D01*
X110373673Y-72650308D01*
X110300000Y-72619792D01*
X110300000Y-72074801D01*
X119404802Y-62970000D01*
X119691822Y-62970000D01*
X119816525Y-63156632D01*
X120023368Y-63363475D01*
X120197760Y-63480000D01*
X120023368Y-63596525D01*
X119816525Y-63803368D01*
X119654010Y-64046589D01*
X119542068Y-64316842D01*
X119485000Y-64603740D01*
X119485000Y-64896260D01*
X119528791Y-65116408D01*
X119283997Y-65361202D01*
X119254999Y-65385000D01*
X119231201Y-65413998D01*
X119231200Y-65413999D01*
X119160025Y-65500725D01*
X119089453Y-65632755D01*
X119045997Y-65776016D01*
X119031323Y-65925001D01*
X119035000Y-65962333D01*
X119034999Y-67816678D01*
X119031323Y-67854001D01*
X119034999Y-67891323D01*
X119034999Y-67891333D01*
X119045996Y-68002986D01*
X119072755Y-68091200D01*
X119089453Y-68146247D01*
X119160025Y-68278277D01*
X119199870Y-68326827D01*
X119254998Y-68394002D01*
X119284001Y-68417804D01*
X119789704Y-68923508D01*
X119654010Y-69126589D01*
X119542068Y-69396842D01*
X119485000Y-69683740D01*
X119485000Y-69976260D01*
X119542068Y-70263158D01*
X119654010Y-70533411D01*
X119816525Y-70776632D01*
X120023368Y-70983475D01*
X120197760Y-71100000D01*
X120023368Y-71216525D01*
X119816525Y-71423368D01*
X119654010Y-71666589D01*
X119542068Y-71936842D01*
X119485000Y-72223740D01*
X119485000Y-72516260D01*
X119542068Y-72803158D01*
X119654010Y-73073411D01*
X119816525Y-73316632D01*
X120023368Y-73523475D01*
X120197760Y-73640000D01*
X120023368Y-73756525D01*
X119816525Y-73963368D01*
X119654010Y-74206589D01*
X119542068Y-74476842D01*
X119485000Y-74763740D01*
X119485000Y-75056260D01*
X119542068Y-75343158D01*
X119654010Y-75613411D01*
X119816525Y-75856632D01*
X120023368Y-76063475D01*
X120197760Y-76180000D01*
X120023368Y-76296525D01*
X119903270Y-76416623D01*
X119881971Y-76309549D01*
X119768144Y-76034747D01*
X119602893Y-75787431D01*
X119392569Y-75577107D01*
X119145253Y-75411856D01*
X118870451Y-75298029D01*
X118578722Y-75240000D01*
X118281278Y-75240000D01*
X117989549Y-75298029D01*
X117714747Y-75411856D01*
X117467431Y-75577107D01*
X117257107Y-75787431D01*
X117091856Y-76034747D01*
X116978029Y-76309549D01*
X116920000Y-76601278D01*
X116920000Y-76898722D01*
X116978029Y-77190451D01*
X117091856Y-77465253D01*
X117257107Y-77712569D01*
X117467431Y-77922893D01*
X117714747Y-78088144D01*
X117989549Y-78201971D01*
X118281278Y-78260000D01*
X118578722Y-78260000D01*
X118870451Y-78201971D01*
X119145253Y-78088144D01*
X119392569Y-77922893D01*
X119523857Y-77791605D01*
X119542068Y-77883158D01*
X119654010Y-78153411D01*
X119816525Y-78396632D01*
X120023368Y-78603475D01*
X120197760Y-78720000D01*
X120023368Y-78836525D01*
X119816525Y-79043368D01*
X119654010Y-79286589D01*
X119542068Y-79556842D01*
X119485000Y-79843740D01*
X119485000Y-80136260D01*
X119542068Y-80423158D01*
X119654010Y-80693411D01*
X119816525Y-80936632D01*
X120023368Y-81143475D01*
X120197760Y-81260000D01*
X120023368Y-81376525D01*
X119816525Y-81583368D01*
X119654010Y-81826589D01*
X119542068Y-82096842D01*
X119485000Y-82383740D01*
X119485000Y-82676260D01*
X119542068Y-82963158D01*
X119654010Y-83233411D01*
X119816525Y-83476632D01*
X120023368Y-83683475D01*
X120197760Y-83800000D01*
X120023368Y-83916525D01*
X119816525Y-84123368D01*
X119654010Y-84366589D01*
X119542068Y-84636842D01*
X119485000Y-84923740D01*
X119485000Y-85216260D01*
X119538456Y-85485001D01*
X117738072Y-85485001D01*
X117738072Y-85000000D01*
X117725812Y-84875518D01*
X117689502Y-84755820D01*
X117630537Y-84645506D01*
X117551185Y-84548815D01*
X117454494Y-84469463D01*
X117344180Y-84410498D01*
X117224482Y-84374188D01*
X117100000Y-84361928D01*
X115900000Y-84361928D01*
X115775518Y-84374188D01*
X115655820Y-84410498D01*
X115545506Y-84469463D01*
X115448815Y-84548815D01*
X115369463Y-84645506D01*
X115310498Y-84755820D01*
X115274188Y-84875518D01*
X115261928Y-85000000D01*
X115261928Y-85900000D01*
X115274188Y-86024482D01*
X115310498Y-86144180D01*
X115369463Y-86254494D01*
X115448815Y-86351185D01*
X115545506Y-86430537D01*
X115655820Y-86489502D01*
X115775518Y-86525812D01*
X115900000Y-86538072D01*
X116513270Y-86538072D01*
X116731202Y-86756003D01*
X116755000Y-86785002D01*
X116870725Y-86879975D01*
X117002754Y-86950547D01*
X117146015Y-86994004D01*
X117257668Y-87005001D01*
X117257677Y-87005001D01*
X117295000Y-87008677D01*
X117332323Y-87005001D01*
X119613247Y-87005001D01*
X119542068Y-87176842D01*
X119485000Y-87463740D01*
X119485000Y-87756260D01*
X119542068Y-88043158D01*
X119654010Y-88313411D01*
X119816525Y-88556632D01*
X120023368Y-88763475D01*
X120197760Y-88880000D01*
X120023368Y-88996525D01*
X119816525Y-89203368D01*
X119654010Y-89446589D01*
X119542068Y-89716842D01*
X119485000Y-90003740D01*
X119485000Y-90296260D01*
X119542068Y-90583158D01*
X119654010Y-90853411D01*
X119816525Y-91096632D01*
X120023368Y-91303475D01*
X120197760Y-91420000D01*
X120023368Y-91536525D01*
X119816525Y-91743368D01*
X119654010Y-91986589D01*
X119542068Y-92256842D01*
X119485000Y-92543740D01*
X119485000Y-92836260D01*
X119542068Y-93123158D01*
X119654010Y-93393411D01*
X119816525Y-93636632D01*
X120023368Y-93843475D01*
X120197760Y-93960000D01*
X120023368Y-94076525D01*
X119816525Y-94283368D01*
X119654010Y-94526589D01*
X119547995Y-94782533D01*
X119392569Y-94627107D01*
X119145253Y-94461856D01*
X118870451Y-94348029D01*
X118578722Y-94290000D01*
X118281278Y-94290000D01*
X117989549Y-94348029D01*
X117714747Y-94461856D01*
X117467431Y-94627107D01*
X117257107Y-94837431D01*
X117091856Y-95084747D01*
X116978029Y-95359549D01*
X116920000Y-95651278D01*
X116920000Y-95948722D01*
X116978029Y-96240451D01*
X117091856Y-96515253D01*
X117257107Y-96762569D01*
X117467431Y-96972893D01*
X117714747Y-97138144D01*
X117989549Y-97251971D01*
X118281278Y-97310000D01*
X118578722Y-97310000D01*
X118870451Y-97251971D01*
X119145253Y-97138144D01*
X119392569Y-96972893D01*
X119602893Y-96762569D01*
X119768144Y-96515253D01*
X119881494Y-96241601D01*
X120023368Y-96383475D01*
X120197760Y-96500000D01*
X120023368Y-96616525D01*
X119816525Y-96823368D01*
X119654010Y-97066589D01*
X119542068Y-97336842D01*
X119485000Y-97623740D01*
X119485000Y-97916260D01*
X119542068Y-98203158D01*
X119654010Y-98473411D01*
X119816525Y-98716632D01*
X120023368Y-98923475D01*
X120197760Y-99040000D01*
X120023368Y-99156525D01*
X119816525Y-99363368D01*
X119654010Y-99606589D01*
X119542068Y-99876842D01*
X119485000Y-100163740D01*
X119485000Y-100456260D01*
X119542068Y-100743158D01*
X119654010Y-101013411D01*
X119816525Y-101256632D01*
X120023368Y-101463475D01*
X120205534Y-101585195D01*
X120088645Y-101654822D01*
X119872412Y-101849731D01*
X119698359Y-102083080D01*
X119573175Y-102345901D01*
X119528524Y-102493110D01*
X119649845Y-102723000D01*
X120843000Y-102723000D01*
X120843000Y-102703000D01*
X121097000Y-102703000D01*
X121097000Y-102723000D01*
X122290155Y-102723000D01*
X122411476Y-102493110D01*
X122366825Y-102345901D01*
X122241641Y-102083080D01*
X122067588Y-101849731D01*
X121851355Y-101654822D01*
X121734466Y-101585195D01*
X121916632Y-101463475D01*
X122123475Y-101256632D01*
X122285990Y-101013411D01*
X122397932Y-100743158D01*
X122455000Y-100456260D01*
X122455000Y-100163740D01*
X122397932Y-99876842D01*
X122285990Y-99606589D01*
X122123475Y-99363368D01*
X121916632Y-99156525D01*
X121742240Y-99040000D01*
X121916632Y-98923475D01*
X122123475Y-98716632D01*
X122285990Y-98473411D01*
X122397932Y-98203158D01*
X122455000Y-97916260D01*
X122455000Y-97623740D01*
X122397932Y-97336842D01*
X122285990Y-97066589D01*
X122123475Y-96823368D01*
X121916632Y-96616525D01*
X121742240Y-96500000D01*
X121916632Y-96383475D01*
X122123475Y-96176632D01*
X122285990Y-95933411D01*
X122397932Y-95663158D01*
X122455000Y-95376260D01*
X122455000Y-95083740D01*
X122397932Y-94796842D01*
X122285990Y-94526589D01*
X122123475Y-94283368D01*
X121916632Y-94076525D01*
X121742240Y-93960000D01*
X121916632Y-93843475D01*
X122123475Y-93636632D01*
X122285990Y-93393411D01*
X122397932Y-93123158D01*
X122455000Y-92836260D01*
X122455000Y-92543740D01*
X122397932Y-92256842D01*
X122285990Y-91986589D01*
X122123475Y-91743368D01*
X121916632Y-91536525D01*
X121742240Y-91420000D01*
X121916632Y-91303475D01*
X122123475Y-91096632D01*
X122285990Y-90853411D01*
X122397932Y-90583158D01*
X122455000Y-90296260D01*
X122455000Y-90003740D01*
X122397932Y-89716842D01*
X122285990Y-89446589D01*
X122123475Y-89203368D01*
X121916632Y-88996525D01*
X121742240Y-88880000D01*
X121916632Y-88763475D01*
X122123475Y-88556632D01*
X122285990Y-88313411D01*
X122397932Y-88043158D01*
X122455000Y-87756260D01*
X122455000Y-87463740D01*
X122397932Y-87176842D01*
X122326753Y-87005001D01*
X127643338Y-87005001D01*
X127604774Y-87098102D01*
X127565000Y-87298061D01*
X127565000Y-87501939D01*
X127604774Y-87701898D01*
X127682795Y-87890256D01*
X127796063Y-88059774D01*
X127840000Y-88103711D01*
X127840001Y-91665649D01*
X127756327Y-91700308D01*
X127468065Y-91892919D01*
X127222919Y-92138065D01*
X127030308Y-92426327D01*
X126897636Y-92746627D01*
X126830000Y-93086655D01*
X126830000Y-93433345D01*
X126897636Y-93773373D01*
X127030308Y-94093673D01*
X127162638Y-94291719D01*
X126879549Y-94348029D01*
X126604747Y-94461856D01*
X126357431Y-94627107D01*
X126147107Y-94837431D01*
X125981856Y-95084747D01*
X125868029Y-95359549D01*
X125810000Y-95651278D01*
X125810000Y-95948722D01*
X125868029Y-96240451D01*
X125981856Y-96515253D01*
X126147107Y-96762569D01*
X126357431Y-96972893D01*
X126604747Y-97138144D01*
X126879549Y-97251971D01*
X127171278Y-97310000D01*
X127468722Y-97310000D01*
X127760451Y-97251971D01*
X127830000Y-97223163D01*
X127830001Y-102606288D01*
X127796063Y-102640226D01*
X127682795Y-102809744D01*
X127604774Y-102998102D01*
X127565000Y-103198061D01*
X127565000Y-103401939D01*
X127575554Y-103454999D01*
X122318765Y-103454999D01*
X122366825Y-103354099D01*
X122411476Y-103206890D01*
X122290155Y-102977000D01*
X121097000Y-102977000D01*
X121097000Y-102997000D01*
X120843000Y-102997000D01*
X120843000Y-102977000D01*
X119649845Y-102977000D01*
X119528524Y-103206890D01*
X119573175Y-103354099D01*
X119621235Y-103454999D01*
X117326052Y-103454999D01*
X117224482Y-103424188D01*
X117100000Y-103411928D01*
X115900000Y-103411928D01*
X115775518Y-103424188D01*
X115655820Y-103460498D01*
X115545506Y-103519463D01*
X115448815Y-103598815D01*
X115369463Y-103695506D01*
X115310498Y-103805820D01*
X115274188Y-103925518D01*
X115261928Y-104050000D01*
X115261928Y-104950000D01*
X115274188Y-105074482D01*
X115310498Y-105194180D01*
X115369463Y-105304494D01*
X115448815Y-105401185D01*
X115545506Y-105480537D01*
X115655820Y-105539502D01*
X115775518Y-105575812D01*
X115900000Y-105588072D01*
X117100000Y-105588072D01*
X117224482Y-105575812D01*
X117344180Y-105539502D01*
X117454494Y-105480537D01*
X117551185Y-105401185D01*
X117630537Y-105304494D01*
X117689502Y-105194180D01*
X117725812Y-105074482D01*
X117735610Y-104974999D01*
X119538456Y-104974999D01*
X119485000Y-105243740D01*
X119485000Y-105536260D01*
X119542068Y-105823158D01*
X119654010Y-106093411D01*
X119816525Y-106336632D01*
X120023368Y-106543475D01*
X120205534Y-106665195D01*
X120088645Y-106734822D01*
X119872412Y-106929731D01*
X119698359Y-107163080D01*
X119573175Y-107425901D01*
X119528524Y-107573110D01*
X119649845Y-107803000D01*
X120843000Y-107803000D01*
X120843000Y-107783000D01*
X121097000Y-107783000D01*
X121097000Y-107803000D01*
X122290155Y-107803000D01*
X122411476Y-107573110D01*
X122366825Y-107425901D01*
X122241641Y-107163080D01*
X122067588Y-106929731D01*
X121851355Y-106734822D01*
X121734466Y-106665195D01*
X121916632Y-106543475D01*
X122123475Y-106336632D01*
X122285990Y-106093411D01*
X122397932Y-105823158D01*
X122455000Y-105536260D01*
X122455000Y-105243740D01*
X122401544Y-104974999D01*
X127589478Y-104974999D01*
X127565000Y-105098061D01*
X127565000Y-105301939D01*
X127604774Y-105501898D01*
X127682795Y-105690256D01*
X127796063Y-105859774D01*
X127840000Y-105903711D01*
X127840001Y-110715649D01*
X127756327Y-110750308D01*
X127468065Y-110942919D01*
X127222919Y-111188065D01*
X127030308Y-111476327D01*
X126897636Y-111796627D01*
X126830000Y-112136655D01*
X126830000Y-112483345D01*
X126897636Y-112823373D01*
X127030308Y-113143673D01*
X127162638Y-113341719D01*
X126879549Y-113398029D01*
X126604747Y-113511856D01*
X126357431Y-113677107D01*
X126147107Y-113887431D01*
X125981856Y-114134747D01*
X125868029Y-114409549D01*
X125810000Y-114701278D01*
X125810000Y-114998722D01*
X125868029Y-115290451D01*
X125981856Y-115565253D01*
X126147107Y-115812569D01*
X126357431Y-116022893D01*
X126604747Y-116188144D01*
X126879549Y-116301971D01*
X127171278Y-116360000D01*
X127468722Y-116360000D01*
X127760451Y-116301971D01*
X128035253Y-116188144D01*
X128282569Y-116022893D01*
X128492893Y-115812569D01*
X128658144Y-115565253D01*
X128771971Y-115290451D01*
X128830000Y-114998722D01*
X128830000Y-114701278D01*
X128808080Y-114591076D01*
X129771100Y-114591076D01*
X129771100Y-115108924D01*
X129872127Y-115616822D01*
X130070299Y-116095251D01*
X130358000Y-116525826D01*
X130724174Y-116892000D01*
X131154749Y-117179701D01*
X131633178Y-117377873D01*
X132141076Y-117478900D01*
X132658924Y-117478900D01*
X133166822Y-117377873D01*
X133645251Y-117179701D01*
X134075826Y-116892000D01*
X134180001Y-116787825D01*
X134180001Y-119602668D01*
X134176324Y-119640000D01*
X134180001Y-119677333D01*
X134186075Y-119738997D01*
X134190998Y-119788985D01*
X134234454Y-119932246D01*
X134305026Y-120064276D01*
X134311928Y-120072686D01*
X134311928Y-120700000D01*
X134324188Y-120824482D01*
X134360498Y-120944180D01*
X134419463Y-121054494D01*
X134498815Y-121151185D01*
X134595506Y-121230537D01*
X134705820Y-121289502D01*
X134825518Y-121325812D01*
X134950000Y-121338072D01*
X136150000Y-121338072D01*
X136274482Y-121325812D01*
X136394180Y-121289502D01*
X136504494Y-121230537D01*
X136601185Y-121151185D01*
X136680537Y-121054494D01*
X136739502Y-120944180D01*
X136775812Y-120824482D01*
X136788072Y-120700000D01*
X136788072Y-119800000D01*
X136775812Y-119675518D01*
X136739502Y-119555820D01*
X136680537Y-119445506D01*
X136601185Y-119348815D01*
X136504494Y-119269463D01*
X136394180Y-119210498D01*
X136274482Y-119174188D01*
X136150000Y-119161928D01*
X135700000Y-119161928D01*
X135700000Y-114701278D01*
X135970000Y-114701278D01*
X135970000Y-114998722D01*
X136028029Y-115290451D01*
X136141856Y-115565253D01*
X136307107Y-115812569D01*
X136517431Y-116022893D01*
X136764747Y-116188144D01*
X137039549Y-116301971D01*
X137331278Y-116360000D01*
X137628722Y-116360000D01*
X137920451Y-116301971D01*
X138195253Y-116188144D01*
X138442569Y-116022893D01*
X138652893Y-115812569D01*
X138818144Y-115565253D01*
X138931971Y-115290451D01*
X138990000Y-114998722D01*
X138990000Y-114701278D01*
X138931971Y-114409549D01*
X138818144Y-114134747D01*
X138652893Y-113887431D01*
X138442569Y-113677107D01*
X138195253Y-113511856D01*
X137920451Y-113398029D01*
X137628722Y-113340000D01*
X137331278Y-113340000D01*
X137039549Y-113398029D01*
X136764747Y-113511856D01*
X136517431Y-113677107D01*
X136307107Y-113887431D01*
X136141856Y-114134747D01*
X136028029Y-114409549D01*
X135970000Y-114701278D01*
X135700000Y-114701278D01*
X135700000Y-111360208D01*
X135773673Y-111329692D01*
X136061935Y-111137081D01*
X136307081Y-110891935D01*
X136499692Y-110603673D01*
X136632364Y-110283373D01*
X136700000Y-109943345D01*
X136700000Y-109596655D01*
X136632364Y-109256627D01*
X136499692Y-108936327D01*
X136307081Y-108648065D01*
X136061935Y-108402919D01*
X135773673Y-108210308D01*
X135453373Y-108077636D01*
X135113345Y-108010000D01*
X134766655Y-108010000D01*
X134426627Y-108077636D01*
X134106327Y-108210308D01*
X133818065Y-108402919D01*
X133572919Y-108648065D01*
X133380308Y-108936327D01*
X133247636Y-109256627D01*
X133180000Y-109596655D01*
X133180000Y-109943345D01*
X133247636Y-110283373D01*
X133380308Y-110603673D01*
X133572919Y-110891935D01*
X133818065Y-111137081D01*
X134106327Y-111329692D01*
X134180000Y-111360208D01*
X134180000Y-112912174D01*
X134075826Y-112808000D01*
X133645251Y-112520299D01*
X133166822Y-112322127D01*
X132658924Y-112221100D01*
X132141076Y-112221100D01*
X131633178Y-112322127D01*
X131154749Y-112520299D01*
X130724174Y-112808000D01*
X130358000Y-113174174D01*
X130070299Y-113604749D01*
X129872127Y-114083178D01*
X129771100Y-114591076D01*
X128808080Y-114591076D01*
X128771971Y-114409549D01*
X128658144Y-114134747D01*
X128614882Y-114070000D01*
X128763345Y-114070000D01*
X129103373Y-114002364D01*
X129423673Y-113869692D01*
X129711935Y-113677081D01*
X129957081Y-113431935D01*
X130149692Y-113143673D01*
X130282364Y-112823373D01*
X130350000Y-112483345D01*
X130350000Y-112136655D01*
X130282364Y-111796627D01*
X130149692Y-111476327D01*
X129957081Y-111188065D01*
X129711935Y-110942919D01*
X129423673Y-110750308D01*
X129360000Y-110723934D01*
X129360000Y-105903711D01*
X129403937Y-105859774D01*
X129517205Y-105690256D01*
X129595226Y-105501898D01*
X129635000Y-105301939D01*
X129635000Y-105098061D01*
X129610522Y-104974999D01*
X134314390Y-104974999D01*
X134324188Y-105074482D01*
X134360498Y-105194180D01*
X134419463Y-105304494D01*
X134498815Y-105401185D01*
X134595506Y-105480537D01*
X134705820Y-105539502D01*
X134825518Y-105575812D01*
X134950000Y-105588072D01*
X136150000Y-105588072D01*
X136274482Y-105575812D01*
X136394180Y-105539502D01*
X136504494Y-105480537D01*
X136601185Y-105401185D01*
X136680537Y-105304494D01*
X136739502Y-105194180D01*
X136775812Y-105074482D01*
X136785610Y-104974999D01*
X139347668Y-104974999D01*
X139385001Y-104978676D01*
X139422334Y-104974999D01*
X139969587Y-104974999D01*
X139965000Y-104998061D01*
X139965000Y-105201939D01*
X140004774Y-105401898D01*
X140082795Y-105590256D01*
X140196063Y-105759774D01*
X140240000Y-105803711D01*
X140240001Y-117785197D01*
X135563271Y-122461928D01*
X134950000Y-122461928D01*
X134825518Y-122474188D01*
X134705820Y-122510498D01*
X134595506Y-122569463D01*
X134498815Y-122648815D01*
X134419463Y-122745506D01*
X134395680Y-122790000D01*
X117654320Y-122790000D01*
X117630537Y-122745506D01*
X117551185Y-122648815D01*
X117454494Y-122569463D01*
X117344180Y-122510498D01*
X117224482Y-122474188D01*
X117100000Y-122461928D01*
X115900000Y-122461928D01*
X115775518Y-122474188D01*
X115655820Y-122510498D01*
X115545506Y-122569463D01*
X115448815Y-122648815D01*
X115369463Y-122745506D01*
X115310498Y-122855820D01*
X115274188Y-122975518D01*
X115261928Y-123100000D01*
X115261928Y-124000000D01*
X115274188Y-124124482D01*
X115310498Y-124244180D01*
X115369463Y-124354494D01*
X115448815Y-124451185D01*
X115545506Y-124530537D01*
X115655820Y-124589502D01*
X115775518Y-124625812D01*
X115900000Y-124638072D01*
X117100000Y-124638072D01*
X117224482Y-124625812D01*
X117344180Y-124589502D01*
X117454494Y-124530537D01*
X117551185Y-124451185D01*
X117630537Y-124354494D01*
X117654320Y-124310000D01*
X134395680Y-124310000D01*
X134419463Y-124354494D01*
X134498815Y-124451185D01*
X134595506Y-124530537D01*
X134705820Y-124589502D01*
X134825518Y-124625812D01*
X134950000Y-124638072D01*
X136150000Y-124638072D01*
X136274482Y-124625812D01*
X136394180Y-124589502D01*
X136504494Y-124530537D01*
X136601185Y-124451185D01*
X136680537Y-124354494D01*
X136704320Y-124310000D01*
X153445680Y-124310000D01*
X153469463Y-124354494D01*
X153548815Y-124451185D01*
X153645506Y-124530537D01*
X153755820Y-124589502D01*
X153875518Y-124625812D01*
X154000000Y-124638072D01*
X155200000Y-124638072D01*
X155324482Y-124625812D01*
X155444180Y-124589502D01*
X155554494Y-124530537D01*
X155651185Y-124451185D01*
X155730537Y-124354494D01*
X155789502Y-124244180D01*
X155825812Y-124124482D01*
X155838072Y-124000000D01*
X155838072Y-123100000D01*
X155825812Y-122975518D01*
X155789502Y-122855820D01*
X155730537Y-122745506D01*
X155651185Y-122648815D01*
X155554494Y-122569463D01*
X155444180Y-122510498D01*
X155324482Y-122474188D01*
X155200000Y-122461928D01*
X154000000Y-122461928D01*
X153875518Y-122474188D01*
X153755820Y-122510498D01*
X153645506Y-122569463D01*
X153548815Y-122648815D01*
X153469463Y-122745506D01*
X153445680Y-122790000D01*
X137384801Y-122790000D01*
X141511003Y-118663799D01*
X141540001Y-118640001D01*
X141566332Y-118607917D01*
X141634974Y-118524277D01*
X141705546Y-118392247D01*
X141749003Y-118248986D01*
X141760000Y-118137333D01*
X141760000Y-118137323D01*
X141763676Y-118100000D01*
X141760000Y-118062677D01*
X141760000Y-107783740D01*
X142345000Y-107783740D01*
X142345000Y-108076260D01*
X142402068Y-108363158D01*
X142514010Y-108633411D01*
X142676525Y-108876632D01*
X142883368Y-109083475D01*
X143126589Y-109245990D01*
X143396842Y-109357932D01*
X143683740Y-109415000D01*
X143976260Y-109415000D01*
X144263158Y-109357932D01*
X144533411Y-109245990D01*
X144776632Y-109083475D01*
X144983475Y-108876632D01*
X145145990Y-108633411D01*
X145257932Y-108363158D01*
X145315000Y-108076260D01*
X145315000Y-107783740D01*
X145257932Y-107496842D01*
X145145990Y-107226589D01*
X144983475Y-106983368D01*
X144776632Y-106776525D01*
X144594466Y-106654805D01*
X144711355Y-106585178D01*
X144927588Y-106390269D01*
X145101641Y-106156920D01*
X145226825Y-105894099D01*
X145271476Y-105746890D01*
X145150155Y-105517000D01*
X143957000Y-105517000D01*
X143957000Y-105537000D01*
X143703000Y-105537000D01*
X143703000Y-105517000D01*
X142509845Y-105517000D01*
X142388524Y-105746890D01*
X142433175Y-105894099D01*
X142558359Y-106156920D01*
X142732412Y-106390269D01*
X142948645Y-106585178D01*
X143065534Y-106654805D01*
X142883368Y-106776525D01*
X142676525Y-106983368D01*
X142514010Y-107226589D01*
X142402068Y-107496842D01*
X142345000Y-107783740D01*
X141760000Y-107783740D01*
X141760000Y-105803711D01*
X141803937Y-105759774D01*
X141917205Y-105590256D01*
X141995226Y-105401898D01*
X142035000Y-105201939D01*
X142035000Y-104998061D01*
X142030413Y-104974999D01*
X142406150Y-104974999D01*
X142388524Y-105033110D01*
X142509845Y-105263000D01*
X143703000Y-105263000D01*
X143703000Y-105243000D01*
X143957000Y-105243000D01*
X143957000Y-105263000D01*
X145150155Y-105263000D01*
X145271476Y-105033110D01*
X145253850Y-104974999D01*
X146755765Y-104974999D01*
X146704774Y-105098102D01*
X146665000Y-105298061D01*
X146665000Y-105501939D01*
X146704774Y-105701898D01*
X146782795Y-105890256D01*
X146896063Y-106059774D01*
X146940000Y-106103711D01*
X146940001Y-110694939D01*
X146806327Y-110750308D01*
X146518065Y-110942919D01*
X146272919Y-111188065D01*
X146080308Y-111476327D01*
X145947636Y-111796627D01*
X145880000Y-112136655D01*
X145880000Y-112483345D01*
X145947636Y-112823373D01*
X146080308Y-113143673D01*
X146212638Y-113341719D01*
X145929549Y-113398029D01*
X145654747Y-113511856D01*
X145407431Y-113677107D01*
X145197107Y-113887431D01*
X145031856Y-114134747D01*
X144918029Y-114409549D01*
X144860000Y-114701278D01*
X144860000Y-114998722D01*
X144918029Y-115290451D01*
X145031856Y-115565253D01*
X145197107Y-115812569D01*
X145407431Y-116022893D01*
X145654747Y-116188144D01*
X145929549Y-116301971D01*
X146221278Y-116360000D01*
X146518722Y-116360000D01*
X146810451Y-116301971D01*
X147085253Y-116188144D01*
X147332569Y-116022893D01*
X147542893Y-115812569D01*
X147708144Y-115565253D01*
X147821971Y-115290451D01*
X147880000Y-114998722D01*
X147880000Y-114701278D01*
X147858080Y-114591076D01*
X148821100Y-114591076D01*
X148821100Y-115108924D01*
X148922127Y-115616822D01*
X149120299Y-116095251D01*
X149408000Y-116525826D01*
X149774174Y-116892000D01*
X150204749Y-117179701D01*
X150683178Y-117377873D01*
X151191076Y-117478900D01*
X151708924Y-117478900D01*
X152216822Y-117377873D01*
X152695251Y-117179701D01*
X153125826Y-116892000D01*
X153230001Y-116787825D01*
X153230001Y-119602668D01*
X153226324Y-119640000D01*
X153230001Y-119677333D01*
X153236075Y-119738997D01*
X153240998Y-119788985D01*
X153284454Y-119932246D01*
X153355026Y-120064276D01*
X153361928Y-120072686D01*
X153361928Y-120700000D01*
X153374188Y-120824482D01*
X153410498Y-120944180D01*
X153469463Y-121054494D01*
X153548815Y-121151185D01*
X153645506Y-121230537D01*
X153755820Y-121289502D01*
X153875518Y-121325812D01*
X154000000Y-121338072D01*
X155200000Y-121338072D01*
X155324482Y-121325812D01*
X155444180Y-121289502D01*
X155554494Y-121230537D01*
X155651185Y-121151185D01*
X155730537Y-121054494D01*
X155789502Y-120944180D01*
X155825812Y-120824482D01*
X155838072Y-120700000D01*
X155838072Y-119800000D01*
X155825812Y-119675518D01*
X155789502Y-119555820D01*
X155730537Y-119445506D01*
X155651185Y-119348815D01*
X155554494Y-119269463D01*
X155444180Y-119210498D01*
X155324482Y-119174188D01*
X155200000Y-119161928D01*
X154750000Y-119161928D01*
X154750000Y-114701278D01*
X155020000Y-114701278D01*
X155020000Y-114998722D01*
X155078029Y-115290451D01*
X155191856Y-115565253D01*
X155357107Y-115812569D01*
X155567431Y-116022893D01*
X155814747Y-116188144D01*
X156089549Y-116301971D01*
X156381278Y-116360000D01*
X156678722Y-116360000D01*
X156970451Y-116301971D01*
X157245253Y-116188144D01*
X157492569Y-116022893D01*
X157702893Y-115812569D01*
X157868144Y-115565253D01*
X157981971Y-115290451D01*
X158040000Y-114998722D01*
X158040000Y-114701278D01*
X157981971Y-114409549D01*
X157868144Y-114134747D01*
X157702893Y-113887431D01*
X157492569Y-113677107D01*
X157245253Y-113511856D01*
X156970451Y-113398029D01*
X156678722Y-113340000D01*
X156381278Y-113340000D01*
X156089549Y-113398029D01*
X155814747Y-113511856D01*
X155567431Y-113677107D01*
X155357107Y-113887431D01*
X155191856Y-114134747D01*
X155078029Y-114409549D01*
X155020000Y-114701278D01*
X154750000Y-114701278D01*
X154750000Y-111360208D01*
X154823673Y-111329692D01*
X155111935Y-111137081D01*
X155357081Y-110891935D01*
X155549692Y-110603673D01*
X155682364Y-110283373D01*
X155750000Y-109943345D01*
X155750000Y-109596655D01*
X155682364Y-109256627D01*
X155549692Y-108936327D01*
X155357081Y-108648065D01*
X155111935Y-108402919D01*
X154823673Y-108210308D01*
X154503373Y-108077636D01*
X154163345Y-108010000D01*
X153816655Y-108010000D01*
X153476627Y-108077636D01*
X153156327Y-108210308D01*
X152868065Y-108402919D01*
X152622919Y-108648065D01*
X152430308Y-108936327D01*
X152297636Y-109256627D01*
X152230000Y-109596655D01*
X152230000Y-109943345D01*
X152297636Y-110283373D01*
X152430308Y-110603673D01*
X152622919Y-110891935D01*
X152868065Y-111137081D01*
X153156327Y-111329692D01*
X153230000Y-111360208D01*
X153230000Y-112912174D01*
X153125826Y-112808000D01*
X152695251Y-112520299D01*
X152216822Y-112322127D01*
X151708924Y-112221100D01*
X151191076Y-112221100D01*
X150683178Y-112322127D01*
X150204749Y-112520299D01*
X149774174Y-112808000D01*
X149408000Y-113174174D01*
X149120299Y-113604749D01*
X148922127Y-114083178D01*
X148821100Y-114591076D01*
X147858080Y-114591076D01*
X147821971Y-114409549D01*
X147708144Y-114134747D01*
X147664882Y-114070000D01*
X147813345Y-114070000D01*
X148153373Y-114002364D01*
X148473673Y-113869692D01*
X148761935Y-113677081D01*
X149007081Y-113431935D01*
X149199692Y-113143673D01*
X149332364Y-112823373D01*
X149400000Y-112483345D01*
X149400000Y-112136655D01*
X149332364Y-111796627D01*
X149199692Y-111476327D01*
X149007081Y-111188065D01*
X148761935Y-110942919D01*
X148473673Y-110750308D01*
X148460000Y-110744644D01*
X148460000Y-106103711D01*
X148503937Y-106059774D01*
X148617205Y-105890256D01*
X148695226Y-105701898D01*
X148735000Y-105501939D01*
X148735000Y-105298061D01*
X148695226Y-105098102D01*
X148644235Y-104974999D01*
X153364390Y-104974999D01*
X153374188Y-105074482D01*
X153410498Y-105194180D01*
X153469463Y-105304494D01*
X153548815Y-105401185D01*
X153645506Y-105480537D01*
X153755820Y-105539502D01*
X153875518Y-105575812D01*
X154000000Y-105588072D01*
X155200000Y-105588072D01*
X155324482Y-105575812D01*
X155444180Y-105539502D01*
X155554494Y-105480537D01*
X155651185Y-105401185D01*
X155730537Y-105304494D01*
X155789502Y-105194180D01*
X155825812Y-105074482D01*
X155838072Y-104950000D01*
X155838072Y-104050000D01*
X155825812Y-103925518D01*
X155789502Y-103805820D01*
X155730537Y-103695506D01*
X155651185Y-103598815D01*
X155554494Y-103519463D01*
X155444180Y-103460498D01*
X155324482Y-103424188D01*
X155200000Y-103411928D01*
X154000000Y-103411928D01*
X153875518Y-103424188D01*
X153773948Y-103454999D01*
X148573945Y-103454999D01*
X148617205Y-103390256D01*
X148695226Y-103201898D01*
X148735000Y-103001939D01*
X148735000Y-102798061D01*
X148695226Y-102598102D01*
X148617205Y-102409744D01*
X148503937Y-102240226D01*
X148400000Y-102136289D01*
X148400000Y-95541076D01*
X148821100Y-95541076D01*
X148821100Y-96058924D01*
X148922127Y-96566822D01*
X149120299Y-97045251D01*
X149408000Y-97475826D01*
X149774174Y-97842000D01*
X150204749Y-98129701D01*
X150683178Y-98327873D01*
X151191076Y-98428900D01*
X151708924Y-98428900D01*
X152216822Y-98327873D01*
X152695251Y-98129701D01*
X153125826Y-97842000D01*
X153230001Y-97737825D01*
X153230001Y-100552668D01*
X153226324Y-100590000D01*
X153230001Y-100627333D01*
X153236075Y-100688997D01*
X153240998Y-100738985D01*
X153284454Y-100882246D01*
X153355026Y-101014276D01*
X153361928Y-101022686D01*
X153361928Y-101650000D01*
X153374188Y-101774482D01*
X153410498Y-101894180D01*
X153469463Y-102004494D01*
X153548815Y-102101185D01*
X153645506Y-102180537D01*
X153755820Y-102239502D01*
X153875518Y-102275812D01*
X154000000Y-102288072D01*
X155200000Y-102288072D01*
X155324482Y-102275812D01*
X155444180Y-102239502D01*
X155554494Y-102180537D01*
X155651185Y-102101185D01*
X155730537Y-102004494D01*
X155789502Y-101894180D01*
X155825812Y-101774482D01*
X155838072Y-101650000D01*
X155838072Y-100750000D01*
X155825812Y-100625518D01*
X155789502Y-100505820D01*
X155730537Y-100395506D01*
X155651185Y-100298815D01*
X155554494Y-100219463D01*
X155444180Y-100160498D01*
X155324482Y-100124188D01*
X155200000Y-100111928D01*
X154750000Y-100111928D01*
X154750000Y-95651278D01*
X155020000Y-95651278D01*
X155020000Y-95948722D01*
X155078029Y-96240451D01*
X155191856Y-96515253D01*
X155357107Y-96762569D01*
X155567431Y-96972893D01*
X155814747Y-97138144D01*
X156089549Y-97251971D01*
X156381278Y-97310000D01*
X156678722Y-97310000D01*
X156970451Y-97251971D01*
X157245253Y-97138144D01*
X157492569Y-96972893D01*
X157702893Y-96762569D01*
X157868144Y-96515253D01*
X157981971Y-96240451D01*
X158040000Y-95948722D01*
X158040000Y-95651278D01*
X157981971Y-95359549D01*
X157868144Y-95084747D01*
X157702893Y-94837431D01*
X157492569Y-94627107D01*
X157245253Y-94461856D01*
X156970451Y-94348029D01*
X156678722Y-94290000D01*
X156381278Y-94290000D01*
X156089549Y-94348029D01*
X155814747Y-94461856D01*
X155567431Y-94627107D01*
X155357107Y-94837431D01*
X155191856Y-95084747D01*
X155078029Y-95359549D01*
X155020000Y-95651278D01*
X154750000Y-95651278D01*
X154750000Y-92310208D01*
X154823673Y-92279692D01*
X155111935Y-92087081D01*
X155357081Y-91841935D01*
X155549692Y-91553673D01*
X155682364Y-91233373D01*
X155750000Y-90893345D01*
X155750000Y-90546655D01*
X155682364Y-90206627D01*
X155549692Y-89886327D01*
X155357081Y-89598065D01*
X155111935Y-89352919D01*
X154823673Y-89160308D01*
X154503373Y-89027636D01*
X154163345Y-88960000D01*
X153816655Y-88960000D01*
X153476627Y-89027636D01*
X153156327Y-89160308D01*
X152868065Y-89352919D01*
X152622919Y-89598065D01*
X152430308Y-89886327D01*
X152297636Y-90206627D01*
X152230000Y-90546655D01*
X152230000Y-90893345D01*
X152297636Y-91233373D01*
X152430308Y-91553673D01*
X152622919Y-91841935D01*
X152868065Y-92087081D01*
X153156327Y-92279692D01*
X153230000Y-92310208D01*
X153230000Y-93862174D01*
X153125826Y-93758000D01*
X152695251Y-93470299D01*
X152216822Y-93272127D01*
X151708924Y-93171100D01*
X151191076Y-93171100D01*
X150683178Y-93272127D01*
X150204749Y-93470299D01*
X149774174Y-93758000D01*
X149408000Y-94124174D01*
X149120299Y-94554749D01*
X148922127Y-95033178D01*
X148821100Y-95541076D01*
X148400000Y-95541076D01*
X148400000Y-94850208D01*
X148473673Y-94819692D01*
X148761935Y-94627081D01*
X149007081Y-94381935D01*
X149199692Y-94093673D01*
X149332364Y-93773373D01*
X149400000Y-93433345D01*
X149400000Y-93086655D01*
X149332364Y-92746627D01*
X149199692Y-92426327D01*
X149007081Y-92138065D01*
X148761935Y-91892919D01*
X148473673Y-91700308D01*
X148360000Y-91653223D01*
X148360000Y-88503711D01*
X148403937Y-88459774D01*
X148517205Y-88290256D01*
X148595226Y-88101898D01*
X148635000Y-87901939D01*
X148635000Y-87698061D01*
X148595226Y-87498102D01*
X148517205Y-87309744D01*
X148403937Y-87140226D01*
X148268712Y-87005001D01*
X153767677Y-87005001D01*
X153804999Y-87008677D01*
X153842321Y-87005001D01*
X153842332Y-87005001D01*
X153953985Y-86994004D01*
X154097246Y-86950547D01*
X154229275Y-86879975D01*
X154345000Y-86785002D01*
X154368802Y-86755999D01*
X154586729Y-86538072D01*
X155200000Y-86538072D01*
X155324482Y-86525812D01*
X155444180Y-86489502D01*
X155554494Y-86430537D01*
X155651185Y-86351185D01*
X155730537Y-86254494D01*
X155789502Y-86144180D01*
X155825812Y-86024482D01*
X155838072Y-85900000D01*
X155838072Y-85000000D01*
X155825812Y-84875518D01*
X155789502Y-84755820D01*
X155730537Y-84645506D01*
X155651185Y-84548815D01*
X155554494Y-84469463D01*
X155444180Y-84410498D01*
X155324482Y-84374188D01*
X155200000Y-84361928D01*
X154000000Y-84361928D01*
X153875518Y-84374188D01*
X153755820Y-84410498D01*
X153645506Y-84469463D01*
X153548815Y-84548815D01*
X153469463Y-84645506D01*
X153410498Y-84755820D01*
X153374188Y-84875518D01*
X153361928Y-85000000D01*
X153361928Y-85485001D01*
X148378710Y-85485001D01*
X148403937Y-85459774D01*
X148517205Y-85290256D01*
X148595226Y-85101898D01*
X148635000Y-84901939D01*
X148635000Y-84698061D01*
X148595226Y-84498102D01*
X148517205Y-84309744D01*
X148403937Y-84140226D01*
X148400000Y-84136289D01*
X148400000Y-76491076D01*
X148821100Y-76491076D01*
X148821100Y-77008924D01*
X148922127Y-77516822D01*
X149120299Y-77995251D01*
X149408000Y-78425826D01*
X149774174Y-78792000D01*
X150204749Y-79079701D01*
X150683178Y-79277873D01*
X151191076Y-79378900D01*
X151708924Y-79378900D01*
X152216822Y-79277873D01*
X152695251Y-79079701D01*
X153125826Y-78792000D01*
X153230001Y-78687825D01*
X153230001Y-81502668D01*
X153226324Y-81540000D01*
X153230001Y-81577333D01*
X153236075Y-81638997D01*
X153240998Y-81688985D01*
X153284454Y-81832246D01*
X153355026Y-81964276D01*
X153361928Y-81972686D01*
X153361928Y-82600000D01*
X153374188Y-82724482D01*
X153410498Y-82844180D01*
X153469463Y-82954494D01*
X153548815Y-83051185D01*
X153645506Y-83130537D01*
X153755820Y-83189502D01*
X153875518Y-83225812D01*
X154000000Y-83238072D01*
X155200000Y-83238072D01*
X155324482Y-83225812D01*
X155444180Y-83189502D01*
X155554494Y-83130537D01*
X155651185Y-83051185D01*
X155730537Y-82954494D01*
X155789502Y-82844180D01*
X155825812Y-82724482D01*
X155838072Y-82600000D01*
X155838072Y-81700000D01*
X155825812Y-81575518D01*
X155789502Y-81455820D01*
X155730537Y-81345506D01*
X155651185Y-81248815D01*
X155554494Y-81169463D01*
X155444180Y-81110498D01*
X155324482Y-81074188D01*
X155200000Y-81061928D01*
X154750000Y-81061928D01*
X154750000Y-76601278D01*
X155020000Y-76601278D01*
X155020000Y-76898722D01*
X155078029Y-77190451D01*
X155191856Y-77465253D01*
X155357107Y-77712569D01*
X155567431Y-77922893D01*
X155814747Y-78088144D01*
X156089549Y-78201971D01*
X156381278Y-78260000D01*
X156678722Y-78260000D01*
X156970451Y-78201971D01*
X157245253Y-78088144D01*
X157492569Y-77922893D01*
X157702893Y-77712569D01*
X157868144Y-77465253D01*
X157981971Y-77190451D01*
X158040000Y-76898722D01*
X158040000Y-76601278D01*
X157981971Y-76309549D01*
X157868144Y-76034747D01*
X157702893Y-75787431D01*
X157492569Y-75577107D01*
X157245253Y-75411856D01*
X156970451Y-75298029D01*
X156678722Y-75240000D01*
X156381278Y-75240000D01*
X156089549Y-75298029D01*
X155814747Y-75411856D01*
X155567431Y-75577107D01*
X155357107Y-75787431D01*
X155191856Y-76034747D01*
X155078029Y-76309549D01*
X155020000Y-76601278D01*
X154750000Y-76601278D01*
X154750000Y-73260208D01*
X154823673Y-73229692D01*
X155111935Y-73037081D01*
X155357081Y-72791935D01*
X155549692Y-72503673D01*
X155682364Y-72183373D01*
X155750000Y-71843345D01*
X155750000Y-71496655D01*
X155682364Y-71156627D01*
X155549692Y-70836327D01*
X155357081Y-70548065D01*
X155111935Y-70302919D01*
X154823673Y-70110308D01*
X154503373Y-69977636D01*
X154163345Y-69910000D01*
X153816655Y-69910000D01*
X153476627Y-69977636D01*
X153156327Y-70110308D01*
X152868065Y-70302919D01*
X152622919Y-70548065D01*
X152430308Y-70836327D01*
X152297636Y-71156627D01*
X152230000Y-71496655D01*
X152230000Y-71843345D01*
X152297636Y-72183373D01*
X152430308Y-72503673D01*
X152622919Y-72791935D01*
X152868065Y-73037081D01*
X153156327Y-73229692D01*
X153230000Y-73260208D01*
X153230000Y-74812174D01*
X153125826Y-74708000D01*
X152695251Y-74420299D01*
X152216822Y-74222127D01*
X151708924Y-74121100D01*
X151191076Y-74121100D01*
X150683178Y-74222127D01*
X150204749Y-74420299D01*
X149774174Y-74708000D01*
X149408000Y-75074174D01*
X149120299Y-75504749D01*
X148922127Y-75983178D01*
X148821100Y-76491076D01*
X148400000Y-76491076D01*
X148400000Y-75800208D01*
X148473673Y-75769692D01*
X148761935Y-75577081D01*
X149007081Y-75331935D01*
X149199692Y-75043673D01*
X149332364Y-74723373D01*
X149400000Y-74383345D01*
X149400000Y-74036655D01*
X149332364Y-73696627D01*
X149199692Y-73376327D01*
X149007081Y-73088065D01*
X148761935Y-72842919D01*
X148473673Y-72650308D01*
X148153373Y-72517636D01*
X147813345Y-72450000D01*
X147466655Y-72450000D01*
X147126627Y-72517636D01*
X146806327Y-72650308D01*
X146518065Y-72842919D01*
X146385985Y-72974999D01*
X145186753Y-72974999D01*
X145257932Y-72803158D01*
X145315000Y-72516260D01*
X145315000Y-72223740D01*
X145257932Y-71936842D01*
X145145990Y-71666589D01*
X144983475Y-71423368D01*
X144776632Y-71216525D01*
X144602240Y-71100000D01*
X144776632Y-70983475D01*
X144983475Y-70776632D01*
X145145990Y-70533411D01*
X145257932Y-70263158D01*
X145315000Y-69976260D01*
X145315000Y-69683740D01*
X145257932Y-69396842D01*
X145145990Y-69126589D01*
X144983475Y-68883368D01*
X144776632Y-68676525D01*
X144602240Y-68560000D01*
X144776632Y-68443475D01*
X144983475Y-68236632D01*
X145145990Y-67993411D01*
X145257932Y-67723158D01*
X145315000Y-67436260D01*
X145315000Y-67143740D01*
X145257932Y-66856842D01*
X145145990Y-66586589D01*
X144983475Y-66343368D01*
X144776632Y-66136525D01*
X144602240Y-66020000D01*
X144776632Y-65903475D01*
X144983475Y-65696632D01*
X145145990Y-65453411D01*
X145257932Y-65183158D01*
X145315000Y-64896260D01*
X145315000Y-64603740D01*
X145257932Y-64316842D01*
X145145990Y-64046589D01*
X144983475Y-63803368D01*
X144781628Y-63601521D01*
X162105979Y-63601521D01*
X162105979Y-64048479D01*
X162193176Y-64486849D01*
X162364220Y-64899785D01*
X162612536Y-65271417D01*
X162928583Y-65587464D01*
X163300215Y-65835780D01*
X163713151Y-66006824D01*
X164151521Y-66094021D01*
X164598479Y-66094021D01*
X165036849Y-66006824D01*
X165449785Y-65835780D01*
X165821417Y-65587464D01*
X166137464Y-65271417D01*
X166385780Y-64899785D01*
X166556824Y-64486849D01*
X166644021Y-64048479D01*
X166644021Y-63601521D01*
X166556824Y-63163151D01*
X166385780Y-62750215D01*
X166137464Y-62378583D01*
X165821417Y-62062536D01*
X165449785Y-61814220D01*
X165036849Y-61643176D01*
X164598479Y-61555979D01*
X164151521Y-61555979D01*
X163713151Y-61643176D01*
X163300215Y-61814220D01*
X162928583Y-62062536D01*
X162612536Y-62378583D01*
X162364220Y-62750215D01*
X162193176Y-63163151D01*
X162105979Y-63601521D01*
X144781628Y-63601521D01*
X144776632Y-63596525D01*
X144602240Y-63480000D01*
X144776632Y-63363475D01*
X144983475Y-63156632D01*
X145145990Y-62913411D01*
X145257932Y-62643158D01*
X145315000Y-62356260D01*
X145315000Y-62063740D01*
X145257932Y-61776842D01*
X145145990Y-61506589D01*
X144983475Y-61263368D01*
X144851620Y-61131513D01*
X144924180Y-61109502D01*
X145034494Y-61050537D01*
X145131185Y-60971185D01*
X145210537Y-60874494D01*
X145269502Y-60764180D01*
X145305812Y-60644482D01*
X145318072Y-60520000D01*
X145315000Y-59955750D01*
X145156250Y-59797000D01*
X143957000Y-59797000D01*
X143957000Y-59817000D01*
X143703000Y-59817000D01*
X143703000Y-59797000D01*
X142503750Y-59797000D01*
X142345000Y-59955750D01*
X142341928Y-60520000D01*
X142354188Y-60644482D01*
X142390498Y-60764180D01*
X142449463Y-60874494D01*
X142528815Y-60971185D01*
X142625506Y-61050537D01*
X142735820Y-61109502D01*
X142808380Y-61131513D01*
X142676525Y-61263368D01*
X142514010Y-61506589D01*
X142402068Y-61776842D01*
X142345000Y-62063740D01*
X142345000Y-62356260D01*
X142402068Y-62643158D01*
X142514010Y-62913411D01*
X142676525Y-63156632D01*
X142883368Y-63363475D01*
X143057760Y-63480000D01*
X142883368Y-63596525D01*
X142676525Y-63803368D01*
X142514010Y-64046589D01*
X142402068Y-64316842D01*
X142345000Y-64603740D01*
X142345000Y-64896260D01*
X142402068Y-65183158D01*
X142514010Y-65453411D01*
X142676525Y-65696632D01*
X142883368Y-65903475D01*
X143057760Y-66020000D01*
X142883368Y-66136525D01*
X142676525Y-66343368D01*
X142514010Y-66586589D01*
X142402068Y-66856842D01*
X142345000Y-67143740D01*
X142345000Y-67436260D01*
X142402068Y-67723158D01*
X142514010Y-67993411D01*
X142676525Y-68236632D01*
X142883368Y-68443475D01*
X143057760Y-68560000D01*
X142883368Y-68676525D01*
X142676525Y-68883368D01*
X142514010Y-69126589D01*
X142402068Y-69396842D01*
X142345000Y-69683740D01*
X142345000Y-69976260D01*
X142402068Y-70263158D01*
X142514010Y-70533411D01*
X142676525Y-70776632D01*
X142883368Y-70983475D01*
X143057760Y-71100000D01*
X142883368Y-71216525D01*
X142676525Y-71423368D01*
X142514010Y-71666589D01*
X142402068Y-71936842D01*
X142345000Y-72223740D01*
X142345000Y-72516260D01*
X142402068Y-72803158D01*
X142473247Y-72974999D01*
X139465803Y-72974999D01*
X133269806Y-66779003D01*
X133246003Y-66749999D01*
X133130278Y-66655026D01*
X132998249Y-66584454D01*
X132854988Y-66540997D01*
X132743335Y-66530000D01*
X132743324Y-66530000D01*
X132706002Y-66526324D01*
X132668680Y-66530000D01*
X122248178Y-66530000D01*
X122123475Y-66343368D01*
X121916632Y-66136525D01*
X121742240Y-66020000D01*
X121916632Y-65903475D01*
X122123475Y-65696632D01*
X122285990Y-65453411D01*
X122397932Y-65183158D01*
X122455000Y-64896260D01*
X122455000Y-64603740D01*
X122397932Y-64316842D01*
X122285990Y-64046589D01*
X122123475Y-63803368D01*
X121916632Y-63596525D01*
X121742240Y-63480000D01*
X121916632Y-63363475D01*
X122123475Y-63156632D01*
X122285990Y-62913411D01*
X122397932Y-62643158D01*
X122455000Y-62356260D01*
X122455000Y-62063740D01*
X122397932Y-61776842D01*
X122285990Y-61506589D01*
X122123475Y-61263368D01*
X121991620Y-61131513D01*
X122064180Y-61109502D01*
X122174494Y-61050537D01*
X122271185Y-60971185D01*
X122350537Y-60874494D01*
X122409502Y-60764180D01*
X122445812Y-60644482D01*
X122458072Y-60520000D01*
X122458072Y-58820000D01*
X142341928Y-58820000D01*
X142345000Y-59384250D01*
X142503750Y-59543000D01*
X143703000Y-59543000D01*
X143703000Y-58343750D01*
X143957000Y-58343750D01*
X143957000Y-59543000D01*
X145156250Y-59543000D01*
X145315000Y-59384250D01*
X145318072Y-58820000D01*
X145305812Y-58695518D01*
X145269502Y-58575820D01*
X145210537Y-58465506D01*
X145131185Y-58368815D01*
X145034494Y-58289463D01*
X144924180Y-58230498D01*
X144804482Y-58194188D01*
X144680000Y-58181928D01*
X144115750Y-58185000D01*
X143957000Y-58343750D01*
X143703000Y-58343750D01*
X143544250Y-58185000D01*
X142980000Y-58181928D01*
X142855518Y-58194188D01*
X142735820Y-58230498D01*
X142625506Y-58289463D01*
X142528815Y-58368815D01*
X142449463Y-58465506D01*
X142390498Y-58575820D01*
X142354188Y-58695518D01*
X142341928Y-58820000D01*
X122458072Y-58820000D01*
X122445812Y-58695518D01*
X122409502Y-58575820D01*
X122350537Y-58465506D01*
X122271185Y-58368815D01*
X122174494Y-58289463D01*
X122064180Y-58230498D01*
X121944482Y-58194188D01*
X121820000Y-58181928D01*
X120120000Y-58181928D01*
X119995518Y-58194188D01*
X119875820Y-58230498D01*
X119765506Y-58289463D01*
X119668815Y-58368815D01*
X119589463Y-58465506D01*
X119530498Y-58575820D01*
X119494188Y-58695518D01*
X119481928Y-58820000D01*
X119481928Y-60520000D01*
X119494188Y-60644482D01*
X119530498Y-60764180D01*
X119589463Y-60874494D01*
X119668815Y-60971185D01*
X119765506Y-61050537D01*
X119875820Y-61109502D01*
X119948380Y-61131513D01*
X119816525Y-61263368D01*
X119691822Y-61450000D01*
X119127333Y-61450000D01*
X119090000Y-61446323D01*
X119052667Y-61450000D01*
X118941014Y-61460997D01*
X118797753Y-61504454D01*
X118665724Y-61575026D01*
X118549999Y-61669999D01*
X118526201Y-61698997D01*
X109028998Y-71196201D01*
X109000000Y-71219999D01*
X108976202Y-71248997D01*
X108976201Y-71248998D01*
X108905026Y-71335724D01*
X108834454Y-71467754D01*
X108790998Y-71611015D01*
X108776324Y-71760000D01*
X108780001Y-71797332D01*
X108780001Y-72619792D01*
X108706327Y-72650308D01*
X108418065Y-72842919D01*
X108172919Y-73088065D01*
X107980308Y-73376327D01*
X107847636Y-73696627D01*
X107780000Y-74036655D01*
X107780000Y-74383345D01*
X107847636Y-74723373D01*
X107980308Y-75043673D01*
X108112638Y-75241719D01*
X107829549Y-75298029D01*
X107554747Y-75411856D01*
X107307431Y-75577107D01*
X107097107Y-75787431D01*
X106931856Y-76034747D01*
X106818029Y-76309549D01*
X106760000Y-76601278D01*
X94485000Y-76601278D01*
X94485000Y-63601521D01*
X98155979Y-63601521D01*
X98155979Y-64048479D01*
X98243176Y-64486849D01*
X98414220Y-64899785D01*
X98662536Y-65271417D01*
X98978583Y-65587464D01*
X99350215Y-65835780D01*
X99763151Y-66006824D01*
X100201521Y-66094021D01*
X100648479Y-66094021D01*
X101086849Y-66006824D01*
X101499785Y-65835780D01*
X101871417Y-65587464D01*
X102187464Y-65271417D01*
X102435780Y-64899785D01*
X102606824Y-64486849D01*
X102694021Y-64048479D01*
X102694021Y-63601521D01*
X102606824Y-63163151D01*
X102435780Y-62750215D01*
X102187464Y-62378583D01*
X101871417Y-62062536D01*
X101499785Y-61814220D01*
X101086849Y-61643176D01*
X100648479Y-61555979D01*
X100201521Y-61555979D01*
X99763151Y-61643176D01*
X99350215Y-61814220D01*
X98978583Y-62062536D01*
X98662536Y-62378583D01*
X98414220Y-62750215D01*
X98243176Y-63163151D01*
X98155979Y-63601521D01*
X94485000Y-63601521D01*
X94485000Y-57885000D01*
X170315000Y-57885000D01*
X170315001Y-133715000D01*
G36*
X145031856Y-96515253D02*
G01*
X145197107Y-96762569D01*
X145407431Y-96972893D01*
X145654747Y-97138144D01*
X145929549Y-97251971D01*
X146221278Y-97310000D01*
X146518722Y-97310000D01*
X146810451Y-97251971D01*
X146880000Y-97223163D01*
X146880001Y-102264265D01*
X146782795Y-102409744D01*
X146704774Y-102598102D01*
X146665000Y-102798061D01*
X146665000Y-103001939D01*
X146704774Y-103201898D01*
X146782795Y-103390256D01*
X146826055Y-103454999D01*
X145186753Y-103454999D01*
X145257932Y-103283158D01*
X145315000Y-102996260D01*
X145315000Y-102703740D01*
X145257932Y-102416842D01*
X145145990Y-102146589D01*
X144983475Y-101903368D01*
X144776632Y-101696525D01*
X144602240Y-101580000D01*
X144776632Y-101463475D01*
X144983475Y-101256632D01*
X145145990Y-101013411D01*
X145257932Y-100743158D01*
X145315000Y-100456260D01*
X145315000Y-100163740D01*
X145257932Y-99876842D01*
X145145990Y-99606589D01*
X144983475Y-99363368D01*
X144776632Y-99156525D01*
X144602240Y-99040000D01*
X144776632Y-98923475D01*
X144983475Y-98716632D01*
X145145990Y-98473411D01*
X145257932Y-98203158D01*
X145315000Y-97916260D01*
X145315000Y-97623740D01*
X145257932Y-97336842D01*
X145145990Y-97066589D01*
X144983475Y-96823368D01*
X144776632Y-96616525D01*
X144602240Y-96500000D01*
X144776632Y-96383475D01*
X144918506Y-96241601D01*
X145031856Y-96515253D01*
G37*
X145031856Y-96515253D02*
X145197107Y-96762569D01*
X145407431Y-96972893D01*
X145654747Y-97138144D01*
X145929549Y-97251971D01*
X146221278Y-97310000D01*
X146518722Y-97310000D01*
X146810451Y-97251971D01*
X146880000Y-97223163D01*
X146880001Y-102264265D01*
X146782795Y-102409744D01*
X146704774Y-102598102D01*
X146665000Y-102798061D01*
X146665000Y-103001939D01*
X146704774Y-103201898D01*
X146782795Y-103390256D01*
X146826055Y-103454999D01*
X145186753Y-103454999D01*
X145257932Y-103283158D01*
X145315000Y-102996260D01*
X145315000Y-102703740D01*
X145257932Y-102416842D01*
X145145990Y-102146589D01*
X144983475Y-101903368D01*
X144776632Y-101696525D01*
X144602240Y-101580000D01*
X144776632Y-101463475D01*
X144983475Y-101256632D01*
X145145990Y-101013411D01*
X145257932Y-100743158D01*
X145315000Y-100456260D01*
X145315000Y-100163740D01*
X145257932Y-99876842D01*
X145145990Y-99606589D01*
X144983475Y-99363368D01*
X144776632Y-99156525D01*
X144602240Y-99040000D01*
X144776632Y-98923475D01*
X144983475Y-98716632D01*
X145145990Y-98473411D01*
X145257932Y-98203158D01*
X145315000Y-97916260D01*
X145315000Y-97623740D01*
X145257932Y-97336842D01*
X145145990Y-97066589D01*
X144983475Y-96823368D01*
X144776632Y-96616525D01*
X144602240Y-96500000D01*
X144776632Y-96383475D01*
X144918506Y-96241601D01*
X145031856Y-96515253D01*
G36*
X135585002Y-86559803D02*
G01*
X135585001Y-87707678D01*
X135581325Y-87745001D01*
X135585001Y-87782323D01*
X135585001Y-87782333D01*
X135595998Y-87893986D01*
X135639455Y-88037247D01*
X135710027Y-88169277D01*
X135738472Y-88203937D01*
X135805000Y-88285002D01*
X135834004Y-88308805D01*
X142388790Y-94863592D01*
X142345000Y-95083740D01*
X142345000Y-95376260D01*
X142402068Y-95663158D01*
X142514010Y-95933411D01*
X142676525Y-96176632D01*
X142883368Y-96383475D01*
X143057760Y-96500000D01*
X142883368Y-96616525D01*
X142676525Y-96823368D01*
X142514010Y-97066589D01*
X142402068Y-97336842D01*
X142345000Y-97623740D01*
X142345000Y-97916260D01*
X142388790Y-98136408D01*
X138874004Y-101651195D01*
X138845000Y-101674998D01*
X138793352Y-101737932D01*
X138750027Y-101790723D01*
X138710325Y-101865000D01*
X138679455Y-101922753D01*
X138635998Y-102066014D01*
X138625001Y-102177667D01*
X138625001Y-102177677D01*
X138621325Y-102214999D01*
X138625001Y-102252322D01*
X138625002Y-103454999D01*
X136376052Y-103454999D01*
X136274482Y-103424188D01*
X136150000Y-103411928D01*
X134950000Y-103411928D01*
X134825518Y-103424188D01*
X134723948Y-103454999D01*
X129624446Y-103454999D01*
X129635000Y-103401939D01*
X129635000Y-103198061D01*
X129595226Y-102998102D01*
X129517205Y-102809744D01*
X129403937Y-102640226D01*
X129350000Y-102586289D01*
X129350000Y-95541076D01*
X129771100Y-95541076D01*
X129771100Y-96058924D01*
X129872127Y-96566822D01*
X130070299Y-97045251D01*
X130358000Y-97475826D01*
X130724174Y-97842000D01*
X131154749Y-98129701D01*
X131633178Y-98327873D01*
X132141076Y-98428900D01*
X132658924Y-98428900D01*
X133166822Y-98327873D01*
X133645251Y-98129701D01*
X134075826Y-97842000D01*
X134180001Y-97737825D01*
X134180001Y-100552668D01*
X134176324Y-100590000D01*
X134180001Y-100627333D01*
X134186075Y-100688997D01*
X134190998Y-100738985D01*
X134234454Y-100882246D01*
X134305026Y-101014276D01*
X134311928Y-101022686D01*
X134311928Y-101650000D01*
X134324188Y-101774482D01*
X134360498Y-101894180D01*
X134419463Y-102004494D01*
X134498815Y-102101185D01*
X134595506Y-102180537D01*
X134705820Y-102239502D01*
X134825518Y-102275812D01*
X134950000Y-102288072D01*
X136150000Y-102288072D01*
X136274482Y-102275812D01*
X136394180Y-102239502D01*
X136504494Y-102180537D01*
X136601185Y-102101185D01*
X136680537Y-102004494D01*
X136739502Y-101894180D01*
X136775812Y-101774482D01*
X136788072Y-101650000D01*
X136788072Y-100750000D01*
X136775812Y-100625518D01*
X136739502Y-100505820D01*
X136680537Y-100395506D01*
X136601185Y-100298815D01*
X136504494Y-100219463D01*
X136394180Y-100160498D01*
X136274482Y-100124188D01*
X136150000Y-100111928D01*
X135700000Y-100111928D01*
X135700000Y-95651278D01*
X135970000Y-95651278D01*
X135970000Y-95948722D01*
X136028029Y-96240451D01*
X136141856Y-96515253D01*
X136307107Y-96762569D01*
X136517431Y-96972893D01*
X136764747Y-97138144D01*
X137039549Y-97251971D01*
X137331278Y-97310000D01*
X137628722Y-97310000D01*
X137920451Y-97251971D01*
X138195253Y-97138144D01*
X138442569Y-96972893D01*
X138652893Y-96762569D01*
X138818144Y-96515253D01*
X138931971Y-96240451D01*
X138990000Y-95948722D01*
X138990000Y-95651278D01*
X138931971Y-95359549D01*
X138818144Y-95084747D01*
X138652893Y-94837431D01*
X138442569Y-94627107D01*
X138195253Y-94461856D01*
X137920451Y-94348029D01*
X137628722Y-94290000D01*
X137331278Y-94290000D01*
X137039549Y-94348029D01*
X136764747Y-94461856D01*
X136517431Y-94627107D01*
X136307107Y-94837431D01*
X136141856Y-95084747D01*
X136028029Y-95359549D01*
X135970000Y-95651278D01*
X135700000Y-95651278D01*
X135700000Y-92310208D01*
X135773673Y-92279692D01*
X136061935Y-92087081D01*
X136307081Y-91841935D01*
X136499692Y-91553673D01*
X136632364Y-91233373D01*
X136700000Y-90893345D01*
X136700000Y-90546655D01*
X136632364Y-90206627D01*
X136499692Y-89886327D01*
X136307081Y-89598065D01*
X136061935Y-89352919D01*
X135773673Y-89160308D01*
X135453373Y-89027636D01*
X135113345Y-88960000D01*
X134766655Y-88960000D01*
X134426627Y-89027636D01*
X134106327Y-89160308D01*
X133818065Y-89352919D01*
X133572919Y-89598065D01*
X133380308Y-89886327D01*
X133247636Y-90206627D01*
X133180000Y-90546655D01*
X133180000Y-90893345D01*
X133247636Y-91233373D01*
X133380308Y-91553673D01*
X133572919Y-91841935D01*
X133818065Y-92087081D01*
X134106327Y-92279692D01*
X134180000Y-92310208D01*
X134180000Y-93862174D01*
X134075826Y-93758000D01*
X133645251Y-93470299D01*
X133166822Y-93272127D01*
X132658924Y-93171100D01*
X132141076Y-93171100D01*
X131633178Y-93272127D01*
X131154749Y-93470299D01*
X130724174Y-93758000D01*
X130358000Y-94124174D01*
X130070299Y-94554749D01*
X129872127Y-95033178D01*
X129771100Y-95541076D01*
X129350000Y-95541076D01*
X129350000Y-94850208D01*
X129423673Y-94819692D01*
X129711935Y-94627081D01*
X129957081Y-94381935D01*
X130149692Y-94093673D01*
X130282364Y-93773373D01*
X130350000Y-93433345D01*
X130350000Y-93086655D01*
X130282364Y-92746627D01*
X130149692Y-92426327D01*
X129957081Y-92138065D01*
X129711935Y-91892919D01*
X129423673Y-91700308D01*
X129360000Y-91673934D01*
X129360000Y-88103711D01*
X129403937Y-88059774D01*
X129517205Y-87890256D01*
X129595226Y-87701898D01*
X129635000Y-87501939D01*
X129635000Y-87298061D01*
X129595226Y-87098102D01*
X129556662Y-87005001D01*
X134717677Y-87005001D01*
X134754999Y-87008677D01*
X134792321Y-87005001D01*
X134792332Y-87005001D01*
X134903985Y-86994004D01*
X135047246Y-86950547D01*
X135179275Y-86879975D01*
X135295000Y-86785002D01*
X135318802Y-86755999D01*
X135536729Y-86538072D01*
X135563270Y-86538072D01*
X135585002Y-86559803D01*
G37*
X135585002Y-86559803D02*
X135585001Y-87707678D01*
X135581325Y-87745001D01*
X135585001Y-87782323D01*
X135585001Y-87782333D01*
X135595998Y-87893986D01*
X135639455Y-88037247D01*
X135710027Y-88169277D01*
X135738472Y-88203937D01*
X135805000Y-88285002D01*
X135834004Y-88308805D01*
X142388790Y-94863592D01*
X142345000Y-95083740D01*
X142345000Y-95376260D01*
X142402068Y-95663158D01*
X142514010Y-95933411D01*
X142676525Y-96176632D01*
X142883368Y-96383475D01*
X143057760Y-96500000D01*
X142883368Y-96616525D01*
X142676525Y-96823368D01*
X142514010Y-97066589D01*
X142402068Y-97336842D01*
X142345000Y-97623740D01*
X142345000Y-97916260D01*
X142388790Y-98136408D01*
X138874004Y-101651195D01*
X138845000Y-101674998D01*
X138793352Y-101737932D01*
X138750027Y-101790723D01*
X138710325Y-101865000D01*
X138679455Y-101922753D01*
X138635998Y-102066014D01*
X138625001Y-102177667D01*
X138625001Y-102177677D01*
X138621325Y-102214999D01*
X138625001Y-102252322D01*
X138625002Y-103454999D01*
X136376052Y-103454999D01*
X136274482Y-103424188D01*
X136150000Y-103411928D01*
X134950000Y-103411928D01*
X134825518Y-103424188D01*
X134723948Y-103454999D01*
X129624446Y-103454999D01*
X129635000Y-103401939D01*
X129635000Y-103198061D01*
X129595226Y-102998102D01*
X129517205Y-102809744D01*
X129403937Y-102640226D01*
X129350000Y-102586289D01*
X129350000Y-95541076D01*
X129771100Y-95541076D01*
X129771100Y-96058924D01*
X129872127Y-96566822D01*
X130070299Y-97045251D01*
X130358000Y-97475826D01*
X130724174Y-97842000D01*
X131154749Y-98129701D01*
X131633178Y-98327873D01*
X132141076Y-98428900D01*
X132658924Y-98428900D01*
X133166822Y-98327873D01*
X133645251Y-98129701D01*
X134075826Y-97842000D01*
X134180001Y-97737825D01*
X134180001Y-100552668D01*
X134176324Y-100590000D01*
X134180001Y-100627333D01*
X134186075Y-100688997D01*
X134190998Y-100738985D01*
X134234454Y-100882246D01*
X134305026Y-101014276D01*
X134311928Y-101022686D01*
X134311928Y-101650000D01*
X134324188Y-101774482D01*
X134360498Y-101894180D01*
X134419463Y-102004494D01*
X134498815Y-102101185D01*
X134595506Y-102180537D01*
X134705820Y-102239502D01*
X134825518Y-102275812D01*
X134950000Y-102288072D01*
X136150000Y-102288072D01*
X136274482Y-102275812D01*
X136394180Y-102239502D01*
X136504494Y-102180537D01*
X136601185Y-102101185D01*
X136680537Y-102004494D01*
X136739502Y-101894180D01*
X136775812Y-101774482D01*
X136788072Y-101650000D01*
X136788072Y-100750000D01*
X136775812Y-100625518D01*
X136739502Y-100505820D01*
X136680537Y-100395506D01*
X136601185Y-100298815D01*
X136504494Y-100219463D01*
X136394180Y-100160498D01*
X136274482Y-100124188D01*
X136150000Y-100111928D01*
X135700000Y-100111928D01*
X135700000Y-95651278D01*
X135970000Y-95651278D01*
X135970000Y-95948722D01*
X136028029Y-96240451D01*
X136141856Y-96515253D01*
X136307107Y-96762569D01*
X136517431Y-96972893D01*
X136764747Y-97138144D01*
X137039549Y-97251971D01*
X137331278Y-97310000D01*
X137628722Y-97310000D01*
X137920451Y-97251971D01*
X138195253Y-97138144D01*
X138442569Y-96972893D01*
X138652893Y-96762569D01*
X138818144Y-96515253D01*
X138931971Y-96240451D01*
X138990000Y-95948722D01*
X138990000Y-95651278D01*
X138931971Y-95359549D01*
X138818144Y-95084747D01*
X138652893Y-94837431D01*
X138442569Y-94627107D01*
X138195253Y-94461856D01*
X137920451Y-94348029D01*
X137628722Y-94290000D01*
X137331278Y-94290000D01*
X137039549Y-94348029D01*
X136764747Y-94461856D01*
X136517431Y-94627107D01*
X136307107Y-94837431D01*
X136141856Y-95084747D01*
X136028029Y-95359549D01*
X135970000Y-95651278D01*
X135700000Y-95651278D01*
X135700000Y-92310208D01*
X135773673Y-92279692D01*
X136061935Y-92087081D01*
X136307081Y-91841935D01*
X136499692Y-91553673D01*
X136632364Y-91233373D01*
X136700000Y-90893345D01*
X136700000Y-90546655D01*
X136632364Y-90206627D01*
X136499692Y-89886327D01*
X136307081Y-89598065D01*
X136061935Y-89352919D01*
X135773673Y-89160308D01*
X135453373Y-89027636D01*
X135113345Y-88960000D01*
X134766655Y-88960000D01*
X134426627Y-89027636D01*
X134106327Y-89160308D01*
X133818065Y-89352919D01*
X133572919Y-89598065D01*
X133380308Y-89886327D01*
X133247636Y-90206627D01*
X133180000Y-90546655D01*
X133180000Y-90893345D01*
X133247636Y-91233373D01*
X133380308Y-91553673D01*
X133572919Y-91841935D01*
X133818065Y-92087081D01*
X134106327Y-92279692D01*
X134180000Y-92310208D01*
X134180000Y-93862174D01*
X134075826Y-93758000D01*
X133645251Y-93470299D01*
X133166822Y-93272127D01*
X132658924Y-93171100D01*
X132141076Y-93171100D01*
X131633178Y-93272127D01*
X131154749Y-93470299D01*
X130724174Y-93758000D01*
X130358000Y-94124174D01*
X130070299Y-94554749D01*
X129872127Y-95033178D01*
X129771100Y-95541076D01*
X129350000Y-95541076D01*
X129350000Y-94850208D01*
X129423673Y-94819692D01*
X129711935Y-94627081D01*
X129957081Y-94381935D01*
X130149692Y-94093673D01*
X130282364Y-93773373D01*
X130350000Y-93433345D01*
X130350000Y-93086655D01*
X130282364Y-92746627D01*
X130149692Y-92426327D01*
X129957081Y-92138065D01*
X129711935Y-91892919D01*
X129423673Y-91700308D01*
X129360000Y-91673934D01*
X129360000Y-88103711D01*
X129403937Y-88059774D01*
X129517205Y-87890256D01*
X129595226Y-87701898D01*
X129635000Y-87501939D01*
X129635000Y-87298061D01*
X129595226Y-87098102D01*
X129556662Y-87005001D01*
X134717677Y-87005001D01*
X134754999Y-87008677D01*
X134792321Y-87005001D01*
X134792332Y-87005001D01*
X134903985Y-86994004D01*
X135047246Y-86950547D01*
X135179275Y-86879975D01*
X135295000Y-86785002D01*
X135318802Y-86755999D01*
X135536729Y-86538072D01*
X135563270Y-86538072D01*
X135585002Y-86559803D01*
G36*
X146796063Y-87140226D02*
G01*
X146682795Y-87309744D01*
X146604774Y-87498102D01*
X146565000Y-87698061D01*
X146565000Y-87901939D01*
X146604774Y-88101898D01*
X146682795Y-88290256D01*
X146796063Y-88459774D01*
X146840000Y-88503711D01*
X146840001Y-91686360D01*
X146806327Y-91700308D01*
X146518065Y-91892919D01*
X146272919Y-92138065D01*
X146080308Y-92426327D01*
X145947636Y-92746627D01*
X145880000Y-93086655D01*
X145880000Y-93433345D01*
X145947636Y-93773373D01*
X146080308Y-94093673D01*
X146212638Y-94291719D01*
X145929549Y-94348029D01*
X145654747Y-94461856D01*
X145407431Y-94627107D01*
X145252005Y-94782533D01*
X145145990Y-94526589D01*
X144983475Y-94283368D01*
X144776632Y-94076525D01*
X144602240Y-93960000D01*
X144776632Y-93843475D01*
X144983475Y-93636632D01*
X145145990Y-93393411D01*
X145257932Y-93123158D01*
X145315000Y-92836260D01*
X145315000Y-92543740D01*
X145257932Y-92256842D01*
X145145990Y-91986589D01*
X144983475Y-91743368D01*
X144776632Y-91536525D01*
X144602240Y-91420000D01*
X144776632Y-91303475D01*
X144983475Y-91096632D01*
X145145990Y-90853411D01*
X145257932Y-90583158D01*
X145315000Y-90296260D01*
X145315000Y-90003740D01*
X145257932Y-89716842D01*
X145145990Y-89446589D01*
X144983475Y-89203368D01*
X144776632Y-88996525D01*
X144602240Y-88880000D01*
X144776632Y-88763475D01*
X144983475Y-88556632D01*
X145145990Y-88313411D01*
X145257932Y-88043158D01*
X145315000Y-87756260D01*
X145315000Y-87463740D01*
X145257932Y-87176842D01*
X145186753Y-87005001D01*
X146931288Y-87005001D01*
X146796063Y-87140226D01*
G37*
X146796063Y-87140226D02*
X146682795Y-87309744D01*
X146604774Y-87498102D01*
X146565000Y-87698061D01*
X146565000Y-87901939D01*
X146604774Y-88101898D01*
X146682795Y-88290256D01*
X146796063Y-88459774D01*
X146840000Y-88503711D01*
X146840001Y-91686360D01*
X146806327Y-91700308D01*
X146518065Y-91892919D01*
X146272919Y-92138065D01*
X146080308Y-92426327D01*
X145947636Y-92746627D01*
X145880000Y-93086655D01*
X145880000Y-93433345D01*
X145947636Y-93773373D01*
X146080308Y-94093673D01*
X146212638Y-94291719D01*
X145929549Y-94348029D01*
X145654747Y-94461856D01*
X145407431Y-94627107D01*
X145252005Y-94782533D01*
X145145990Y-94526589D01*
X144983475Y-94283368D01*
X144776632Y-94076525D01*
X144602240Y-93960000D01*
X144776632Y-93843475D01*
X144983475Y-93636632D01*
X145145990Y-93393411D01*
X145257932Y-93123158D01*
X145315000Y-92836260D01*
X145315000Y-92543740D01*
X145257932Y-92256842D01*
X145145990Y-91986589D01*
X144983475Y-91743368D01*
X144776632Y-91536525D01*
X144602240Y-91420000D01*
X144776632Y-91303475D01*
X144983475Y-91096632D01*
X145145990Y-90853411D01*
X145257932Y-90583158D01*
X145315000Y-90296260D01*
X145315000Y-90003740D01*
X145257932Y-89716842D01*
X145145990Y-89446589D01*
X144983475Y-89203368D01*
X144776632Y-88996525D01*
X144602240Y-88880000D01*
X144776632Y-88763475D01*
X144983475Y-88556632D01*
X145145990Y-88313411D01*
X145257932Y-88043158D01*
X145315000Y-87756260D01*
X145315000Y-87463740D01*
X145257932Y-87176842D01*
X145186753Y-87005001D01*
X146931288Y-87005001D01*
X146796063Y-87140226D01*
G36*
X142402068Y-87176842D02*
G01*
X142345000Y-87463740D01*
X142345000Y-87756260D01*
X142402068Y-88043158D01*
X142514010Y-88313411D01*
X142676525Y-88556632D01*
X142883368Y-88763475D01*
X143057760Y-88880000D01*
X142883368Y-88996525D01*
X142676525Y-89203368D01*
X142514010Y-89446589D01*
X142402068Y-89716842D01*
X142345000Y-90003740D01*
X142345000Y-90296260D01*
X142402068Y-90583158D01*
X142514010Y-90853411D01*
X142676525Y-91096632D01*
X142883368Y-91303475D01*
X143057760Y-91420000D01*
X142883368Y-91536525D01*
X142676525Y-91743368D01*
X142514010Y-91986589D01*
X142402068Y-92256842D01*
X142345000Y-92543740D01*
X142345000Y-92670198D01*
X137105001Y-87430200D01*
X137105001Y-87005001D01*
X142473247Y-87005001D01*
X142402068Y-87176842D01*
G37*
X142402068Y-87176842D02*
X142345000Y-87463740D01*
X142345000Y-87756260D01*
X142402068Y-88043158D01*
X142514010Y-88313411D01*
X142676525Y-88556632D01*
X142883368Y-88763475D01*
X143057760Y-88880000D01*
X142883368Y-88996525D01*
X142676525Y-89203368D01*
X142514010Y-89446589D01*
X142402068Y-89716842D01*
X142345000Y-90003740D01*
X142345000Y-90296260D01*
X142402068Y-90583158D01*
X142514010Y-90853411D01*
X142676525Y-91096632D01*
X142883368Y-91303475D01*
X143057760Y-91420000D01*
X142883368Y-91536525D01*
X142676525Y-91743368D01*
X142514010Y-91986589D01*
X142402068Y-92256842D01*
X142345000Y-92543740D01*
X142345000Y-92670198D01*
X137105001Y-87430200D01*
X137105001Y-87005001D01*
X142473247Y-87005001D01*
X142402068Y-87176842D01*
G36*
X126928152Y-73622954D02*
G01*
X126897636Y-73696627D01*
X126830000Y-74036655D01*
X126830000Y-74383345D01*
X126897636Y-74723373D01*
X127030308Y-75043673D01*
X127162638Y-75241719D01*
X126879549Y-75298029D01*
X126604747Y-75411856D01*
X126357431Y-75577107D01*
X126147107Y-75787431D01*
X125981856Y-76034747D01*
X125868029Y-76309549D01*
X125810000Y-76601278D01*
X125810000Y-76898722D01*
X125868029Y-77190451D01*
X125981856Y-77465253D01*
X126147107Y-77712569D01*
X126357431Y-77922893D01*
X126604747Y-78088144D01*
X126879549Y-78201971D01*
X127171278Y-78260000D01*
X127468722Y-78260000D01*
X127760451Y-78201971D01*
X127830000Y-78173163D01*
X127830001Y-84506288D01*
X127796063Y-84540226D01*
X127682795Y-84709744D01*
X127604774Y-84898102D01*
X127565000Y-85098061D01*
X127565000Y-85301939D01*
X127601413Y-85485001D01*
X122401544Y-85485001D01*
X122455000Y-85216260D01*
X122455000Y-84923740D01*
X122397932Y-84636842D01*
X122285990Y-84366589D01*
X122123475Y-84123368D01*
X121916632Y-83916525D01*
X121742240Y-83800000D01*
X121916632Y-83683475D01*
X122123475Y-83476632D01*
X122285990Y-83233411D01*
X122397932Y-82963158D01*
X122455000Y-82676260D01*
X122455000Y-82383740D01*
X122397932Y-82096842D01*
X122285990Y-81826589D01*
X122123475Y-81583368D01*
X121916632Y-81376525D01*
X121742240Y-81260000D01*
X121916632Y-81143475D01*
X122123475Y-80936632D01*
X122285990Y-80693411D01*
X122397932Y-80423158D01*
X122455000Y-80136260D01*
X122455000Y-79843740D01*
X122397932Y-79556842D01*
X122285990Y-79286589D01*
X122123475Y-79043368D01*
X121916632Y-78836525D01*
X121742240Y-78720000D01*
X121916632Y-78603475D01*
X122123475Y-78396632D01*
X122285990Y-78153411D01*
X122397932Y-77883158D01*
X122455000Y-77596260D01*
X122455000Y-77303740D01*
X122397932Y-77016842D01*
X122285990Y-76746589D01*
X122123475Y-76503368D01*
X121916632Y-76296525D01*
X121742240Y-76180000D01*
X121916632Y-76063475D01*
X122123475Y-75856632D01*
X122285990Y-75613411D01*
X122397932Y-75343158D01*
X122455000Y-75056260D01*
X122455000Y-74763740D01*
X122397932Y-74476842D01*
X122285990Y-74206589D01*
X122123475Y-73963368D01*
X121916632Y-73756525D01*
X121742240Y-73640000D01*
X121916632Y-73523475D01*
X122123475Y-73316632D01*
X122285990Y-73073411D01*
X122397932Y-72803158D01*
X122455000Y-72516260D01*
X122455000Y-72223740D01*
X122397932Y-71936842D01*
X122285990Y-71666589D01*
X122123475Y-71423368D01*
X121916632Y-71216525D01*
X121742240Y-71100000D01*
X121916632Y-70983475D01*
X122123475Y-70776632D01*
X122285990Y-70533411D01*
X122397932Y-70263158D01*
X122455000Y-69976260D01*
X122455000Y-69683740D01*
X122401544Y-69414999D01*
X122720198Y-69414999D01*
X126928152Y-73622954D01*
G37*
X126928152Y-73622954D02*
X126897636Y-73696627D01*
X126830000Y-74036655D01*
X126830000Y-74383345D01*
X126897636Y-74723373D01*
X127030308Y-75043673D01*
X127162638Y-75241719D01*
X126879549Y-75298029D01*
X126604747Y-75411856D01*
X126357431Y-75577107D01*
X126147107Y-75787431D01*
X125981856Y-76034747D01*
X125868029Y-76309549D01*
X125810000Y-76601278D01*
X125810000Y-76898722D01*
X125868029Y-77190451D01*
X125981856Y-77465253D01*
X126147107Y-77712569D01*
X126357431Y-77922893D01*
X126604747Y-78088144D01*
X126879549Y-78201971D01*
X127171278Y-78260000D01*
X127468722Y-78260000D01*
X127760451Y-78201971D01*
X127830000Y-78173163D01*
X127830001Y-84506288D01*
X127796063Y-84540226D01*
X127682795Y-84709744D01*
X127604774Y-84898102D01*
X127565000Y-85098061D01*
X127565000Y-85301939D01*
X127601413Y-85485001D01*
X122401544Y-85485001D01*
X122455000Y-85216260D01*
X122455000Y-84923740D01*
X122397932Y-84636842D01*
X122285990Y-84366589D01*
X122123475Y-84123368D01*
X121916632Y-83916525D01*
X121742240Y-83800000D01*
X121916632Y-83683475D01*
X122123475Y-83476632D01*
X122285990Y-83233411D01*
X122397932Y-82963158D01*
X122455000Y-82676260D01*
X122455000Y-82383740D01*
X122397932Y-82096842D01*
X122285990Y-81826589D01*
X122123475Y-81583368D01*
X121916632Y-81376525D01*
X121742240Y-81260000D01*
X121916632Y-81143475D01*
X122123475Y-80936632D01*
X122285990Y-80693411D01*
X122397932Y-80423158D01*
X122455000Y-80136260D01*
X122455000Y-79843740D01*
X122397932Y-79556842D01*
X122285990Y-79286589D01*
X122123475Y-79043368D01*
X121916632Y-78836525D01*
X121742240Y-78720000D01*
X121916632Y-78603475D01*
X122123475Y-78396632D01*
X122285990Y-78153411D01*
X122397932Y-77883158D01*
X122455000Y-77596260D01*
X122455000Y-77303740D01*
X122397932Y-77016842D01*
X122285990Y-76746589D01*
X122123475Y-76503368D01*
X121916632Y-76296525D01*
X121742240Y-76180000D01*
X121916632Y-76063475D01*
X122123475Y-75856632D01*
X122285990Y-75613411D01*
X122397932Y-75343158D01*
X122455000Y-75056260D01*
X122455000Y-74763740D01*
X122397932Y-74476842D01*
X122285990Y-74206589D01*
X122123475Y-73963368D01*
X121916632Y-73756525D01*
X121742240Y-73640000D01*
X121916632Y-73523475D01*
X122123475Y-73316632D01*
X122285990Y-73073411D01*
X122397932Y-72803158D01*
X122455000Y-72516260D01*
X122455000Y-72223740D01*
X122397932Y-71936842D01*
X122285990Y-71666589D01*
X122123475Y-71423368D01*
X121916632Y-71216525D01*
X121742240Y-71100000D01*
X121916632Y-70983475D01*
X122123475Y-70776632D01*
X122285990Y-70533411D01*
X122397932Y-70263158D01*
X122455000Y-69976260D01*
X122455000Y-69683740D01*
X122401544Y-69414999D01*
X122720198Y-69414999D01*
X126928152Y-73622954D01*
G36*
X145407431Y-77922893D02*
G01*
X145654747Y-78088144D01*
X145929549Y-78201971D01*
X146221278Y-78260000D01*
X146518722Y-78260000D01*
X146810451Y-78201971D01*
X146880000Y-78173163D01*
X146880001Y-84056288D01*
X146796063Y-84140226D01*
X146682795Y-84309744D01*
X146604774Y-84498102D01*
X146565000Y-84698061D01*
X146565000Y-84901939D01*
X146604774Y-85101898D01*
X146682795Y-85290256D01*
X146796063Y-85459774D01*
X146821290Y-85485001D01*
X145261544Y-85485001D01*
X145315000Y-85216260D01*
X145315000Y-84923740D01*
X145257932Y-84636842D01*
X145145990Y-84366589D01*
X144983475Y-84123368D01*
X144776632Y-83916525D01*
X144602240Y-83800000D01*
X144776632Y-83683475D01*
X144983475Y-83476632D01*
X145145990Y-83233411D01*
X145257932Y-82963158D01*
X145315000Y-82676260D01*
X145315000Y-82383740D01*
X145257932Y-82096842D01*
X145145990Y-81826589D01*
X144983475Y-81583368D01*
X144776632Y-81376525D01*
X144602240Y-81260000D01*
X144776632Y-81143475D01*
X144983475Y-80936632D01*
X145145990Y-80693411D01*
X145257932Y-80423158D01*
X145315000Y-80136260D01*
X145315000Y-79843740D01*
X145257932Y-79556842D01*
X145145990Y-79286589D01*
X144983475Y-79043368D01*
X144776632Y-78836525D01*
X144602240Y-78720000D01*
X144776632Y-78603475D01*
X144983475Y-78396632D01*
X145145990Y-78153411D01*
X145257932Y-77883158D01*
X145276143Y-77791605D01*
X145407431Y-77922893D01*
G37*
X145407431Y-77922893D02*
X145654747Y-78088144D01*
X145929549Y-78201971D01*
X146221278Y-78260000D01*
X146518722Y-78260000D01*
X146810451Y-78201971D01*
X146880000Y-78173163D01*
X146880001Y-84056288D01*
X146796063Y-84140226D01*
X146682795Y-84309744D01*
X146604774Y-84498102D01*
X146565000Y-84698061D01*
X146565000Y-84901939D01*
X146604774Y-85101898D01*
X146682795Y-85290256D01*
X146796063Y-85459774D01*
X146821290Y-85485001D01*
X145261544Y-85485001D01*
X145315000Y-85216260D01*
X145315000Y-84923740D01*
X145257932Y-84636842D01*
X145145990Y-84366589D01*
X144983475Y-84123368D01*
X144776632Y-83916525D01*
X144602240Y-83800000D01*
X144776632Y-83683475D01*
X144983475Y-83476632D01*
X145145990Y-83233411D01*
X145257932Y-82963158D01*
X145315000Y-82676260D01*
X145315000Y-82383740D01*
X145257932Y-82096842D01*
X145145990Y-81826589D01*
X144983475Y-81583368D01*
X144776632Y-81376525D01*
X144602240Y-81260000D01*
X144776632Y-81143475D01*
X144983475Y-80936632D01*
X145145990Y-80693411D01*
X145257932Y-80423158D01*
X145315000Y-80136260D01*
X145315000Y-79843740D01*
X145257932Y-79556842D01*
X145145990Y-79286589D01*
X144983475Y-79043368D01*
X144776632Y-78836525D01*
X144602240Y-78720000D01*
X144776632Y-78603475D01*
X144983475Y-78396632D01*
X145145990Y-78153411D01*
X145257932Y-77883158D01*
X145276143Y-77791605D01*
X145407431Y-77922893D01*
G36*
X134350408Y-70009207D02*
G01*
X134106327Y-70110308D01*
X133818065Y-70302919D01*
X133572919Y-70548065D01*
X133380308Y-70836327D01*
X133247636Y-71156627D01*
X133180000Y-71496655D01*
X133180000Y-71843345D01*
X133247636Y-72183373D01*
X133380308Y-72503673D01*
X133572919Y-72791935D01*
X133818065Y-73037081D01*
X134106327Y-73229692D01*
X134180000Y-73260208D01*
X134180000Y-74812174D01*
X134075826Y-74708000D01*
X133645251Y-74420299D01*
X133166822Y-74222127D01*
X132658924Y-74121100D01*
X132141076Y-74121100D01*
X131633178Y-74222127D01*
X131154749Y-74420299D01*
X130724174Y-74708000D01*
X130358000Y-75074174D01*
X130070299Y-75504749D01*
X129872127Y-75983178D01*
X129771100Y-76491076D01*
X129771100Y-77008924D01*
X129872127Y-77516822D01*
X130070299Y-77995251D01*
X130358000Y-78425826D01*
X130724174Y-78792000D01*
X131154749Y-79079701D01*
X131633178Y-79277873D01*
X132141076Y-79378900D01*
X132658924Y-79378900D01*
X133166822Y-79277873D01*
X133645251Y-79079701D01*
X134075826Y-78792000D01*
X134180001Y-78687825D01*
X134180001Y-81502668D01*
X134176324Y-81540000D01*
X134180001Y-81577333D01*
X134186075Y-81638997D01*
X134190998Y-81688985D01*
X134234454Y-81832246D01*
X134305026Y-81964276D01*
X134311928Y-81972686D01*
X134311928Y-82600000D01*
X134324188Y-82724482D01*
X134360498Y-82844180D01*
X134419463Y-82954494D01*
X134498815Y-83051185D01*
X134595506Y-83130537D01*
X134705820Y-83189502D01*
X134825518Y-83225812D01*
X134950000Y-83238072D01*
X136150000Y-83238072D01*
X136274482Y-83225812D01*
X136394180Y-83189502D01*
X136504494Y-83130537D01*
X136601185Y-83051185D01*
X136680537Y-82954494D01*
X136739502Y-82844180D01*
X136775812Y-82724482D01*
X136788072Y-82600000D01*
X136788072Y-81700000D01*
X136775812Y-81575518D01*
X136739502Y-81455820D01*
X136680537Y-81345506D01*
X136601185Y-81248815D01*
X136504494Y-81169463D01*
X136394180Y-81110498D01*
X136274482Y-81074188D01*
X136150000Y-81061928D01*
X135700000Y-81061928D01*
X135700000Y-76601278D01*
X135970000Y-76601278D01*
X135970000Y-76898722D01*
X136028029Y-77190451D01*
X136141856Y-77465253D01*
X136307107Y-77712569D01*
X136517431Y-77922893D01*
X136764747Y-78088144D01*
X137039549Y-78201971D01*
X137331278Y-78260000D01*
X137628722Y-78260000D01*
X137920451Y-78201971D01*
X138195253Y-78088144D01*
X138442569Y-77922893D01*
X138652893Y-77712569D01*
X138818144Y-77465253D01*
X138931971Y-77190451D01*
X138990000Y-76898722D01*
X138990000Y-76601278D01*
X138931971Y-76309549D01*
X138818144Y-76034747D01*
X138652893Y-75787431D01*
X138442569Y-75577107D01*
X138195253Y-75411856D01*
X137920451Y-75298029D01*
X137628722Y-75240000D01*
X137331278Y-75240000D01*
X137039549Y-75298029D01*
X136764747Y-75411856D01*
X136517431Y-75577107D01*
X136307107Y-75787431D01*
X136141856Y-76034747D01*
X136028029Y-76309549D01*
X135970000Y-76601278D01*
X135700000Y-76601278D01*
X135700000Y-73260208D01*
X135773673Y-73229692D01*
X136061935Y-73037081D01*
X136307081Y-72791935D01*
X136499692Y-72503673D01*
X136600793Y-72259593D01*
X138587201Y-74246001D01*
X138611000Y-74275000D01*
X138639998Y-74298798D01*
X138726724Y-74369973D01*
X138820877Y-74420299D01*
X138858754Y-74440545D01*
X139002015Y-74484002D01*
X139113668Y-74494999D01*
X139113678Y-74494999D01*
X139151001Y-74498675D01*
X139188323Y-74494999D01*
X142398456Y-74494999D01*
X142345000Y-74763740D01*
X142345000Y-75056260D01*
X142402068Y-75343158D01*
X142514010Y-75613411D01*
X142676525Y-75856632D01*
X142883368Y-76063475D01*
X143057760Y-76180000D01*
X142883368Y-76296525D01*
X142676525Y-76503368D01*
X142514010Y-76746589D01*
X142402068Y-77016842D01*
X142345000Y-77303740D01*
X142345000Y-77596260D01*
X142402068Y-77883158D01*
X142514010Y-78153411D01*
X142676525Y-78396632D01*
X142883368Y-78603475D01*
X143057760Y-78720000D01*
X142883368Y-78836525D01*
X142676525Y-79043368D01*
X142514010Y-79286589D01*
X142402068Y-79556842D01*
X142345000Y-79843740D01*
X142345000Y-80136260D01*
X142402068Y-80423158D01*
X142514010Y-80693411D01*
X142676525Y-80936632D01*
X142883368Y-81143475D01*
X143057760Y-81260000D01*
X142883368Y-81376525D01*
X142676525Y-81583368D01*
X142514010Y-81826589D01*
X142402068Y-82096842D01*
X142345000Y-82383740D01*
X142345000Y-82676260D01*
X142402068Y-82963158D01*
X142514010Y-83233411D01*
X142676525Y-83476632D01*
X142883368Y-83683475D01*
X143057760Y-83800000D01*
X142883368Y-83916525D01*
X142676525Y-84123368D01*
X142514010Y-84366589D01*
X142402068Y-84636842D01*
X142345000Y-84923740D01*
X142345000Y-85216260D01*
X142398456Y-85485001D01*
X136788072Y-85485001D01*
X136788072Y-85000000D01*
X136775812Y-84875518D01*
X136739502Y-84755820D01*
X136680537Y-84645506D01*
X136601185Y-84548815D01*
X136504494Y-84469463D01*
X136394180Y-84410498D01*
X136274482Y-84374188D01*
X136150000Y-84361928D01*
X134950000Y-84361928D01*
X134825518Y-84374188D01*
X134705820Y-84410498D01*
X134595506Y-84469463D01*
X134498815Y-84548815D01*
X134419463Y-84645506D01*
X134360498Y-84755820D01*
X134324188Y-84875518D01*
X134311928Y-85000000D01*
X134311928Y-85485001D01*
X129598587Y-85485001D01*
X129635000Y-85301939D01*
X129635000Y-85098061D01*
X129595226Y-84898102D01*
X129517205Y-84709744D01*
X129403937Y-84540226D01*
X129350000Y-84486289D01*
X129350000Y-75800208D01*
X129423673Y-75769692D01*
X129711935Y-75577081D01*
X129957081Y-75331935D01*
X130149692Y-75043673D01*
X130282364Y-74723373D01*
X130350000Y-74383345D01*
X130350000Y-74036655D01*
X130282364Y-73696627D01*
X130149692Y-73376327D01*
X129957081Y-73088065D01*
X129711935Y-72842919D01*
X129423673Y-72650308D01*
X129103373Y-72517636D01*
X128763345Y-72450000D01*
X128416655Y-72450000D01*
X128076627Y-72517636D01*
X128002954Y-72548152D01*
X123598803Y-68144002D01*
X123575000Y-68114998D01*
X123495800Y-68050000D01*
X132391201Y-68050000D01*
X134350408Y-70009207D01*
G37*
X134350408Y-70009207D02*
X134106327Y-70110308D01*
X133818065Y-70302919D01*
X133572919Y-70548065D01*
X133380308Y-70836327D01*
X133247636Y-71156627D01*
X133180000Y-71496655D01*
X133180000Y-71843345D01*
X133247636Y-72183373D01*
X133380308Y-72503673D01*
X133572919Y-72791935D01*
X133818065Y-73037081D01*
X134106327Y-73229692D01*
X134180000Y-73260208D01*
X134180000Y-74812174D01*
X134075826Y-74708000D01*
X133645251Y-74420299D01*
X133166822Y-74222127D01*
X132658924Y-74121100D01*
X132141076Y-74121100D01*
X131633178Y-74222127D01*
X131154749Y-74420299D01*
X130724174Y-74708000D01*
X130358000Y-75074174D01*
X130070299Y-75504749D01*
X129872127Y-75983178D01*
X129771100Y-76491076D01*
X129771100Y-77008924D01*
X129872127Y-77516822D01*
X130070299Y-77995251D01*
X130358000Y-78425826D01*
X130724174Y-78792000D01*
X131154749Y-79079701D01*
X131633178Y-79277873D01*
X132141076Y-79378900D01*
X132658924Y-79378900D01*
X133166822Y-79277873D01*
X133645251Y-79079701D01*
X134075826Y-78792000D01*
X134180001Y-78687825D01*
X134180001Y-81502668D01*
X134176324Y-81540000D01*
X134180001Y-81577333D01*
X134186075Y-81638997D01*
X134190998Y-81688985D01*
X134234454Y-81832246D01*
X134305026Y-81964276D01*
X134311928Y-81972686D01*
X134311928Y-82600000D01*
X134324188Y-82724482D01*
X134360498Y-82844180D01*
X134419463Y-82954494D01*
X134498815Y-83051185D01*
X134595506Y-83130537D01*
X134705820Y-83189502D01*
X134825518Y-83225812D01*
X134950000Y-83238072D01*
X136150000Y-83238072D01*
X136274482Y-83225812D01*
X136394180Y-83189502D01*
X136504494Y-83130537D01*
X136601185Y-83051185D01*
X136680537Y-82954494D01*
X136739502Y-82844180D01*
X136775812Y-82724482D01*
X136788072Y-82600000D01*
X136788072Y-81700000D01*
X136775812Y-81575518D01*
X136739502Y-81455820D01*
X136680537Y-81345506D01*
X136601185Y-81248815D01*
X136504494Y-81169463D01*
X136394180Y-81110498D01*
X136274482Y-81074188D01*
X136150000Y-81061928D01*
X135700000Y-81061928D01*
X135700000Y-76601278D01*
X135970000Y-76601278D01*
X135970000Y-76898722D01*
X136028029Y-77190451D01*
X136141856Y-77465253D01*
X136307107Y-77712569D01*
X136517431Y-77922893D01*
X136764747Y-78088144D01*
X137039549Y-78201971D01*
X137331278Y-78260000D01*
X137628722Y-78260000D01*
X137920451Y-78201971D01*
X138195253Y-78088144D01*
X138442569Y-77922893D01*
X138652893Y-77712569D01*
X138818144Y-77465253D01*
X138931971Y-77190451D01*
X138990000Y-76898722D01*
X138990000Y-76601278D01*
X138931971Y-76309549D01*
X138818144Y-76034747D01*
X138652893Y-75787431D01*
X138442569Y-75577107D01*
X138195253Y-75411856D01*
X137920451Y-75298029D01*
X137628722Y-75240000D01*
X137331278Y-75240000D01*
X137039549Y-75298029D01*
X136764747Y-75411856D01*
X136517431Y-75577107D01*
X136307107Y-75787431D01*
X136141856Y-76034747D01*
X136028029Y-76309549D01*
X135970000Y-76601278D01*
X135700000Y-76601278D01*
X135700000Y-73260208D01*
X135773673Y-73229692D01*
X136061935Y-73037081D01*
X136307081Y-72791935D01*
X136499692Y-72503673D01*
X136600793Y-72259593D01*
X138587201Y-74246001D01*
X138611000Y-74275000D01*
X138639998Y-74298798D01*
X138726724Y-74369973D01*
X138820877Y-74420299D01*
X138858754Y-74440545D01*
X139002015Y-74484002D01*
X139113668Y-74494999D01*
X139113678Y-74494999D01*
X139151001Y-74498675D01*
X139188323Y-74494999D01*
X142398456Y-74494999D01*
X142345000Y-74763740D01*
X142345000Y-75056260D01*
X142402068Y-75343158D01*
X142514010Y-75613411D01*
X142676525Y-75856632D01*
X142883368Y-76063475D01*
X143057760Y-76180000D01*
X142883368Y-76296525D01*
X142676525Y-76503368D01*
X142514010Y-76746589D01*
X142402068Y-77016842D01*
X142345000Y-77303740D01*
X142345000Y-77596260D01*
X142402068Y-77883158D01*
X142514010Y-78153411D01*
X142676525Y-78396632D01*
X142883368Y-78603475D01*
X143057760Y-78720000D01*
X142883368Y-78836525D01*
X142676525Y-79043368D01*
X142514010Y-79286589D01*
X142402068Y-79556842D01*
X142345000Y-79843740D01*
X142345000Y-80136260D01*
X142402068Y-80423158D01*
X142514010Y-80693411D01*
X142676525Y-80936632D01*
X142883368Y-81143475D01*
X143057760Y-81260000D01*
X142883368Y-81376525D01*
X142676525Y-81583368D01*
X142514010Y-81826589D01*
X142402068Y-82096842D01*
X142345000Y-82383740D01*
X142345000Y-82676260D01*
X142402068Y-82963158D01*
X142514010Y-83233411D01*
X142676525Y-83476632D01*
X142883368Y-83683475D01*
X143057760Y-83800000D01*
X142883368Y-83916525D01*
X142676525Y-84123368D01*
X142514010Y-84366589D01*
X142402068Y-84636842D01*
X142345000Y-84923740D01*
X142345000Y-85216260D01*
X142398456Y-85485001D01*
X136788072Y-85485001D01*
X136788072Y-85000000D01*
X136775812Y-84875518D01*
X136739502Y-84755820D01*
X136680537Y-84645506D01*
X136601185Y-84548815D01*
X136504494Y-84469463D01*
X136394180Y-84410498D01*
X136274482Y-84374188D01*
X136150000Y-84361928D01*
X134950000Y-84361928D01*
X134825518Y-84374188D01*
X134705820Y-84410498D01*
X134595506Y-84469463D01*
X134498815Y-84548815D01*
X134419463Y-84645506D01*
X134360498Y-84755820D01*
X134324188Y-84875518D01*
X134311928Y-85000000D01*
X134311928Y-85485001D01*
X129598587Y-85485001D01*
X129635000Y-85301939D01*
X129635000Y-85098061D01*
X129595226Y-84898102D01*
X129517205Y-84709744D01*
X129403937Y-84540226D01*
X129350000Y-84486289D01*
X129350000Y-75800208D01*
X129423673Y-75769692D01*
X129711935Y-75577081D01*
X129957081Y-75331935D01*
X130149692Y-75043673D01*
X130282364Y-74723373D01*
X130350000Y-74383345D01*
X130350000Y-74036655D01*
X130282364Y-73696627D01*
X130149692Y-73376327D01*
X129957081Y-73088065D01*
X129711935Y-72842919D01*
X129423673Y-72650308D01*
X129103373Y-72517636D01*
X128763345Y-72450000D01*
X128416655Y-72450000D01*
X128076627Y-72517636D01*
X128002954Y-72548152D01*
X123598803Y-68144002D01*
X123575000Y-68114998D01*
X123495800Y-68050000D01*
X132391201Y-68050000D01*
X134350408Y-70009207D01*
%TD*%
M02*
