%TF.GenerationSoftware,KiCad,Pcbnew,(5.1.6)-1*%
%TF.CreationDate,2021-09-03T02:09:39-07:00*%
%TF.ProjectId,Rocketboard-9E,526f636b-6574-4626-9f61-72642d39452e,1.0*%
%TF.SameCoordinates,Original*%
%TF.FileFunction,Legend,Bot*%
%TF.FilePolarity,Positive*%
%FSLAX46Y46*%
G04 Gerber Fmt 4.6, Leading zero omitted, Abs format (unit mm)*
G04 Created by KiCad (PCBNEW (5.1.6)-1) date 2021-09-03 02:09:39*
%MOMM*%
%LPD*%
G01*
G04 APERTURE LIST*
%ADD10C,0.200000*%
%ADD11C,0.120000*%
%ADD12C,0.150000*%
G04 APERTURE END LIST*
D10*
X137019047Y-61152380D02*
X137019047Y-61866666D01*
X137066666Y-62009523D01*
X137161904Y-62104761D01*
X137304761Y-62152380D01*
X137400000Y-62152380D01*
X136066666Y-62152380D02*
X136542857Y-62152380D01*
X136542857Y-61152380D01*
X135161904Y-62057142D02*
X135209523Y-62104761D01*
X135352380Y-62152380D01*
X135447619Y-62152380D01*
X135590476Y-62104761D01*
X135685714Y-62009523D01*
X135733333Y-61914285D01*
X135780952Y-61723809D01*
X135780952Y-61580952D01*
X135733333Y-61390476D01*
X135685714Y-61295238D01*
X135590476Y-61200000D01*
X135447619Y-61152380D01*
X135352380Y-61152380D01*
X135209523Y-61200000D01*
X135161904Y-61247619D01*
X134447619Y-61152380D02*
X134447619Y-61866666D01*
X134495238Y-62009523D01*
X134590476Y-62104761D01*
X134733333Y-62152380D01*
X134828571Y-62152380D01*
X133495238Y-62152380D02*
X133971428Y-62152380D01*
X133971428Y-61152380D01*
X132590476Y-62057142D02*
X132638095Y-62104761D01*
X132780952Y-62152380D01*
X132876190Y-62152380D01*
X133019047Y-62104761D01*
X133114285Y-62009523D01*
X133161904Y-61914285D01*
X133209523Y-61723809D01*
X133209523Y-61580952D01*
X133161904Y-61390476D01*
X133114285Y-61295238D01*
X133019047Y-61200000D01*
X132876190Y-61152380D01*
X132780952Y-61152380D01*
X132638095Y-61200000D01*
X132590476Y-61247619D01*
X131876190Y-61152380D02*
X131876190Y-61866666D01*
X131923809Y-62009523D01*
X132019047Y-62104761D01*
X132161904Y-62152380D01*
X132257142Y-62152380D01*
X130923809Y-62152380D02*
X131400000Y-62152380D01*
X131400000Y-61152380D01*
X130019047Y-62057142D02*
X130066666Y-62104761D01*
X130209523Y-62152380D01*
X130304761Y-62152380D01*
X130447619Y-62104761D01*
X130542857Y-62009523D01*
X130590476Y-61914285D01*
X130638095Y-61723809D01*
X130638095Y-61580952D01*
X130590476Y-61390476D01*
X130542857Y-61295238D01*
X130447619Y-61200000D01*
X130304761Y-61152380D01*
X130209523Y-61152380D01*
X130066666Y-61200000D01*
X130019047Y-61247619D01*
X129304761Y-61152380D02*
X129304761Y-61866666D01*
X129352380Y-62009523D01*
X129447619Y-62104761D01*
X129590476Y-62152380D01*
X129685714Y-62152380D01*
X128352380Y-62152380D02*
X128828571Y-62152380D01*
X128828571Y-61152380D01*
X127447619Y-62057142D02*
X127495238Y-62104761D01*
X127638095Y-62152380D01*
X127733333Y-62152380D01*
X127876190Y-62104761D01*
X127971428Y-62009523D01*
X128019047Y-61914285D01*
X128066666Y-61723809D01*
X128066666Y-61580952D01*
X128019047Y-61390476D01*
X127971428Y-61295238D01*
X127876190Y-61200000D01*
X127733333Y-61152380D01*
X127638095Y-61152380D01*
X127495238Y-61200000D01*
X127447619Y-61247619D01*
D11*
%TO.C,J2*%
X122300000Y-109260000D02*
X119640000Y-109260000D01*
X122300000Y-60940000D02*
X122300000Y-109260000D01*
X119640000Y-60940000D02*
X119640000Y-109260000D01*
X122300000Y-60940000D02*
X119640000Y-60940000D01*
X122300000Y-59670000D02*
X122300000Y-58340000D01*
X122300000Y-58340000D02*
X120970000Y-58340000D01*
%TO.C,J1*%
X145160000Y-109260000D02*
X142500000Y-109260000D01*
X145160000Y-60940000D02*
X145160000Y-109260000D01*
X142500000Y-60940000D02*
X142500000Y-109260000D01*
X145160000Y-60940000D02*
X142500000Y-60940000D01*
X145160000Y-59670000D02*
X145160000Y-58340000D01*
X145160000Y-58340000D02*
X143830000Y-58340000D01*
%TO.C,D9*%
X155600000Y-124150000D02*
X153600000Y-124150000D01*
X153600000Y-124150000D02*
X153600000Y-120250000D01*
X155600000Y-124150000D02*
X155600000Y-120250000D01*
%TO.C,D8*%
X136550000Y-124150000D02*
X134550000Y-124150000D01*
X134550000Y-124150000D02*
X134550000Y-120250000D01*
X136550000Y-124150000D02*
X136550000Y-120250000D01*
%TO.C,D7*%
X117500000Y-124150000D02*
X115500000Y-124150000D01*
X115500000Y-124150000D02*
X115500000Y-120250000D01*
X117500000Y-124150000D02*
X117500000Y-120250000D01*
%TO.C,D6*%
X155600000Y-105100000D02*
X153600000Y-105100000D01*
X153600000Y-105100000D02*
X153600000Y-101200000D01*
X155600000Y-105100000D02*
X155600000Y-101200000D01*
%TO.C,D5*%
X136550000Y-105100000D02*
X134550000Y-105100000D01*
X134550000Y-105100000D02*
X134550000Y-101200000D01*
X136550000Y-105100000D02*
X136550000Y-101200000D01*
%TO.C,D4*%
X117500000Y-105100000D02*
X115500000Y-105100000D01*
X115500000Y-105100000D02*
X115500000Y-101200000D01*
X117500000Y-105100000D02*
X117500000Y-101200000D01*
%TO.C,D3*%
X155600000Y-86050000D02*
X153600000Y-86050000D01*
X153600000Y-86050000D02*
X153600000Y-82150000D01*
X155600000Y-86050000D02*
X155600000Y-82150000D01*
%TO.C,D2*%
X136550000Y-86050000D02*
X134550000Y-86050000D01*
X134550000Y-86050000D02*
X134550000Y-82150000D01*
X136550000Y-86050000D02*
X136550000Y-82150000D01*
%TO.C,D1*%
X117500000Y-86050000D02*
X115500000Y-86050000D01*
X115500000Y-86050000D02*
X115500000Y-82150000D01*
X117500000Y-86050000D02*
X117500000Y-82150000D01*
%TO.C,REF\u002A\u002A*%
D10*
X140935714Y-129953571D02*
X141435714Y-129239285D01*
X141792857Y-129953571D02*
X141792857Y-128453571D01*
X141221428Y-128453571D01*
X141078571Y-128525000D01*
X141007142Y-128596428D01*
X140935714Y-128739285D01*
X140935714Y-128953571D01*
X141007142Y-129096428D01*
X141078571Y-129167857D01*
X141221428Y-129239285D01*
X141792857Y-129239285D01*
X140078571Y-129953571D02*
X140221428Y-129882142D01*
X140292857Y-129810714D01*
X140364285Y-129667857D01*
X140364285Y-129239285D01*
X140292857Y-129096428D01*
X140221428Y-129025000D01*
X140078571Y-128953571D01*
X139864285Y-128953571D01*
X139721428Y-129025000D01*
X139650000Y-129096428D01*
X139578571Y-129239285D01*
X139578571Y-129667857D01*
X139650000Y-129810714D01*
X139721428Y-129882142D01*
X139864285Y-129953571D01*
X140078571Y-129953571D01*
X138292857Y-129882142D02*
X138435714Y-129953571D01*
X138721428Y-129953571D01*
X138864285Y-129882142D01*
X138935714Y-129810714D01*
X139007142Y-129667857D01*
X139007142Y-129239285D01*
X138935714Y-129096428D01*
X138864285Y-129025000D01*
X138721428Y-128953571D01*
X138435714Y-128953571D01*
X138292857Y-129025000D01*
X137650000Y-129953571D02*
X137650000Y-128453571D01*
X137507142Y-129382142D02*
X137078571Y-129953571D01*
X137078571Y-128953571D02*
X137650000Y-129525000D01*
X135864285Y-129882142D02*
X136007142Y-129953571D01*
X136292857Y-129953571D01*
X136435714Y-129882142D01*
X136507142Y-129739285D01*
X136507142Y-129167857D01*
X136435714Y-129025000D01*
X136292857Y-128953571D01*
X136007142Y-128953571D01*
X135864285Y-129025000D01*
X135792857Y-129167857D01*
X135792857Y-129310714D01*
X136507142Y-129453571D01*
X135364285Y-128953571D02*
X134792857Y-128953571D01*
X135150000Y-128453571D02*
X135150000Y-129739285D01*
X135078571Y-129882142D01*
X134935714Y-129953571D01*
X134792857Y-129953571D01*
X134292857Y-129953571D02*
X134292857Y-128453571D01*
X134292857Y-129025000D02*
X134150000Y-128953571D01*
X133864285Y-128953571D01*
X133721428Y-129025000D01*
X133650000Y-129096428D01*
X133578571Y-129239285D01*
X133578571Y-129667857D01*
X133650000Y-129810714D01*
X133721428Y-129882142D01*
X133864285Y-129953571D01*
X134150000Y-129953571D01*
X134292857Y-129882142D01*
X132721428Y-129953571D02*
X132864285Y-129882142D01*
X132935714Y-129810714D01*
X133007142Y-129667857D01*
X133007142Y-129239285D01*
X132935714Y-129096428D01*
X132864285Y-129025000D01*
X132721428Y-128953571D01*
X132507142Y-128953571D01*
X132364285Y-129025000D01*
X132292857Y-129096428D01*
X132221428Y-129239285D01*
X132221428Y-129667857D01*
X132292857Y-129810714D01*
X132364285Y-129882142D01*
X132507142Y-129953571D01*
X132721428Y-129953571D01*
X130935714Y-129953571D02*
X130935714Y-129167857D01*
X131007142Y-129025000D01*
X131150000Y-128953571D01*
X131435714Y-128953571D01*
X131578571Y-129025000D01*
X130935714Y-129882142D02*
X131078571Y-129953571D01*
X131435714Y-129953571D01*
X131578571Y-129882142D01*
X131650000Y-129739285D01*
X131650000Y-129596428D01*
X131578571Y-129453571D01*
X131435714Y-129382142D01*
X131078571Y-129382142D01*
X130935714Y-129310714D01*
X130221428Y-129953571D02*
X130221428Y-128953571D01*
X130221428Y-129239285D02*
X130150000Y-129096428D01*
X130078571Y-129025000D01*
X129935714Y-128953571D01*
X129792857Y-128953571D01*
X128650000Y-129953571D02*
X128650000Y-128453571D01*
X128650000Y-129882142D02*
X128792857Y-129953571D01*
X129078571Y-129953571D01*
X129221428Y-129882142D01*
X129292857Y-129810714D01*
X129364285Y-129667857D01*
X129364285Y-129239285D01*
X129292857Y-129096428D01*
X129221428Y-129025000D01*
X129078571Y-128953571D01*
X128792857Y-128953571D01*
X128650000Y-129025000D01*
X127935714Y-129382142D02*
X126792857Y-129382142D01*
X126007142Y-129953571D02*
X125721428Y-129953571D01*
X125578571Y-129882142D01*
X125507142Y-129810714D01*
X125364285Y-129596428D01*
X125292857Y-129310714D01*
X125292857Y-128739285D01*
X125364285Y-128596428D01*
X125435714Y-128525000D01*
X125578571Y-128453571D01*
X125864285Y-128453571D01*
X126007142Y-128525000D01*
X126078571Y-128596428D01*
X126150000Y-128739285D01*
X126150000Y-129096428D01*
X126078571Y-129239285D01*
X126007142Y-129310714D01*
X125864285Y-129382142D01*
X125578571Y-129382142D01*
X125435714Y-129310714D01*
X125364285Y-129239285D01*
X125292857Y-129096428D01*
X124650000Y-129167857D02*
X124150000Y-129167857D01*
X123935714Y-129953571D02*
X124650000Y-129953571D01*
X124650000Y-128453571D01*
X123935714Y-128453571D01*
D12*
X141471428Y-128227380D02*
X141804761Y-127751190D01*
X142042857Y-128227380D02*
X142042857Y-127227380D01*
X141661904Y-127227380D01*
X141566666Y-127275000D01*
X141519047Y-127322619D01*
X141471428Y-127417857D01*
X141471428Y-127560714D01*
X141519047Y-127655952D01*
X141566666Y-127703571D01*
X141661904Y-127751190D01*
X142042857Y-127751190D01*
X140661904Y-128179761D02*
X140757142Y-128227380D01*
X140947619Y-128227380D01*
X141042857Y-128179761D01*
X141090476Y-128084523D01*
X141090476Y-127703571D01*
X141042857Y-127608333D01*
X140947619Y-127560714D01*
X140757142Y-127560714D01*
X140661904Y-127608333D01*
X140614285Y-127703571D01*
X140614285Y-127798809D01*
X141090476Y-127894047D01*
X140280952Y-127560714D02*
X140042857Y-128227380D01*
X139804761Y-127560714D01*
X138138095Y-128227380D02*
X138709523Y-128227380D01*
X138423809Y-128227380D02*
X138423809Y-127227380D01*
X138519047Y-127370238D01*
X138614285Y-127465476D01*
X138709523Y-127513095D01*
X137709523Y-128132142D02*
X137661904Y-128179761D01*
X137709523Y-128227380D01*
X137757142Y-128179761D01*
X137709523Y-128132142D01*
X137709523Y-128227380D01*
X137042857Y-127227380D02*
X136947619Y-127227380D01*
X136852380Y-127275000D01*
X136804761Y-127322619D01*
X136757142Y-127417857D01*
X136709523Y-127608333D01*
X136709523Y-127846428D01*
X136757142Y-128036904D01*
X136804761Y-128132142D01*
X136852380Y-128179761D01*
X136947619Y-128227380D01*
X137042857Y-128227380D01*
X137138095Y-128179761D01*
X137185714Y-128132142D01*
X137233333Y-128036904D01*
X137280952Y-127846428D01*
X137280952Y-127608333D01*
X137233333Y-127417857D01*
X137185714Y-127322619D01*
X137138095Y-127275000D01*
X137042857Y-127227380D01*
%TO.C,J2*%
X118573333Y-58152380D02*
X118573333Y-58866666D01*
X118620952Y-59009523D01*
X118716190Y-59104761D01*
X118859047Y-59152380D01*
X118954285Y-59152380D01*
X118144761Y-58247619D02*
X118097142Y-58200000D01*
X118001904Y-58152380D01*
X117763809Y-58152380D01*
X117668571Y-58200000D01*
X117620952Y-58247619D01*
X117573333Y-58342857D01*
X117573333Y-58438095D01*
X117620952Y-58580952D01*
X118192380Y-59152380D01*
X117573333Y-59152380D01*
%TO.C,J1*%
X147093333Y-58152380D02*
X147093333Y-58866666D01*
X147140952Y-59009523D01*
X147236190Y-59104761D01*
X147379047Y-59152380D01*
X147474285Y-59152380D01*
X146093333Y-59152380D02*
X146664761Y-59152380D01*
X146379047Y-59152380D02*
X146379047Y-58152380D01*
X146474285Y-58295238D01*
X146569523Y-58390476D01*
X146664761Y-58438095D01*
%TO.C,D9*%
X157052380Y-121161904D02*
X156052380Y-121161904D01*
X156052380Y-121400000D01*
X156100000Y-121542857D01*
X156195238Y-121638095D01*
X156290476Y-121685714D01*
X156480952Y-121733333D01*
X156623809Y-121733333D01*
X156814285Y-121685714D01*
X156909523Y-121638095D01*
X157004761Y-121542857D01*
X157052380Y-121400000D01*
X157052380Y-121161904D01*
X157052380Y-122209523D02*
X157052380Y-122400000D01*
X157004761Y-122495238D01*
X156957142Y-122542857D01*
X156814285Y-122638095D01*
X156623809Y-122685714D01*
X156242857Y-122685714D01*
X156147619Y-122638095D01*
X156100000Y-122590476D01*
X156052380Y-122495238D01*
X156052380Y-122304761D01*
X156100000Y-122209523D01*
X156147619Y-122161904D01*
X156242857Y-122114285D01*
X156480952Y-122114285D01*
X156576190Y-122161904D01*
X156623809Y-122209523D01*
X156671428Y-122304761D01*
X156671428Y-122495238D01*
X156623809Y-122590476D01*
X156576190Y-122638095D01*
X156480952Y-122685714D01*
%TO.C,D8*%
X138002380Y-121161904D02*
X137002380Y-121161904D01*
X137002380Y-121400000D01*
X137050000Y-121542857D01*
X137145238Y-121638095D01*
X137240476Y-121685714D01*
X137430952Y-121733333D01*
X137573809Y-121733333D01*
X137764285Y-121685714D01*
X137859523Y-121638095D01*
X137954761Y-121542857D01*
X138002380Y-121400000D01*
X138002380Y-121161904D01*
X137430952Y-122304761D02*
X137383333Y-122209523D01*
X137335714Y-122161904D01*
X137240476Y-122114285D01*
X137192857Y-122114285D01*
X137097619Y-122161904D01*
X137050000Y-122209523D01*
X137002380Y-122304761D01*
X137002380Y-122495238D01*
X137050000Y-122590476D01*
X137097619Y-122638095D01*
X137192857Y-122685714D01*
X137240476Y-122685714D01*
X137335714Y-122638095D01*
X137383333Y-122590476D01*
X137430952Y-122495238D01*
X137430952Y-122304761D01*
X137478571Y-122209523D01*
X137526190Y-122161904D01*
X137621428Y-122114285D01*
X137811904Y-122114285D01*
X137907142Y-122161904D01*
X137954761Y-122209523D01*
X138002380Y-122304761D01*
X138002380Y-122495238D01*
X137954761Y-122590476D01*
X137907142Y-122638095D01*
X137811904Y-122685714D01*
X137621428Y-122685714D01*
X137526190Y-122638095D01*
X137478571Y-122590476D01*
X137430952Y-122495238D01*
%TO.C,D7*%
X118952380Y-121161904D02*
X117952380Y-121161904D01*
X117952380Y-121400000D01*
X118000000Y-121542857D01*
X118095238Y-121638095D01*
X118190476Y-121685714D01*
X118380952Y-121733333D01*
X118523809Y-121733333D01*
X118714285Y-121685714D01*
X118809523Y-121638095D01*
X118904761Y-121542857D01*
X118952380Y-121400000D01*
X118952380Y-121161904D01*
X117952380Y-122066666D02*
X117952380Y-122733333D01*
X118952380Y-122304761D01*
%TO.C,D6*%
X157052380Y-102111904D02*
X156052380Y-102111904D01*
X156052380Y-102350000D01*
X156100000Y-102492857D01*
X156195238Y-102588095D01*
X156290476Y-102635714D01*
X156480952Y-102683333D01*
X156623809Y-102683333D01*
X156814285Y-102635714D01*
X156909523Y-102588095D01*
X157004761Y-102492857D01*
X157052380Y-102350000D01*
X157052380Y-102111904D01*
X156052380Y-103540476D02*
X156052380Y-103350000D01*
X156100000Y-103254761D01*
X156147619Y-103207142D01*
X156290476Y-103111904D01*
X156480952Y-103064285D01*
X156861904Y-103064285D01*
X156957142Y-103111904D01*
X157004761Y-103159523D01*
X157052380Y-103254761D01*
X157052380Y-103445238D01*
X157004761Y-103540476D01*
X156957142Y-103588095D01*
X156861904Y-103635714D01*
X156623809Y-103635714D01*
X156528571Y-103588095D01*
X156480952Y-103540476D01*
X156433333Y-103445238D01*
X156433333Y-103254761D01*
X156480952Y-103159523D01*
X156528571Y-103111904D01*
X156623809Y-103064285D01*
%TO.C,D5*%
X138002380Y-102111904D02*
X137002380Y-102111904D01*
X137002380Y-102350000D01*
X137050000Y-102492857D01*
X137145238Y-102588095D01*
X137240476Y-102635714D01*
X137430952Y-102683333D01*
X137573809Y-102683333D01*
X137764285Y-102635714D01*
X137859523Y-102588095D01*
X137954761Y-102492857D01*
X138002380Y-102350000D01*
X138002380Y-102111904D01*
X137002380Y-103588095D02*
X137002380Y-103111904D01*
X137478571Y-103064285D01*
X137430952Y-103111904D01*
X137383333Y-103207142D01*
X137383333Y-103445238D01*
X137430952Y-103540476D01*
X137478571Y-103588095D01*
X137573809Y-103635714D01*
X137811904Y-103635714D01*
X137907142Y-103588095D01*
X137954761Y-103540476D01*
X138002380Y-103445238D01*
X138002380Y-103207142D01*
X137954761Y-103111904D01*
X137907142Y-103064285D01*
%TO.C,D4*%
X118952380Y-102111904D02*
X117952380Y-102111904D01*
X117952380Y-102350000D01*
X118000000Y-102492857D01*
X118095238Y-102588095D01*
X118190476Y-102635714D01*
X118380952Y-102683333D01*
X118523809Y-102683333D01*
X118714285Y-102635714D01*
X118809523Y-102588095D01*
X118904761Y-102492857D01*
X118952380Y-102350000D01*
X118952380Y-102111904D01*
X118285714Y-103540476D02*
X118952380Y-103540476D01*
X117904761Y-103302380D02*
X118619047Y-103064285D01*
X118619047Y-103683333D01*
%TO.C,D3*%
X157052380Y-83061904D02*
X156052380Y-83061904D01*
X156052380Y-83300000D01*
X156100000Y-83442857D01*
X156195238Y-83538095D01*
X156290476Y-83585714D01*
X156480952Y-83633333D01*
X156623809Y-83633333D01*
X156814285Y-83585714D01*
X156909523Y-83538095D01*
X157004761Y-83442857D01*
X157052380Y-83300000D01*
X157052380Y-83061904D01*
X156052380Y-83966666D02*
X156052380Y-84585714D01*
X156433333Y-84252380D01*
X156433333Y-84395238D01*
X156480952Y-84490476D01*
X156528571Y-84538095D01*
X156623809Y-84585714D01*
X156861904Y-84585714D01*
X156957142Y-84538095D01*
X157004761Y-84490476D01*
X157052380Y-84395238D01*
X157052380Y-84109523D01*
X157004761Y-84014285D01*
X156957142Y-83966666D01*
%TO.C,D2*%
X138002380Y-83061904D02*
X137002380Y-83061904D01*
X137002380Y-83300000D01*
X137050000Y-83442857D01*
X137145238Y-83538095D01*
X137240476Y-83585714D01*
X137430952Y-83633333D01*
X137573809Y-83633333D01*
X137764285Y-83585714D01*
X137859523Y-83538095D01*
X137954761Y-83442857D01*
X138002380Y-83300000D01*
X138002380Y-83061904D01*
X137097619Y-84014285D02*
X137050000Y-84061904D01*
X137002380Y-84157142D01*
X137002380Y-84395238D01*
X137050000Y-84490476D01*
X137097619Y-84538095D01*
X137192857Y-84585714D01*
X137288095Y-84585714D01*
X137430952Y-84538095D01*
X138002380Y-83966666D01*
X138002380Y-84585714D01*
%TO.C,D1*%
X118952380Y-83061904D02*
X117952380Y-83061904D01*
X117952380Y-83300000D01*
X118000000Y-83442857D01*
X118095238Y-83538095D01*
X118190476Y-83585714D01*
X118380952Y-83633333D01*
X118523809Y-83633333D01*
X118714285Y-83585714D01*
X118809523Y-83538095D01*
X118904761Y-83442857D01*
X118952380Y-83300000D01*
X118952380Y-83061904D01*
X118952380Y-84585714D02*
X118952380Y-84014285D01*
X118952380Y-84300000D02*
X117952380Y-84300000D01*
X118095238Y-84204761D01*
X118190476Y-84109523D01*
X118238095Y-84014285D01*
%TD*%
M02*
