M48
INCH,TZ
T1C0.0157
T2C0.0394
T3C0.0579
T4C0.0689
T5C0.1570
%
G90
G05
T1
X49213Y-31496
X50630Y-33543
X50630Y-34409
X50630Y-40669
X50630Y-41417
X51378Y-27835
X54449Y-36575
X55197Y-34764
X55512Y-40669
X55512Y-41378
X57638Y-35354
X57677Y-31811
X57677Y-39252
X58110Y-33386
X58110Y-34567
X58150Y-40512
X58150Y-41496
T2
X56626Y-23492
X56626Y-24492
X56626Y-25492
X56626Y-26492
X56626Y-27492
X56626Y-28492
X56626Y-29492
X56626Y-30492
X56626Y-31492
X56626Y-32492
X56626Y-33492
X56626Y-34492
X56626Y-35492
X56626Y-36492
X56626Y-37492
X56626Y-38492
X56626Y-39492
X56626Y-40492
X56626Y-41492
X56626Y-42492
X47626Y-23492
X47626Y-24492
X47626Y-25492
X47626Y-26492
X47626Y-27492
X47626Y-28492
X47626Y-29492
X47626Y-30492
X47626Y-31492
X47626Y-32492
X47626Y-33492
X47626Y-34492
X47626Y-35492
X47626Y-36492
X47626Y-37492
X47626Y-38492
X47626Y-39492
X47626Y-40492
X47626Y-41492
X47626Y-42492
T3
X43126Y-44217
X45626Y-43217
X43126Y-29217
X45626Y-28217
X58126Y-44217
X60626Y-43217
X43126Y-36717
X45626Y-35717
X50626Y-44217
X53126Y-43217
X50626Y-29217
X53126Y-28217
X50626Y-36717
X53126Y-35717
X58126Y-36717
X60626Y-35717
X58126Y-29217
X60626Y-28217
T4
X50126Y-37717
X54126Y-37717
X57626Y-37717
X61626Y-37717
X57626Y-30217
X61626Y-30217
X42626Y-45217
X46626Y-45217
X42626Y-30217
X46626Y-30217
X57626Y-45217
X61626Y-45217
X42626Y-37717
X46626Y-37717
X50126Y-45217
X54126Y-45217
X50126Y-30217
X54126Y-30217
T5
X44626Y-37717
X52126Y-45217
X52126Y-30217
X52126Y-37717
X59626Y-37717
X59626Y-30217
X44626Y-45217
X44626Y-30217
X59626Y-45217
T0
M30
