%TF.GenerationSoftware,KiCad,Pcbnew,(5.1.6)-1*%
%TF.CreationDate,2021-09-03T02:09:39-07:00*%
%TF.ProjectId,Rocketboard-9E,526f636b-6574-4626-9f61-72642d39452e,1.0*%
%TF.SameCoordinates,Original*%
%TF.FileFunction,Soldermask,Bot*%
%TF.FilePolarity,Negative*%
%FSLAX46Y46*%
G04 Gerber Fmt 4.6, Leading zero omitted, Abs format (unit mm)*
G04 Created by KiCad (PCBNEW (5.1.6)-1) date 2021-09-03 02:09:39*
%MOMM*%
%LPD*%
G01*
G04 APERTURE LIST*
%ADD10C,0.150000*%
%ADD11C,2.350000*%
%ADD12C,4.087800*%
%ADD13C,1.850000*%
%ADD14O,1.800000X1.800000*%
%ADD15R,1.800000X1.800000*%
%ADD16R,1.300000X1.000000*%
G04 APERTURE END LIST*
%TO.C,REF\u002A\u002A*%
D10*
X134457142Y-127322619D02*
X134409523Y-127275000D01*
X134314285Y-127227380D01*
X134076190Y-127227380D01*
X133980952Y-127275000D01*
X133933333Y-127322619D01*
X133885714Y-127417857D01*
X133885714Y-127513095D01*
X133933333Y-127655952D01*
X134504761Y-128227380D01*
X133885714Y-128227380D01*
X133266666Y-127227380D02*
X133171428Y-127227380D01*
X133076190Y-127275000D01*
X133028571Y-127322619D01*
X132980952Y-127417857D01*
X132933333Y-127608333D01*
X132933333Y-127846428D01*
X132980952Y-128036904D01*
X133028571Y-128132142D01*
X133076190Y-128179761D01*
X133171428Y-128227380D01*
X133266666Y-128227380D01*
X133361904Y-128179761D01*
X133409523Y-128132142D01*
X133457142Y-128036904D01*
X133504761Y-127846428D01*
X133504761Y-127608333D01*
X133457142Y-127417857D01*
X133409523Y-127322619D01*
X133361904Y-127275000D01*
X133266666Y-127227380D01*
X132552380Y-127322619D02*
X132504761Y-127275000D01*
X132409523Y-127227380D01*
X132171428Y-127227380D01*
X132076190Y-127275000D01*
X132028571Y-127322619D01*
X131980952Y-127417857D01*
X131980952Y-127513095D01*
X132028571Y-127655952D01*
X132600000Y-128227380D01*
X131980952Y-128227380D01*
X131028571Y-128227380D02*
X131600000Y-128227380D01*
X131314285Y-128227380D02*
X131314285Y-127227380D01*
X131409523Y-127370238D01*
X131504761Y-127465476D01*
X131600000Y-127513095D01*
X130600000Y-127846428D02*
X129838095Y-127846428D01*
X129171428Y-127227380D02*
X129076190Y-127227380D01*
X128980952Y-127275000D01*
X128933333Y-127322619D01*
X128885714Y-127417857D01*
X128838095Y-127608333D01*
X128838095Y-127846428D01*
X128885714Y-128036904D01*
X128933333Y-128132142D01*
X128980952Y-128179761D01*
X129076190Y-128227380D01*
X129171428Y-128227380D01*
X129266666Y-128179761D01*
X129314285Y-128132142D01*
X129361904Y-128036904D01*
X129409523Y-127846428D01*
X129409523Y-127608333D01*
X129361904Y-127417857D01*
X129314285Y-127322619D01*
X129266666Y-127275000D01*
X129171428Y-127227380D01*
X128361904Y-128227380D02*
X128171428Y-128227380D01*
X128076190Y-128179761D01*
X128028571Y-128132142D01*
X127933333Y-127989285D01*
X127885714Y-127798809D01*
X127885714Y-127417857D01*
X127933333Y-127322619D01*
X127980952Y-127275000D01*
X128076190Y-127227380D01*
X128266666Y-127227380D01*
X128361904Y-127275000D01*
X128409523Y-127322619D01*
X128457142Y-127417857D01*
X128457142Y-127655952D01*
X128409523Y-127751190D01*
X128361904Y-127798809D01*
X128266666Y-127846428D01*
X128076190Y-127846428D01*
X127980952Y-127798809D01*
X127933333Y-127751190D01*
X127885714Y-127655952D01*
X127457142Y-127846428D02*
X126695238Y-127846428D01*
X126028571Y-127227380D02*
X125933333Y-127227380D01*
X125838095Y-127275000D01*
X125790476Y-127322619D01*
X125742857Y-127417857D01*
X125695238Y-127608333D01*
X125695238Y-127846428D01*
X125742857Y-128036904D01*
X125790476Y-128132142D01*
X125838095Y-128179761D01*
X125933333Y-128227380D01*
X126028571Y-128227380D01*
X126123809Y-128179761D01*
X126171428Y-128132142D01*
X126219047Y-128036904D01*
X126266666Y-127846428D01*
X126266666Y-127608333D01*
X126219047Y-127417857D01*
X126171428Y-127322619D01*
X126123809Y-127275000D01*
X126028571Y-127227380D01*
X125361904Y-127227380D02*
X124742857Y-127227380D01*
X125076190Y-127608333D01*
X124933333Y-127608333D01*
X124838095Y-127655952D01*
X124790476Y-127703571D01*
X124742857Y-127798809D01*
X124742857Y-128036904D01*
X124790476Y-128132142D01*
X124838095Y-128179761D01*
X124933333Y-128227380D01*
X125219047Y-128227380D01*
X125314285Y-128179761D01*
X125361904Y-128132142D01*
%TD*%
D11*
%TO.C,MX9*%
X153990000Y-109770000D03*
D12*
X151450000Y-114850000D03*
D11*
X147640000Y-112310000D03*
D13*
X146370000Y-114850000D03*
X156530000Y-114850000D03*
%TD*%
D11*
%TO.C,MX8*%
X134940000Y-109770000D03*
D12*
X132400000Y-114850000D03*
D11*
X128590000Y-112310000D03*
D13*
X127320000Y-114850000D03*
X137480000Y-114850000D03*
%TD*%
D11*
%TO.C,MX7*%
X115890000Y-109770000D03*
D12*
X113350000Y-114850000D03*
D11*
X109540000Y-112310000D03*
D13*
X108270000Y-114850000D03*
X118430000Y-114850000D03*
%TD*%
D11*
%TO.C,MX6*%
X153990000Y-90720000D03*
D12*
X151450000Y-95800000D03*
D11*
X147640000Y-93260000D03*
D13*
X146370000Y-95800000D03*
X156530000Y-95800000D03*
%TD*%
D11*
%TO.C,MX5*%
X134940000Y-90720000D03*
D12*
X132400000Y-95800000D03*
D11*
X128590000Y-93260000D03*
D13*
X127320000Y-95800000D03*
X137480000Y-95800000D03*
%TD*%
D11*
%TO.C,MX4*%
X115890000Y-90720000D03*
D12*
X113350000Y-95800000D03*
D11*
X109540000Y-93260000D03*
D13*
X108270000Y-95800000D03*
X118430000Y-95800000D03*
%TD*%
D11*
%TO.C,MX3*%
X153990000Y-71670000D03*
D12*
X151450000Y-76750000D03*
D11*
X147640000Y-74210000D03*
D13*
X146370000Y-76750000D03*
X156530000Y-76750000D03*
%TD*%
D11*
%TO.C,MX2*%
X134940000Y-71670000D03*
D12*
X132400000Y-76750000D03*
D11*
X128590000Y-74210000D03*
D13*
X127320000Y-76750000D03*
X137480000Y-76750000D03*
%TD*%
%TO.C,MX1*%
X118430000Y-76750000D03*
X108270000Y-76750000D03*
D11*
X109540000Y-74210000D03*
D12*
X113350000Y-76750000D03*
D11*
X115890000Y-71670000D03*
%TD*%
D14*
%TO.C,J2*%
X120970000Y-107930000D03*
X120970000Y-105390000D03*
X120970000Y-102850000D03*
X120970000Y-100310000D03*
X120970000Y-97770000D03*
X120970000Y-95230000D03*
X120970000Y-92690000D03*
X120970000Y-90150000D03*
X120970000Y-87610000D03*
X120970000Y-85070000D03*
X120970000Y-82530000D03*
X120970000Y-79990000D03*
X120970000Y-77450000D03*
X120970000Y-74910000D03*
X120970000Y-72370000D03*
X120970000Y-69830000D03*
X120970000Y-67290000D03*
X120970000Y-64750000D03*
X120970000Y-62210000D03*
D15*
X120970000Y-59670000D03*
%TD*%
D14*
%TO.C,J1*%
X143830000Y-107930000D03*
X143830000Y-105390000D03*
X143830000Y-102850000D03*
X143830000Y-100310000D03*
X143830000Y-97770000D03*
X143830000Y-95230000D03*
X143830000Y-92690000D03*
X143830000Y-90150000D03*
X143830000Y-87610000D03*
X143830000Y-85070000D03*
X143830000Y-82530000D03*
X143830000Y-79990000D03*
X143830000Y-77450000D03*
X143830000Y-74910000D03*
X143830000Y-72370000D03*
X143830000Y-69830000D03*
X143830000Y-67290000D03*
X143830000Y-64750000D03*
X143830000Y-62210000D03*
D15*
X143830000Y-59670000D03*
%TD*%
D16*
%TO.C,D9*%
X154600000Y-120250000D03*
X154600000Y-123550000D03*
%TD*%
%TO.C,D8*%
X135550000Y-120250000D03*
X135550000Y-123550000D03*
%TD*%
%TO.C,D7*%
X116500000Y-120250000D03*
X116500000Y-123550000D03*
%TD*%
%TO.C,D6*%
X154600000Y-101200000D03*
X154600000Y-104500000D03*
%TD*%
%TO.C,D5*%
X135550000Y-101200000D03*
X135550000Y-104500000D03*
%TD*%
%TO.C,D4*%
X116500000Y-101200000D03*
X116500000Y-104500000D03*
%TD*%
%TO.C,D3*%
X154600000Y-82150000D03*
X154600000Y-85450000D03*
%TD*%
%TO.C,D2*%
X135550000Y-82150000D03*
X135550000Y-85450000D03*
%TD*%
%TO.C,D1*%
X116500000Y-82150000D03*
X116500000Y-85450000D03*
%TD*%
M02*
