%TF.GenerationSoftware,KiCad,Pcbnew,(5.1.6)-1*%
%TF.CreationDate,2021-09-03T02:09:39-07:00*%
%TF.ProjectId,Rocketboard-9E,526f636b-6574-4626-9f61-72642d39452e,1.0*%
%TF.SameCoordinates,Original*%
%TF.FileFunction,Copper,L1,Top*%
%TF.FilePolarity,Positive*%
%FSLAX46Y46*%
G04 Gerber Fmt 4.6, Leading zero omitted, Abs format (unit mm)*
G04 Created by KiCad (PCBNEW (5.1.6)-1) date 2021-09-03 02:09:39*
%MOMM*%
%LPD*%
G01*
G04 APERTURE LIST*
%TA.AperFunction,ComponentPad*%
%ADD10C,2.250000*%
%TD*%
%TA.AperFunction,ComponentPad*%
%ADD11O,1.700000X1.700000*%
%TD*%
%TA.AperFunction,ComponentPad*%
%ADD12R,1.700000X1.700000*%
%TD*%
%TA.AperFunction,ViaPad*%
%ADD13C,0.800000*%
%TD*%
%TA.AperFunction,Conductor*%
%ADD14C,0.250000*%
%TD*%
%TA.AperFunction,Conductor*%
%ADD15C,0.254000*%
%TD*%
G04 APERTURE END LIST*
D10*
%TO.P,MX9,2*%
%TO.N,Net-(D9-Pad2)*%
X153990000Y-109770000D03*
%TO.P,MX9,1*%
%TO.N,/col2*%
X147640000Y-112310000D03*
%TD*%
%TO.P,MX8,2*%
%TO.N,Net-(D8-Pad2)*%
X134940000Y-109770000D03*
%TO.P,MX8,1*%
%TO.N,/col1*%
X128590000Y-112310000D03*
%TD*%
%TO.P,MX7,2*%
%TO.N,Net-(D7-Pad2)*%
X115890000Y-109770000D03*
%TO.P,MX7,1*%
%TO.N,/col0*%
X109540000Y-112310000D03*
%TD*%
%TO.P,MX6,2*%
%TO.N,Net-(D6-Pad2)*%
X153990000Y-90720000D03*
%TO.P,MX6,1*%
%TO.N,/col2*%
X147640000Y-93260000D03*
%TD*%
%TO.P,MX5,2*%
%TO.N,Net-(D5-Pad2)*%
X134940000Y-90720000D03*
%TO.P,MX5,1*%
%TO.N,/col1*%
X128590000Y-93260000D03*
%TD*%
%TO.P,MX4,2*%
%TO.N,Net-(D4-Pad2)*%
X115890000Y-90720000D03*
%TO.P,MX4,1*%
%TO.N,/col0*%
X109540000Y-93260000D03*
%TD*%
%TO.P,MX3,2*%
%TO.N,Net-(D3-Pad2)*%
X153990000Y-71670000D03*
%TO.P,MX3,1*%
%TO.N,/col2*%
X147640000Y-74210000D03*
%TD*%
%TO.P,MX2,2*%
%TO.N,Net-(D2-Pad2)*%
X134940000Y-71670000D03*
%TO.P,MX2,1*%
%TO.N,/col1*%
X128590000Y-74210000D03*
%TD*%
%TO.P,MX1,1*%
%TO.N,/col0*%
X109540000Y-74210000D03*
%TO.P,MX1,2*%
%TO.N,Net-(D1-Pad2)*%
X115890000Y-71670000D03*
%TD*%
D11*
%TO.P,J2,20*%
%TO.N,GND*%
X120970000Y-107930000D03*
%TO.P,J2,19*%
%TO.N,Net-(J2-Pad19)*%
X120970000Y-105390000D03*
%TO.P,J2,18*%
%TO.N,GND*%
X120970000Y-102850000D03*
%TO.P,J2,17*%
%TO.N,Net-(J2-Pad17)*%
X120970000Y-100310000D03*
%TO.P,J2,16*%
%TO.N,Net-(J2-Pad16)*%
X120970000Y-97770000D03*
%TO.P,J2,15*%
%TO.N,Net-(J2-Pad15)*%
X120970000Y-95230000D03*
%TO.P,J2,14*%
%TO.N,Net-(J2-Pad14)*%
X120970000Y-92690000D03*
%TO.P,J2,13*%
%TO.N,Net-(J2-Pad13)*%
X120970000Y-90150000D03*
%TO.P,J2,12*%
%TO.N,Net-(J2-Pad12)*%
X120970000Y-87610000D03*
%TO.P,J2,11*%
%TO.N,Net-(J2-Pad11)*%
X120970000Y-85070000D03*
%TO.P,J2,10*%
%TO.N,Net-(J2-Pad10)*%
X120970000Y-82530000D03*
%TO.P,J2,9*%
%TO.N,Net-(J2-Pad9)*%
X120970000Y-79990000D03*
%TO.P,J2,8*%
%TO.N,Net-(J2-Pad8)*%
X120970000Y-77450000D03*
%TO.P,J2,7*%
%TO.N,Net-(J2-Pad7)*%
X120970000Y-74910000D03*
%TO.P,J2,6*%
%TO.N,Net-(J2-Pad6)*%
X120970000Y-72370000D03*
%TO.P,J2,5*%
%TO.N,Net-(J2-Pad5)*%
X120970000Y-69830000D03*
%TO.P,J2,4*%
%TO.N,/col2*%
X120970000Y-67290000D03*
%TO.P,J2,3*%
%TO.N,/col1*%
X120970000Y-64750000D03*
%TO.P,J2,2*%
%TO.N,/col0*%
X120970000Y-62210000D03*
D12*
%TO.P,J2,1*%
%TO.N,Net-(J2-Pad1)*%
X120970000Y-59670000D03*
%TD*%
D11*
%TO.P,J1,20*%
%TO.N,Net-(J1-Pad20)*%
X143830000Y-107930000D03*
%TO.P,J1,19*%
%TO.N,GND*%
X143830000Y-105390000D03*
%TO.P,J1,18*%
%TO.N,Net-(J1-Pad18)*%
X143830000Y-102850000D03*
%TO.P,J1,17*%
%TO.N,/row2*%
X143830000Y-100310000D03*
%TO.P,J1,16*%
%TO.N,/row1*%
X143830000Y-97770000D03*
%TO.P,J1,15*%
%TO.N,/row0*%
X143830000Y-95230000D03*
%TO.P,J1,14*%
%TO.N,Net-(J1-Pad14)*%
X143830000Y-92690000D03*
%TO.P,J1,13*%
%TO.N,Net-(J1-Pad13)*%
X143830000Y-90150000D03*
%TO.P,J1,12*%
%TO.N,Net-(J1-Pad12)*%
X143830000Y-87610000D03*
%TO.P,J1,11*%
%TO.N,Net-(J1-Pad11)*%
X143830000Y-85070000D03*
%TO.P,J1,10*%
%TO.N,Net-(J1-Pad10)*%
X143830000Y-82530000D03*
%TO.P,J1,9*%
%TO.N,Net-(J1-Pad9)*%
X143830000Y-79990000D03*
%TO.P,J1,8*%
%TO.N,Net-(J1-Pad8)*%
X143830000Y-77450000D03*
%TO.P,J1,7*%
%TO.N,Net-(J1-Pad7)*%
X143830000Y-74910000D03*
%TO.P,J1,6*%
%TO.N,Net-(J1-Pad6)*%
X143830000Y-72370000D03*
%TO.P,J1,5*%
%TO.N,Net-(J1-Pad5)*%
X143830000Y-69830000D03*
%TO.P,J1,4*%
%TO.N,Net-(J1-Pad4)*%
X143830000Y-67290000D03*
%TO.P,J1,3*%
%TO.N,Net-(J1-Pad3)*%
X143830000Y-64750000D03*
%TO.P,J1,2*%
%TO.N,Net-(J1-Pad2)*%
X143830000Y-62210000D03*
D12*
%TO.P,J1,1*%
%TO.N,GND*%
X143830000Y-59670000D03*
%TD*%
D13*
%TO.N,/row2*%
X141000000Y-103300000D03*
X141000000Y-105100000D03*
%TO.N,GND*%
X130500000Y-70700000D03*
X125000000Y-80000000D03*
X138300000Y-92900000D03*
X146500000Y-80800000D03*
X146400000Y-89800000D03*
X146500000Y-99700000D03*
X140200000Y-88300000D03*
%TO.N,/col2*%
X147600000Y-84800000D03*
X147600000Y-87800000D03*
X147700000Y-102900000D03*
X147700000Y-105400000D03*
%TO.N,/col1*%
X128600000Y-85200000D03*
X128600000Y-87400000D03*
X128600000Y-103300000D03*
X128600000Y-105200000D03*
%TD*%
D14*
%TO.N,/row2*%
X141000000Y-103300000D02*
X141000000Y-105100000D01*
%TO.N,/col2*%
X147600000Y-84800000D02*
X147600000Y-87800000D01*
X147700000Y-102900000D02*
X147700000Y-105400000D01*
%TO.N,/col1*%
X128600000Y-85200000D02*
X128600000Y-87400000D01*
X128600000Y-103300000D02*
X128600000Y-105200000D01*
%TD*%
D15*
%TO.N,GND*%
G36*
X170315001Y-133715000D02*
G01*
X94485000Y-133715000D01*
X94485000Y-127551521D01*
X98155979Y-127551521D01*
X98155979Y-127998479D01*
X98243176Y-128436849D01*
X98414220Y-128849785D01*
X98662536Y-129221417D01*
X98978583Y-129537464D01*
X99350215Y-129785780D01*
X99763151Y-129956824D01*
X100201521Y-130044021D01*
X100648479Y-130044021D01*
X101086849Y-129956824D01*
X101499785Y-129785780D01*
X101871417Y-129537464D01*
X102187464Y-129221417D01*
X102435780Y-128849785D01*
X102606824Y-128436849D01*
X102694021Y-127998479D01*
X102694021Y-127551521D01*
X162105979Y-127551521D01*
X162105979Y-127998479D01*
X162193176Y-128436849D01*
X162364220Y-128849785D01*
X162612536Y-129221417D01*
X162928583Y-129537464D01*
X163300215Y-129785780D01*
X163713151Y-129956824D01*
X164151521Y-130044021D01*
X164598479Y-130044021D01*
X165036849Y-129956824D01*
X165449785Y-129785780D01*
X165821417Y-129537464D01*
X166137464Y-129221417D01*
X166385780Y-128849785D01*
X166556824Y-128436849D01*
X166644021Y-127998479D01*
X166644021Y-127551521D01*
X166556824Y-127113151D01*
X166385780Y-126700215D01*
X166137464Y-126328583D01*
X165821417Y-126012536D01*
X165449785Y-125764220D01*
X165036849Y-125593176D01*
X164598479Y-125505979D01*
X164151521Y-125505979D01*
X163713151Y-125593176D01*
X163300215Y-125764220D01*
X162928583Y-126012536D01*
X162612536Y-126328583D01*
X162364220Y-126700215D01*
X162193176Y-127113151D01*
X162105979Y-127551521D01*
X102694021Y-127551521D01*
X102606824Y-127113151D01*
X102435780Y-126700215D01*
X102187464Y-126328583D01*
X101871417Y-126012536D01*
X101499785Y-125764220D01*
X101086849Y-125593176D01*
X100648479Y-125505979D01*
X100201521Y-125505979D01*
X99763151Y-125593176D01*
X99350215Y-125764220D01*
X98978583Y-126012536D01*
X98662536Y-126328583D01*
X98414220Y-126700215D01*
X98243176Y-127113151D01*
X98155979Y-127551521D01*
X94485000Y-127551521D01*
X94485000Y-114701278D01*
X106760000Y-114701278D01*
X106760000Y-114998722D01*
X106818029Y-115290451D01*
X106931856Y-115565253D01*
X107097107Y-115812569D01*
X107307431Y-116022893D01*
X107554747Y-116188144D01*
X107829549Y-116301971D01*
X108121278Y-116360000D01*
X108418722Y-116360000D01*
X108710451Y-116301971D01*
X108985253Y-116188144D01*
X109232569Y-116022893D01*
X109442893Y-115812569D01*
X109608144Y-115565253D01*
X109721971Y-115290451D01*
X109780000Y-114998722D01*
X109780000Y-114701278D01*
X109758080Y-114591076D01*
X110721100Y-114591076D01*
X110721100Y-115108924D01*
X110822127Y-115616822D01*
X111020299Y-116095251D01*
X111308000Y-116525826D01*
X111674174Y-116892000D01*
X112104749Y-117179701D01*
X112583178Y-117377873D01*
X113091076Y-117478900D01*
X113608924Y-117478900D01*
X114116822Y-117377873D01*
X114595251Y-117179701D01*
X115025826Y-116892000D01*
X115392000Y-116525826D01*
X115679701Y-116095251D01*
X115877873Y-115616822D01*
X115978900Y-115108924D01*
X115978900Y-114701278D01*
X116920000Y-114701278D01*
X116920000Y-114998722D01*
X116978029Y-115290451D01*
X117091856Y-115565253D01*
X117257107Y-115812569D01*
X117467431Y-116022893D01*
X117714747Y-116188144D01*
X117989549Y-116301971D01*
X118281278Y-116360000D01*
X118578722Y-116360000D01*
X118870451Y-116301971D01*
X119145253Y-116188144D01*
X119392569Y-116022893D01*
X119602893Y-115812569D01*
X119768144Y-115565253D01*
X119881971Y-115290451D01*
X119940000Y-114998722D01*
X119940000Y-114701278D01*
X125810000Y-114701278D01*
X125810000Y-114998722D01*
X125868029Y-115290451D01*
X125981856Y-115565253D01*
X126147107Y-115812569D01*
X126357431Y-116022893D01*
X126604747Y-116188144D01*
X126879549Y-116301971D01*
X127171278Y-116360000D01*
X127468722Y-116360000D01*
X127760451Y-116301971D01*
X128035253Y-116188144D01*
X128282569Y-116022893D01*
X128492893Y-115812569D01*
X128658144Y-115565253D01*
X128771971Y-115290451D01*
X128830000Y-114998722D01*
X128830000Y-114701278D01*
X128808080Y-114591076D01*
X129771100Y-114591076D01*
X129771100Y-115108924D01*
X129872127Y-115616822D01*
X130070299Y-116095251D01*
X130358000Y-116525826D01*
X130724174Y-116892000D01*
X131154749Y-117179701D01*
X131633178Y-117377873D01*
X132141076Y-117478900D01*
X132658924Y-117478900D01*
X133166822Y-117377873D01*
X133645251Y-117179701D01*
X134075826Y-116892000D01*
X134442000Y-116525826D01*
X134729701Y-116095251D01*
X134927873Y-115616822D01*
X135028900Y-115108924D01*
X135028900Y-114701278D01*
X135970000Y-114701278D01*
X135970000Y-114998722D01*
X136028029Y-115290451D01*
X136141856Y-115565253D01*
X136307107Y-115812569D01*
X136517431Y-116022893D01*
X136764747Y-116188144D01*
X137039549Y-116301971D01*
X137331278Y-116360000D01*
X137628722Y-116360000D01*
X137920451Y-116301971D01*
X138195253Y-116188144D01*
X138442569Y-116022893D01*
X138652893Y-115812569D01*
X138818144Y-115565253D01*
X138931971Y-115290451D01*
X138990000Y-114998722D01*
X138990000Y-114701278D01*
X144860000Y-114701278D01*
X144860000Y-114998722D01*
X144918029Y-115290451D01*
X145031856Y-115565253D01*
X145197107Y-115812569D01*
X145407431Y-116022893D01*
X145654747Y-116188144D01*
X145929549Y-116301971D01*
X146221278Y-116360000D01*
X146518722Y-116360000D01*
X146810451Y-116301971D01*
X147085253Y-116188144D01*
X147332569Y-116022893D01*
X147542893Y-115812569D01*
X147708144Y-115565253D01*
X147821971Y-115290451D01*
X147880000Y-114998722D01*
X147880000Y-114701278D01*
X147858080Y-114591076D01*
X148821100Y-114591076D01*
X148821100Y-115108924D01*
X148922127Y-115616822D01*
X149120299Y-116095251D01*
X149408000Y-116525826D01*
X149774174Y-116892000D01*
X150204749Y-117179701D01*
X150683178Y-117377873D01*
X151191076Y-117478900D01*
X151708924Y-117478900D01*
X152216822Y-117377873D01*
X152695251Y-117179701D01*
X153125826Y-116892000D01*
X153492000Y-116525826D01*
X153779701Y-116095251D01*
X153977873Y-115616822D01*
X154078900Y-115108924D01*
X154078900Y-114701278D01*
X155020000Y-114701278D01*
X155020000Y-114998722D01*
X155078029Y-115290451D01*
X155191856Y-115565253D01*
X155357107Y-115812569D01*
X155567431Y-116022893D01*
X155814747Y-116188144D01*
X156089549Y-116301971D01*
X156381278Y-116360000D01*
X156678722Y-116360000D01*
X156970451Y-116301971D01*
X157245253Y-116188144D01*
X157492569Y-116022893D01*
X157702893Y-115812569D01*
X157868144Y-115565253D01*
X157981971Y-115290451D01*
X158040000Y-114998722D01*
X158040000Y-114701278D01*
X157981971Y-114409549D01*
X157868144Y-114134747D01*
X157702893Y-113887431D01*
X157492569Y-113677107D01*
X157245253Y-113511856D01*
X156970451Y-113398029D01*
X156678722Y-113340000D01*
X156381278Y-113340000D01*
X156089549Y-113398029D01*
X155814747Y-113511856D01*
X155567431Y-113677107D01*
X155357107Y-113887431D01*
X155191856Y-114134747D01*
X155078029Y-114409549D01*
X155020000Y-114701278D01*
X154078900Y-114701278D01*
X154078900Y-114591076D01*
X153977873Y-114083178D01*
X153779701Y-113604749D01*
X153492000Y-113174174D01*
X153125826Y-112808000D01*
X152695251Y-112520299D01*
X152216822Y-112322127D01*
X151708924Y-112221100D01*
X151191076Y-112221100D01*
X150683178Y-112322127D01*
X150204749Y-112520299D01*
X149774174Y-112808000D01*
X149408000Y-113174174D01*
X149120299Y-113604749D01*
X148922127Y-114083178D01*
X148821100Y-114591076D01*
X147858080Y-114591076D01*
X147821971Y-114409549D01*
X147708144Y-114134747D01*
X147664882Y-114070000D01*
X147813345Y-114070000D01*
X148153373Y-114002364D01*
X148473673Y-113869692D01*
X148761935Y-113677081D01*
X149007081Y-113431935D01*
X149199692Y-113143673D01*
X149332364Y-112823373D01*
X149400000Y-112483345D01*
X149400000Y-112136655D01*
X149332364Y-111796627D01*
X149199692Y-111476327D01*
X149007081Y-111188065D01*
X148761935Y-110942919D01*
X148473673Y-110750308D01*
X148153373Y-110617636D01*
X147813345Y-110550000D01*
X147466655Y-110550000D01*
X147126627Y-110617636D01*
X146806327Y-110750308D01*
X146518065Y-110942919D01*
X146272919Y-111188065D01*
X146080308Y-111476327D01*
X145947636Y-111796627D01*
X145880000Y-112136655D01*
X145880000Y-112483345D01*
X145947636Y-112823373D01*
X146080308Y-113143673D01*
X146212638Y-113341719D01*
X145929549Y-113398029D01*
X145654747Y-113511856D01*
X145407431Y-113677107D01*
X145197107Y-113887431D01*
X145031856Y-114134747D01*
X144918029Y-114409549D01*
X144860000Y-114701278D01*
X138990000Y-114701278D01*
X138931971Y-114409549D01*
X138818144Y-114134747D01*
X138652893Y-113887431D01*
X138442569Y-113677107D01*
X138195253Y-113511856D01*
X137920451Y-113398029D01*
X137628722Y-113340000D01*
X137331278Y-113340000D01*
X137039549Y-113398029D01*
X136764747Y-113511856D01*
X136517431Y-113677107D01*
X136307107Y-113887431D01*
X136141856Y-114134747D01*
X136028029Y-114409549D01*
X135970000Y-114701278D01*
X135028900Y-114701278D01*
X135028900Y-114591076D01*
X134927873Y-114083178D01*
X134729701Y-113604749D01*
X134442000Y-113174174D01*
X134075826Y-112808000D01*
X133645251Y-112520299D01*
X133166822Y-112322127D01*
X132658924Y-112221100D01*
X132141076Y-112221100D01*
X131633178Y-112322127D01*
X131154749Y-112520299D01*
X130724174Y-112808000D01*
X130358000Y-113174174D01*
X130070299Y-113604749D01*
X129872127Y-114083178D01*
X129771100Y-114591076D01*
X128808080Y-114591076D01*
X128771971Y-114409549D01*
X128658144Y-114134747D01*
X128614882Y-114070000D01*
X128763345Y-114070000D01*
X129103373Y-114002364D01*
X129423673Y-113869692D01*
X129711935Y-113677081D01*
X129957081Y-113431935D01*
X130149692Y-113143673D01*
X130282364Y-112823373D01*
X130350000Y-112483345D01*
X130350000Y-112136655D01*
X130282364Y-111796627D01*
X130149692Y-111476327D01*
X129957081Y-111188065D01*
X129711935Y-110942919D01*
X129423673Y-110750308D01*
X129103373Y-110617636D01*
X128763345Y-110550000D01*
X128416655Y-110550000D01*
X128076627Y-110617636D01*
X127756327Y-110750308D01*
X127468065Y-110942919D01*
X127222919Y-111188065D01*
X127030308Y-111476327D01*
X126897636Y-111796627D01*
X126830000Y-112136655D01*
X126830000Y-112483345D01*
X126897636Y-112823373D01*
X127030308Y-113143673D01*
X127162638Y-113341719D01*
X126879549Y-113398029D01*
X126604747Y-113511856D01*
X126357431Y-113677107D01*
X126147107Y-113887431D01*
X125981856Y-114134747D01*
X125868029Y-114409549D01*
X125810000Y-114701278D01*
X119940000Y-114701278D01*
X119881971Y-114409549D01*
X119768144Y-114134747D01*
X119602893Y-113887431D01*
X119392569Y-113677107D01*
X119145253Y-113511856D01*
X118870451Y-113398029D01*
X118578722Y-113340000D01*
X118281278Y-113340000D01*
X117989549Y-113398029D01*
X117714747Y-113511856D01*
X117467431Y-113677107D01*
X117257107Y-113887431D01*
X117091856Y-114134747D01*
X116978029Y-114409549D01*
X116920000Y-114701278D01*
X115978900Y-114701278D01*
X115978900Y-114591076D01*
X115877873Y-114083178D01*
X115679701Y-113604749D01*
X115392000Y-113174174D01*
X115025826Y-112808000D01*
X114595251Y-112520299D01*
X114116822Y-112322127D01*
X113608924Y-112221100D01*
X113091076Y-112221100D01*
X112583178Y-112322127D01*
X112104749Y-112520299D01*
X111674174Y-112808000D01*
X111308000Y-113174174D01*
X111020299Y-113604749D01*
X110822127Y-114083178D01*
X110721100Y-114591076D01*
X109758080Y-114591076D01*
X109721971Y-114409549D01*
X109608144Y-114134747D01*
X109564882Y-114070000D01*
X109713345Y-114070000D01*
X110053373Y-114002364D01*
X110373673Y-113869692D01*
X110661935Y-113677081D01*
X110907081Y-113431935D01*
X111099692Y-113143673D01*
X111232364Y-112823373D01*
X111300000Y-112483345D01*
X111300000Y-112136655D01*
X111232364Y-111796627D01*
X111099692Y-111476327D01*
X110907081Y-111188065D01*
X110661935Y-110942919D01*
X110373673Y-110750308D01*
X110053373Y-110617636D01*
X109713345Y-110550000D01*
X109366655Y-110550000D01*
X109026627Y-110617636D01*
X108706327Y-110750308D01*
X108418065Y-110942919D01*
X108172919Y-111188065D01*
X107980308Y-111476327D01*
X107847636Y-111796627D01*
X107780000Y-112136655D01*
X107780000Y-112483345D01*
X107847636Y-112823373D01*
X107980308Y-113143673D01*
X108112638Y-113341719D01*
X107829549Y-113398029D01*
X107554747Y-113511856D01*
X107307431Y-113677107D01*
X107097107Y-113887431D01*
X106931856Y-114134747D01*
X106818029Y-114409549D01*
X106760000Y-114701278D01*
X94485000Y-114701278D01*
X94485000Y-109596655D01*
X114130000Y-109596655D01*
X114130000Y-109943345D01*
X114197636Y-110283373D01*
X114330308Y-110603673D01*
X114522919Y-110891935D01*
X114768065Y-111137081D01*
X115056327Y-111329692D01*
X115376627Y-111462364D01*
X115716655Y-111530000D01*
X116063345Y-111530000D01*
X116403373Y-111462364D01*
X116723673Y-111329692D01*
X117011935Y-111137081D01*
X117257081Y-110891935D01*
X117449692Y-110603673D01*
X117582364Y-110283373D01*
X117650000Y-109943345D01*
X117650000Y-109596655D01*
X133180000Y-109596655D01*
X133180000Y-109943345D01*
X133247636Y-110283373D01*
X133380308Y-110603673D01*
X133572919Y-110891935D01*
X133818065Y-111137081D01*
X134106327Y-111329692D01*
X134426627Y-111462364D01*
X134766655Y-111530000D01*
X135113345Y-111530000D01*
X135453373Y-111462364D01*
X135773673Y-111329692D01*
X136061935Y-111137081D01*
X136307081Y-110891935D01*
X136499692Y-110603673D01*
X136632364Y-110283373D01*
X136700000Y-109943345D01*
X136700000Y-109596655D01*
X152230000Y-109596655D01*
X152230000Y-109943345D01*
X152297636Y-110283373D01*
X152430308Y-110603673D01*
X152622919Y-110891935D01*
X152868065Y-111137081D01*
X153156327Y-111329692D01*
X153476627Y-111462364D01*
X153816655Y-111530000D01*
X154163345Y-111530000D01*
X154503373Y-111462364D01*
X154823673Y-111329692D01*
X155111935Y-111137081D01*
X155357081Y-110891935D01*
X155549692Y-110603673D01*
X155682364Y-110283373D01*
X155750000Y-109943345D01*
X155750000Y-109596655D01*
X155682364Y-109256627D01*
X155549692Y-108936327D01*
X155357081Y-108648065D01*
X155111935Y-108402919D01*
X154823673Y-108210308D01*
X154503373Y-108077636D01*
X154163345Y-108010000D01*
X153816655Y-108010000D01*
X153476627Y-108077636D01*
X153156327Y-108210308D01*
X152868065Y-108402919D01*
X152622919Y-108648065D01*
X152430308Y-108936327D01*
X152297636Y-109256627D01*
X152230000Y-109596655D01*
X136700000Y-109596655D01*
X136632364Y-109256627D01*
X136499692Y-108936327D01*
X136307081Y-108648065D01*
X136061935Y-108402919D01*
X135773673Y-108210308D01*
X135453373Y-108077636D01*
X135113345Y-108010000D01*
X134766655Y-108010000D01*
X134426627Y-108077636D01*
X134106327Y-108210308D01*
X133818065Y-108402919D01*
X133572919Y-108648065D01*
X133380308Y-108936327D01*
X133247636Y-109256627D01*
X133180000Y-109596655D01*
X117650000Y-109596655D01*
X117582364Y-109256627D01*
X117449692Y-108936327D01*
X117257081Y-108648065D01*
X117011935Y-108402919D01*
X116838286Y-108286890D01*
X119528524Y-108286890D01*
X119573175Y-108434099D01*
X119698359Y-108696920D01*
X119872412Y-108930269D01*
X120088645Y-109125178D01*
X120338748Y-109274157D01*
X120613109Y-109371481D01*
X120843000Y-109250814D01*
X120843000Y-108057000D01*
X121097000Y-108057000D01*
X121097000Y-109250814D01*
X121326891Y-109371481D01*
X121601252Y-109274157D01*
X121851355Y-109125178D01*
X122067588Y-108930269D01*
X122241641Y-108696920D01*
X122366825Y-108434099D01*
X122411476Y-108286890D01*
X122290155Y-108057000D01*
X121097000Y-108057000D01*
X120843000Y-108057000D01*
X119649845Y-108057000D01*
X119528524Y-108286890D01*
X116838286Y-108286890D01*
X116723673Y-108210308D01*
X116403373Y-108077636D01*
X116063345Y-108010000D01*
X115716655Y-108010000D01*
X115376627Y-108077636D01*
X115056327Y-108210308D01*
X114768065Y-108402919D01*
X114522919Y-108648065D01*
X114330308Y-108936327D01*
X114197636Y-109256627D01*
X114130000Y-109596655D01*
X94485000Y-109596655D01*
X94485000Y-105243740D01*
X119485000Y-105243740D01*
X119485000Y-105536260D01*
X119542068Y-105823158D01*
X119654010Y-106093411D01*
X119816525Y-106336632D01*
X120023368Y-106543475D01*
X120205534Y-106665195D01*
X120088645Y-106734822D01*
X119872412Y-106929731D01*
X119698359Y-107163080D01*
X119573175Y-107425901D01*
X119528524Y-107573110D01*
X119649845Y-107803000D01*
X120843000Y-107803000D01*
X120843000Y-107783000D01*
X121097000Y-107783000D01*
X121097000Y-107803000D01*
X122290155Y-107803000D01*
X122300319Y-107783740D01*
X142345000Y-107783740D01*
X142345000Y-108076260D01*
X142402068Y-108363158D01*
X142514010Y-108633411D01*
X142676525Y-108876632D01*
X142883368Y-109083475D01*
X143126589Y-109245990D01*
X143396842Y-109357932D01*
X143683740Y-109415000D01*
X143976260Y-109415000D01*
X144263158Y-109357932D01*
X144533411Y-109245990D01*
X144776632Y-109083475D01*
X144983475Y-108876632D01*
X145145990Y-108633411D01*
X145257932Y-108363158D01*
X145315000Y-108076260D01*
X145315000Y-107783740D01*
X145257932Y-107496842D01*
X145145990Y-107226589D01*
X144983475Y-106983368D01*
X144776632Y-106776525D01*
X144594466Y-106654805D01*
X144711355Y-106585178D01*
X144927588Y-106390269D01*
X145101641Y-106156920D01*
X145226825Y-105894099D01*
X145271476Y-105746890D01*
X145150155Y-105517000D01*
X143957000Y-105517000D01*
X143957000Y-105537000D01*
X143703000Y-105537000D01*
X143703000Y-105517000D01*
X142509845Y-105517000D01*
X142388524Y-105746890D01*
X142433175Y-105894099D01*
X142558359Y-106156920D01*
X142732412Y-106390269D01*
X142948645Y-106585178D01*
X143065534Y-106654805D01*
X142883368Y-106776525D01*
X142676525Y-106983368D01*
X142514010Y-107226589D01*
X142402068Y-107496842D01*
X142345000Y-107783740D01*
X122300319Y-107783740D01*
X122411476Y-107573110D01*
X122366825Y-107425901D01*
X122241641Y-107163080D01*
X122067588Y-106929731D01*
X121851355Y-106734822D01*
X121734466Y-106665195D01*
X121916632Y-106543475D01*
X122123475Y-106336632D01*
X122285990Y-106093411D01*
X122397932Y-105823158D01*
X122455000Y-105536260D01*
X122455000Y-105243740D01*
X122397932Y-104956842D01*
X122285990Y-104686589D01*
X122123475Y-104443368D01*
X121916632Y-104236525D01*
X121734466Y-104114805D01*
X121851355Y-104045178D01*
X122067588Y-103850269D01*
X122241641Y-103616920D01*
X122366825Y-103354099D01*
X122411476Y-103206890D01*
X122406817Y-103198061D01*
X127565000Y-103198061D01*
X127565000Y-103401939D01*
X127604774Y-103601898D01*
X127682795Y-103790256D01*
X127796063Y-103959774D01*
X127840000Y-104003711D01*
X127840001Y-104496288D01*
X127796063Y-104540226D01*
X127682795Y-104709744D01*
X127604774Y-104898102D01*
X127565000Y-105098061D01*
X127565000Y-105301939D01*
X127604774Y-105501898D01*
X127682795Y-105690256D01*
X127796063Y-105859774D01*
X127940226Y-106003937D01*
X128109744Y-106117205D01*
X128298102Y-106195226D01*
X128498061Y-106235000D01*
X128701939Y-106235000D01*
X128901898Y-106195226D01*
X129090256Y-106117205D01*
X129259774Y-106003937D01*
X129403937Y-105859774D01*
X129517205Y-105690256D01*
X129595226Y-105501898D01*
X129635000Y-105301939D01*
X129635000Y-105098061D01*
X129595226Y-104898102D01*
X129517205Y-104709744D01*
X129403937Y-104540226D01*
X129360000Y-104496289D01*
X129360000Y-104003711D01*
X129403937Y-103959774D01*
X129517205Y-103790256D01*
X129595226Y-103601898D01*
X129635000Y-103401939D01*
X129635000Y-103198061D01*
X139965000Y-103198061D01*
X139965000Y-103401939D01*
X140004774Y-103601898D01*
X140082795Y-103790256D01*
X140196063Y-103959774D01*
X140240000Y-104003711D01*
X140240001Y-104396288D01*
X140196063Y-104440226D01*
X140082795Y-104609744D01*
X140004774Y-104798102D01*
X139965000Y-104998061D01*
X139965000Y-105201939D01*
X140004774Y-105401898D01*
X140082795Y-105590256D01*
X140196063Y-105759774D01*
X140340226Y-105903937D01*
X140509744Y-106017205D01*
X140698102Y-106095226D01*
X140898061Y-106135000D01*
X141101939Y-106135000D01*
X141301898Y-106095226D01*
X141490256Y-106017205D01*
X141659774Y-105903937D01*
X141803937Y-105759774D01*
X141917205Y-105590256D01*
X141995226Y-105401898D01*
X142035000Y-105201939D01*
X142035000Y-104998061D01*
X141995226Y-104798102D01*
X141917205Y-104609744D01*
X141803937Y-104440226D01*
X141760000Y-104396289D01*
X141760000Y-104003711D01*
X141803937Y-103959774D01*
X141917205Y-103790256D01*
X141995226Y-103601898D01*
X142035000Y-103401939D01*
X142035000Y-103198061D01*
X141995226Y-102998102D01*
X141917205Y-102809744D01*
X141803937Y-102640226D01*
X141659774Y-102496063D01*
X141490256Y-102382795D01*
X141301898Y-102304774D01*
X141101939Y-102265000D01*
X140898061Y-102265000D01*
X140698102Y-102304774D01*
X140509744Y-102382795D01*
X140340226Y-102496063D01*
X140196063Y-102640226D01*
X140082795Y-102809744D01*
X140004774Y-102998102D01*
X139965000Y-103198061D01*
X129635000Y-103198061D01*
X129595226Y-102998102D01*
X129517205Y-102809744D01*
X129403937Y-102640226D01*
X129259774Y-102496063D01*
X129090256Y-102382795D01*
X128901898Y-102304774D01*
X128701939Y-102265000D01*
X128498061Y-102265000D01*
X128298102Y-102304774D01*
X128109744Y-102382795D01*
X127940226Y-102496063D01*
X127796063Y-102640226D01*
X127682795Y-102809744D01*
X127604774Y-102998102D01*
X127565000Y-103198061D01*
X122406817Y-103198061D01*
X122290155Y-102977000D01*
X121097000Y-102977000D01*
X121097000Y-102997000D01*
X120843000Y-102997000D01*
X120843000Y-102977000D01*
X119649845Y-102977000D01*
X119528524Y-103206890D01*
X119573175Y-103354099D01*
X119698359Y-103616920D01*
X119872412Y-103850269D01*
X120088645Y-104045178D01*
X120205534Y-104114805D01*
X120023368Y-104236525D01*
X119816525Y-104443368D01*
X119654010Y-104686589D01*
X119542068Y-104956842D01*
X119485000Y-105243740D01*
X94485000Y-105243740D01*
X94485000Y-95651278D01*
X106760000Y-95651278D01*
X106760000Y-95948722D01*
X106818029Y-96240451D01*
X106931856Y-96515253D01*
X107097107Y-96762569D01*
X107307431Y-96972893D01*
X107554747Y-97138144D01*
X107829549Y-97251971D01*
X108121278Y-97310000D01*
X108418722Y-97310000D01*
X108710451Y-97251971D01*
X108985253Y-97138144D01*
X109232569Y-96972893D01*
X109442893Y-96762569D01*
X109608144Y-96515253D01*
X109721971Y-96240451D01*
X109780000Y-95948722D01*
X109780000Y-95651278D01*
X109758080Y-95541076D01*
X110721100Y-95541076D01*
X110721100Y-96058924D01*
X110822127Y-96566822D01*
X111020299Y-97045251D01*
X111308000Y-97475826D01*
X111674174Y-97842000D01*
X112104749Y-98129701D01*
X112583178Y-98327873D01*
X113091076Y-98428900D01*
X113608924Y-98428900D01*
X114116822Y-98327873D01*
X114595251Y-98129701D01*
X115025826Y-97842000D01*
X115392000Y-97475826D01*
X115679701Y-97045251D01*
X115877873Y-96566822D01*
X115978900Y-96058924D01*
X115978900Y-95541076D01*
X115877873Y-95033178D01*
X115679701Y-94554749D01*
X115392000Y-94124174D01*
X115025826Y-93758000D01*
X114595251Y-93470299D01*
X114116822Y-93272127D01*
X113608924Y-93171100D01*
X113091076Y-93171100D01*
X112583178Y-93272127D01*
X112104749Y-93470299D01*
X111674174Y-93758000D01*
X111308000Y-94124174D01*
X111020299Y-94554749D01*
X110822127Y-95033178D01*
X110721100Y-95541076D01*
X109758080Y-95541076D01*
X109721971Y-95359549D01*
X109608144Y-95084747D01*
X109564882Y-95020000D01*
X109713345Y-95020000D01*
X110053373Y-94952364D01*
X110373673Y-94819692D01*
X110661935Y-94627081D01*
X110907081Y-94381935D01*
X111099692Y-94093673D01*
X111232364Y-93773373D01*
X111300000Y-93433345D01*
X111300000Y-93086655D01*
X111232364Y-92746627D01*
X111099692Y-92426327D01*
X110907081Y-92138065D01*
X110661935Y-91892919D01*
X110373673Y-91700308D01*
X110053373Y-91567636D01*
X109713345Y-91500000D01*
X109366655Y-91500000D01*
X109026627Y-91567636D01*
X108706327Y-91700308D01*
X108418065Y-91892919D01*
X108172919Y-92138065D01*
X107980308Y-92426327D01*
X107847636Y-92746627D01*
X107780000Y-93086655D01*
X107780000Y-93433345D01*
X107847636Y-93773373D01*
X107980308Y-94093673D01*
X108112638Y-94291719D01*
X107829549Y-94348029D01*
X107554747Y-94461856D01*
X107307431Y-94627107D01*
X107097107Y-94837431D01*
X106931856Y-95084747D01*
X106818029Y-95359549D01*
X106760000Y-95651278D01*
X94485000Y-95651278D01*
X94485000Y-90546655D01*
X114130000Y-90546655D01*
X114130000Y-90893345D01*
X114197636Y-91233373D01*
X114330308Y-91553673D01*
X114522919Y-91841935D01*
X114768065Y-92087081D01*
X115056327Y-92279692D01*
X115376627Y-92412364D01*
X115716655Y-92480000D01*
X116063345Y-92480000D01*
X116403373Y-92412364D01*
X116723673Y-92279692D01*
X117011935Y-92087081D01*
X117257081Y-91841935D01*
X117449692Y-91553673D01*
X117582364Y-91233373D01*
X117650000Y-90893345D01*
X117650000Y-90546655D01*
X117582364Y-90206627D01*
X117449692Y-89886327D01*
X117257081Y-89598065D01*
X117011935Y-89352919D01*
X116723673Y-89160308D01*
X116403373Y-89027636D01*
X116063345Y-88960000D01*
X115716655Y-88960000D01*
X115376627Y-89027636D01*
X115056327Y-89160308D01*
X114768065Y-89352919D01*
X114522919Y-89598065D01*
X114330308Y-89886327D01*
X114197636Y-90206627D01*
X114130000Y-90546655D01*
X94485000Y-90546655D01*
X94485000Y-76601278D01*
X106760000Y-76601278D01*
X106760000Y-76898722D01*
X106818029Y-77190451D01*
X106931856Y-77465253D01*
X107097107Y-77712569D01*
X107307431Y-77922893D01*
X107554747Y-78088144D01*
X107829549Y-78201971D01*
X108121278Y-78260000D01*
X108418722Y-78260000D01*
X108710451Y-78201971D01*
X108985253Y-78088144D01*
X109232569Y-77922893D01*
X109442893Y-77712569D01*
X109608144Y-77465253D01*
X109721971Y-77190451D01*
X109780000Y-76898722D01*
X109780000Y-76601278D01*
X109758080Y-76491076D01*
X110721100Y-76491076D01*
X110721100Y-77008924D01*
X110822127Y-77516822D01*
X111020299Y-77995251D01*
X111308000Y-78425826D01*
X111674174Y-78792000D01*
X112104749Y-79079701D01*
X112583178Y-79277873D01*
X113091076Y-79378900D01*
X113608924Y-79378900D01*
X114116822Y-79277873D01*
X114595251Y-79079701D01*
X115025826Y-78792000D01*
X115392000Y-78425826D01*
X115679701Y-77995251D01*
X115877873Y-77516822D01*
X115978900Y-77008924D01*
X115978900Y-76601278D01*
X116920000Y-76601278D01*
X116920000Y-76898722D01*
X116978029Y-77190451D01*
X117091856Y-77465253D01*
X117257107Y-77712569D01*
X117467431Y-77922893D01*
X117714747Y-78088144D01*
X117989549Y-78201971D01*
X118281278Y-78260000D01*
X118578722Y-78260000D01*
X118870451Y-78201971D01*
X119145253Y-78088144D01*
X119392569Y-77922893D01*
X119523857Y-77791605D01*
X119542068Y-77883158D01*
X119654010Y-78153411D01*
X119816525Y-78396632D01*
X120023368Y-78603475D01*
X120197760Y-78720000D01*
X120023368Y-78836525D01*
X119816525Y-79043368D01*
X119654010Y-79286589D01*
X119542068Y-79556842D01*
X119485000Y-79843740D01*
X119485000Y-80136260D01*
X119542068Y-80423158D01*
X119654010Y-80693411D01*
X119816525Y-80936632D01*
X120023368Y-81143475D01*
X120197760Y-81260000D01*
X120023368Y-81376525D01*
X119816525Y-81583368D01*
X119654010Y-81826589D01*
X119542068Y-82096842D01*
X119485000Y-82383740D01*
X119485000Y-82676260D01*
X119542068Y-82963158D01*
X119654010Y-83233411D01*
X119816525Y-83476632D01*
X120023368Y-83683475D01*
X120197760Y-83800000D01*
X120023368Y-83916525D01*
X119816525Y-84123368D01*
X119654010Y-84366589D01*
X119542068Y-84636842D01*
X119485000Y-84923740D01*
X119485000Y-85216260D01*
X119542068Y-85503158D01*
X119654010Y-85773411D01*
X119816525Y-86016632D01*
X120023368Y-86223475D01*
X120197760Y-86340000D01*
X120023368Y-86456525D01*
X119816525Y-86663368D01*
X119654010Y-86906589D01*
X119542068Y-87176842D01*
X119485000Y-87463740D01*
X119485000Y-87756260D01*
X119542068Y-88043158D01*
X119654010Y-88313411D01*
X119816525Y-88556632D01*
X120023368Y-88763475D01*
X120197760Y-88880000D01*
X120023368Y-88996525D01*
X119816525Y-89203368D01*
X119654010Y-89446589D01*
X119542068Y-89716842D01*
X119485000Y-90003740D01*
X119485000Y-90296260D01*
X119542068Y-90583158D01*
X119654010Y-90853411D01*
X119816525Y-91096632D01*
X120023368Y-91303475D01*
X120197760Y-91420000D01*
X120023368Y-91536525D01*
X119816525Y-91743368D01*
X119654010Y-91986589D01*
X119542068Y-92256842D01*
X119485000Y-92543740D01*
X119485000Y-92836260D01*
X119542068Y-93123158D01*
X119654010Y-93393411D01*
X119816525Y-93636632D01*
X120023368Y-93843475D01*
X120197760Y-93960000D01*
X120023368Y-94076525D01*
X119816525Y-94283368D01*
X119654010Y-94526589D01*
X119547995Y-94782533D01*
X119392569Y-94627107D01*
X119145253Y-94461856D01*
X118870451Y-94348029D01*
X118578722Y-94290000D01*
X118281278Y-94290000D01*
X117989549Y-94348029D01*
X117714747Y-94461856D01*
X117467431Y-94627107D01*
X117257107Y-94837431D01*
X117091856Y-95084747D01*
X116978029Y-95359549D01*
X116920000Y-95651278D01*
X116920000Y-95948722D01*
X116978029Y-96240451D01*
X117091856Y-96515253D01*
X117257107Y-96762569D01*
X117467431Y-96972893D01*
X117714747Y-97138144D01*
X117989549Y-97251971D01*
X118281278Y-97310000D01*
X118578722Y-97310000D01*
X118870451Y-97251971D01*
X119145253Y-97138144D01*
X119392569Y-96972893D01*
X119602893Y-96762569D01*
X119768144Y-96515253D01*
X119881494Y-96241601D01*
X120023368Y-96383475D01*
X120197760Y-96500000D01*
X120023368Y-96616525D01*
X119816525Y-96823368D01*
X119654010Y-97066589D01*
X119542068Y-97336842D01*
X119485000Y-97623740D01*
X119485000Y-97916260D01*
X119542068Y-98203158D01*
X119654010Y-98473411D01*
X119816525Y-98716632D01*
X120023368Y-98923475D01*
X120197760Y-99040000D01*
X120023368Y-99156525D01*
X119816525Y-99363368D01*
X119654010Y-99606589D01*
X119542068Y-99876842D01*
X119485000Y-100163740D01*
X119485000Y-100456260D01*
X119542068Y-100743158D01*
X119654010Y-101013411D01*
X119816525Y-101256632D01*
X120023368Y-101463475D01*
X120205534Y-101585195D01*
X120088645Y-101654822D01*
X119872412Y-101849731D01*
X119698359Y-102083080D01*
X119573175Y-102345901D01*
X119528524Y-102493110D01*
X119649845Y-102723000D01*
X120843000Y-102723000D01*
X120843000Y-102703000D01*
X121097000Y-102703000D01*
X121097000Y-102723000D01*
X122290155Y-102723000D01*
X122411476Y-102493110D01*
X122366825Y-102345901D01*
X122241641Y-102083080D01*
X122067588Y-101849731D01*
X121851355Y-101654822D01*
X121734466Y-101585195D01*
X121916632Y-101463475D01*
X122123475Y-101256632D01*
X122285990Y-101013411D01*
X122397932Y-100743158D01*
X122455000Y-100456260D01*
X122455000Y-100163740D01*
X122397932Y-99876842D01*
X122285990Y-99606589D01*
X122123475Y-99363368D01*
X121916632Y-99156525D01*
X121742240Y-99040000D01*
X121916632Y-98923475D01*
X122123475Y-98716632D01*
X122285990Y-98473411D01*
X122397932Y-98203158D01*
X122455000Y-97916260D01*
X122455000Y-97623740D01*
X122397932Y-97336842D01*
X122285990Y-97066589D01*
X122123475Y-96823368D01*
X121916632Y-96616525D01*
X121742240Y-96500000D01*
X121916632Y-96383475D01*
X122123475Y-96176632D01*
X122285990Y-95933411D01*
X122397932Y-95663158D01*
X122400295Y-95651278D01*
X125810000Y-95651278D01*
X125810000Y-95948722D01*
X125868029Y-96240451D01*
X125981856Y-96515253D01*
X126147107Y-96762569D01*
X126357431Y-96972893D01*
X126604747Y-97138144D01*
X126879549Y-97251971D01*
X127171278Y-97310000D01*
X127468722Y-97310000D01*
X127760451Y-97251971D01*
X128035253Y-97138144D01*
X128282569Y-96972893D01*
X128492893Y-96762569D01*
X128658144Y-96515253D01*
X128771971Y-96240451D01*
X128830000Y-95948722D01*
X128830000Y-95651278D01*
X128808080Y-95541076D01*
X129771100Y-95541076D01*
X129771100Y-96058924D01*
X129872127Y-96566822D01*
X130070299Y-97045251D01*
X130358000Y-97475826D01*
X130724174Y-97842000D01*
X131154749Y-98129701D01*
X131633178Y-98327873D01*
X132141076Y-98428900D01*
X132658924Y-98428900D01*
X133166822Y-98327873D01*
X133645251Y-98129701D01*
X134075826Y-97842000D01*
X134442000Y-97475826D01*
X134729701Y-97045251D01*
X134927873Y-96566822D01*
X135028900Y-96058924D01*
X135028900Y-95651278D01*
X135970000Y-95651278D01*
X135970000Y-95948722D01*
X136028029Y-96240451D01*
X136141856Y-96515253D01*
X136307107Y-96762569D01*
X136517431Y-96972893D01*
X136764747Y-97138144D01*
X137039549Y-97251971D01*
X137331278Y-97310000D01*
X137628722Y-97310000D01*
X137920451Y-97251971D01*
X138195253Y-97138144D01*
X138442569Y-96972893D01*
X138652893Y-96762569D01*
X138818144Y-96515253D01*
X138931971Y-96240451D01*
X138990000Y-95948722D01*
X138990000Y-95651278D01*
X138931971Y-95359549D01*
X138818144Y-95084747D01*
X138652893Y-94837431D01*
X138442569Y-94627107D01*
X138195253Y-94461856D01*
X137920451Y-94348029D01*
X137628722Y-94290000D01*
X137331278Y-94290000D01*
X137039549Y-94348029D01*
X136764747Y-94461856D01*
X136517431Y-94627107D01*
X136307107Y-94837431D01*
X136141856Y-95084747D01*
X136028029Y-95359549D01*
X135970000Y-95651278D01*
X135028900Y-95651278D01*
X135028900Y-95541076D01*
X134927873Y-95033178D01*
X134729701Y-94554749D01*
X134442000Y-94124174D01*
X134075826Y-93758000D01*
X133645251Y-93470299D01*
X133166822Y-93272127D01*
X132658924Y-93171100D01*
X132141076Y-93171100D01*
X131633178Y-93272127D01*
X131154749Y-93470299D01*
X130724174Y-93758000D01*
X130358000Y-94124174D01*
X130070299Y-94554749D01*
X129872127Y-95033178D01*
X129771100Y-95541076D01*
X128808080Y-95541076D01*
X128771971Y-95359549D01*
X128658144Y-95084747D01*
X128614882Y-95020000D01*
X128763345Y-95020000D01*
X129103373Y-94952364D01*
X129423673Y-94819692D01*
X129711935Y-94627081D01*
X129957081Y-94381935D01*
X130149692Y-94093673D01*
X130282364Y-93773373D01*
X130350000Y-93433345D01*
X130350000Y-93086655D01*
X130282364Y-92746627D01*
X130149692Y-92426327D01*
X129957081Y-92138065D01*
X129711935Y-91892919D01*
X129423673Y-91700308D01*
X129103373Y-91567636D01*
X128763345Y-91500000D01*
X128416655Y-91500000D01*
X128076627Y-91567636D01*
X127756327Y-91700308D01*
X127468065Y-91892919D01*
X127222919Y-92138065D01*
X127030308Y-92426327D01*
X126897636Y-92746627D01*
X126830000Y-93086655D01*
X126830000Y-93433345D01*
X126897636Y-93773373D01*
X127030308Y-94093673D01*
X127162638Y-94291719D01*
X126879549Y-94348029D01*
X126604747Y-94461856D01*
X126357431Y-94627107D01*
X126147107Y-94837431D01*
X125981856Y-95084747D01*
X125868029Y-95359549D01*
X125810000Y-95651278D01*
X122400295Y-95651278D01*
X122455000Y-95376260D01*
X122455000Y-95083740D01*
X122397932Y-94796842D01*
X122285990Y-94526589D01*
X122123475Y-94283368D01*
X121916632Y-94076525D01*
X121742240Y-93960000D01*
X121916632Y-93843475D01*
X122123475Y-93636632D01*
X122285990Y-93393411D01*
X122397932Y-93123158D01*
X122455000Y-92836260D01*
X122455000Y-92543740D01*
X122397932Y-92256842D01*
X122285990Y-91986589D01*
X122123475Y-91743368D01*
X121916632Y-91536525D01*
X121742240Y-91420000D01*
X121916632Y-91303475D01*
X122123475Y-91096632D01*
X122285990Y-90853411D01*
X122397932Y-90583158D01*
X122405192Y-90546655D01*
X133180000Y-90546655D01*
X133180000Y-90893345D01*
X133247636Y-91233373D01*
X133380308Y-91553673D01*
X133572919Y-91841935D01*
X133818065Y-92087081D01*
X134106327Y-92279692D01*
X134426627Y-92412364D01*
X134766655Y-92480000D01*
X135113345Y-92480000D01*
X135453373Y-92412364D01*
X135773673Y-92279692D01*
X136061935Y-92087081D01*
X136307081Y-91841935D01*
X136499692Y-91553673D01*
X136632364Y-91233373D01*
X136700000Y-90893345D01*
X136700000Y-90546655D01*
X136632364Y-90206627D01*
X136499692Y-89886327D01*
X136307081Y-89598065D01*
X136061935Y-89352919D01*
X135773673Y-89160308D01*
X135453373Y-89027636D01*
X135113345Y-88960000D01*
X134766655Y-88960000D01*
X134426627Y-89027636D01*
X134106327Y-89160308D01*
X133818065Y-89352919D01*
X133572919Y-89598065D01*
X133380308Y-89886327D01*
X133247636Y-90206627D01*
X133180000Y-90546655D01*
X122405192Y-90546655D01*
X122455000Y-90296260D01*
X122455000Y-90003740D01*
X122397932Y-89716842D01*
X122285990Y-89446589D01*
X122123475Y-89203368D01*
X121916632Y-88996525D01*
X121742240Y-88880000D01*
X121916632Y-88763475D01*
X122123475Y-88556632D01*
X122285990Y-88313411D01*
X122397932Y-88043158D01*
X122455000Y-87756260D01*
X122455000Y-87463740D01*
X122397932Y-87176842D01*
X122285990Y-86906589D01*
X122123475Y-86663368D01*
X121916632Y-86456525D01*
X121742240Y-86340000D01*
X121916632Y-86223475D01*
X122123475Y-86016632D01*
X122285990Y-85773411D01*
X122397932Y-85503158D01*
X122455000Y-85216260D01*
X122455000Y-85098061D01*
X127565000Y-85098061D01*
X127565000Y-85301939D01*
X127604774Y-85501898D01*
X127682795Y-85690256D01*
X127796063Y-85859774D01*
X127840000Y-85903711D01*
X127840001Y-86696288D01*
X127796063Y-86740226D01*
X127682795Y-86909744D01*
X127604774Y-87098102D01*
X127565000Y-87298061D01*
X127565000Y-87501939D01*
X127604774Y-87701898D01*
X127682795Y-87890256D01*
X127796063Y-88059774D01*
X127940226Y-88203937D01*
X128109744Y-88317205D01*
X128298102Y-88395226D01*
X128498061Y-88435000D01*
X128701939Y-88435000D01*
X128901898Y-88395226D01*
X129090256Y-88317205D01*
X129259774Y-88203937D01*
X129403937Y-88059774D01*
X129517205Y-87890256D01*
X129595226Y-87701898D01*
X129635000Y-87501939D01*
X129635000Y-87298061D01*
X129595226Y-87098102D01*
X129517205Y-86909744D01*
X129403937Y-86740226D01*
X129360000Y-86696289D01*
X129360000Y-85903711D01*
X129403937Y-85859774D01*
X129517205Y-85690256D01*
X129595226Y-85501898D01*
X129635000Y-85301939D01*
X129635000Y-85098061D01*
X129595226Y-84898102D01*
X129517205Y-84709744D01*
X129403937Y-84540226D01*
X129259774Y-84396063D01*
X129090256Y-84282795D01*
X128901898Y-84204774D01*
X128701939Y-84165000D01*
X128498061Y-84165000D01*
X128298102Y-84204774D01*
X128109744Y-84282795D01*
X127940226Y-84396063D01*
X127796063Y-84540226D01*
X127682795Y-84709744D01*
X127604774Y-84898102D01*
X127565000Y-85098061D01*
X122455000Y-85098061D01*
X122455000Y-84923740D01*
X122397932Y-84636842D01*
X122285990Y-84366589D01*
X122123475Y-84123368D01*
X121916632Y-83916525D01*
X121742240Y-83800000D01*
X121916632Y-83683475D01*
X122123475Y-83476632D01*
X122285990Y-83233411D01*
X122397932Y-82963158D01*
X122455000Y-82676260D01*
X122455000Y-82383740D01*
X122397932Y-82096842D01*
X122285990Y-81826589D01*
X122123475Y-81583368D01*
X121916632Y-81376525D01*
X121742240Y-81260000D01*
X121916632Y-81143475D01*
X122123475Y-80936632D01*
X122285990Y-80693411D01*
X122397932Y-80423158D01*
X122455000Y-80136260D01*
X122455000Y-79843740D01*
X122397932Y-79556842D01*
X122285990Y-79286589D01*
X122123475Y-79043368D01*
X121916632Y-78836525D01*
X121742240Y-78720000D01*
X121916632Y-78603475D01*
X122123475Y-78396632D01*
X122285990Y-78153411D01*
X122397932Y-77883158D01*
X122455000Y-77596260D01*
X122455000Y-77303740D01*
X122397932Y-77016842D01*
X122285990Y-76746589D01*
X122188897Y-76601278D01*
X125810000Y-76601278D01*
X125810000Y-76898722D01*
X125868029Y-77190451D01*
X125981856Y-77465253D01*
X126147107Y-77712569D01*
X126357431Y-77922893D01*
X126604747Y-78088144D01*
X126879549Y-78201971D01*
X127171278Y-78260000D01*
X127468722Y-78260000D01*
X127760451Y-78201971D01*
X128035253Y-78088144D01*
X128282569Y-77922893D01*
X128492893Y-77712569D01*
X128658144Y-77465253D01*
X128771971Y-77190451D01*
X128830000Y-76898722D01*
X128830000Y-76601278D01*
X128808080Y-76491076D01*
X129771100Y-76491076D01*
X129771100Y-77008924D01*
X129872127Y-77516822D01*
X130070299Y-77995251D01*
X130358000Y-78425826D01*
X130724174Y-78792000D01*
X131154749Y-79079701D01*
X131633178Y-79277873D01*
X132141076Y-79378900D01*
X132658924Y-79378900D01*
X133166822Y-79277873D01*
X133645251Y-79079701D01*
X134075826Y-78792000D01*
X134442000Y-78425826D01*
X134729701Y-77995251D01*
X134927873Y-77516822D01*
X135028900Y-77008924D01*
X135028900Y-76601278D01*
X135970000Y-76601278D01*
X135970000Y-76898722D01*
X136028029Y-77190451D01*
X136141856Y-77465253D01*
X136307107Y-77712569D01*
X136517431Y-77922893D01*
X136764747Y-78088144D01*
X137039549Y-78201971D01*
X137331278Y-78260000D01*
X137628722Y-78260000D01*
X137920451Y-78201971D01*
X138195253Y-78088144D01*
X138442569Y-77922893D01*
X138652893Y-77712569D01*
X138818144Y-77465253D01*
X138931971Y-77190451D01*
X138990000Y-76898722D01*
X138990000Y-76601278D01*
X138931971Y-76309549D01*
X138818144Y-76034747D01*
X138652893Y-75787431D01*
X138442569Y-75577107D01*
X138195253Y-75411856D01*
X137920451Y-75298029D01*
X137628722Y-75240000D01*
X137331278Y-75240000D01*
X137039549Y-75298029D01*
X136764747Y-75411856D01*
X136517431Y-75577107D01*
X136307107Y-75787431D01*
X136141856Y-76034747D01*
X136028029Y-76309549D01*
X135970000Y-76601278D01*
X135028900Y-76601278D01*
X135028900Y-76491076D01*
X134927873Y-75983178D01*
X134729701Y-75504749D01*
X134442000Y-75074174D01*
X134075826Y-74708000D01*
X133645251Y-74420299D01*
X133166822Y-74222127D01*
X132658924Y-74121100D01*
X132141076Y-74121100D01*
X131633178Y-74222127D01*
X131154749Y-74420299D01*
X130724174Y-74708000D01*
X130358000Y-75074174D01*
X130070299Y-75504749D01*
X129872127Y-75983178D01*
X129771100Y-76491076D01*
X128808080Y-76491076D01*
X128771971Y-76309549D01*
X128658144Y-76034747D01*
X128614882Y-75970000D01*
X128763345Y-75970000D01*
X129103373Y-75902364D01*
X129423673Y-75769692D01*
X129711935Y-75577081D01*
X129957081Y-75331935D01*
X130149692Y-75043673D01*
X130282364Y-74723373D01*
X130350000Y-74383345D01*
X130350000Y-74036655D01*
X130282364Y-73696627D01*
X130149692Y-73376327D01*
X129957081Y-73088065D01*
X129711935Y-72842919D01*
X129423673Y-72650308D01*
X129103373Y-72517636D01*
X128763345Y-72450000D01*
X128416655Y-72450000D01*
X128076627Y-72517636D01*
X127756327Y-72650308D01*
X127468065Y-72842919D01*
X127222919Y-73088065D01*
X127030308Y-73376327D01*
X126897636Y-73696627D01*
X126830000Y-74036655D01*
X126830000Y-74383345D01*
X126897636Y-74723373D01*
X127030308Y-75043673D01*
X127162638Y-75241719D01*
X126879549Y-75298029D01*
X126604747Y-75411856D01*
X126357431Y-75577107D01*
X126147107Y-75787431D01*
X125981856Y-76034747D01*
X125868029Y-76309549D01*
X125810000Y-76601278D01*
X122188897Y-76601278D01*
X122123475Y-76503368D01*
X121916632Y-76296525D01*
X121742240Y-76180000D01*
X121916632Y-76063475D01*
X122123475Y-75856632D01*
X122285990Y-75613411D01*
X122397932Y-75343158D01*
X122455000Y-75056260D01*
X122455000Y-74763740D01*
X122397932Y-74476842D01*
X122285990Y-74206589D01*
X122123475Y-73963368D01*
X121916632Y-73756525D01*
X121742240Y-73640000D01*
X121916632Y-73523475D01*
X122123475Y-73316632D01*
X122285990Y-73073411D01*
X122397932Y-72803158D01*
X122455000Y-72516260D01*
X122455000Y-72223740D01*
X122397932Y-71936842D01*
X122285990Y-71666589D01*
X122172444Y-71496655D01*
X133180000Y-71496655D01*
X133180000Y-71843345D01*
X133247636Y-72183373D01*
X133380308Y-72503673D01*
X133572919Y-72791935D01*
X133818065Y-73037081D01*
X134106327Y-73229692D01*
X134426627Y-73362364D01*
X134766655Y-73430000D01*
X135113345Y-73430000D01*
X135453373Y-73362364D01*
X135773673Y-73229692D01*
X136061935Y-73037081D01*
X136307081Y-72791935D01*
X136499692Y-72503673D01*
X136632364Y-72183373D01*
X136700000Y-71843345D01*
X136700000Y-71496655D01*
X136632364Y-71156627D01*
X136499692Y-70836327D01*
X136307081Y-70548065D01*
X136061935Y-70302919D01*
X135773673Y-70110308D01*
X135453373Y-69977636D01*
X135113345Y-69910000D01*
X134766655Y-69910000D01*
X134426627Y-69977636D01*
X134106327Y-70110308D01*
X133818065Y-70302919D01*
X133572919Y-70548065D01*
X133380308Y-70836327D01*
X133247636Y-71156627D01*
X133180000Y-71496655D01*
X122172444Y-71496655D01*
X122123475Y-71423368D01*
X121916632Y-71216525D01*
X121742240Y-71100000D01*
X121916632Y-70983475D01*
X122123475Y-70776632D01*
X122285990Y-70533411D01*
X122397932Y-70263158D01*
X122455000Y-69976260D01*
X122455000Y-69683740D01*
X122397932Y-69396842D01*
X122285990Y-69126589D01*
X122123475Y-68883368D01*
X121916632Y-68676525D01*
X121742240Y-68560000D01*
X121916632Y-68443475D01*
X122123475Y-68236632D01*
X122285990Y-67993411D01*
X122397932Y-67723158D01*
X122455000Y-67436260D01*
X122455000Y-67143740D01*
X122397932Y-66856842D01*
X122285990Y-66586589D01*
X122123475Y-66343368D01*
X121916632Y-66136525D01*
X121742240Y-66020000D01*
X121916632Y-65903475D01*
X122123475Y-65696632D01*
X122285990Y-65453411D01*
X122397932Y-65183158D01*
X122455000Y-64896260D01*
X122455000Y-64603740D01*
X122397932Y-64316842D01*
X122285990Y-64046589D01*
X122123475Y-63803368D01*
X121916632Y-63596525D01*
X121742240Y-63480000D01*
X121916632Y-63363475D01*
X122123475Y-63156632D01*
X122285990Y-62913411D01*
X122397932Y-62643158D01*
X122455000Y-62356260D01*
X122455000Y-62063740D01*
X122397932Y-61776842D01*
X122285990Y-61506589D01*
X122123475Y-61263368D01*
X121991620Y-61131513D01*
X122064180Y-61109502D01*
X122174494Y-61050537D01*
X122271185Y-60971185D01*
X122350537Y-60874494D01*
X122409502Y-60764180D01*
X122445812Y-60644482D01*
X122458072Y-60520000D01*
X142341928Y-60520000D01*
X142354188Y-60644482D01*
X142390498Y-60764180D01*
X142449463Y-60874494D01*
X142528815Y-60971185D01*
X142625506Y-61050537D01*
X142735820Y-61109502D01*
X142808380Y-61131513D01*
X142676525Y-61263368D01*
X142514010Y-61506589D01*
X142402068Y-61776842D01*
X142345000Y-62063740D01*
X142345000Y-62356260D01*
X142402068Y-62643158D01*
X142514010Y-62913411D01*
X142676525Y-63156632D01*
X142883368Y-63363475D01*
X143057760Y-63480000D01*
X142883368Y-63596525D01*
X142676525Y-63803368D01*
X142514010Y-64046589D01*
X142402068Y-64316842D01*
X142345000Y-64603740D01*
X142345000Y-64896260D01*
X142402068Y-65183158D01*
X142514010Y-65453411D01*
X142676525Y-65696632D01*
X142883368Y-65903475D01*
X143057760Y-66020000D01*
X142883368Y-66136525D01*
X142676525Y-66343368D01*
X142514010Y-66586589D01*
X142402068Y-66856842D01*
X142345000Y-67143740D01*
X142345000Y-67436260D01*
X142402068Y-67723158D01*
X142514010Y-67993411D01*
X142676525Y-68236632D01*
X142883368Y-68443475D01*
X143057760Y-68560000D01*
X142883368Y-68676525D01*
X142676525Y-68883368D01*
X142514010Y-69126589D01*
X142402068Y-69396842D01*
X142345000Y-69683740D01*
X142345000Y-69976260D01*
X142402068Y-70263158D01*
X142514010Y-70533411D01*
X142676525Y-70776632D01*
X142883368Y-70983475D01*
X143057760Y-71100000D01*
X142883368Y-71216525D01*
X142676525Y-71423368D01*
X142514010Y-71666589D01*
X142402068Y-71936842D01*
X142345000Y-72223740D01*
X142345000Y-72516260D01*
X142402068Y-72803158D01*
X142514010Y-73073411D01*
X142676525Y-73316632D01*
X142883368Y-73523475D01*
X143057760Y-73640000D01*
X142883368Y-73756525D01*
X142676525Y-73963368D01*
X142514010Y-74206589D01*
X142402068Y-74476842D01*
X142345000Y-74763740D01*
X142345000Y-75056260D01*
X142402068Y-75343158D01*
X142514010Y-75613411D01*
X142676525Y-75856632D01*
X142883368Y-76063475D01*
X143057760Y-76180000D01*
X142883368Y-76296525D01*
X142676525Y-76503368D01*
X142514010Y-76746589D01*
X142402068Y-77016842D01*
X142345000Y-77303740D01*
X142345000Y-77596260D01*
X142402068Y-77883158D01*
X142514010Y-78153411D01*
X142676525Y-78396632D01*
X142883368Y-78603475D01*
X143057760Y-78720000D01*
X142883368Y-78836525D01*
X142676525Y-79043368D01*
X142514010Y-79286589D01*
X142402068Y-79556842D01*
X142345000Y-79843740D01*
X142345000Y-80136260D01*
X142402068Y-80423158D01*
X142514010Y-80693411D01*
X142676525Y-80936632D01*
X142883368Y-81143475D01*
X143057760Y-81260000D01*
X142883368Y-81376525D01*
X142676525Y-81583368D01*
X142514010Y-81826589D01*
X142402068Y-82096842D01*
X142345000Y-82383740D01*
X142345000Y-82676260D01*
X142402068Y-82963158D01*
X142514010Y-83233411D01*
X142676525Y-83476632D01*
X142883368Y-83683475D01*
X143057760Y-83800000D01*
X142883368Y-83916525D01*
X142676525Y-84123368D01*
X142514010Y-84366589D01*
X142402068Y-84636842D01*
X142345000Y-84923740D01*
X142345000Y-85216260D01*
X142402068Y-85503158D01*
X142514010Y-85773411D01*
X142676525Y-86016632D01*
X142883368Y-86223475D01*
X143057760Y-86340000D01*
X142883368Y-86456525D01*
X142676525Y-86663368D01*
X142514010Y-86906589D01*
X142402068Y-87176842D01*
X142345000Y-87463740D01*
X142345000Y-87756260D01*
X142402068Y-88043158D01*
X142514010Y-88313411D01*
X142676525Y-88556632D01*
X142883368Y-88763475D01*
X143057760Y-88880000D01*
X142883368Y-88996525D01*
X142676525Y-89203368D01*
X142514010Y-89446589D01*
X142402068Y-89716842D01*
X142345000Y-90003740D01*
X142345000Y-90296260D01*
X142402068Y-90583158D01*
X142514010Y-90853411D01*
X142676525Y-91096632D01*
X142883368Y-91303475D01*
X143057760Y-91420000D01*
X142883368Y-91536525D01*
X142676525Y-91743368D01*
X142514010Y-91986589D01*
X142402068Y-92256842D01*
X142345000Y-92543740D01*
X142345000Y-92836260D01*
X142402068Y-93123158D01*
X142514010Y-93393411D01*
X142676525Y-93636632D01*
X142883368Y-93843475D01*
X143057760Y-93960000D01*
X142883368Y-94076525D01*
X142676525Y-94283368D01*
X142514010Y-94526589D01*
X142402068Y-94796842D01*
X142345000Y-95083740D01*
X142345000Y-95376260D01*
X142402068Y-95663158D01*
X142514010Y-95933411D01*
X142676525Y-96176632D01*
X142883368Y-96383475D01*
X143057760Y-96500000D01*
X142883368Y-96616525D01*
X142676525Y-96823368D01*
X142514010Y-97066589D01*
X142402068Y-97336842D01*
X142345000Y-97623740D01*
X142345000Y-97916260D01*
X142402068Y-98203158D01*
X142514010Y-98473411D01*
X142676525Y-98716632D01*
X142883368Y-98923475D01*
X143057760Y-99040000D01*
X142883368Y-99156525D01*
X142676525Y-99363368D01*
X142514010Y-99606589D01*
X142402068Y-99876842D01*
X142345000Y-100163740D01*
X142345000Y-100456260D01*
X142402068Y-100743158D01*
X142514010Y-101013411D01*
X142676525Y-101256632D01*
X142883368Y-101463475D01*
X143057760Y-101580000D01*
X142883368Y-101696525D01*
X142676525Y-101903368D01*
X142514010Y-102146589D01*
X142402068Y-102416842D01*
X142345000Y-102703740D01*
X142345000Y-102996260D01*
X142402068Y-103283158D01*
X142514010Y-103553411D01*
X142676525Y-103796632D01*
X142883368Y-104003475D01*
X143065534Y-104125195D01*
X142948645Y-104194822D01*
X142732412Y-104389731D01*
X142558359Y-104623080D01*
X142433175Y-104885901D01*
X142388524Y-105033110D01*
X142509845Y-105263000D01*
X143703000Y-105263000D01*
X143703000Y-105243000D01*
X143957000Y-105243000D01*
X143957000Y-105263000D01*
X145150155Y-105263000D01*
X145271476Y-105033110D01*
X145226825Y-104885901D01*
X145101641Y-104623080D01*
X144927588Y-104389731D01*
X144711355Y-104194822D01*
X144594466Y-104125195D01*
X144776632Y-104003475D01*
X144983475Y-103796632D01*
X145145990Y-103553411D01*
X145257932Y-103283158D01*
X145315000Y-102996260D01*
X145315000Y-102798061D01*
X146665000Y-102798061D01*
X146665000Y-103001939D01*
X146704774Y-103201898D01*
X146782795Y-103390256D01*
X146896063Y-103559774D01*
X146940000Y-103603711D01*
X146940001Y-104696288D01*
X146896063Y-104740226D01*
X146782795Y-104909744D01*
X146704774Y-105098102D01*
X146665000Y-105298061D01*
X146665000Y-105501939D01*
X146704774Y-105701898D01*
X146782795Y-105890256D01*
X146896063Y-106059774D01*
X147040226Y-106203937D01*
X147209744Y-106317205D01*
X147398102Y-106395226D01*
X147598061Y-106435000D01*
X147801939Y-106435000D01*
X148001898Y-106395226D01*
X148190256Y-106317205D01*
X148359774Y-106203937D01*
X148503937Y-106059774D01*
X148617205Y-105890256D01*
X148695226Y-105701898D01*
X148735000Y-105501939D01*
X148735000Y-105298061D01*
X148695226Y-105098102D01*
X148617205Y-104909744D01*
X148503937Y-104740226D01*
X148460000Y-104696289D01*
X148460000Y-103603711D01*
X148503937Y-103559774D01*
X148617205Y-103390256D01*
X148695226Y-103201898D01*
X148735000Y-103001939D01*
X148735000Y-102798061D01*
X148695226Y-102598102D01*
X148617205Y-102409744D01*
X148503937Y-102240226D01*
X148359774Y-102096063D01*
X148190256Y-101982795D01*
X148001898Y-101904774D01*
X147801939Y-101865000D01*
X147598061Y-101865000D01*
X147398102Y-101904774D01*
X147209744Y-101982795D01*
X147040226Y-102096063D01*
X146896063Y-102240226D01*
X146782795Y-102409744D01*
X146704774Y-102598102D01*
X146665000Y-102798061D01*
X145315000Y-102798061D01*
X145315000Y-102703740D01*
X145257932Y-102416842D01*
X145145990Y-102146589D01*
X144983475Y-101903368D01*
X144776632Y-101696525D01*
X144602240Y-101580000D01*
X144776632Y-101463475D01*
X144983475Y-101256632D01*
X145145990Y-101013411D01*
X145257932Y-100743158D01*
X145315000Y-100456260D01*
X145315000Y-100163740D01*
X145257932Y-99876842D01*
X145145990Y-99606589D01*
X144983475Y-99363368D01*
X144776632Y-99156525D01*
X144602240Y-99040000D01*
X144776632Y-98923475D01*
X144983475Y-98716632D01*
X145145990Y-98473411D01*
X145257932Y-98203158D01*
X145315000Y-97916260D01*
X145315000Y-97623740D01*
X145257932Y-97336842D01*
X145145990Y-97066589D01*
X144983475Y-96823368D01*
X144776632Y-96616525D01*
X144602240Y-96500000D01*
X144776632Y-96383475D01*
X144918506Y-96241601D01*
X145031856Y-96515253D01*
X145197107Y-96762569D01*
X145407431Y-96972893D01*
X145654747Y-97138144D01*
X145929549Y-97251971D01*
X146221278Y-97310000D01*
X146518722Y-97310000D01*
X146810451Y-97251971D01*
X147085253Y-97138144D01*
X147332569Y-96972893D01*
X147542893Y-96762569D01*
X147708144Y-96515253D01*
X147821971Y-96240451D01*
X147880000Y-95948722D01*
X147880000Y-95651278D01*
X147858080Y-95541076D01*
X148821100Y-95541076D01*
X148821100Y-96058924D01*
X148922127Y-96566822D01*
X149120299Y-97045251D01*
X149408000Y-97475826D01*
X149774174Y-97842000D01*
X150204749Y-98129701D01*
X150683178Y-98327873D01*
X151191076Y-98428900D01*
X151708924Y-98428900D01*
X152216822Y-98327873D01*
X152695251Y-98129701D01*
X153125826Y-97842000D01*
X153492000Y-97475826D01*
X153779701Y-97045251D01*
X153977873Y-96566822D01*
X154078900Y-96058924D01*
X154078900Y-95651278D01*
X155020000Y-95651278D01*
X155020000Y-95948722D01*
X155078029Y-96240451D01*
X155191856Y-96515253D01*
X155357107Y-96762569D01*
X155567431Y-96972893D01*
X155814747Y-97138144D01*
X156089549Y-97251971D01*
X156381278Y-97310000D01*
X156678722Y-97310000D01*
X156970451Y-97251971D01*
X157245253Y-97138144D01*
X157492569Y-96972893D01*
X157702893Y-96762569D01*
X157868144Y-96515253D01*
X157981971Y-96240451D01*
X158040000Y-95948722D01*
X158040000Y-95651278D01*
X157981971Y-95359549D01*
X157868144Y-95084747D01*
X157702893Y-94837431D01*
X157492569Y-94627107D01*
X157245253Y-94461856D01*
X156970451Y-94348029D01*
X156678722Y-94290000D01*
X156381278Y-94290000D01*
X156089549Y-94348029D01*
X155814747Y-94461856D01*
X155567431Y-94627107D01*
X155357107Y-94837431D01*
X155191856Y-95084747D01*
X155078029Y-95359549D01*
X155020000Y-95651278D01*
X154078900Y-95651278D01*
X154078900Y-95541076D01*
X153977873Y-95033178D01*
X153779701Y-94554749D01*
X153492000Y-94124174D01*
X153125826Y-93758000D01*
X152695251Y-93470299D01*
X152216822Y-93272127D01*
X151708924Y-93171100D01*
X151191076Y-93171100D01*
X150683178Y-93272127D01*
X150204749Y-93470299D01*
X149774174Y-93758000D01*
X149408000Y-94124174D01*
X149120299Y-94554749D01*
X148922127Y-95033178D01*
X148821100Y-95541076D01*
X147858080Y-95541076D01*
X147821971Y-95359549D01*
X147708144Y-95084747D01*
X147664882Y-95020000D01*
X147813345Y-95020000D01*
X148153373Y-94952364D01*
X148473673Y-94819692D01*
X148761935Y-94627081D01*
X149007081Y-94381935D01*
X149199692Y-94093673D01*
X149332364Y-93773373D01*
X149400000Y-93433345D01*
X149400000Y-93086655D01*
X149332364Y-92746627D01*
X149199692Y-92426327D01*
X149007081Y-92138065D01*
X148761935Y-91892919D01*
X148473673Y-91700308D01*
X148153373Y-91567636D01*
X147813345Y-91500000D01*
X147466655Y-91500000D01*
X147126627Y-91567636D01*
X146806327Y-91700308D01*
X146518065Y-91892919D01*
X146272919Y-92138065D01*
X146080308Y-92426327D01*
X145947636Y-92746627D01*
X145880000Y-93086655D01*
X145880000Y-93433345D01*
X145947636Y-93773373D01*
X146080308Y-94093673D01*
X146212638Y-94291719D01*
X145929549Y-94348029D01*
X145654747Y-94461856D01*
X145407431Y-94627107D01*
X145252005Y-94782533D01*
X145145990Y-94526589D01*
X144983475Y-94283368D01*
X144776632Y-94076525D01*
X144602240Y-93960000D01*
X144776632Y-93843475D01*
X144983475Y-93636632D01*
X145145990Y-93393411D01*
X145257932Y-93123158D01*
X145315000Y-92836260D01*
X145315000Y-92543740D01*
X145257932Y-92256842D01*
X145145990Y-91986589D01*
X144983475Y-91743368D01*
X144776632Y-91536525D01*
X144602240Y-91420000D01*
X144776632Y-91303475D01*
X144983475Y-91096632D01*
X145145990Y-90853411D01*
X145257932Y-90583158D01*
X145265192Y-90546655D01*
X152230000Y-90546655D01*
X152230000Y-90893345D01*
X152297636Y-91233373D01*
X152430308Y-91553673D01*
X152622919Y-91841935D01*
X152868065Y-92087081D01*
X153156327Y-92279692D01*
X153476627Y-92412364D01*
X153816655Y-92480000D01*
X154163345Y-92480000D01*
X154503373Y-92412364D01*
X154823673Y-92279692D01*
X155111935Y-92087081D01*
X155357081Y-91841935D01*
X155549692Y-91553673D01*
X155682364Y-91233373D01*
X155750000Y-90893345D01*
X155750000Y-90546655D01*
X155682364Y-90206627D01*
X155549692Y-89886327D01*
X155357081Y-89598065D01*
X155111935Y-89352919D01*
X154823673Y-89160308D01*
X154503373Y-89027636D01*
X154163345Y-88960000D01*
X153816655Y-88960000D01*
X153476627Y-89027636D01*
X153156327Y-89160308D01*
X152868065Y-89352919D01*
X152622919Y-89598065D01*
X152430308Y-89886327D01*
X152297636Y-90206627D01*
X152230000Y-90546655D01*
X145265192Y-90546655D01*
X145315000Y-90296260D01*
X145315000Y-90003740D01*
X145257932Y-89716842D01*
X145145990Y-89446589D01*
X144983475Y-89203368D01*
X144776632Y-88996525D01*
X144602240Y-88880000D01*
X144776632Y-88763475D01*
X144983475Y-88556632D01*
X145145990Y-88313411D01*
X145257932Y-88043158D01*
X145315000Y-87756260D01*
X145315000Y-87463740D01*
X145257932Y-87176842D01*
X145145990Y-86906589D01*
X144983475Y-86663368D01*
X144776632Y-86456525D01*
X144602240Y-86340000D01*
X144776632Y-86223475D01*
X144983475Y-86016632D01*
X145145990Y-85773411D01*
X145257932Y-85503158D01*
X145315000Y-85216260D01*
X145315000Y-84923740D01*
X145270110Y-84698061D01*
X146565000Y-84698061D01*
X146565000Y-84901939D01*
X146604774Y-85101898D01*
X146682795Y-85290256D01*
X146796063Y-85459774D01*
X146840000Y-85503711D01*
X146840001Y-87096288D01*
X146796063Y-87140226D01*
X146682795Y-87309744D01*
X146604774Y-87498102D01*
X146565000Y-87698061D01*
X146565000Y-87901939D01*
X146604774Y-88101898D01*
X146682795Y-88290256D01*
X146796063Y-88459774D01*
X146940226Y-88603937D01*
X147109744Y-88717205D01*
X147298102Y-88795226D01*
X147498061Y-88835000D01*
X147701939Y-88835000D01*
X147901898Y-88795226D01*
X148090256Y-88717205D01*
X148259774Y-88603937D01*
X148403937Y-88459774D01*
X148517205Y-88290256D01*
X148595226Y-88101898D01*
X148635000Y-87901939D01*
X148635000Y-87698061D01*
X148595226Y-87498102D01*
X148517205Y-87309744D01*
X148403937Y-87140226D01*
X148360000Y-87096289D01*
X148360000Y-85503711D01*
X148403937Y-85459774D01*
X148517205Y-85290256D01*
X148595226Y-85101898D01*
X148635000Y-84901939D01*
X148635000Y-84698061D01*
X148595226Y-84498102D01*
X148517205Y-84309744D01*
X148403937Y-84140226D01*
X148259774Y-83996063D01*
X148090256Y-83882795D01*
X147901898Y-83804774D01*
X147701939Y-83765000D01*
X147498061Y-83765000D01*
X147298102Y-83804774D01*
X147109744Y-83882795D01*
X146940226Y-83996063D01*
X146796063Y-84140226D01*
X146682795Y-84309744D01*
X146604774Y-84498102D01*
X146565000Y-84698061D01*
X145270110Y-84698061D01*
X145257932Y-84636842D01*
X145145990Y-84366589D01*
X144983475Y-84123368D01*
X144776632Y-83916525D01*
X144602240Y-83800000D01*
X144776632Y-83683475D01*
X144983475Y-83476632D01*
X145145990Y-83233411D01*
X145257932Y-82963158D01*
X145315000Y-82676260D01*
X145315000Y-82383740D01*
X145257932Y-82096842D01*
X145145990Y-81826589D01*
X144983475Y-81583368D01*
X144776632Y-81376525D01*
X144602240Y-81260000D01*
X144776632Y-81143475D01*
X144983475Y-80936632D01*
X145145990Y-80693411D01*
X145257932Y-80423158D01*
X145315000Y-80136260D01*
X145315000Y-79843740D01*
X145257932Y-79556842D01*
X145145990Y-79286589D01*
X144983475Y-79043368D01*
X144776632Y-78836525D01*
X144602240Y-78720000D01*
X144776632Y-78603475D01*
X144983475Y-78396632D01*
X145145990Y-78153411D01*
X145257932Y-77883158D01*
X145276143Y-77791605D01*
X145407431Y-77922893D01*
X145654747Y-78088144D01*
X145929549Y-78201971D01*
X146221278Y-78260000D01*
X146518722Y-78260000D01*
X146810451Y-78201971D01*
X147085253Y-78088144D01*
X147332569Y-77922893D01*
X147542893Y-77712569D01*
X147708144Y-77465253D01*
X147821971Y-77190451D01*
X147880000Y-76898722D01*
X147880000Y-76601278D01*
X147858080Y-76491076D01*
X148821100Y-76491076D01*
X148821100Y-77008924D01*
X148922127Y-77516822D01*
X149120299Y-77995251D01*
X149408000Y-78425826D01*
X149774174Y-78792000D01*
X150204749Y-79079701D01*
X150683178Y-79277873D01*
X151191076Y-79378900D01*
X151708924Y-79378900D01*
X152216822Y-79277873D01*
X152695251Y-79079701D01*
X153125826Y-78792000D01*
X153492000Y-78425826D01*
X153779701Y-77995251D01*
X153977873Y-77516822D01*
X154078900Y-77008924D01*
X154078900Y-76601278D01*
X155020000Y-76601278D01*
X155020000Y-76898722D01*
X155078029Y-77190451D01*
X155191856Y-77465253D01*
X155357107Y-77712569D01*
X155567431Y-77922893D01*
X155814747Y-78088144D01*
X156089549Y-78201971D01*
X156381278Y-78260000D01*
X156678722Y-78260000D01*
X156970451Y-78201971D01*
X157245253Y-78088144D01*
X157492569Y-77922893D01*
X157702893Y-77712569D01*
X157868144Y-77465253D01*
X157981971Y-77190451D01*
X158040000Y-76898722D01*
X158040000Y-76601278D01*
X157981971Y-76309549D01*
X157868144Y-76034747D01*
X157702893Y-75787431D01*
X157492569Y-75577107D01*
X157245253Y-75411856D01*
X156970451Y-75298029D01*
X156678722Y-75240000D01*
X156381278Y-75240000D01*
X156089549Y-75298029D01*
X155814747Y-75411856D01*
X155567431Y-75577107D01*
X155357107Y-75787431D01*
X155191856Y-76034747D01*
X155078029Y-76309549D01*
X155020000Y-76601278D01*
X154078900Y-76601278D01*
X154078900Y-76491076D01*
X153977873Y-75983178D01*
X153779701Y-75504749D01*
X153492000Y-75074174D01*
X153125826Y-74708000D01*
X152695251Y-74420299D01*
X152216822Y-74222127D01*
X151708924Y-74121100D01*
X151191076Y-74121100D01*
X150683178Y-74222127D01*
X150204749Y-74420299D01*
X149774174Y-74708000D01*
X149408000Y-75074174D01*
X149120299Y-75504749D01*
X148922127Y-75983178D01*
X148821100Y-76491076D01*
X147858080Y-76491076D01*
X147821971Y-76309549D01*
X147708144Y-76034747D01*
X147664882Y-75970000D01*
X147813345Y-75970000D01*
X148153373Y-75902364D01*
X148473673Y-75769692D01*
X148761935Y-75577081D01*
X149007081Y-75331935D01*
X149199692Y-75043673D01*
X149332364Y-74723373D01*
X149400000Y-74383345D01*
X149400000Y-74036655D01*
X149332364Y-73696627D01*
X149199692Y-73376327D01*
X149007081Y-73088065D01*
X148761935Y-72842919D01*
X148473673Y-72650308D01*
X148153373Y-72517636D01*
X147813345Y-72450000D01*
X147466655Y-72450000D01*
X147126627Y-72517636D01*
X146806327Y-72650308D01*
X146518065Y-72842919D01*
X146272919Y-73088065D01*
X146080308Y-73376327D01*
X145947636Y-73696627D01*
X145880000Y-74036655D01*
X145880000Y-74383345D01*
X145947636Y-74723373D01*
X146080308Y-75043673D01*
X146212638Y-75241719D01*
X145929549Y-75298029D01*
X145654747Y-75411856D01*
X145407431Y-75577107D01*
X145197107Y-75787431D01*
X145031856Y-76034747D01*
X144918029Y-76309549D01*
X144896730Y-76416623D01*
X144776632Y-76296525D01*
X144602240Y-76180000D01*
X144776632Y-76063475D01*
X144983475Y-75856632D01*
X145145990Y-75613411D01*
X145257932Y-75343158D01*
X145315000Y-75056260D01*
X145315000Y-74763740D01*
X145257932Y-74476842D01*
X145145990Y-74206589D01*
X144983475Y-73963368D01*
X144776632Y-73756525D01*
X144602240Y-73640000D01*
X144776632Y-73523475D01*
X144983475Y-73316632D01*
X145145990Y-73073411D01*
X145257932Y-72803158D01*
X145315000Y-72516260D01*
X145315000Y-72223740D01*
X145257932Y-71936842D01*
X145145990Y-71666589D01*
X145032444Y-71496655D01*
X152230000Y-71496655D01*
X152230000Y-71843345D01*
X152297636Y-72183373D01*
X152430308Y-72503673D01*
X152622919Y-72791935D01*
X152868065Y-73037081D01*
X153156327Y-73229692D01*
X153476627Y-73362364D01*
X153816655Y-73430000D01*
X154163345Y-73430000D01*
X154503373Y-73362364D01*
X154823673Y-73229692D01*
X155111935Y-73037081D01*
X155357081Y-72791935D01*
X155549692Y-72503673D01*
X155682364Y-72183373D01*
X155750000Y-71843345D01*
X155750000Y-71496655D01*
X155682364Y-71156627D01*
X155549692Y-70836327D01*
X155357081Y-70548065D01*
X155111935Y-70302919D01*
X154823673Y-70110308D01*
X154503373Y-69977636D01*
X154163345Y-69910000D01*
X153816655Y-69910000D01*
X153476627Y-69977636D01*
X153156327Y-70110308D01*
X152868065Y-70302919D01*
X152622919Y-70548065D01*
X152430308Y-70836327D01*
X152297636Y-71156627D01*
X152230000Y-71496655D01*
X145032444Y-71496655D01*
X144983475Y-71423368D01*
X144776632Y-71216525D01*
X144602240Y-71100000D01*
X144776632Y-70983475D01*
X144983475Y-70776632D01*
X145145990Y-70533411D01*
X145257932Y-70263158D01*
X145315000Y-69976260D01*
X145315000Y-69683740D01*
X145257932Y-69396842D01*
X145145990Y-69126589D01*
X144983475Y-68883368D01*
X144776632Y-68676525D01*
X144602240Y-68560000D01*
X144776632Y-68443475D01*
X144983475Y-68236632D01*
X145145990Y-67993411D01*
X145257932Y-67723158D01*
X145315000Y-67436260D01*
X145315000Y-67143740D01*
X145257932Y-66856842D01*
X145145990Y-66586589D01*
X144983475Y-66343368D01*
X144776632Y-66136525D01*
X144602240Y-66020000D01*
X144776632Y-65903475D01*
X144983475Y-65696632D01*
X145145990Y-65453411D01*
X145257932Y-65183158D01*
X145315000Y-64896260D01*
X145315000Y-64603740D01*
X145257932Y-64316842D01*
X145145990Y-64046589D01*
X144983475Y-63803368D01*
X144781628Y-63601521D01*
X162105979Y-63601521D01*
X162105979Y-64048479D01*
X162193176Y-64486849D01*
X162364220Y-64899785D01*
X162612536Y-65271417D01*
X162928583Y-65587464D01*
X163300215Y-65835780D01*
X163713151Y-66006824D01*
X164151521Y-66094021D01*
X164598479Y-66094021D01*
X165036849Y-66006824D01*
X165449785Y-65835780D01*
X165821417Y-65587464D01*
X166137464Y-65271417D01*
X166385780Y-64899785D01*
X166556824Y-64486849D01*
X166644021Y-64048479D01*
X166644021Y-63601521D01*
X166556824Y-63163151D01*
X166385780Y-62750215D01*
X166137464Y-62378583D01*
X165821417Y-62062536D01*
X165449785Y-61814220D01*
X165036849Y-61643176D01*
X164598479Y-61555979D01*
X164151521Y-61555979D01*
X163713151Y-61643176D01*
X163300215Y-61814220D01*
X162928583Y-62062536D01*
X162612536Y-62378583D01*
X162364220Y-62750215D01*
X162193176Y-63163151D01*
X162105979Y-63601521D01*
X144781628Y-63601521D01*
X144776632Y-63596525D01*
X144602240Y-63480000D01*
X144776632Y-63363475D01*
X144983475Y-63156632D01*
X145145990Y-62913411D01*
X145257932Y-62643158D01*
X145315000Y-62356260D01*
X145315000Y-62063740D01*
X145257932Y-61776842D01*
X145145990Y-61506589D01*
X144983475Y-61263368D01*
X144851620Y-61131513D01*
X144924180Y-61109502D01*
X145034494Y-61050537D01*
X145131185Y-60971185D01*
X145210537Y-60874494D01*
X145269502Y-60764180D01*
X145305812Y-60644482D01*
X145318072Y-60520000D01*
X145315000Y-59955750D01*
X145156250Y-59797000D01*
X143957000Y-59797000D01*
X143957000Y-59817000D01*
X143703000Y-59817000D01*
X143703000Y-59797000D01*
X142503750Y-59797000D01*
X142345000Y-59955750D01*
X142341928Y-60520000D01*
X122458072Y-60520000D01*
X122458072Y-58820000D01*
X142341928Y-58820000D01*
X142345000Y-59384250D01*
X142503750Y-59543000D01*
X143703000Y-59543000D01*
X143703000Y-58343750D01*
X143957000Y-58343750D01*
X143957000Y-59543000D01*
X145156250Y-59543000D01*
X145315000Y-59384250D01*
X145318072Y-58820000D01*
X145305812Y-58695518D01*
X145269502Y-58575820D01*
X145210537Y-58465506D01*
X145131185Y-58368815D01*
X145034494Y-58289463D01*
X144924180Y-58230498D01*
X144804482Y-58194188D01*
X144680000Y-58181928D01*
X144115750Y-58185000D01*
X143957000Y-58343750D01*
X143703000Y-58343750D01*
X143544250Y-58185000D01*
X142980000Y-58181928D01*
X142855518Y-58194188D01*
X142735820Y-58230498D01*
X142625506Y-58289463D01*
X142528815Y-58368815D01*
X142449463Y-58465506D01*
X142390498Y-58575820D01*
X142354188Y-58695518D01*
X142341928Y-58820000D01*
X122458072Y-58820000D01*
X122445812Y-58695518D01*
X122409502Y-58575820D01*
X122350537Y-58465506D01*
X122271185Y-58368815D01*
X122174494Y-58289463D01*
X122064180Y-58230498D01*
X121944482Y-58194188D01*
X121820000Y-58181928D01*
X120120000Y-58181928D01*
X119995518Y-58194188D01*
X119875820Y-58230498D01*
X119765506Y-58289463D01*
X119668815Y-58368815D01*
X119589463Y-58465506D01*
X119530498Y-58575820D01*
X119494188Y-58695518D01*
X119481928Y-58820000D01*
X119481928Y-60520000D01*
X119494188Y-60644482D01*
X119530498Y-60764180D01*
X119589463Y-60874494D01*
X119668815Y-60971185D01*
X119765506Y-61050537D01*
X119875820Y-61109502D01*
X119948380Y-61131513D01*
X119816525Y-61263368D01*
X119654010Y-61506589D01*
X119542068Y-61776842D01*
X119485000Y-62063740D01*
X119485000Y-62356260D01*
X119542068Y-62643158D01*
X119654010Y-62913411D01*
X119816525Y-63156632D01*
X120023368Y-63363475D01*
X120197760Y-63480000D01*
X120023368Y-63596525D01*
X119816525Y-63803368D01*
X119654010Y-64046589D01*
X119542068Y-64316842D01*
X119485000Y-64603740D01*
X119485000Y-64896260D01*
X119542068Y-65183158D01*
X119654010Y-65453411D01*
X119816525Y-65696632D01*
X120023368Y-65903475D01*
X120197760Y-66020000D01*
X120023368Y-66136525D01*
X119816525Y-66343368D01*
X119654010Y-66586589D01*
X119542068Y-66856842D01*
X119485000Y-67143740D01*
X119485000Y-67436260D01*
X119542068Y-67723158D01*
X119654010Y-67993411D01*
X119816525Y-68236632D01*
X120023368Y-68443475D01*
X120197760Y-68560000D01*
X120023368Y-68676525D01*
X119816525Y-68883368D01*
X119654010Y-69126589D01*
X119542068Y-69396842D01*
X119485000Y-69683740D01*
X119485000Y-69976260D01*
X119542068Y-70263158D01*
X119654010Y-70533411D01*
X119816525Y-70776632D01*
X120023368Y-70983475D01*
X120197760Y-71100000D01*
X120023368Y-71216525D01*
X119816525Y-71423368D01*
X119654010Y-71666589D01*
X119542068Y-71936842D01*
X119485000Y-72223740D01*
X119485000Y-72516260D01*
X119542068Y-72803158D01*
X119654010Y-73073411D01*
X119816525Y-73316632D01*
X120023368Y-73523475D01*
X120197760Y-73640000D01*
X120023368Y-73756525D01*
X119816525Y-73963368D01*
X119654010Y-74206589D01*
X119542068Y-74476842D01*
X119485000Y-74763740D01*
X119485000Y-75056260D01*
X119542068Y-75343158D01*
X119654010Y-75613411D01*
X119816525Y-75856632D01*
X120023368Y-76063475D01*
X120197760Y-76180000D01*
X120023368Y-76296525D01*
X119903270Y-76416623D01*
X119881971Y-76309549D01*
X119768144Y-76034747D01*
X119602893Y-75787431D01*
X119392569Y-75577107D01*
X119145253Y-75411856D01*
X118870451Y-75298029D01*
X118578722Y-75240000D01*
X118281278Y-75240000D01*
X117989549Y-75298029D01*
X117714747Y-75411856D01*
X117467431Y-75577107D01*
X117257107Y-75787431D01*
X117091856Y-76034747D01*
X116978029Y-76309549D01*
X116920000Y-76601278D01*
X115978900Y-76601278D01*
X115978900Y-76491076D01*
X115877873Y-75983178D01*
X115679701Y-75504749D01*
X115392000Y-75074174D01*
X115025826Y-74708000D01*
X114595251Y-74420299D01*
X114116822Y-74222127D01*
X113608924Y-74121100D01*
X113091076Y-74121100D01*
X112583178Y-74222127D01*
X112104749Y-74420299D01*
X111674174Y-74708000D01*
X111308000Y-75074174D01*
X111020299Y-75504749D01*
X110822127Y-75983178D01*
X110721100Y-76491076D01*
X109758080Y-76491076D01*
X109721971Y-76309549D01*
X109608144Y-76034747D01*
X109564882Y-75970000D01*
X109713345Y-75970000D01*
X110053373Y-75902364D01*
X110373673Y-75769692D01*
X110661935Y-75577081D01*
X110907081Y-75331935D01*
X111099692Y-75043673D01*
X111232364Y-74723373D01*
X111300000Y-74383345D01*
X111300000Y-74036655D01*
X111232364Y-73696627D01*
X111099692Y-73376327D01*
X110907081Y-73088065D01*
X110661935Y-72842919D01*
X110373673Y-72650308D01*
X110053373Y-72517636D01*
X109713345Y-72450000D01*
X109366655Y-72450000D01*
X109026627Y-72517636D01*
X108706327Y-72650308D01*
X108418065Y-72842919D01*
X108172919Y-73088065D01*
X107980308Y-73376327D01*
X107847636Y-73696627D01*
X107780000Y-74036655D01*
X107780000Y-74383345D01*
X107847636Y-74723373D01*
X107980308Y-75043673D01*
X108112638Y-75241719D01*
X107829549Y-75298029D01*
X107554747Y-75411856D01*
X107307431Y-75577107D01*
X107097107Y-75787431D01*
X106931856Y-76034747D01*
X106818029Y-76309549D01*
X106760000Y-76601278D01*
X94485000Y-76601278D01*
X94485000Y-71496655D01*
X114130000Y-71496655D01*
X114130000Y-71843345D01*
X114197636Y-72183373D01*
X114330308Y-72503673D01*
X114522919Y-72791935D01*
X114768065Y-73037081D01*
X115056327Y-73229692D01*
X115376627Y-73362364D01*
X115716655Y-73430000D01*
X116063345Y-73430000D01*
X116403373Y-73362364D01*
X116723673Y-73229692D01*
X117011935Y-73037081D01*
X117257081Y-72791935D01*
X117449692Y-72503673D01*
X117582364Y-72183373D01*
X117650000Y-71843345D01*
X117650000Y-71496655D01*
X117582364Y-71156627D01*
X117449692Y-70836327D01*
X117257081Y-70548065D01*
X117011935Y-70302919D01*
X116723673Y-70110308D01*
X116403373Y-69977636D01*
X116063345Y-69910000D01*
X115716655Y-69910000D01*
X115376627Y-69977636D01*
X115056327Y-70110308D01*
X114768065Y-70302919D01*
X114522919Y-70548065D01*
X114330308Y-70836327D01*
X114197636Y-71156627D01*
X114130000Y-71496655D01*
X94485000Y-71496655D01*
X94485000Y-63601521D01*
X98155979Y-63601521D01*
X98155979Y-64048479D01*
X98243176Y-64486849D01*
X98414220Y-64899785D01*
X98662536Y-65271417D01*
X98978583Y-65587464D01*
X99350215Y-65835780D01*
X99763151Y-66006824D01*
X100201521Y-66094021D01*
X100648479Y-66094021D01*
X101086849Y-66006824D01*
X101499785Y-65835780D01*
X101871417Y-65587464D01*
X102187464Y-65271417D01*
X102435780Y-64899785D01*
X102606824Y-64486849D01*
X102694021Y-64048479D01*
X102694021Y-63601521D01*
X102606824Y-63163151D01*
X102435780Y-62750215D01*
X102187464Y-62378583D01*
X101871417Y-62062536D01*
X101499785Y-61814220D01*
X101086849Y-61643176D01*
X100648479Y-61555979D01*
X100201521Y-61555979D01*
X99763151Y-61643176D01*
X99350215Y-61814220D01*
X98978583Y-62062536D01*
X98662536Y-62378583D01*
X98414220Y-62750215D01*
X98243176Y-63163151D01*
X98155979Y-63601521D01*
X94485000Y-63601521D01*
X94485000Y-57885000D01*
X170315000Y-57885000D01*
X170315001Y-133715000D01*
G37*
X170315001Y-133715000D02*
X94485000Y-133715000D01*
X94485000Y-127551521D01*
X98155979Y-127551521D01*
X98155979Y-127998479D01*
X98243176Y-128436849D01*
X98414220Y-128849785D01*
X98662536Y-129221417D01*
X98978583Y-129537464D01*
X99350215Y-129785780D01*
X99763151Y-129956824D01*
X100201521Y-130044021D01*
X100648479Y-130044021D01*
X101086849Y-129956824D01*
X101499785Y-129785780D01*
X101871417Y-129537464D01*
X102187464Y-129221417D01*
X102435780Y-128849785D01*
X102606824Y-128436849D01*
X102694021Y-127998479D01*
X102694021Y-127551521D01*
X162105979Y-127551521D01*
X162105979Y-127998479D01*
X162193176Y-128436849D01*
X162364220Y-128849785D01*
X162612536Y-129221417D01*
X162928583Y-129537464D01*
X163300215Y-129785780D01*
X163713151Y-129956824D01*
X164151521Y-130044021D01*
X164598479Y-130044021D01*
X165036849Y-129956824D01*
X165449785Y-129785780D01*
X165821417Y-129537464D01*
X166137464Y-129221417D01*
X166385780Y-128849785D01*
X166556824Y-128436849D01*
X166644021Y-127998479D01*
X166644021Y-127551521D01*
X166556824Y-127113151D01*
X166385780Y-126700215D01*
X166137464Y-126328583D01*
X165821417Y-126012536D01*
X165449785Y-125764220D01*
X165036849Y-125593176D01*
X164598479Y-125505979D01*
X164151521Y-125505979D01*
X163713151Y-125593176D01*
X163300215Y-125764220D01*
X162928583Y-126012536D01*
X162612536Y-126328583D01*
X162364220Y-126700215D01*
X162193176Y-127113151D01*
X162105979Y-127551521D01*
X102694021Y-127551521D01*
X102606824Y-127113151D01*
X102435780Y-126700215D01*
X102187464Y-126328583D01*
X101871417Y-126012536D01*
X101499785Y-125764220D01*
X101086849Y-125593176D01*
X100648479Y-125505979D01*
X100201521Y-125505979D01*
X99763151Y-125593176D01*
X99350215Y-125764220D01*
X98978583Y-126012536D01*
X98662536Y-126328583D01*
X98414220Y-126700215D01*
X98243176Y-127113151D01*
X98155979Y-127551521D01*
X94485000Y-127551521D01*
X94485000Y-114701278D01*
X106760000Y-114701278D01*
X106760000Y-114998722D01*
X106818029Y-115290451D01*
X106931856Y-115565253D01*
X107097107Y-115812569D01*
X107307431Y-116022893D01*
X107554747Y-116188144D01*
X107829549Y-116301971D01*
X108121278Y-116360000D01*
X108418722Y-116360000D01*
X108710451Y-116301971D01*
X108985253Y-116188144D01*
X109232569Y-116022893D01*
X109442893Y-115812569D01*
X109608144Y-115565253D01*
X109721971Y-115290451D01*
X109780000Y-114998722D01*
X109780000Y-114701278D01*
X109758080Y-114591076D01*
X110721100Y-114591076D01*
X110721100Y-115108924D01*
X110822127Y-115616822D01*
X111020299Y-116095251D01*
X111308000Y-116525826D01*
X111674174Y-116892000D01*
X112104749Y-117179701D01*
X112583178Y-117377873D01*
X113091076Y-117478900D01*
X113608924Y-117478900D01*
X114116822Y-117377873D01*
X114595251Y-117179701D01*
X115025826Y-116892000D01*
X115392000Y-116525826D01*
X115679701Y-116095251D01*
X115877873Y-115616822D01*
X115978900Y-115108924D01*
X115978900Y-114701278D01*
X116920000Y-114701278D01*
X116920000Y-114998722D01*
X116978029Y-115290451D01*
X117091856Y-115565253D01*
X117257107Y-115812569D01*
X117467431Y-116022893D01*
X117714747Y-116188144D01*
X117989549Y-116301971D01*
X118281278Y-116360000D01*
X118578722Y-116360000D01*
X118870451Y-116301971D01*
X119145253Y-116188144D01*
X119392569Y-116022893D01*
X119602893Y-115812569D01*
X119768144Y-115565253D01*
X119881971Y-115290451D01*
X119940000Y-114998722D01*
X119940000Y-114701278D01*
X125810000Y-114701278D01*
X125810000Y-114998722D01*
X125868029Y-115290451D01*
X125981856Y-115565253D01*
X126147107Y-115812569D01*
X126357431Y-116022893D01*
X126604747Y-116188144D01*
X126879549Y-116301971D01*
X127171278Y-116360000D01*
X127468722Y-116360000D01*
X127760451Y-116301971D01*
X128035253Y-116188144D01*
X128282569Y-116022893D01*
X128492893Y-115812569D01*
X128658144Y-115565253D01*
X128771971Y-115290451D01*
X128830000Y-114998722D01*
X128830000Y-114701278D01*
X128808080Y-114591076D01*
X129771100Y-114591076D01*
X129771100Y-115108924D01*
X129872127Y-115616822D01*
X130070299Y-116095251D01*
X130358000Y-116525826D01*
X130724174Y-116892000D01*
X131154749Y-117179701D01*
X131633178Y-117377873D01*
X132141076Y-117478900D01*
X132658924Y-117478900D01*
X133166822Y-117377873D01*
X133645251Y-117179701D01*
X134075826Y-116892000D01*
X134442000Y-116525826D01*
X134729701Y-116095251D01*
X134927873Y-115616822D01*
X135028900Y-115108924D01*
X135028900Y-114701278D01*
X135970000Y-114701278D01*
X135970000Y-114998722D01*
X136028029Y-115290451D01*
X136141856Y-115565253D01*
X136307107Y-115812569D01*
X136517431Y-116022893D01*
X136764747Y-116188144D01*
X137039549Y-116301971D01*
X137331278Y-116360000D01*
X137628722Y-116360000D01*
X137920451Y-116301971D01*
X138195253Y-116188144D01*
X138442569Y-116022893D01*
X138652893Y-115812569D01*
X138818144Y-115565253D01*
X138931971Y-115290451D01*
X138990000Y-114998722D01*
X138990000Y-114701278D01*
X144860000Y-114701278D01*
X144860000Y-114998722D01*
X144918029Y-115290451D01*
X145031856Y-115565253D01*
X145197107Y-115812569D01*
X145407431Y-116022893D01*
X145654747Y-116188144D01*
X145929549Y-116301971D01*
X146221278Y-116360000D01*
X146518722Y-116360000D01*
X146810451Y-116301971D01*
X147085253Y-116188144D01*
X147332569Y-116022893D01*
X147542893Y-115812569D01*
X147708144Y-115565253D01*
X147821971Y-115290451D01*
X147880000Y-114998722D01*
X147880000Y-114701278D01*
X147858080Y-114591076D01*
X148821100Y-114591076D01*
X148821100Y-115108924D01*
X148922127Y-115616822D01*
X149120299Y-116095251D01*
X149408000Y-116525826D01*
X149774174Y-116892000D01*
X150204749Y-117179701D01*
X150683178Y-117377873D01*
X151191076Y-117478900D01*
X151708924Y-117478900D01*
X152216822Y-117377873D01*
X152695251Y-117179701D01*
X153125826Y-116892000D01*
X153492000Y-116525826D01*
X153779701Y-116095251D01*
X153977873Y-115616822D01*
X154078900Y-115108924D01*
X154078900Y-114701278D01*
X155020000Y-114701278D01*
X155020000Y-114998722D01*
X155078029Y-115290451D01*
X155191856Y-115565253D01*
X155357107Y-115812569D01*
X155567431Y-116022893D01*
X155814747Y-116188144D01*
X156089549Y-116301971D01*
X156381278Y-116360000D01*
X156678722Y-116360000D01*
X156970451Y-116301971D01*
X157245253Y-116188144D01*
X157492569Y-116022893D01*
X157702893Y-115812569D01*
X157868144Y-115565253D01*
X157981971Y-115290451D01*
X158040000Y-114998722D01*
X158040000Y-114701278D01*
X157981971Y-114409549D01*
X157868144Y-114134747D01*
X157702893Y-113887431D01*
X157492569Y-113677107D01*
X157245253Y-113511856D01*
X156970451Y-113398029D01*
X156678722Y-113340000D01*
X156381278Y-113340000D01*
X156089549Y-113398029D01*
X155814747Y-113511856D01*
X155567431Y-113677107D01*
X155357107Y-113887431D01*
X155191856Y-114134747D01*
X155078029Y-114409549D01*
X155020000Y-114701278D01*
X154078900Y-114701278D01*
X154078900Y-114591076D01*
X153977873Y-114083178D01*
X153779701Y-113604749D01*
X153492000Y-113174174D01*
X153125826Y-112808000D01*
X152695251Y-112520299D01*
X152216822Y-112322127D01*
X151708924Y-112221100D01*
X151191076Y-112221100D01*
X150683178Y-112322127D01*
X150204749Y-112520299D01*
X149774174Y-112808000D01*
X149408000Y-113174174D01*
X149120299Y-113604749D01*
X148922127Y-114083178D01*
X148821100Y-114591076D01*
X147858080Y-114591076D01*
X147821971Y-114409549D01*
X147708144Y-114134747D01*
X147664882Y-114070000D01*
X147813345Y-114070000D01*
X148153373Y-114002364D01*
X148473673Y-113869692D01*
X148761935Y-113677081D01*
X149007081Y-113431935D01*
X149199692Y-113143673D01*
X149332364Y-112823373D01*
X149400000Y-112483345D01*
X149400000Y-112136655D01*
X149332364Y-111796627D01*
X149199692Y-111476327D01*
X149007081Y-111188065D01*
X148761935Y-110942919D01*
X148473673Y-110750308D01*
X148153373Y-110617636D01*
X147813345Y-110550000D01*
X147466655Y-110550000D01*
X147126627Y-110617636D01*
X146806327Y-110750308D01*
X146518065Y-110942919D01*
X146272919Y-111188065D01*
X146080308Y-111476327D01*
X145947636Y-111796627D01*
X145880000Y-112136655D01*
X145880000Y-112483345D01*
X145947636Y-112823373D01*
X146080308Y-113143673D01*
X146212638Y-113341719D01*
X145929549Y-113398029D01*
X145654747Y-113511856D01*
X145407431Y-113677107D01*
X145197107Y-113887431D01*
X145031856Y-114134747D01*
X144918029Y-114409549D01*
X144860000Y-114701278D01*
X138990000Y-114701278D01*
X138931971Y-114409549D01*
X138818144Y-114134747D01*
X138652893Y-113887431D01*
X138442569Y-113677107D01*
X138195253Y-113511856D01*
X137920451Y-113398029D01*
X137628722Y-113340000D01*
X137331278Y-113340000D01*
X137039549Y-113398029D01*
X136764747Y-113511856D01*
X136517431Y-113677107D01*
X136307107Y-113887431D01*
X136141856Y-114134747D01*
X136028029Y-114409549D01*
X135970000Y-114701278D01*
X135028900Y-114701278D01*
X135028900Y-114591076D01*
X134927873Y-114083178D01*
X134729701Y-113604749D01*
X134442000Y-113174174D01*
X134075826Y-112808000D01*
X133645251Y-112520299D01*
X133166822Y-112322127D01*
X132658924Y-112221100D01*
X132141076Y-112221100D01*
X131633178Y-112322127D01*
X131154749Y-112520299D01*
X130724174Y-112808000D01*
X130358000Y-113174174D01*
X130070299Y-113604749D01*
X129872127Y-114083178D01*
X129771100Y-114591076D01*
X128808080Y-114591076D01*
X128771971Y-114409549D01*
X128658144Y-114134747D01*
X128614882Y-114070000D01*
X128763345Y-114070000D01*
X129103373Y-114002364D01*
X129423673Y-113869692D01*
X129711935Y-113677081D01*
X129957081Y-113431935D01*
X130149692Y-113143673D01*
X130282364Y-112823373D01*
X130350000Y-112483345D01*
X130350000Y-112136655D01*
X130282364Y-111796627D01*
X130149692Y-111476327D01*
X129957081Y-111188065D01*
X129711935Y-110942919D01*
X129423673Y-110750308D01*
X129103373Y-110617636D01*
X128763345Y-110550000D01*
X128416655Y-110550000D01*
X128076627Y-110617636D01*
X127756327Y-110750308D01*
X127468065Y-110942919D01*
X127222919Y-111188065D01*
X127030308Y-111476327D01*
X126897636Y-111796627D01*
X126830000Y-112136655D01*
X126830000Y-112483345D01*
X126897636Y-112823373D01*
X127030308Y-113143673D01*
X127162638Y-113341719D01*
X126879549Y-113398029D01*
X126604747Y-113511856D01*
X126357431Y-113677107D01*
X126147107Y-113887431D01*
X125981856Y-114134747D01*
X125868029Y-114409549D01*
X125810000Y-114701278D01*
X119940000Y-114701278D01*
X119881971Y-114409549D01*
X119768144Y-114134747D01*
X119602893Y-113887431D01*
X119392569Y-113677107D01*
X119145253Y-113511856D01*
X118870451Y-113398029D01*
X118578722Y-113340000D01*
X118281278Y-113340000D01*
X117989549Y-113398029D01*
X117714747Y-113511856D01*
X117467431Y-113677107D01*
X117257107Y-113887431D01*
X117091856Y-114134747D01*
X116978029Y-114409549D01*
X116920000Y-114701278D01*
X115978900Y-114701278D01*
X115978900Y-114591076D01*
X115877873Y-114083178D01*
X115679701Y-113604749D01*
X115392000Y-113174174D01*
X115025826Y-112808000D01*
X114595251Y-112520299D01*
X114116822Y-112322127D01*
X113608924Y-112221100D01*
X113091076Y-112221100D01*
X112583178Y-112322127D01*
X112104749Y-112520299D01*
X111674174Y-112808000D01*
X111308000Y-113174174D01*
X111020299Y-113604749D01*
X110822127Y-114083178D01*
X110721100Y-114591076D01*
X109758080Y-114591076D01*
X109721971Y-114409549D01*
X109608144Y-114134747D01*
X109564882Y-114070000D01*
X109713345Y-114070000D01*
X110053373Y-114002364D01*
X110373673Y-113869692D01*
X110661935Y-113677081D01*
X110907081Y-113431935D01*
X111099692Y-113143673D01*
X111232364Y-112823373D01*
X111300000Y-112483345D01*
X111300000Y-112136655D01*
X111232364Y-111796627D01*
X111099692Y-111476327D01*
X110907081Y-111188065D01*
X110661935Y-110942919D01*
X110373673Y-110750308D01*
X110053373Y-110617636D01*
X109713345Y-110550000D01*
X109366655Y-110550000D01*
X109026627Y-110617636D01*
X108706327Y-110750308D01*
X108418065Y-110942919D01*
X108172919Y-111188065D01*
X107980308Y-111476327D01*
X107847636Y-111796627D01*
X107780000Y-112136655D01*
X107780000Y-112483345D01*
X107847636Y-112823373D01*
X107980308Y-113143673D01*
X108112638Y-113341719D01*
X107829549Y-113398029D01*
X107554747Y-113511856D01*
X107307431Y-113677107D01*
X107097107Y-113887431D01*
X106931856Y-114134747D01*
X106818029Y-114409549D01*
X106760000Y-114701278D01*
X94485000Y-114701278D01*
X94485000Y-109596655D01*
X114130000Y-109596655D01*
X114130000Y-109943345D01*
X114197636Y-110283373D01*
X114330308Y-110603673D01*
X114522919Y-110891935D01*
X114768065Y-111137081D01*
X115056327Y-111329692D01*
X115376627Y-111462364D01*
X115716655Y-111530000D01*
X116063345Y-111530000D01*
X116403373Y-111462364D01*
X116723673Y-111329692D01*
X117011935Y-111137081D01*
X117257081Y-110891935D01*
X117449692Y-110603673D01*
X117582364Y-110283373D01*
X117650000Y-109943345D01*
X117650000Y-109596655D01*
X133180000Y-109596655D01*
X133180000Y-109943345D01*
X133247636Y-110283373D01*
X133380308Y-110603673D01*
X133572919Y-110891935D01*
X133818065Y-111137081D01*
X134106327Y-111329692D01*
X134426627Y-111462364D01*
X134766655Y-111530000D01*
X135113345Y-111530000D01*
X135453373Y-111462364D01*
X135773673Y-111329692D01*
X136061935Y-111137081D01*
X136307081Y-110891935D01*
X136499692Y-110603673D01*
X136632364Y-110283373D01*
X136700000Y-109943345D01*
X136700000Y-109596655D01*
X152230000Y-109596655D01*
X152230000Y-109943345D01*
X152297636Y-110283373D01*
X152430308Y-110603673D01*
X152622919Y-110891935D01*
X152868065Y-111137081D01*
X153156327Y-111329692D01*
X153476627Y-111462364D01*
X153816655Y-111530000D01*
X154163345Y-111530000D01*
X154503373Y-111462364D01*
X154823673Y-111329692D01*
X155111935Y-111137081D01*
X155357081Y-110891935D01*
X155549692Y-110603673D01*
X155682364Y-110283373D01*
X155750000Y-109943345D01*
X155750000Y-109596655D01*
X155682364Y-109256627D01*
X155549692Y-108936327D01*
X155357081Y-108648065D01*
X155111935Y-108402919D01*
X154823673Y-108210308D01*
X154503373Y-108077636D01*
X154163345Y-108010000D01*
X153816655Y-108010000D01*
X153476627Y-108077636D01*
X153156327Y-108210308D01*
X152868065Y-108402919D01*
X152622919Y-108648065D01*
X152430308Y-108936327D01*
X152297636Y-109256627D01*
X152230000Y-109596655D01*
X136700000Y-109596655D01*
X136632364Y-109256627D01*
X136499692Y-108936327D01*
X136307081Y-108648065D01*
X136061935Y-108402919D01*
X135773673Y-108210308D01*
X135453373Y-108077636D01*
X135113345Y-108010000D01*
X134766655Y-108010000D01*
X134426627Y-108077636D01*
X134106327Y-108210308D01*
X133818065Y-108402919D01*
X133572919Y-108648065D01*
X133380308Y-108936327D01*
X133247636Y-109256627D01*
X133180000Y-109596655D01*
X117650000Y-109596655D01*
X117582364Y-109256627D01*
X117449692Y-108936327D01*
X117257081Y-108648065D01*
X117011935Y-108402919D01*
X116838286Y-108286890D01*
X119528524Y-108286890D01*
X119573175Y-108434099D01*
X119698359Y-108696920D01*
X119872412Y-108930269D01*
X120088645Y-109125178D01*
X120338748Y-109274157D01*
X120613109Y-109371481D01*
X120843000Y-109250814D01*
X120843000Y-108057000D01*
X121097000Y-108057000D01*
X121097000Y-109250814D01*
X121326891Y-109371481D01*
X121601252Y-109274157D01*
X121851355Y-109125178D01*
X122067588Y-108930269D01*
X122241641Y-108696920D01*
X122366825Y-108434099D01*
X122411476Y-108286890D01*
X122290155Y-108057000D01*
X121097000Y-108057000D01*
X120843000Y-108057000D01*
X119649845Y-108057000D01*
X119528524Y-108286890D01*
X116838286Y-108286890D01*
X116723673Y-108210308D01*
X116403373Y-108077636D01*
X116063345Y-108010000D01*
X115716655Y-108010000D01*
X115376627Y-108077636D01*
X115056327Y-108210308D01*
X114768065Y-108402919D01*
X114522919Y-108648065D01*
X114330308Y-108936327D01*
X114197636Y-109256627D01*
X114130000Y-109596655D01*
X94485000Y-109596655D01*
X94485000Y-105243740D01*
X119485000Y-105243740D01*
X119485000Y-105536260D01*
X119542068Y-105823158D01*
X119654010Y-106093411D01*
X119816525Y-106336632D01*
X120023368Y-106543475D01*
X120205534Y-106665195D01*
X120088645Y-106734822D01*
X119872412Y-106929731D01*
X119698359Y-107163080D01*
X119573175Y-107425901D01*
X119528524Y-107573110D01*
X119649845Y-107803000D01*
X120843000Y-107803000D01*
X120843000Y-107783000D01*
X121097000Y-107783000D01*
X121097000Y-107803000D01*
X122290155Y-107803000D01*
X122300319Y-107783740D01*
X142345000Y-107783740D01*
X142345000Y-108076260D01*
X142402068Y-108363158D01*
X142514010Y-108633411D01*
X142676525Y-108876632D01*
X142883368Y-109083475D01*
X143126589Y-109245990D01*
X143396842Y-109357932D01*
X143683740Y-109415000D01*
X143976260Y-109415000D01*
X144263158Y-109357932D01*
X144533411Y-109245990D01*
X144776632Y-109083475D01*
X144983475Y-108876632D01*
X145145990Y-108633411D01*
X145257932Y-108363158D01*
X145315000Y-108076260D01*
X145315000Y-107783740D01*
X145257932Y-107496842D01*
X145145990Y-107226589D01*
X144983475Y-106983368D01*
X144776632Y-106776525D01*
X144594466Y-106654805D01*
X144711355Y-106585178D01*
X144927588Y-106390269D01*
X145101641Y-106156920D01*
X145226825Y-105894099D01*
X145271476Y-105746890D01*
X145150155Y-105517000D01*
X143957000Y-105517000D01*
X143957000Y-105537000D01*
X143703000Y-105537000D01*
X143703000Y-105517000D01*
X142509845Y-105517000D01*
X142388524Y-105746890D01*
X142433175Y-105894099D01*
X142558359Y-106156920D01*
X142732412Y-106390269D01*
X142948645Y-106585178D01*
X143065534Y-106654805D01*
X142883368Y-106776525D01*
X142676525Y-106983368D01*
X142514010Y-107226589D01*
X142402068Y-107496842D01*
X142345000Y-107783740D01*
X122300319Y-107783740D01*
X122411476Y-107573110D01*
X122366825Y-107425901D01*
X122241641Y-107163080D01*
X122067588Y-106929731D01*
X121851355Y-106734822D01*
X121734466Y-106665195D01*
X121916632Y-106543475D01*
X122123475Y-106336632D01*
X122285990Y-106093411D01*
X122397932Y-105823158D01*
X122455000Y-105536260D01*
X122455000Y-105243740D01*
X122397932Y-104956842D01*
X122285990Y-104686589D01*
X122123475Y-104443368D01*
X121916632Y-104236525D01*
X121734466Y-104114805D01*
X121851355Y-104045178D01*
X122067588Y-103850269D01*
X122241641Y-103616920D01*
X122366825Y-103354099D01*
X122411476Y-103206890D01*
X122406817Y-103198061D01*
X127565000Y-103198061D01*
X127565000Y-103401939D01*
X127604774Y-103601898D01*
X127682795Y-103790256D01*
X127796063Y-103959774D01*
X127840000Y-104003711D01*
X127840001Y-104496288D01*
X127796063Y-104540226D01*
X127682795Y-104709744D01*
X127604774Y-104898102D01*
X127565000Y-105098061D01*
X127565000Y-105301939D01*
X127604774Y-105501898D01*
X127682795Y-105690256D01*
X127796063Y-105859774D01*
X127940226Y-106003937D01*
X128109744Y-106117205D01*
X128298102Y-106195226D01*
X128498061Y-106235000D01*
X128701939Y-106235000D01*
X128901898Y-106195226D01*
X129090256Y-106117205D01*
X129259774Y-106003937D01*
X129403937Y-105859774D01*
X129517205Y-105690256D01*
X129595226Y-105501898D01*
X129635000Y-105301939D01*
X129635000Y-105098061D01*
X129595226Y-104898102D01*
X129517205Y-104709744D01*
X129403937Y-104540226D01*
X129360000Y-104496289D01*
X129360000Y-104003711D01*
X129403937Y-103959774D01*
X129517205Y-103790256D01*
X129595226Y-103601898D01*
X129635000Y-103401939D01*
X129635000Y-103198061D01*
X139965000Y-103198061D01*
X139965000Y-103401939D01*
X140004774Y-103601898D01*
X140082795Y-103790256D01*
X140196063Y-103959774D01*
X140240000Y-104003711D01*
X140240001Y-104396288D01*
X140196063Y-104440226D01*
X140082795Y-104609744D01*
X140004774Y-104798102D01*
X139965000Y-104998061D01*
X139965000Y-105201939D01*
X140004774Y-105401898D01*
X140082795Y-105590256D01*
X140196063Y-105759774D01*
X140340226Y-105903937D01*
X140509744Y-106017205D01*
X140698102Y-106095226D01*
X140898061Y-106135000D01*
X141101939Y-106135000D01*
X141301898Y-106095226D01*
X141490256Y-106017205D01*
X141659774Y-105903937D01*
X141803937Y-105759774D01*
X141917205Y-105590256D01*
X141995226Y-105401898D01*
X142035000Y-105201939D01*
X142035000Y-104998061D01*
X141995226Y-104798102D01*
X141917205Y-104609744D01*
X141803937Y-104440226D01*
X141760000Y-104396289D01*
X141760000Y-104003711D01*
X141803937Y-103959774D01*
X141917205Y-103790256D01*
X141995226Y-103601898D01*
X142035000Y-103401939D01*
X142035000Y-103198061D01*
X141995226Y-102998102D01*
X141917205Y-102809744D01*
X141803937Y-102640226D01*
X141659774Y-102496063D01*
X141490256Y-102382795D01*
X141301898Y-102304774D01*
X141101939Y-102265000D01*
X140898061Y-102265000D01*
X140698102Y-102304774D01*
X140509744Y-102382795D01*
X140340226Y-102496063D01*
X140196063Y-102640226D01*
X140082795Y-102809744D01*
X140004774Y-102998102D01*
X139965000Y-103198061D01*
X129635000Y-103198061D01*
X129595226Y-102998102D01*
X129517205Y-102809744D01*
X129403937Y-102640226D01*
X129259774Y-102496063D01*
X129090256Y-102382795D01*
X128901898Y-102304774D01*
X128701939Y-102265000D01*
X128498061Y-102265000D01*
X128298102Y-102304774D01*
X128109744Y-102382795D01*
X127940226Y-102496063D01*
X127796063Y-102640226D01*
X127682795Y-102809744D01*
X127604774Y-102998102D01*
X127565000Y-103198061D01*
X122406817Y-103198061D01*
X122290155Y-102977000D01*
X121097000Y-102977000D01*
X121097000Y-102997000D01*
X120843000Y-102997000D01*
X120843000Y-102977000D01*
X119649845Y-102977000D01*
X119528524Y-103206890D01*
X119573175Y-103354099D01*
X119698359Y-103616920D01*
X119872412Y-103850269D01*
X120088645Y-104045178D01*
X120205534Y-104114805D01*
X120023368Y-104236525D01*
X119816525Y-104443368D01*
X119654010Y-104686589D01*
X119542068Y-104956842D01*
X119485000Y-105243740D01*
X94485000Y-105243740D01*
X94485000Y-95651278D01*
X106760000Y-95651278D01*
X106760000Y-95948722D01*
X106818029Y-96240451D01*
X106931856Y-96515253D01*
X107097107Y-96762569D01*
X107307431Y-96972893D01*
X107554747Y-97138144D01*
X107829549Y-97251971D01*
X108121278Y-97310000D01*
X108418722Y-97310000D01*
X108710451Y-97251971D01*
X108985253Y-97138144D01*
X109232569Y-96972893D01*
X109442893Y-96762569D01*
X109608144Y-96515253D01*
X109721971Y-96240451D01*
X109780000Y-95948722D01*
X109780000Y-95651278D01*
X109758080Y-95541076D01*
X110721100Y-95541076D01*
X110721100Y-96058924D01*
X110822127Y-96566822D01*
X111020299Y-97045251D01*
X111308000Y-97475826D01*
X111674174Y-97842000D01*
X112104749Y-98129701D01*
X112583178Y-98327873D01*
X113091076Y-98428900D01*
X113608924Y-98428900D01*
X114116822Y-98327873D01*
X114595251Y-98129701D01*
X115025826Y-97842000D01*
X115392000Y-97475826D01*
X115679701Y-97045251D01*
X115877873Y-96566822D01*
X115978900Y-96058924D01*
X115978900Y-95541076D01*
X115877873Y-95033178D01*
X115679701Y-94554749D01*
X115392000Y-94124174D01*
X115025826Y-93758000D01*
X114595251Y-93470299D01*
X114116822Y-93272127D01*
X113608924Y-93171100D01*
X113091076Y-93171100D01*
X112583178Y-93272127D01*
X112104749Y-93470299D01*
X111674174Y-93758000D01*
X111308000Y-94124174D01*
X111020299Y-94554749D01*
X110822127Y-95033178D01*
X110721100Y-95541076D01*
X109758080Y-95541076D01*
X109721971Y-95359549D01*
X109608144Y-95084747D01*
X109564882Y-95020000D01*
X109713345Y-95020000D01*
X110053373Y-94952364D01*
X110373673Y-94819692D01*
X110661935Y-94627081D01*
X110907081Y-94381935D01*
X111099692Y-94093673D01*
X111232364Y-93773373D01*
X111300000Y-93433345D01*
X111300000Y-93086655D01*
X111232364Y-92746627D01*
X111099692Y-92426327D01*
X110907081Y-92138065D01*
X110661935Y-91892919D01*
X110373673Y-91700308D01*
X110053373Y-91567636D01*
X109713345Y-91500000D01*
X109366655Y-91500000D01*
X109026627Y-91567636D01*
X108706327Y-91700308D01*
X108418065Y-91892919D01*
X108172919Y-92138065D01*
X107980308Y-92426327D01*
X107847636Y-92746627D01*
X107780000Y-93086655D01*
X107780000Y-93433345D01*
X107847636Y-93773373D01*
X107980308Y-94093673D01*
X108112638Y-94291719D01*
X107829549Y-94348029D01*
X107554747Y-94461856D01*
X107307431Y-94627107D01*
X107097107Y-94837431D01*
X106931856Y-95084747D01*
X106818029Y-95359549D01*
X106760000Y-95651278D01*
X94485000Y-95651278D01*
X94485000Y-90546655D01*
X114130000Y-90546655D01*
X114130000Y-90893345D01*
X114197636Y-91233373D01*
X114330308Y-91553673D01*
X114522919Y-91841935D01*
X114768065Y-92087081D01*
X115056327Y-92279692D01*
X115376627Y-92412364D01*
X115716655Y-92480000D01*
X116063345Y-92480000D01*
X116403373Y-92412364D01*
X116723673Y-92279692D01*
X117011935Y-92087081D01*
X117257081Y-91841935D01*
X117449692Y-91553673D01*
X117582364Y-91233373D01*
X117650000Y-90893345D01*
X117650000Y-90546655D01*
X117582364Y-90206627D01*
X117449692Y-89886327D01*
X117257081Y-89598065D01*
X117011935Y-89352919D01*
X116723673Y-89160308D01*
X116403373Y-89027636D01*
X116063345Y-88960000D01*
X115716655Y-88960000D01*
X115376627Y-89027636D01*
X115056327Y-89160308D01*
X114768065Y-89352919D01*
X114522919Y-89598065D01*
X114330308Y-89886327D01*
X114197636Y-90206627D01*
X114130000Y-90546655D01*
X94485000Y-90546655D01*
X94485000Y-76601278D01*
X106760000Y-76601278D01*
X106760000Y-76898722D01*
X106818029Y-77190451D01*
X106931856Y-77465253D01*
X107097107Y-77712569D01*
X107307431Y-77922893D01*
X107554747Y-78088144D01*
X107829549Y-78201971D01*
X108121278Y-78260000D01*
X108418722Y-78260000D01*
X108710451Y-78201971D01*
X108985253Y-78088144D01*
X109232569Y-77922893D01*
X109442893Y-77712569D01*
X109608144Y-77465253D01*
X109721971Y-77190451D01*
X109780000Y-76898722D01*
X109780000Y-76601278D01*
X109758080Y-76491076D01*
X110721100Y-76491076D01*
X110721100Y-77008924D01*
X110822127Y-77516822D01*
X111020299Y-77995251D01*
X111308000Y-78425826D01*
X111674174Y-78792000D01*
X112104749Y-79079701D01*
X112583178Y-79277873D01*
X113091076Y-79378900D01*
X113608924Y-79378900D01*
X114116822Y-79277873D01*
X114595251Y-79079701D01*
X115025826Y-78792000D01*
X115392000Y-78425826D01*
X115679701Y-77995251D01*
X115877873Y-77516822D01*
X115978900Y-77008924D01*
X115978900Y-76601278D01*
X116920000Y-76601278D01*
X116920000Y-76898722D01*
X116978029Y-77190451D01*
X117091856Y-77465253D01*
X117257107Y-77712569D01*
X117467431Y-77922893D01*
X117714747Y-78088144D01*
X117989549Y-78201971D01*
X118281278Y-78260000D01*
X118578722Y-78260000D01*
X118870451Y-78201971D01*
X119145253Y-78088144D01*
X119392569Y-77922893D01*
X119523857Y-77791605D01*
X119542068Y-77883158D01*
X119654010Y-78153411D01*
X119816525Y-78396632D01*
X120023368Y-78603475D01*
X120197760Y-78720000D01*
X120023368Y-78836525D01*
X119816525Y-79043368D01*
X119654010Y-79286589D01*
X119542068Y-79556842D01*
X119485000Y-79843740D01*
X119485000Y-80136260D01*
X119542068Y-80423158D01*
X119654010Y-80693411D01*
X119816525Y-80936632D01*
X120023368Y-81143475D01*
X120197760Y-81260000D01*
X120023368Y-81376525D01*
X119816525Y-81583368D01*
X119654010Y-81826589D01*
X119542068Y-82096842D01*
X119485000Y-82383740D01*
X119485000Y-82676260D01*
X119542068Y-82963158D01*
X119654010Y-83233411D01*
X119816525Y-83476632D01*
X120023368Y-83683475D01*
X120197760Y-83800000D01*
X120023368Y-83916525D01*
X119816525Y-84123368D01*
X119654010Y-84366589D01*
X119542068Y-84636842D01*
X119485000Y-84923740D01*
X119485000Y-85216260D01*
X119542068Y-85503158D01*
X119654010Y-85773411D01*
X119816525Y-86016632D01*
X120023368Y-86223475D01*
X120197760Y-86340000D01*
X120023368Y-86456525D01*
X119816525Y-86663368D01*
X119654010Y-86906589D01*
X119542068Y-87176842D01*
X119485000Y-87463740D01*
X119485000Y-87756260D01*
X119542068Y-88043158D01*
X119654010Y-88313411D01*
X119816525Y-88556632D01*
X120023368Y-88763475D01*
X120197760Y-88880000D01*
X120023368Y-88996525D01*
X119816525Y-89203368D01*
X119654010Y-89446589D01*
X119542068Y-89716842D01*
X119485000Y-90003740D01*
X119485000Y-90296260D01*
X119542068Y-90583158D01*
X119654010Y-90853411D01*
X119816525Y-91096632D01*
X120023368Y-91303475D01*
X120197760Y-91420000D01*
X120023368Y-91536525D01*
X119816525Y-91743368D01*
X119654010Y-91986589D01*
X119542068Y-92256842D01*
X119485000Y-92543740D01*
X119485000Y-92836260D01*
X119542068Y-93123158D01*
X119654010Y-93393411D01*
X119816525Y-93636632D01*
X120023368Y-93843475D01*
X120197760Y-93960000D01*
X120023368Y-94076525D01*
X119816525Y-94283368D01*
X119654010Y-94526589D01*
X119547995Y-94782533D01*
X119392569Y-94627107D01*
X119145253Y-94461856D01*
X118870451Y-94348029D01*
X118578722Y-94290000D01*
X118281278Y-94290000D01*
X117989549Y-94348029D01*
X117714747Y-94461856D01*
X117467431Y-94627107D01*
X117257107Y-94837431D01*
X117091856Y-95084747D01*
X116978029Y-95359549D01*
X116920000Y-95651278D01*
X116920000Y-95948722D01*
X116978029Y-96240451D01*
X117091856Y-96515253D01*
X117257107Y-96762569D01*
X117467431Y-96972893D01*
X117714747Y-97138144D01*
X117989549Y-97251971D01*
X118281278Y-97310000D01*
X118578722Y-97310000D01*
X118870451Y-97251971D01*
X119145253Y-97138144D01*
X119392569Y-96972893D01*
X119602893Y-96762569D01*
X119768144Y-96515253D01*
X119881494Y-96241601D01*
X120023368Y-96383475D01*
X120197760Y-96500000D01*
X120023368Y-96616525D01*
X119816525Y-96823368D01*
X119654010Y-97066589D01*
X119542068Y-97336842D01*
X119485000Y-97623740D01*
X119485000Y-97916260D01*
X119542068Y-98203158D01*
X119654010Y-98473411D01*
X119816525Y-98716632D01*
X120023368Y-98923475D01*
X120197760Y-99040000D01*
X120023368Y-99156525D01*
X119816525Y-99363368D01*
X119654010Y-99606589D01*
X119542068Y-99876842D01*
X119485000Y-100163740D01*
X119485000Y-100456260D01*
X119542068Y-100743158D01*
X119654010Y-101013411D01*
X119816525Y-101256632D01*
X120023368Y-101463475D01*
X120205534Y-101585195D01*
X120088645Y-101654822D01*
X119872412Y-101849731D01*
X119698359Y-102083080D01*
X119573175Y-102345901D01*
X119528524Y-102493110D01*
X119649845Y-102723000D01*
X120843000Y-102723000D01*
X120843000Y-102703000D01*
X121097000Y-102703000D01*
X121097000Y-102723000D01*
X122290155Y-102723000D01*
X122411476Y-102493110D01*
X122366825Y-102345901D01*
X122241641Y-102083080D01*
X122067588Y-101849731D01*
X121851355Y-101654822D01*
X121734466Y-101585195D01*
X121916632Y-101463475D01*
X122123475Y-101256632D01*
X122285990Y-101013411D01*
X122397932Y-100743158D01*
X122455000Y-100456260D01*
X122455000Y-100163740D01*
X122397932Y-99876842D01*
X122285990Y-99606589D01*
X122123475Y-99363368D01*
X121916632Y-99156525D01*
X121742240Y-99040000D01*
X121916632Y-98923475D01*
X122123475Y-98716632D01*
X122285990Y-98473411D01*
X122397932Y-98203158D01*
X122455000Y-97916260D01*
X122455000Y-97623740D01*
X122397932Y-97336842D01*
X122285990Y-97066589D01*
X122123475Y-96823368D01*
X121916632Y-96616525D01*
X121742240Y-96500000D01*
X121916632Y-96383475D01*
X122123475Y-96176632D01*
X122285990Y-95933411D01*
X122397932Y-95663158D01*
X122400295Y-95651278D01*
X125810000Y-95651278D01*
X125810000Y-95948722D01*
X125868029Y-96240451D01*
X125981856Y-96515253D01*
X126147107Y-96762569D01*
X126357431Y-96972893D01*
X126604747Y-97138144D01*
X126879549Y-97251971D01*
X127171278Y-97310000D01*
X127468722Y-97310000D01*
X127760451Y-97251971D01*
X128035253Y-97138144D01*
X128282569Y-96972893D01*
X128492893Y-96762569D01*
X128658144Y-96515253D01*
X128771971Y-96240451D01*
X128830000Y-95948722D01*
X128830000Y-95651278D01*
X128808080Y-95541076D01*
X129771100Y-95541076D01*
X129771100Y-96058924D01*
X129872127Y-96566822D01*
X130070299Y-97045251D01*
X130358000Y-97475826D01*
X130724174Y-97842000D01*
X131154749Y-98129701D01*
X131633178Y-98327873D01*
X132141076Y-98428900D01*
X132658924Y-98428900D01*
X133166822Y-98327873D01*
X133645251Y-98129701D01*
X134075826Y-97842000D01*
X134442000Y-97475826D01*
X134729701Y-97045251D01*
X134927873Y-96566822D01*
X135028900Y-96058924D01*
X135028900Y-95651278D01*
X135970000Y-95651278D01*
X135970000Y-95948722D01*
X136028029Y-96240451D01*
X136141856Y-96515253D01*
X136307107Y-96762569D01*
X136517431Y-96972893D01*
X136764747Y-97138144D01*
X137039549Y-97251971D01*
X137331278Y-97310000D01*
X137628722Y-97310000D01*
X137920451Y-97251971D01*
X138195253Y-97138144D01*
X138442569Y-96972893D01*
X138652893Y-96762569D01*
X138818144Y-96515253D01*
X138931971Y-96240451D01*
X138990000Y-95948722D01*
X138990000Y-95651278D01*
X138931971Y-95359549D01*
X138818144Y-95084747D01*
X138652893Y-94837431D01*
X138442569Y-94627107D01*
X138195253Y-94461856D01*
X137920451Y-94348029D01*
X137628722Y-94290000D01*
X137331278Y-94290000D01*
X137039549Y-94348029D01*
X136764747Y-94461856D01*
X136517431Y-94627107D01*
X136307107Y-94837431D01*
X136141856Y-95084747D01*
X136028029Y-95359549D01*
X135970000Y-95651278D01*
X135028900Y-95651278D01*
X135028900Y-95541076D01*
X134927873Y-95033178D01*
X134729701Y-94554749D01*
X134442000Y-94124174D01*
X134075826Y-93758000D01*
X133645251Y-93470299D01*
X133166822Y-93272127D01*
X132658924Y-93171100D01*
X132141076Y-93171100D01*
X131633178Y-93272127D01*
X131154749Y-93470299D01*
X130724174Y-93758000D01*
X130358000Y-94124174D01*
X130070299Y-94554749D01*
X129872127Y-95033178D01*
X129771100Y-95541076D01*
X128808080Y-95541076D01*
X128771971Y-95359549D01*
X128658144Y-95084747D01*
X128614882Y-95020000D01*
X128763345Y-95020000D01*
X129103373Y-94952364D01*
X129423673Y-94819692D01*
X129711935Y-94627081D01*
X129957081Y-94381935D01*
X130149692Y-94093673D01*
X130282364Y-93773373D01*
X130350000Y-93433345D01*
X130350000Y-93086655D01*
X130282364Y-92746627D01*
X130149692Y-92426327D01*
X129957081Y-92138065D01*
X129711935Y-91892919D01*
X129423673Y-91700308D01*
X129103373Y-91567636D01*
X128763345Y-91500000D01*
X128416655Y-91500000D01*
X128076627Y-91567636D01*
X127756327Y-91700308D01*
X127468065Y-91892919D01*
X127222919Y-92138065D01*
X127030308Y-92426327D01*
X126897636Y-92746627D01*
X126830000Y-93086655D01*
X126830000Y-93433345D01*
X126897636Y-93773373D01*
X127030308Y-94093673D01*
X127162638Y-94291719D01*
X126879549Y-94348029D01*
X126604747Y-94461856D01*
X126357431Y-94627107D01*
X126147107Y-94837431D01*
X125981856Y-95084747D01*
X125868029Y-95359549D01*
X125810000Y-95651278D01*
X122400295Y-95651278D01*
X122455000Y-95376260D01*
X122455000Y-95083740D01*
X122397932Y-94796842D01*
X122285990Y-94526589D01*
X122123475Y-94283368D01*
X121916632Y-94076525D01*
X121742240Y-93960000D01*
X121916632Y-93843475D01*
X122123475Y-93636632D01*
X122285990Y-93393411D01*
X122397932Y-93123158D01*
X122455000Y-92836260D01*
X122455000Y-92543740D01*
X122397932Y-92256842D01*
X122285990Y-91986589D01*
X122123475Y-91743368D01*
X121916632Y-91536525D01*
X121742240Y-91420000D01*
X121916632Y-91303475D01*
X122123475Y-91096632D01*
X122285990Y-90853411D01*
X122397932Y-90583158D01*
X122405192Y-90546655D01*
X133180000Y-90546655D01*
X133180000Y-90893345D01*
X133247636Y-91233373D01*
X133380308Y-91553673D01*
X133572919Y-91841935D01*
X133818065Y-92087081D01*
X134106327Y-92279692D01*
X134426627Y-92412364D01*
X134766655Y-92480000D01*
X135113345Y-92480000D01*
X135453373Y-92412364D01*
X135773673Y-92279692D01*
X136061935Y-92087081D01*
X136307081Y-91841935D01*
X136499692Y-91553673D01*
X136632364Y-91233373D01*
X136700000Y-90893345D01*
X136700000Y-90546655D01*
X136632364Y-90206627D01*
X136499692Y-89886327D01*
X136307081Y-89598065D01*
X136061935Y-89352919D01*
X135773673Y-89160308D01*
X135453373Y-89027636D01*
X135113345Y-88960000D01*
X134766655Y-88960000D01*
X134426627Y-89027636D01*
X134106327Y-89160308D01*
X133818065Y-89352919D01*
X133572919Y-89598065D01*
X133380308Y-89886327D01*
X133247636Y-90206627D01*
X133180000Y-90546655D01*
X122405192Y-90546655D01*
X122455000Y-90296260D01*
X122455000Y-90003740D01*
X122397932Y-89716842D01*
X122285990Y-89446589D01*
X122123475Y-89203368D01*
X121916632Y-88996525D01*
X121742240Y-88880000D01*
X121916632Y-88763475D01*
X122123475Y-88556632D01*
X122285990Y-88313411D01*
X122397932Y-88043158D01*
X122455000Y-87756260D01*
X122455000Y-87463740D01*
X122397932Y-87176842D01*
X122285990Y-86906589D01*
X122123475Y-86663368D01*
X121916632Y-86456525D01*
X121742240Y-86340000D01*
X121916632Y-86223475D01*
X122123475Y-86016632D01*
X122285990Y-85773411D01*
X122397932Y-85503158D01*
X122455000Y-85216260D01*
X122455000Y-85098061D01*
X127565000Y-85098061D01*
X127565000Y-85301939D01*
X127604774Y-85501898D01*
X127682795Y-85690256D01*
X127796063Y-85859774D01*
X127840000Y-85903711D01*
X127840001Y-86696288D01*
X127796063Y-86740226D01*
X127682795Y-86909744D01*
X127604774Y-87098102D01*
X127565000Y-87298061D01*
X127565000Y-87501939D01*
X127604774Y-87701898D01*
X127682795Y-87890256D01*
X127796063Y-88059774D01*
X127940226Y-88203937D01*
X128109744Y-88317205D01*
X128298102Y-88395226D01*
X128498061Y-88435000D01*
X128701939Y-88435000D01*
X128901898Y-88395226D01*
X129090256Y-88317205D01*
X129259774Y-88203937D01*
X129403937Y-88059774D01*
X129517205Y-87890256D01*
X129595226Y-87701898D01*
X129635000Y-87501939D01*
X129635000Y-87298061D01*
X129595226Y-87098102D01*
X129517205Y-86909744D01*
X129403937Y-86740226D01*
X129360000Y-86696289D01*
X129360000Y-85903711D01*
X129403937Y-85859774D01*
X129517205Y-85690256D01*
X129595226Y-85501898D01*
X129635000Y-85301939D01*
X129635000Y-85098061D01*
X129595226Y-84898102D01*
X129517205Y-84709744D01*
X129403937Y-84540226D01*
X129259774Y-84396063D01*
X129090256Y-84282795D01*
X128901898Y-84204774D01*
X128701939Y-84165000D01*
X128498061Y-84165000D01*
X128298102Y-84204774D01*
X128109744Y-84282795D01*
X127940226Y-84396063D01*
X127796063Y-84540226D01*
X127682795Y-84709744D01*
X127604774Y-84898102D01*
X127565000Y-85098061D01*
X122455000Y-85098061D01*
X122455000Y-84923740D01*
X122397932Y-84636842D01*
X122285990Y-84366589D01*
X122123475Y-84123368D01*
X121916632Y-83916525D01*
X121742240Y-83800000D01*
X121916632Y-83683475D01*
X122123475Y-83476632D01*
X122285990Y-83233411D01*
X122397932Y-82963158D01*
X122455000Y-82676260D01*
X122455000Y-82383740D01*
X122397932Y-82096842D01*
X122285990Y-81826589D01*
X122123475Y-81583368D01*
X121916632Y-81376525D01*
X121742240Y-81260000D01*
X121916632Y-81143475D01*
X122123475Y-80936632D01*
X122285990Y-80693411D01*
X122397932Y-80423158D01*
X122455000Y-80136260D01*
X122455000Y-79843740D01*
X122397932Y-79556842D01*
X122285990Y-79286589D01*
X122123475Y-79043368D01*
X121916632Y-78836525D01*
X121742240Y-78720000D01*
X121916632Y-78603475D01*
X122123475Y-78396632D01*
X122285990Y-78153411D01*
X122397932Y-77883158D01*
X122455000Y-77596260D01*
X122455000Y-77303740D01*
X122397932Y-77016842D01*
X122285990Y-76746589D01*
X122188897Y-76601278D01*
X125810000Y-76601278D01*
X125810000Y-76898722D01*
X125868029Y-77190451D01*
X125981856Y-77465253D01*
X126147107Y-77712569D01*
X126357431Y-77922893D01*
X126604747Y-78088144D01*
X126879549Y-78201971D01*
X127171278Y-78260000D01*
X127468722Y-78260000D01*
X127760451Y-78201971D01*
X128035253Y-78088144D01*
X128282569Y-77922893D01*
X128492893Y-77712569D01*
X128658144Y-77465253D01*
X128771971Y-77190451D01*
X128830000Y-76898722D01*
X128830000Y-76601278D01*
X128808080Y-76491076D01*
X129771100Y-76491076D01*
X129771100Y-77008924D01*
X129872127Y-77516822D01*
X130070299Y-77995251D01*
X130358000Y-78425826D01*
X130724174Y-78792000D01*
X131154749Y-79079701D01*
X131633178Y-79277873D01*
X132141076Y-79378900D01*
X132658924Y-79378900D01*
X133166822Y-79277873D01*
X133645251Y-79079701D01*
X134075826Y-78792000D01*
X134442000Y-78425826D01*
X134729701Y-77995251D01*
X134927873Y-77516822D01*
X135028900Y-77008924D01*
X135028900Y-76601278D01*
X135970000Y-76601278D01*
X135970000Y-76898722D01*
X136028029Y-77190451D01*
X136141856Y-77465253D01*
X136307107Y-77712569D01*
X136517431Y-77922893D01*
X136764747Y-78088144D01*
X137039549Y-78201971D01*
X137331278Y-78260000D01*
X137628722Y-78260000D01*
X137920451Y-78201971D01*
X138195253Y-78088144D01*
X138442569Y-77922893D01*
X138652893Y-77712569D01*
X138818144Y-77465253D01*
X138931971Y-77190451D01*
X138990000Y-76898722D01*
X138990000Y-76601278D01*
X138931971Y-76309549D01*
X138818144Y-76034747D01*
X138652893Y-75787431D01*
X138442569Y-75577107D01*
X138195253Y-75411856D01*
X137920451Y-75298029D01*
X137628722Y-75240000D01*
X137331278Y-75240000D01*
X137039549Y-75298029D01*
X136764747Y-75411856D01*
X136517431Y-75577107D01*
X136307107Y-75787431D01*
X136141856Y-76034747D01*
X136028029Y-76309549D01*
X135970000Y-76601278D01*
X135028900Y-76601278D01*
X135028900Y-76491076D01*
X134927873Y-75983178D01*
X134729701Y-75504749D01*
X134442000Y-75074174D01*
X134075826Y-74708000D01*
X133645251Y-74420299D01*
X133166822Y-74222127D01*
X132658924Y-74121100D01*
X132141076Y-74121100D01*
X131633178Y-74222127D01*
X131154749Y-74420299D01*
X130724174Y-74708000D01*
X130358000Y-75074174D01*
X130070299Y-75504749D01*
X129872127Y-75983178D01*
X129771100Y-76491076D01*
X128808080Y-76491076D01*
X128771971Y-76309549D01*
X128658144Y-76034747D01*
X128614882Y-75970000D01*
X128763345Y-75970000D01*
X129103373Y-75902364D01*
X129423673Y-75769692D01*
X129711935Y-75577081D01*
X129957081Y-75331935D01*
X130149692Y-75043673D01*
X130282364Y-74723373D01*
X130350000Y-74383345D01*
X130350000Y-74036655D01*
X130282364Y-73696627D01*
X130149692Y-73376327D01*
X129957081Y-73088065D01*
X129711935Y-72842919D01*
X129423673Y-72650308D01*
X129103373Y-72517636D01*
X128763345Y-72450000D01*
X128416655Y-72450000D01*
X128076627Y-72517636D01*
X127756327Y-72650308D01*
X127468065Y-72842919D01*
X127222919Y-73088065D01*
X127030308Y-73376327D01*
X126897636Y-73696627D01*
X126830000Y-74036655D01*
X126830000Y-74383345D01*
X126897636Y-74723373D01*
X127030308Y-75043673D01*
X127162638Y-75241719D01*
X126879549Y-75298029D01*
X126604747Y-75411856D01*
X126357431Y-75577107D01*
X126147107Y-75787431D01*
X125981856Y-76034747D01*
X125868029Y-76309549D01*
X125810000Y-76601278D01*
X122188897Y-76601278D01*
X122123475Y-76503368D01*
X121916632Y-76296525D01*
X121742240Y-76180000D01*
X121916632Y-76063475D01*
X122123475Y-75856632D01*
X122285990Y-75613411D01*
X122397932Y-75343158D01*
X122455000Y-75056260D01*
X122455000Y-74763740D01*
X122397932Y-74476842D01*
X122285990Y-74206589D01*
X122123475Y-73963368D01*
X121916632Y-73756525D01*
X121742240Y-73640000D01*
X121916632Y-73523475D01*
X122123475Y-73316632D01*
X122285990Y-73073411D01*
X122397932Y-72803158D01*
X122455000Y-72516260D01*
X122455000Y-72223740D01*
X122397932Y-71936842D01*
X122285990Y-71666589D01*
X122172444Y-71496655D01*
X133180000Y-71496655D01*
X133180000Y-71843345D01*
X133247636Y-72183373D01*
X133380308Y-72503673D01*
X133572919Y-72791935D01*
X133818065Y-73037081D01*
X134106327Y-73229692D01*
X134426627Y-73362364D01*
X134766655Y-73430000D01*
X135113345Y-73430000D01*
X135453373Y-73362364D01*
X135773673Y-73229692D01*
X136061935Y-73037081D01*
X136307081Y-72791935D01*
X136499692Y-72503673D01*
X136632364Y-72183373D01*
X136700000Y-71843345D01*
X136700000Y-71496655D01*
X136632364Y-71156627D01*
X136499692Y-70836327D01*
X136307081Y-70548065D01*
X136061935Y-70302919D01*
X135773673Y-70110308D01*
X135453373Y-69977636D01*
X135113345Y-69910000D01*
X134766655Y-69910000D01*
X134426627Y-69977636D01*
X134106327Y-70110308D01*
X133818065Y-70302919D01*
X133572919Y-70548065D01*
X133380308Y-70836327D01*
X133247636Y-71156627D01*
X133180000Y-71496655D01*
X122172444Y-71496655D01*
X122123475Y-71423368D01*
X121916632Y-71216525D01*
X121742240Y-71100000D01*
X121916632Y-70983475D01*
X122123475Y-70776632D01*
X122285990Y-70533411D01*
X122397932Y-70263158D01*
X122455000Y-69976260D01*
X122455000Y-69683740D01*
X122397932Y-69396842D01*
X122285990Y-69126589D01*
X122123475Y-68883368D01*
X121916632Y-68676525D01*
X121742240Y-68560000D01*
X121916632Y-68443475D01*
X122123475Y-68236632D01*
X122285990Y-67993411D01*
X122397932Y-67723158D01*
X122455000Y-67436260D01*
X122455000Y-67143740D01*
X122397932Y-66856842D01*
X122285990Y-66586589D01*
X122123475Y-66343368D01*
X121916632Y-66136525D01*
X121742240Y-66020000D01*
X121916632Y-65903475D01*
X122123475Y-65696632D01*
X122285990Y-65453411D01*
X122397932Y-65183158D01*
X122455000Y-64896260D01*
X122455000Y-64603740D01*
X122397932Y-64316842D01*
X122285990Y-64046589D01*
X122123475Y-63803368D01*
X121916632Y-63596525D01*
X121742240Y-63480000D01*
X121916632Y-63363475D01*
X122123475Y-63156632D01*
X122285990Y-62913411D01*
X122397932Y-62643158D01*
X122455000Y-62356260D01*
X122455000Y-62063740D01*
X122397932Y-61776842D01*
X122285990Y-61506589D01*
X122123475Y-61263368D01*
X121991620Y-61131513D01*
X122064180Y-61109502D01*
X122174494Y-61050537D01*
X122271185Y-60971185D01*
X122350537Y-60874494D01*
X122409502Y-60764180D01*
X122445812Y-60644482D01*
X122458072Y-60520000D01*
X142341928Y-60520000D01*
X142354188Y-60644482D01*
X142390498Y-60764180D01*
X142449463Y-60874494D01*
X142528815Y-60971185D01*
X142625506Y-61050537D01*
X142735820Y-61109502D01*
X142808380Y-61131513D01*
X142676525Y-61263368D01*
X142514010Y-61506589D01*
X142402068Y-61776842D01*
X142345000Y-62063740D01*
X142345000Y-62356260D01*
X142402068Y-62643158D01*
X142514010Y-62913411D01*
X142676525Y-63156632D01*
X142883368Y-63363475D01*
X143057760Y-63480000D01*
X142883368Y-63596525D01*
X142676525Y-63803368D01*
X142514010Y-64046589D01*
X142402068Y-64316842D01*
X142345000Y-64603740D01*
X142345000Y-64896260D01*
X142402068Y-65183158D01*
X142514010Y-65453411D01*
X142676525Y-65696632D01*
X142883368Y-65903475D01*
X143057760Y-66020000D01*
X142883368Y-66136525D01*
X142676525Y-66343368D01*
X142514010Y-66586589D01*
X142402068Y-66856842D01*
X142345000Y-67143740D01*
X142345000Y-67436260D01*
X142402068Y-67723158D01*
X142514010Y-67993411D01*
X142676525Y-68236632D01*
X142883368Y-68443475D01*
X143057760Y-68560000D01*
X142883368Y-68676525D01*
X142676525Y-68883368D01*
X142514010Y-69126589D01*
X142402068Y-69396842D01*
X142345000Y-69683740D01*
X142345000Y-69976260D01*
X142402068Y-70263158D01*
X142514010Y-70533411D01*
X142676525Y-70776632D01*
X142883368Y-70983475D01*
X143057760Y-71100000D01*
X142883368Y-71216525D01*
X142676525Y-71423368D01*
X142514010Y-71666589D01*
X142402068Y-71936842D01*
X142345000Y-72223740D01*
X142345000Y-72516260D01*
X142402068Y-72803158D01*
X142514010Y-73073411D01*
X142676525Y-73316632D01*
X142883368Y-73523475D01*
X143057760Y-73640000D01*
X142883368Y-73756525D01*
X142676525Y-73963368D01*
X142514010Y-74206589D01*
X142402068Y-74476842D01*
X142345000Y-74763740D01*
X142345000Y-75056260D01*
X142402068Y-75343158D01*
X142514010Y-75613411D01*
X142676525Y-75856632D01*
X142883368Y-76063475D01*
X143057760Y-76180000D01*
X142883368Y-76296525D01*
X142676525Y-76503368D01*
X142514010Y-76746589D01*
X142402068Y-77016842D01*
X142345000Y-77303740D01*
X142345000Y-77596260D01*
X142402068Y-77883158D01*
X142514010Y-78153411D01*
X142676525Y-78396632D01*
X142883368Y-78603475D01*
X143057760Y-78720000D01*
X142883368Y-78836525D01*
X142676525Y-79043368D01*
X142514010Y-79286589D01*
X142402068Y-79556842D01*
X142345000Y-79843740D01*
X142345000Y-80136260D01*
X142402068Y-80423158D01*
X142514010Y-80693411D01*
X142676525Y-80936632D01*
X142883368Y-81143475D01*
X143057760Y-81260000D01*
X142883368Y-81376525D01*
X142676525Y-81583368D01*
X142514010Y-81826589D01*
X142402068Y-82096842D01*
X142345000Y-82383740D01*
X142345000Y-82676260D01*
X142402068Y-82963158D01*
X142514010Y-83233411D01*
X142676525Y-83476632D01*
X142883368Y-83683475D01*
X143057760Y-83800000D01*
X142883368Y-83916525D01*
X142676525Y-84123368D01*
X142514010Y-84366589D01*
X142402068Y-84636842D01*
X142345000Y-84923740D01*
X142345000Y-85216260D01*
X142402068Y-85503158D01*
X142514010Y-85773411D01*
X142676525Y-86016632D01*
X142883368Y-86223475D01*
X143057760Y-86340000D01*
X142883368Y-86456525D01*
X142676525Y-86663368D01*
X142514010Y-86906589D01*
X142402068Y-87176842D01*
X142345000Y-87463740D01*
X142345000Y-87756260D01*
X142402068Y-88043158D01*
X142514010Y-88313411D01*
X142676525Y-88556632D01*
X142883368Y-88763475D01*
X143057760Y-88880000D01*
X142883368Y-88996525D01*
X142676525Y-89203368D01*
X142514010Y-89446589D01*
X142402068Y-89716842D01*
X142345000Y-90003740D01*
X142345000Y-90296260D01*
X142402068Y-90583158D01*
X142514010Y-90853411D01*
X142676525Y-91096632D01*
X142883368Y-91303475D01*
X143057760Y-91420000D01*
X142883368Y-91536525D01*
X142676525Y-91743368D01*
X142514010Y-91986589D01*
X142402068Y-92256842D01*
X142345000Y-92543740D01*
X142345000Y-92836260D01*
X142402068Y-93123158D01*
X142514010Y-93393411D01*
X142676525Y-93636632D01*
X142883368Y-93843475D01*
X143057760Y-93960000D01*
X142883368Y-94076525D01*
X142676525Y-94283368D01*
X142514010Y-94526589D01*
X142402068Y-94796842D01*
X142345000Y-95083740D01*
X142345000Y-95376260D01*
X142402068Y-95663158D01*
X142514010Y-95933411D01*
X142676525Y-96176632D01*
X142883368Y-96383475D01*
X143057760Y-96500000D01*
X142883368Y-96616525D01*
X142676525Y-96823368D01*
X142514010Y-97066589D01*
X142402068Y-97336842D01*
X142345000Y-97623740D01*
X142345000Y-97916260D01*
X142402068Y-98203158D01*
X142514010Y-98473411D01*
X142676525Y-98716632D01*
X142883368Y-98923475D01*
X143057760Y-99040000D01*
X142883368Y-99156525D01*
X142676525Y-99363368D01*
X142514010Y-99606589D01*
X142402068Y-99876842D01*
X142345000Y-100163740D01*
X142345000Y-100456260D01*
X142402068Y-100743158D01*
X142514010Y-101013411D01*
X142676525Y-101256632D01*
X142883368Y-101463475D01*
X143057760Y-101580000D01*
X142883368Y-101696525D01*
X142676525Y-101903368D01*
X142514010Y-102146589D01*
X142402068Y-102416842D01*
X142345000Y-102703740D01*
X142345000Y-102996260D01*
X142402068Y-103283158D01*
X142514010Y-103553411D01*
X142676525Y-103796632D01*
X142883368Y-104003475D01*
X143065534Y-104125195D01*
X142948645Y-104194822D01*
X142732412Y-104389731D01*
X142558359Y-104623080D01*
X142433175Y-104885901D01*
X142388524Y-105033110D01*
X142509845Y-105263000D01*
X143703000Y-105263000D01*
X143703000Y-105243000D01*
X143957000Y-105243000D01*
X143957000Y-105263000D01*
X145150155Y-105263000D01*
X145271476Y-105033110D01*
X145226825Y-104885901D01*
X145101641Y-104623080D01*
X144927588Y-104389731D01*
X144711355Y-104194822D01*
X144594466Y-104125195D01*
X144776632Y-104003475D01*
X144983475Y-103796632D01*
X145145990Y-103553411D01*
X145257932Y-103283158D01*
X145315000Y-102996260D01*
X145315000Y-102798061D01*
X146665000Y-102798061D01*
X146665000Y-103001939D01*
X146704774Y-103201898D01*
X146782795Y-103390256D01*
X146896063Y-103559774D01*
X146940000Y-103603711D01*
X146940001Y-104696288D01*
X146896063Y-104740226D01*
X146782795Y-104909744D01*
X146704774Y-105098102D01*
X146665000Y-105298061D01*
X146665000Y-105501939D01*
X146704774Y-105701898D01*
X146782795Y-105890256D01*
X146896063Y-106059774D01*
X147040226Y-106203937D01*
X147209744Y-106317205D01*
X147398102Y-106395226D01*
X147598061Y-106435000D01*
X147801939Y-106435000D01*
X148001898Y-106395226D01*
X148190256Y-106317205D01*
X148359774Y-106203937D01*
X148503937Y-106059774D01*
X148617205Y-105890256D01*
X148695226Y-105701898D01*
X148735000Y-105501939D01*
X148735000Y-105298061D01*
X148695226Y-105098102D01*
X148617205Y-104909744D01*
X148503937Y-104740226D01*
X148460000Y-104696289D01*
X148460000Y-103603711D01*
X148503937Y-103559774D01*
X148617205Y-103390256D01*
X148695226Y-103201898D01*
X148735000Y-103001939D01*
X148735000Y-102798061D01*
X148695226Y-102598102D01*
X148617205Y-102409744D01*
X148503937Y-102240226D01*
X148359774Y-102096063D01*
X148190256Y-101982795D01*
X148001898Y-101904774D01*
X147801939Y-101865000D01*
X147598061Y-101865000D01*
X147398102Y-101904774D01*
X147209744Y-101982795D01*
X147040226Y-102096063D01*
X146896063Y-102240226D01*
X146782795Y-102409744D01*
X146704774Y-102598102D01*
X146665000Y-102798061D01*
X145315000Y-102798061D01*
X145315000Y-102703740D01*
X145257932Y-102416842D01*
X145145990Y-102146589D01*
X144983475Y-101903368D01*
X144776632Y-101696525D01*
X144602240Y-101580000D01*
X144776632Y-101463475D01*
X144983475Y-101256632D01*
X145145990Y-101013411D01*
X145257932Y-100743158D01*
X145315000Y-100456260D01*
X145315000Y-100163740D01*
X145257932Y-99876842D01*
X145145990Y-99606589D01*
X144983475Y-99363368D01*
X144776632Y-99156525D01*
X144602240Y-99040000D01*
X144776632Y-98923475D01*
X144983475Y-98716632D01*
X145145990Y-98473411D01*
X145257932Y-98203158D01*
X145315000Y-97916260D01*
X145315000Y-97623740D01*
X145257932Y-97336842D01*
X145145990Y-97066589D01*
X144983475Y-96823368D01*
X144776632Y-96616525D01*
X144602240Y-96500000D01*
X144776632Y-96383475D01*
X144918506Y-96241601D01*
X145031856Y-96515253D01*
X145197107Y-96762569D01*
X145407431Y-96972893D01*
X145654747Y-97138144D01*
X145929549Y-97251971D01*
X146221278Y-97310000D01*
X146518722Y-97310000D01*
X146810451Y-97251971D01*
X147085253Y-97138144D01*
X147332569Y-96972893D01*
X147542893Y-96762569D01*
X147708144Y-96515253D01*
X147821971Y-96240451D01*
X147880000Y-95948722D01*
X147880000Y-95651278D01*
X147858080Y-95541076D01*
X148821100Y-95541076D01*
X148821100Y-96058924D01*
X148922127Y-96566822D01*
X149120299Y-97045251D01*
X149408000Y-97475826D01*
X149774174Y-97842000D01*
X150204749Y-98129701D01*
X150683178Y-98327873D01*
X151191076Y-98428900D01*
X151708924Y-98428900D01*
X152216822Y-98327873D01*
X152695251Y-98129701D01*
X153125826Y-97842000D01*
X153492000Y-97475826D01*
X153779701Y-97045251D01*
X153977873Y-96566822D01*
X154078900Y-96058924D01*
X154078900Y-95651278D01*
X155020000Y-95651278D01*
X155020000Y-95948722D01*
X155078029Y-96240451D01*
X155191856Y-96515253D01*
X155357107Y-96762569D01*
X155567431Y-96972893D01*
X155814747Y-97138144D01*
X156089549Y-97251971D01*
X156381278Y-97310000D01*
X156678722Y-97310000D01*
X156970451Y-97251971D01*
X157245253Y-97138144D01*
X157492569Y-96972893D01*
X157702893Y-96762569D01*
X157868144Y-96515253D01*
X157981971Y-96240451D01*
X158040000Y-95948722D01*
X158040000Y-95651278D01*
X157981971Y-95359549D01*
X157868144Y-95084747D01*
X157702893Y-94837431D01*
X157492569Y-94627107D01*
X157245253Y-94461856D01*
X156970451Y-94348029D01*
X156678722Y-94290000D01*
X156381278Y-94290000D01*
X156089549Y-94348029D01*
X155814747Y-94461856D01*
X155567431Y-94627107D01*
X155357107Y-94837431D01*
X155191856Y-95084747D01*
X155078029Y-95359549D01*
X155020000Y-95651278D01*
X154078900Y-95651278D01*
X154078900Y-95541076D01*
X153977873Y-95033178D01*
X153779701Y-94554749D01*
X153492000Y-94124174D01*
X153125826Y-93758000D01*
X152695251Y-93470299D01*
X152216822Y-93272127D01*
X151708924Y-93171100D01*
X151191076Y-93171100D01*
X150683178Y-93272127D01*
X150204749Y-93470299D01*
X149774174Y-93758000D01*
X149408000Y-94124174D01*
X149120299Y-94554749D01*
X148922127Y-95033178D01*
X148821100Y-95541076D01*
X147858080Y-95541076D01*
X147821971Y-95359549D01*
X147708144Y-95084747D01*
X147664882Y-95020000D01*
X147813345Y-95020000D01*
X148153373Y-94952364D01*
X148473673Y-94819692D01*
X148761935Y-94627081D01*
X149007081Y-94381935D01*
X149199692Y-94093673D01*
X149332364Y-93773373D01*
X149400000Y-93433345D01*
X149400000Y-93086655D01*
X149332364Y-92746627D01*
X149199692Y-92426327D01*
X149007081Y-92138065D01*
X148761935Y-91892919D01*
X148473673Y-91700308D01*
X148153373Y-91567636D01*
X147813345Y-91500000D01*
X147466655Y-91500000D01*
X147126627Y-91567636D01*
X146806327Y-91700308D01*
X146518065Y-91892919D01*
X146272919Y-92138065D01*
X146080308Y-92426327D01*
X145947636Y-92746627D01*
X145880000Y-93086655D01*
X145880000Y-93433345D01*
X145947636Y-93773373D01*
X146080308Y-94093673D01*
X146212638Y-94291719D01*
X145929549Y-94348029D01*
X145654747Y-94461856D01*
X145407431Y-94627107D01*
X145252005Y-94782533D01*
X145145990Y-94526589D01*
X144983475Y-94283368D01*
X144776632Y-94076525D01*
X144602240Y-93960000D01*
X144776632Y-93843475D01*
X144983475Y-93636632D01*
X145145990Y-93393411D01*
X145257932Y-93123158D01*
X145315000Y-92836260D01*
X145315000Y-92543740D01*
X145257932Y-92256842D01*
X145145990Y-91986589D01*
X144983475Y-91743368D01*
X144776632Y-91536525D01*
X144602240Y-91420000D01*
X144776632Y-91303475D01*
X144983475Y-91096632D01*
X145145990Y-90853411D01*
X145257932Y-90583158D01*
X145265192Y-90546655D01*
X152230000Y-90546655D01*
X152230000Y-90893345D01*
X152297636Y-91233373D01*
X152430308Y-91553673D01*
X152622919Y-91841935D01*
X152868065Y-92087081D01*
X153156327Y-92279692D01*
X153476627Y-92412364D01*
X153816655Y-92480000D01*
X154163345Y-92480000D01*
X154503373Y-92412364D01*
X154823673Y-92279692D01*
X155111935Y-92087081D01*
X155357081Y-91841935D01*
X155549692Y-91553673D01*
X155682364Y-91233373D01*
X155750000Y-90893345D01*
X155750000Y-90546655D01*
X155682364Y-90206627D01*
X155549692Y-89886327D01*
X155357081Y-89598065D01*
X155111935Y-89352919D01*
X154823673Y-89160308D01*
X154503373Y-89027636D01*
X154163345Y-88960000D01*
X153816655Y-88960000D01*
X153476627Y-89027636D01*
X153156327Y-89160308D01*
X152868065Y-89352919D01*
X152622919Y-89598065D01*
X152430308Y-89886327D01*
X152297636Y-90206627D01*
X152230000Y-90546655D01*
X145265192Y-90546655D01*
X145315000Y-90296260D01*
X145315000Y-90003740D01*
X145257932Y-89716842D01*
X145145990Y-89446589D01*
X144983475Y-89203368D01*
X144776632Y-88996525D01*
X144602240Y-88880000D01*
X144776632Y-88763475D01*
X144983475Y-88556632D01*
X145145990Y-88313411D01*
X145257932Y-88043158D01*
X145315000Y-87756260D01*
X145315000Y-87463740D01*
X145257932Y-87176842D01*
X145145990Y-86906589D01*
X144983475Y-86663368D01*
X144776632Y-86456525D01*
X144602240Y-86340000D01*
X144776632Y-86223475D01*
X144983475Y-86016632D01*
X145145990Y-85773411D01*
X145257932Y-85503158D01*
X145315000Y-85216260D01*
X145315000Y-84923740D01*
X145270110Y-84698061D01*
X146565000Y-84698061D01*
X146565000Y-84901939D01*
X146604774Y-85101898D01*
X146682795Y-85290256D01*
X146796063Y-85459774D01*
X146840000Y-85503711D01*
X146840001Y-87096288D01*
X146796063Y-87140226D01*
X146682795Y-87309744D01*
X146604774Y-87498102D01*
X146565000Y-87698061D01*
X146565000Y-87901939D01*
X146604774Y-88101898D01*
X146682795Y-88290256D01*
X146796063Y-88459774D01*
X146940226Y-88603937D01*
X147109744Y-88717205D01*
X147298102Y-88795226D01*
X147498061Y-88835000D01*
X147701939Y-88835000D01*
X147901898Y-88795226D01*
X148090256Y-88717205D01*
X148259774Y-88603937D01*
X148403937Y-88459774D01*
X148517205Y-88290256D01*
X148595226Y-88101898D01*
X148635000Y-87901939D01*
X148635000Y-87698061D01*
X148595226Y-87498102D01*
X148517205Y-87309744D01*
X148403937Y-87140226D01*
X148360000Y-87096289D01*
X148360000Y-85503711D01*
X148403937Y-85459774D01*
X148517205Y-85290256D01*
X148595226Y-85101898D01*
X148635000Y-84901939D01*
X148635000Y-84698061D01*
X148595226Y-84498102D01*
X148517205Y-84309744D01*
X148403937Y-84140226D01*
X148259774Y-83996063D01*
X148090256Y-83882795D01*
X147901898Y-83804774D01*
X147701939Y-83765000D01*
X147498061Y-83765000D01*
X147298102Y-83804774D01*
X147109744Y-83882795D01*
X146940226Y-83996063D01*
X146796063Y-84140226D01*
X146682795Y-84309744D01*
X146604774Y-84498102D01*
X146565000Y-84698061D01*
X145270110Y-84698061D01*
X145257932Y-84636842D01*
X145145990Y-84366589D01*
X144983475Y-84123368D01*
X144776632Y-83916525D01*
X144602240Y-83800000D01*
X144776632Y-83683475D01*
X144983475Y-83476632D01*
X145145990Y-83233411D01*
X145257932Y-82963158D01*
X145315000Y-82676260D01*
X145315000Y-82383740D01*
X145257932Y-82096842D01*
X145145990Y-81826589D01*
X144983475Y-81583368D01*
X144776632Y-81376525D01*
X144602240Y-81260000D01*
X144776632Y-81143475D01*
X144983475Y-80936632D01*
X145145990Y-80693411D01*
X145257932Y-80423158D01*
X145315000Y-80136260D01*
X145315000Y-79843740D01*
X145257932Y-79556842D01*
X145145990Y-79286589D01*
X144983475Y-79043368D01*
X144776632Y-78836525D01*
X144602240Y-78720000D01*
X144776632Y-78603475D01*
X144983475Y-78396632D01*
X145145990Y-78153411D01*
X145257932Y-77883158D01*
X145276143Y-77791605D01*
X145407431Y-77922893D01*
X145654747Y-78088144D01*
X145929549Y-78201971D01*
X146221278Y-78260000D01*
X146518722Y-78260000D01*
X146810451Y-78201971D01*
X147085253Y-78088144D01*
X147332569Y-77922893D01*
X147542893Y-77712569D01*
X147708144Y-77465253D01*
X147821971Y-77190451D01*
X147880000Y-76898722D01*
X147880000Y-76601278D01*
X147858080Y-76491076D01*
X148821100Y-76491076D01*
X148821100Y-77008924D01*
X148922127Y-77516822D01*
X149120299Y-77995251D01*
X149408000Y-78425826D01*
X149774174Y-78792000D01*
X150204749Y-79079701D01*
X150683178Y-79277873D01*
X151191076Y-79378900D01*
X151708924Y-79378900D01*
X152216822Y-79277873D01*
X152695251Y-79079701D01*
X153125826Y-78792000D01*
X153492000Y-78425826D01*
X153779701Y-77995251D01*
X153977873Y-77516822D01*
X154078900Y-77008924D01*
X154078900Y-76601278D01*
X155020000Y-76601278D01*
X155020000Y-76898722D01*
X155078029Y-77190451D01*
X155191856Y-77465253D01*
X155357107Y-77712569D01*
X155567431Y-77922893D01*
X155814747Y-78088144D01*
X156089549Y-78201971D01*
X156381278Y-78260000D01*
X156678722Y-78260000D01*
X156970451Y-78201971D01*
X157245253Y-78088144D01*
X157492569Y-77922893D01*
X157702893Y-77712569D01*
X157868144Y-77465253D01*
X157981971Y-77190451D01*
X158040000Y-76898722D01*
X158040000Y-76601278D01*
X157981971Y-76309549D01*
X157868144Y-76034747D01*
X157702893Y-75787431D01*
X157492569Y-75577107D01*
X157245253Y-75411856D01*
X156970451Y-75298029D01*
X156678722Y-75240000D01*
X156381278Y-75240000D01*
X156089549Y-75298029D01*
X155814747Y-75411856D01*
X155567431Y-75577107D01*
X155357107Y-75787431D01*
X155191856Y-76034747D01*
X155078029Y-76309549D01*
X155020000Y-76601278D01*
X154078900Y-76601278D01*
X154078900Y-76491076D01*
X153977873Y-75983178D01*
X153779701Y-75504749D01*
X153492000Y-75074174D01*
X153125826Y-74708000D01*
X152695251Y-74420299D01*
X152216822Y-74222127D01*
X151708924Y-74121100D01*
X151191076Y-74121100D01*
X150683178Y-74222127D01*
X150204749Y-74420299D01*
X149774174Y-74708000D01*
X149408000Y-75074174D01*
X149120299Y-75504749D01*
X148922127Y-75983178D01*
X148821100Y-76491076D01*
X147858080Y-76491076D01*
X147821971Y-76309549D01*
X147708144Y-76034747D01*
X147664882Y-75970000D01*
X147813345Y-75970000D01*
X148153373Y-75902364D01*
X148473673Y-75769692D01*
X148761935Y-75577081D01*
X149007081Y-75331935D01*
X149199692Y-75043673D01*
X149332364Y-74723373D01*
X149400000Y-74383345D01*
X149400000Y-74036655D01*
X149332364Y-73696627D01*
X149199692Y-73376327D01*
X149007081Y-73088065D01*
X148761935Y-72842919D01*
X148473673Y-72650308D01*
X148153373Y-72517636D01*
X147813345Y-72450000D01*
X147466655Y-72450000D01*
X147126627Y-72517636D01*
X146806327Y-72650308D01*
X146518065Y-72842919D01*
X146272919Y-73088065D01*
X146080308Y-73376327D01*
X145947636Y-73696627D01*
X145880000Y-74036655D01*
X145880000Y-74383345D01*
X145947636Y-74723373D01*
X146080308Y-75043673D01*
X146212638Y-75241719D01*
X145929549Y-75298029D01*
X145654747Y-75411856D01*
X145407431Y-75577107D01*
X145197107Y-75787431D01*
X145031856Y-76034747D01*
X144918029Y-76309549D01*
X144896730Y-76416623D01*
X144776632Y-76296525D01*
X144602240Y-76180000D01*
X144776632Y-76063475D01*
X144983475Y-75856632D01*
X145145990Y-75613411D01*
X145257932Y-75343158D01*
X145315000Y-75056260D01*
X145315000Y-74763740D01*
X145257932Y-74476842D01*
X145145990Y-74206589D01*
X144983475Y-73963368D01*
X144776632Y-73756525D01*
X144602240Y-73640000D01*
X144776632Y-73523475D01*
X144983475Y-73316632D01*
X145145990Y-73073411D01*
X145257932Y-72803158D01*
X145315000Y-72516260D01*
X145315000Y-72223740D01*
X145257932Y-71936842D01*
X145145990Y-71666589D01*
X145032444Y-71496655D01*
X152230000Y-71496655D01*
X152230000Y-71843345D01*
X152297636Y-72183373D01*
X152430308Y-72503673D01*
X152622919Y-72791935D01*
X152868065Y-73037081D01*
X153156327Y-73229692D01*
X153476627Y-73362364D01*
X153816655Y-73430000D01*
X154163345Y-73430000D01*
X154503373Y-73362364D01*
X154823673Y-73229692D01*
X155111935Y-73037081D01*
X155357081Y-72791935D01*
X155549692Y-72503673D01*
X155682364Y-72183373D01*
X155750000Y-71843345D01*
X155750000Y-71496655D01*
X155682364Y-71156627D01*
X155549692Y-70836327D01*
X155357081Y-70548065D01*
X155111935Y-70302919D01*
X154823673Y-70110308D01*
X154503373Y-69977636D01*
X154163345Y-69910000D01*
X153816655Y-69910000D01*
X153476627Y-69977636D01*
X153156327Y-70110308D01*
X152868065Y-70302919D01*
X152622919Y-70548065D01*
X152430308Y-70836327D01*
X152297636Y-71156627D01*
X152230000Y-71496655D01*
X145032444Y-71496655D01*
X144983475Y-71423368D01*
X144776632Y-71216525D01*
X144602240Y-71100000D01*
X144776632Y-70983475D01*
X144983475Y-70776632D01*
X145145990Y-70533411D01*
X145257932Y-70263158D01*
X145315000Y-69976260D01*
X145315000Y-69683740D01*
X145257932Y-69396842D01*
X145145990Y-69126589D01*
X144983475Y-68883368D01*
X144776632Y-68676525D01*
X144602240Y-68560000D01*
X144776632Y-68443475D01*
X144983475Y-68236632D01*
X145145990Y-67993411D01*
X145257932Y-67723158D01*
X145315000Y-67436260D01*
X145315000Y-67143740D01*
X145257932Y-66856842D01*
X145145990Y-66586589D01*
X144983475Y-66343368D01*
X144776632Y-66136525D01*
X144602240Y-66020000D01*
X144776632Y-65903475D01*
X144983475Y-65696632D01*
X145145990Y-65453411D01*
X145257932Y-65183158D01*
X145315000Y-64896260D01*
X145315000Y-64603740D01*
X145257932Y-64316842D01*
X145145990Y-64046589D01*
X144983475Y-63803368D01*
X144781628Y-63601521D01*
X162105979Y-63601521D01*
X162105979Y-64048479D01*
X162193176Y-64486849D01*
X162364220Y-64899785D01*
X162612536Y-65271417D01*
X162928583Y-65587464D01*
X163300215Y-65835780D01*
X163713151Y-66006824D01*
X164151521Y-66094021D01*
X164598479Y-66094021D01*
X165036849Y-66006824D01*
X165449785Y-65835780D01*
X165821417Y-65587464D01*
X166137464Y-65271417D01*
X166385780Y-64899785D01*
X166556824Y-64486849D01*
X166644021Y-64048479D01*
X166644021Y-63601521D01*
X166556824Y-63163151D01*
X166385780Y-62750215D01*
X166137464Y-62378583D01*
X165821417Y-62062536D01*
X165449785Y-61814220D01*
X165036849Y-61643176D01*
X164598479Y-61555979D01*
X164151521Y-61555979D01*
X163713151Y-61643176D01*
X163300215Y-61814220D01*
X162928583Y-62062536D01*
X162612536Y-62378583D01*
X162364220Y-62750215D01*
X162193176Y-63163151D01*
X162105979Y-63601521D01*
X144781628Y-63601521D01*
X144776632Y-63596525D01*
X144602240Y-63480000D01*
X144776632Y-63363475D01*
X144983475Y-63156632D01*
X145145990Y-62913411D01*
X145257932Y-62643158D01*
X145315000Y-62356260D01*
X145315000Y-62063740D01*
X145257932Y-61776842D01*
X145145990Y-61506589D01*
X144983475Y-61263368D01*
X144851620Y-61131513D01*
X144924180Y-61109502D01*
X145034494Y-61050537D01*
X145131185Y-60971185D01*
X145210537Y-60874494D01*
X145269502Y-60764180D01*
X145305812Y-60644482D01*
X145318072Y-60520000D01*
X145315000Y-59955750D01*
X145156250Y-59797000D01*
X143957000Y-59797000D01*
X143957000Y-59817000D01*
X143703000Y-59817000D01*
X143703000Y-59797000D01*
X142503750Y-59797000D01*
X142345000Y-59955750D01*
X142341928Y-60520000D01*
X122458072Y-60520000D01*
X122458072Y-58820000D01*
X142341928Y-58820000D01*
X142345000Y-59384250D01*
X142503750Y-59543000D01*
X143703000Y-59543000D01*
X143703000Y-58343750D01*
X143957000Y-58343750D01*
X143957000Y-59543000D01*
X145156250Y-59543000D01*
X145315000Y-59384250D01*
X145318072Y-58820000D01*
X145305812Y-58695518D01*
X145269502Y-58575820D01*
X145210537Y-58465506D01*
X145131185Y-58368815D01*
X145034494Y-58289463D01*
X144924180Y-58230498D01*
X144804482Y-58194188D01*
X144680000Y-58181928D01*
X144115750Y-58185000D01*
X143957000Y-58343750D01*
X143703000Y-58343750D01*
X143544250Y-58185000D01*
X142980000Y-58181928D01*
X142855518Y-58194188D01*
X142735820Y-58230498D01*
X142625506Y-58289463D01*
X142528815Y-58368815D01*
X142449463Y-58465506D01*
X142390498Y-58575820D01*
X142354188Y-58695518D01*
X142341928Y-58820000D01*
X122458072Y-58820000D01*
X122445812Y-58695518D01*
X122409502Y-58575820D01*
X122350537Y-58465506D01*
X122271185Y-58368815D01*
X122174494Y-58289463D01*
X122064180Y-58230498D01*
X121944482Y-58194188D01*
X121820000Y-58181928D01*
X120120000Y-58181928D01*
X119995518Y-58194188D01*
X119875820Y-58230498D01*
X119765506Y-58289463D01*
X119668815Y-58368815D01*
X119589463Y-58465506D01*
X119530498Y-58575820D01*
X119494188Y-58695518D01*
X119481928Y-58820000D01*
X119481928Y-60520000D01*
X119494188Y-60644482D01*
X119530498Y-60764180D01*
X119589463Y-60874494D01*
X119668815Y-60971185D01*
X119765506Y-61050537D01*
X119875820Y-61109502D01*
X119948380Y-61131513D01*
X119816525Y-61263368D01*
X119654010Y-61506589D01*
X119542068Y-61776842D01*
X119485000Y-62063740D01*
X119485000Y-62356260D01*
X119542068Y-62643158D01*
X119654010Y-62913411D01*
X119816525Y-63156632D01*
X120023368Y-63363475D01*
X120197760Y-63480000D01*
X120023368Y-63596525D01*
X119816525Y-63803368D01*
X119654010Y-64046589D01*
X119542068Y-64316842D01*
X119485000Y-64603740D01*
X119485000Y-64896260D01*
X119542068Y-65183158D01*
X119654010Y-65453411D01*
X119816525Y-65696632D01*
X120023368Y-65903475D01*
X120197760Y-66020000D01*
X120023368Y-66136525D01*
X119816525Y-66343368D01*
X119654010Y-66586589D01*
X119542068Y-66856842D01*
X119485000Y-67143740D01*
X119485000Y-67436260D01*
X119542068Y-67723158D01*
X119654010Y-67993411D01*
X119816525Y-68236632D01*
X120023368Y-68443475D01*
X120197760Y-68560000D01*
X120023368Y-68676525D01*
X119816525Y-68883368D01*
X119654010Y-69126589D01*
X119542068Y-69396842D01*
X119485000Y-69683740D01*
X119485000Y-69976260D01*
X119542068Y-70263158D01*
X119654010Y-70533411D01*
X119816525Y-70776632D01*
X120023368Y-70983475D01*
X120197760Y-71100000D01*
X120023368Y-71216525D01*
X119816525Y-71423368D01*
X119654010Y-71666589D01*
X119542068Y-71936842D01*
X119485000Y-72223740D01*
X119485000Y-72516260D01*
X119542068Y-72803158D01*
X119654010Y-73073411D01*
X119816525Y-73316632D01*
X120023368Y-73523475D01*
X120197760Y-73640000D01*
X120023368Y-73756525D01*
X119816525Y-73963368D01*
X119654010Y-74206589D01*
X119542068Y-74476842D01*
X119485000Y-74763740D01*
X119485000Y-75056260D01*
X119542068Y-75343158D01*
X119654010Y-75613411D01*
X119816525Y-75856632D01*
X120023368Y-76063475D01*
X120197760Y-76180000D01*
X120023368Y-76296525D01*
X119903270Y-76416623D01*
X119881971Y-76309549D01*
X119768144Y-76034747D01*
X119602893Y-75787431D01*
X119392569Y-75577107D01*
X119145253Y-75411856D01*
X118870451Y-75298029D01*
X118578722Y-75240000D01*
X118281278Y-75240000D01*
X117989549Y-75298029D01*
X117714747Y-75411856D01*
X117467431Y-75577107D01*
X117257107Y-75787431D01*
X117091856Y-76034747D01*
X116978029Y-76309549D01*
X116920000Y-76601278D01*
X115978900Y-76601278D01*
X115978900Y-76491076D01*
X115877873Y-75983178D01*
X115679701Y-75504749D01*
X115392000Y-75074174D01*
X115025826Y-74708000D01*
X114595251Y-74420299D01*
X114116822Y-74222127D01*
X113608924Y-74121100D01*
X113091076Y-74121100D01*
X112583178Y-74222127D01*
X112104749Y-74420299D01*
X111674174Y-74708000D01*
X111308000Y-75074174D01*
X111020299Y-75504749D01*
X110822127Y-75983178D01*
X110721100Y-76491076D01*
X109758080Y-76491076D01*
X109721971Y-76309549D01*
X109608144Y-76034747D01*
X109564882Y-75970000D01*
X109713345Y-75970000D01*
X110053373Y-75902364D01*
X110373673Y-75769692D01*
X110661935Y-75577081D01*
X110907081Y-75331935D01*
X111099692Y-75043673D01*
X111232364Y-74723373D01*
X111300000Y-74383345D01*
X111300000Y-74036655D01*
X111232364Y-73696627D01*
X111099692Y-73376327D01*
X110907081Y-73088065D01*
X110661935Y-72842919D01*
X110373673Y-72650308D01*
X110053373Y-72517636D01*
X109713345Y-72450000D01*
X109366655Y-72450000D01*
X109026627Y-72517636D01*
X108706327Y-72650308D01*
X108418065Y-72842919D01*
X108172919Y-73088065D01*
X107980308Y-73376327D01*
X107847636Y-73696627D01*
X107780000Y-74036655D01*
X107780000Y-74383345D01*
X107847636Y-74723373D01*
X107980308Y-75043673D01*
X108112638Y-75241719D01*
X107829549Y-75298029D01*
X107554747Y-75411856D01*
X107307431Y-75577107D01*
X107097107Y-75787431D01*
X106931856Y-76034747D01*
X106818029Y-76309549D01*
X106760000Y-76601278D01*
X94485000Y-76601278D01*
X94485000Y-71496655D01*
X114130000Y-71496655D01*
X114130000Y-71843345D01*
X114197636Y-72183373D01*
X114330308Y-72503673D01*
X114522919Y-72791935D01*
X114768065Y-73037081D01*
X115056327Y-73229692D01*
X115376627Y-73362364D01*
X115716655Y-73430000D01*
X116063345Y-73430000D01*
X116403373Y-73362364D01*
X116723673Y-73229692D01*
X117011935Y-73037081D01*
X117257081Y-72791935D01*
X117449692Y-72503673D01*
X117582364Y-72183373D01*
X117650000Y-71843345D01*
X117650000Y-71496655D01*
X117582364Y-71156627D01*
X117449692Y-70836327D01*
X117257081Y-70548065D01*
X117011935Y-70302919D01*
X116723673Y-70110308D01*
X116403373Y-69977636D01*
X116063345Y-69910000D01*
X115716655Y-69910000D01*
X115376627Y-69977636D01*
X115056327Y-70110308D01*
X114768065Y-70302919D01*
X114522919Y-70548065D01*
X114330308Y-70836327D01*
X114197636Y-71156627D01*
X114130000Y-71496655D01*
X94485000Y-71496655D01*
X94485000Y-63601521D01*
X98155979Y-63601521D01*
X98155979Y-64048479D01*
X98243176Y-64486849D01*
X98414220Y-64899785D01*
X98662536Y-65271417D01*
X98978583Y-65587464D01*
X99350215Y-65835780D01*
X99763151Y-66006824D01*
X100201521Y-66094021D01*
X100648479Y-66094021D01*
X101086849Y-66006824D01*
X101499785Y-65835780D01*
X101871417Y-65587464D01*
X102187464Y-65271417D01*
X102435780Y-64899785D01*
X102606824Y-64486849D01*
X102694021Y-64048479D01*
X102694021Y-63601521D01*
X102606824Y-63163151D01*
X102435780Y-62750215D01*
X102187464Y-62378583D01*
X101871417Y-62062536D01*
X101499785Y-61814220D01*
X101086849Y-61643176D01*
X100648479Y-61555979D01*
X100201521Y-61555979D01*
X99763151Y-61643176D01*
X99350215Y-61814220D01*
X98978583Y-62062536D01*
X98662536Y-62378583D01*
X98414220Y-62750215D01*
X98243176Y-63163151D01*
X98155979Y-63601521D01*
X94485000Y-63601521D01*
X94485000Y-57885000D01*
X170315000Y-57885000D01*
X170315001Y-133715000D01*
%TD*%
M02*
